G04 Layer_Color=65535*
%FSLAX25Y25*%
%MOIN*%
G70*
G01*
G75*
%ADD20C,0.01000*%
%ADD21C,0.00984*%
%ADD22C,0.01200*%
%ADD23C,0.00787*%
D20*
X99364Y287244D02*
G03*
X99364Y287244I-2828J0D01*
G01*
X253451Y263815D02*
G03*
X247000Y263567I-3451J5752D01*
G01*
X53460Y264108D02*
G03*
X53213Y270559I5752J3451D01*
G01*
X247000Y263567D02*
X253204D01*
X247000D02*
X253204D01*
X247000D02*
X253204D01*
X247000D02*
X253204D01*
X235799Y413543D02*
X303268D01*
Y373858D02*
Y413543D01*
X235799Y373858D02*
X303268D01*
X235799D02*
Y413543D01*
X53213Y264355D02*
Y270559D01*
Y264355D02*
Y270559D01*
Y264355D02*
Y270559D01*
Y264355D02*
Y270559D01*
X236303Y417362D02*
Y423360D01*
X239302D01*
X240302Y422361D01*
Y420361D01*
X239302Y419361D01*
X236303D01*
X242301Y423360D02*
Y417362D01*
X244301Y419361D01*
X246300Y417362D01*
Y423360D01*
X248299Y417362D02*
Y423360D01*
X251298D01*
X252298Y422361D01*
Y420361D01*
X251298Y419361D01*
X248299D01*
X250299D02*
X252298Y417362D01*
X85709Y258701D02*
Y264699D01*
X88708D01*
X89707Y263699D01*
Y261700D01*
X88708Y260700D01*
X85709D01*
X87708D02*
X89707Y258701D01*
X91707D02*
X93706D01*
X92706D01*
Y264699D01*
X91707Y263699D01*
X55503Y450162D02*
Y454161D01*
X57503Y456160D01*
X59502Y454161D01*
Y450162D01*
Y453161D01*
X55503D01*
X61501Y456160D02*
Y450162D01*
X64500D01*
X65500Y451162D01*
Y452162D01*
Y453161D01*
X64500Y454161D01*
X61501D01*
X68499D02*
X70498D01*
X71498Y453161D01*
Y450162D01*
X68499D01*
X67499Y451162D01*
X68499Y452162D01*
X71498D01*
X73497Y450162D02*
X75497D01*
X74497D01*
Y454161D01*
X73497D01*
X78496Y450162D02*
X81495D01*
X82494Y451162D01*
X81495Y452162D01*
X79495D01*
X78496Y453161D01*
X79495Y454161D01*
X82494D01*
X84494Y450162D02*
X87493D01*
X88493Y451162D01*
X87493Y452162D01*
X85493D01*
X84494Y453161D01*
X85493Y454161D01*
X88493D01*
X93491Y450162D02*
X91492D01*
X90492Y451162D01*
Y453161D01*
X91492Y454161D01*
X93491D01*
X94490Y453161D01*
Y452162D01*
X90492D01*
X96490Y454161D02*
Y451162D01*
X97490Y450162D01*
X100489D01*
Y454161D01*
X102488D02*
Y450162D01*
Y452162D01*
X103488Y453161D01*
X104487Y454161D01*
X105487D01*
X57087Y281195D02*
Y275197D01*
X60086D01*
X61085Y276197D01*
Y280195D01*
X60086Y281195D01*
X57087D01*
X63085Y275197D02*
Y281195D01*
X66084D01*
X67083Y280195D01*
Y278196D01*
X66084Y277196D01*
X63085D01*
X65084D02*
X67083Y275197D01*
X69083Y281195D02*
X71082D01*
X70082D01*
Y275197D01*
X69083D01*
X71082D01*
X74081Y281195D02*
Y277196D01*
X76081Y275197D01*
X78080Y277196D01*
Y281195D01*
X84078D02*
X80079D01*
Y275197D01*
X84078D01*
X80079Y278196D02*
X82078D01*
X86077Y275197D02*
Y281195D01*
X89076D01*
X90076Y280195D01*
Y278196D01*
X89076Y277196D01*
X86077D01*
X88077D02*
X90076Y275197D01*
X116602Y459560D02*
X112603D01*
Y453562D01*
X116602D01*
X112603Y456561D02*
X114602D01*
X122600Y458561D02*
X121600Y459560D01*
X119601D01*
X118601Y458561D01*
Y457561D01*
X119601Y456561D01*
X121600D01*
X122600Y455561D01*
Y454562D01*
X121600Y453562D01*
X119601D01*
X118601Y454562D01*
X124599Y453562D02*
Y459560D01*
X127598D01*
X128598Y458561D01*
Y456561D01*
X127598Y455561D01*
X124599D01*
X130597Y458561D02*
X131597Y459560D01*
X133596D01*
X134596Y458561D01*
Y457561D01*
X133596Y456561D01*
X132597D01*
X133596D01*
X134596Y455561D01*
Y454562D01*
X133596Y453562D01*
X131597D01*
X130597Y454562D01*
X140594Y453562D02*
X136595D01*
X140594Y457561D01*
Y458561D01*
X139594Y459560D01*
X137595D01*
X136595Y458561D01*
X245158Y323661D02*
X239159D01*
Y326660D01*
X240159Y327660D01*
X242158D01*
X243158Y326660D01*
Y323661D01*
Y325661D02*
X245158Y327660D01*
X240159Y329660D02*
X239159Y330659D01*
Y332659D01*
X240159Y333658D01*
X241159D01*
X242158Y332659D01*
Y331659D01*
Y332659D01*
X243158Y333658D01*
X244158D01*
X245158Y332659D01*
Y330659D01*
X244158Y329660D01*
X281573Y342182D02*
X282573Y343182D01*
Y345181D01*
X281573Y346181D01*
X280574D01*
X279574Y345181D01*
Y343182D01*
X278574Y342182D01*
X277574D01*
X276575Y343182D01*
Y345181D01*
X277574Y346181D01*
X282573Y340183D02*
X276575D01*
X278574Y338184D01*
X276575Y336184D01*
X282573D01*
X276575Y328187D02*
X282573D01*
Y325188D01*
X281573Y324188D01*
X279574D01*
X278574Y325188D01*
Y328187D01*
Y326188D02*
X276575Y324188D01*
X282573Y318190D02*
Y322189D01*
X276575D01*
Y318190D01*
X279574Y322189D02*
Y320189D01*
X281573Y312192D02*
X282573Y313192D01*
Y315191D01*
X281573Y316191D01*
X280574D01*
X279574Y315191D01*
Y313192D01*
X278574Y312192D01*
X277574D01*
X276575Y313192D01*
Y315191D01*
X277574Y316191D01*
X282573Y306194D02*
Y310193D01*
X276575D01*
Y306194D01*
X279574Y310193D02*
Y308193D01*
X282573Y304195D02*
Y300196D01*
Y302195D01*
X276575D01*
X20671Y386715D02*
X19671Y385716D01*
Y383716D01*
X20671Y382716D01*
X21671D01*
X22670Y383716D01*
Y385716D01*
X23670Y386715D01*
X24670D01*
X25669Y385716D01*
Y383716D01*
X24670Y382716D01*
X19671Y388715D02*
X25669D01*
X23670Y390714D01*
X25669Y392713D01*
X19671D01*
X25669Y400711D02*
X21671D01*
X19671Y402710D01*
X21671Y404709D01*
X25669D01*
X22670D01*
Y400711D01*
X19671Y406709D02*
X25669D01*
Y410708D01*
X19671Y412707D02*
Y414706D01*
Y413706D01*
X25669D01*
Y412707D01*
Y414706D01*
Y417705D02*
X19671D01*
X21671Y419705D01*
X19671Y421704D01*
X25669D01*
X241339Y259148D02*
Y253150D01*
X245337D01*
X247337Y259148D02*
Y253150D01*
X250336D01*
X251335Y254149D01*
Y258148D01*
X250336Y259148D01*
X247337D01*
X257333Y253150D02*
X253335D01*
X257333Y257148D01*
Y258148D01*
X256334Y259148D01*
X254334D01*
X253335Y258148D01*
X50000Y260998D02*
Y255000D01*
X53999D01*
X55998Y260998D02*
Y255000D01*
X58997D01*
X59997Y256000D01*
Y259998D01*
X58997Y260998D01*
X55998D01*
X61996Y255000D02*
X63995D01*
X62996D01*
Y260998D01*
X61996Y259998D01*
X268172Y348306D02*
X267172Y349305D01*
X265173D01*
X264173Y348306D01*
Y344307D01*
X265173Y343307D01*
X267172D01*
X268172Y344307D01*
X270171Y348306D02*
X271171Y349305D01*
X273170D01*
X274170Y348306D01*
Y347306D01*
X273170Y346306D01*
X272171D01*
X273170D01*
X274170Y345306D01*
Y344307D01*
X273170Y343307D01*
X271171D01*
X270171Y344307D01*
X14576Y310486D02*
X8578D01*
X10577Y312485D01*
X8578Y314484D01*
X14576D01*
Y317483D02*
Y319483D01*
X13576Y320482D01*
X11577D01*
X10577Y319483D01*
Y317483D01*
X11577Y316484D01*
X13576D01*
X14576Y317483D01*
X9578Y323481D02*
X10577D01*
Y322482D01*
Y324481D01*
Y323481D01*
X13576D01*
X14576Y324481D01*
Y330479D02*
Y328480D01*
X13576Y327480D01*
X11577D01*
X10577Y328480D01*
Y330479D01*
X11577Y331479D01*
X12577D01*
Y327480D01*
X10577Y333478D02*
X13576D01*
X14576Y334478D01*
Y337477D01*
X10577D01*
Y339476D02*
X14576D01*
X12577D01*
X11577Y340476D01*
X10577Y341476D01*
Y342475D01*
X253031Y303976D02*
Y309974D01*
X256031D01*
X257030Y308975D01*
Y306975D01*
X256031Y305976D01*
X253031D01*
X255031D02*
X257030Y303976D01*
X263028D02*
X259030D01*
X263028Y307975D01*
Y308975D01*
X262029Y309974D01*
X260029D01*
X259030Y308975D01*
D21*
X17669Y301913D02*
X33669D01*
X17669D02*
Y343913D01*
X33669D01*
Y301913D02*
Y343913D01*
X41535Y362244D02*
X101535D01*
X41535Y282244D02*
Y362244D01*
Y282244D02*
X101535D01*
Y362244D01*
X55000Y365827D02*
X98307D01*
X55000D02*
Y446693D01*
X98307D01*
Y365827D02*
Y446693D01*
X112126Y450118D02*
X232126D01*
Y256118D02*
Y450118D01*
X112126Y256118D02*
X232126D01*
X112126D02*
Y450118D01*
D22*
X79409Y264759D02*
Y267759D01*
Y264759D02*
X99410D01*
Y270759D01*
X79409D02*
X99410D01*
X79409Y267759D02*
Y270759D01*
X99410Y267759D02*
X100310D01*
X78509D02*
X79409D01*
X249879Y317362D02*
X252879D01*
Y337362D01*
X246879D02*
X252879D01*
X246879Y317362D02*
Y337362D01*
Y317362D02*
X249879D01*
Y337362D02*
Y338262D01*
Y316462D02*
Y317362D01*
X259173Y360118D02*
X279173D01*
X259173Y350118D02*
Y360118D01*
Y350118D02*
X279173D01*
Y360118D01*
X263268Y299839D02*
Y302839D01*
X243268D02*
X263268D01*
X243268Y296839D02*
Y302839D01*
Y296839D02*
X263268D01*
Y299839D01*
X242368D02*
X243268D01*
X263268D02*
X264168D01*
D23*
X27559Y392323D02*
X37559D01*
X27559D02*
Y412323D01*
X37559D01*
Y392323D02*
Y412323D01*
X266653Y316102D02*
X276654D01*
X266653D02*
Y336102D01*
X276654D01*
Y316102D02*
Y336102D01*
M02*
