G04 Layer_Physical_Order=2*
G04 Layer_Color=16711680*
%FSLAX25Y25*%
%MOIN*%
G70*
G01*
G75*
%ADD10C,0.06201*%
%ADD11C,0.06200*%
%ADD12R,0.05906X0.05906*%
%ADD13C,0.05906*%
%ADD14O,0.08000X0.05000*%
%ADD15C,0.23622*%
%ADD16C,0.15748*%
%ADD17R,0.06201X0.06201*%
%ADD18O,0.05000X0.08000*%
%ADD19C,0.03200*%
G36*
X288583Y250787D02*
X287795Y250000D01*
X3150D01*
Y461024D01*
X288583D01*
Y250787D01*
D02*
G37*
%LPC*%
G36*
X120926Y294218D02*
X118026D01*
Y291318D01*
X120926D01*
Y294218D01*
D02*
G37*
G36*
X126226D02*
X123326D01*
Y291318D01*
X126226D01*
Y294218D01*
D02*
G37*
G36*
X220926Y288918D02*
X218026D01*
Y286018D01*
X220926D01*
Y288918D01*
D02*
G37*
G36*
X226226D02*
X223326D01*
Y286018D01*
X226226D01*
Y288918D01*
D02*
G37*
G36*
X220926Y294218D02*
X218026D01*
Y291318D01*
X220926D01*
Y294218D01*
D02*
G37*
G36*
X46535Y352389D02*
X45204Y352213D01*
X43963Y351699D01*
X42898Y350882D01*
X42893Y350875D01*
X24016D01*
X23076Y350751D01*
X22200Y350389D01*
X21448Y349812D01*
X11999Y340363D01*
X11422Y339611D01*
X11060Y338735D01*
X10936Y337795D01*
Y297638D01*
X11060Y296698D01*
X11422Y295822D01*
X11999Y295070D01*
X26430Y280639D01*
X26119Y280244D01*
X25069Y280887D01*
X23061Y281719D01*
X20947Y282226D01*
X18779Y282397D01*
X16612Y282226D01*
X14499Y281719D01*
X12490Y280887D01*
X10637Y279751D01*
X8984Y278339D01*
X7572Y276686D01*
X6436Y274833D01*
X5604Y272824D01*
X5096Y270710D01*
X4926Y268543D01*
X5096Y266376D01*
X5604Y264262D01*
X6436Y262254D01*
X7572Y260400D01*
X8984Y258747D01*
X10637Y257335D01*
X12490Y256200D01*
X14499Y255368D01*
X16612Y254860D01*
X18779Y254690D01*
X20947Y254860D01*
X23061Y255368D01*
X25069Y256200D01*
X26923Y257335D01*
X28576Y258747D01*
X29987Y260400D01*
X31123Y262254D01*
X31955Y264262D01*
X32463Y266376D01*
X32633Y268543D01*
X32463Y270710D01*
X31955Y272824D01*
X31123Y274833D01*
X30480Y275883D01*
X30875Y276194D01*
X53338Y253732D01*
X54090Y253155D01*
X54966Y252792D01*
X55905Y252668D01*
X198307D01*
X199247Y252792D01*
X200123Y253155D01*
X200875Y253732D01*
X222118Y274975D01*
X222126Y274974D01*
X223458Y275149D01*
X224698Y275663D01*
X225764Y276481D01*
X225769Y276487D01*
X234055D01*
X234995Y276611D01*
X235871Y276974D01*
X236623Y277551D01*
X252446Y293374D01*
X253023Y294126D01*
X253386Y295002D01*
X253510Y295942D01*
X253510Y295942D01*
Y308720D01*
X253516Y308725D01*
X254334Y309790D01*
X254848Y311031D01*
X255023Y312362D01*
X254848Y313694D01*
X254334Y314934D01*
X253516Y316000D01*
X252451Y316817D01*
X251210Y317331D01*
X249879Y317506D01*
X248547Y317331D01*
X247307Y316817D01*
X246241Y316000D01*
X245424Y314934D01*
X244910Y313694D01*
X244735Y312362D01*
X244910Y311031D01*
X245424Y309790D01*
X246241Y308725D01*
X246248Y308720D01*
Y297446D01*
X232551Y283749D01*
X225769D01*
X225764Y283756D01*
X224698Y284573D01*
X223458Y285087D01*
X222126Y285262D01*
X220795Y285087D01*
X219554Y284573D01*
X218488Y283756D01*
X217671Y282690D01*
X217157Y281450D01*
X216982Y280118D01*
X216983Y280110D01*
X196803Y259930D01*
X108040D01*
Y264117D01*
X108047Y264122D01*
X108864Y265187D01*
X109378Y266428D01*
X109554Y267759D01*
X109378Y269090D01*
X108864Y270331D01*
X108047Y271396D01*
X106981Y272214D01*
X105741Y272728D01*
X104409Y272903D01*
X103078Y272728D01*
X101838Y272214D01*
X100772Y271396D01*
X99955Y270331D01*
X99441Y269090D01*
X99265Y267759D01*
X99441Y266428D01*
X99955Y265187D01*
X100772Y264122D01*
X100778Y264117D01*
Y259930D01*
X57410D01*
X55153Y262187D01*
X55318Y262729D01*
X55978Y263002D01*
X56709Y263563D01*
X57270Y264294D01*
X57622Y265145D01*
X57743Y266059D01*
Y266359D01*
X54213D01*
Y267559D01*
X53013D01*
Y272350D01*
X52447Y272116D01*
X51716Y271555D01*
X51155Y270824D01*
X50803Y269973D01*
X50682Y269059D01*
Y267311D01*
X50221Y267119D01*
X18198Y299142D01*
Y336291D01*
X20082Y338175D01*
X20530Y337954D01*
X20525Y337913D01*
X20700Y336582D01*
X21214Y335341D01*
X22032Y334276D01*
X23097Y333458D01*
X23759Y333184D01*
Y332643D01*
X23097Y332369D01*
X22032Y331551D01*
X21214Y330486D01*
X20700Y329245D01*
X20525Y327913D01*
X20700Y326582D01*
X21214Y325341D01*
X22032Y324276D01*
X23097Y323458D01*
X23759Y323184D01*
Y322643D01*
X23097Y322369D01*
X22032Y321551D01*
X21214Y320486D01*
X20700Y319245D01*
X20525Y317913D01*
X20700Y316582D01*
X21214Y315341D01*
X22032Y314276D01*
X23097Y313458D01*
X23759Y313184D01*
Y312643D01*
X23097Y312369D01*
X22032Y311551D01*
X21214Y310486D01*
X20700Y309245D01*
X20525Y307913D01*
X20700Y306582D01*
X21214Y305341D01*
X22032Y304276D01*
X23097Y303458D01*
X24338Y302944D01*
X25669Y302769D01*
X27001Y302944D01*
X28242Y303458D01*
X28443Y303613D01*
X42893D01*
X42898Y303606D01*
X43963Y302789D01*
X45204Y302275D01*
X46535Y302100D01*
X47867Y302275D01*
X49108Y302789D01*
X50173Y303606D01*
X50991Y304672D01*
X51504Y305913D01*
X51680Y307244D01*
X51504Y308576D01*
X50991Y309816D01*
X50173Y310882D01*
X49108Y311699D01*
X48446Y311974D01*
Y312515D01*
X49108Y312789D01*
X50173Y313606D01*
X50991Y314672D01*
X51504Y315913D01*
X51680Y317244D01*
X51504Y318576D01*
X50991Y319816D01*
X50173Y320882D01*
X49108Y321699D01*
X48446Y321973D01*
Y322515D01*
X49108Y322789D01*
X50173Y323606D01*
X50991Y324672D01*
X51504Y325913D01*
X51680Y327244D01*
X51504Y328576D01*
X50991Y329816D01*
X50173Y330882D01*
X49108Y331699D01*
X48446Y331974D01*
Y332515D01*
X49108Y332789D01*
X50173Y333606D01*
X50991Y334672D01*
X51504Y335913D01*
X51680Y337244D01*
X51504Y338576D01*
X50991Y339816D01*
X50173Y340882D01*
X49108Y341699D01*
X48446Y341973D01*
Y342515D01*
X49108Y342789D01*
X50173Y343606D01*
X50991Y344672D01*
X51504Y345913D01*
X51680Y347244D01*
X51504Y348576D01*
X50991Y349816D01*
X50173Y350882D01*
X49108Y351699D01*
X47867Y352213D01*
X46535Y352389D01*
D02*
G37*
G36*
X270454Y319902D02*
X267872D01*
X268201Y319109D01*
X268834Y318283D01*
X269660Y317650D01*
X270454Y317321D01*
Y319902D01*
D02*
G37*
G36*
X226226Y294218D02*
X223326D01*
Y291318D01*
X226226D01*
Y294218D01*
D02*
G37*
G36*
X45335Y301185D02*
X44467Y300826D01*
X43611Y300168D01*
X42954Y299312D01*
X42594Y298444D01*
X45335D01*
Y301185D01*
D02*
G37*
G36*
X126226Y288918D02*
X123326D01*
Y286018D01*
X126226D01*
Y288918D01*
D02*
G37*
G36*
X254791Y263367D02*
X251200D01*
Y261037D01*
X251500D01*
X252414Y261157D01*
X253265Y261510D01*
X253996Y262071D01*
X254557Y262802D01*
X254791Y263367D01*
D02*
G37*
G36*
X64213Y273598D02*
X63038Y273443D01*
X61943Y272990D01*
X61003Y272269D01*
X60282Y271328D01*
X59828Y270234D01*
X59674Y269059D01*
Y266059D01*
X59828Y264884D01*
X60282Y263790D01*
X61003Y262850D01*
X61943Y262128D01*
X63038Y261675D01*
X64213Y261520D01*
X65387Y261675D01*
X66482Y262128D01*
X67422Y262850D01*
X68143Y263790D01*
X68283Y264128D01*
X70767D01*
X70772Y264122D01*
X71838Y263304D01*
X73078Y262790D01*
X74410Y262615D01*
X75741Y262790D01*
X76981Y263304D01*
X78047Y264122D01*
X78864Y265187D01*
X79378Y266428D01*
X79554Y267759D01*
X79378Y269090D01*
X78864Y270331D01*
X78047Y271396D01*
X76981Y272214D01*
X75741Y272728D01*
X74410Y272903D01*
X73078Y272728D01*
X71838Y272214D01*
X70772Y271396D01*
X70767Y271390D01*
X68096D01*
X67422Y272269D01*
X66482Y272990D01*
X65387Y273443D01*
X64213Y273598D01*
D02*
G37*
G36*
X273701Y281413D02*
X271534Y281242D01*
X269420Y280735D01*
X267411Y279903D01*
X265558Y278767D01*
X263905Y277355D01*
X262493Y275702D01*
X261357Y273849D01*
X260525Y271840D01*
X260018Y269726D01*
X259847Y267559D01*
X260018Y265392D01*
X260525Y263278D01*
X261357Y261270D01*
X262493Y259416D01*
X263905Y257763D01*
X265558Y256351D01*
X267411Y255215D01*
X269420Y254383D01*
X271534Y253876D01*
X273701Y253705D01*
X275868Y253876D01*
X277982Y254383D01*
X279990Y255215D01*
X281844Y256351D01*
X283497Y257763D01*
X284909Y259416D01*
X286045Y261270D01*
X286877Y263278D01*
X287384Y265392D01*
X287555Y267559D01*
X287384Y269726D01*
X286877Y271840D01*
X286045Y273849D01*
X284909Y275702D01*
X283497Y277355D01*
X281844Y278767D01*
X279990Y279903D01*
X277982Y280735D01*
X275868Y281242D01*
X273701Y281413D01*
D02*
G37*
G36*
X248800Y263367D02*
X245209D01*
X245443Y262802D01*
X246004Y262071D01*
X246735Y261510D01*
X247586Y261157D01*
X248500Y261037D01*
X248800D01*
Y263367D01*
D02*
G37*
G36*
Y268097D02*
X248500D01*
X247586Y267977D01*
X246735Y267624D01*
X246004Y267063D01*
X245443Y266332D01*
X245209Y265767D01*
X248800D01*
Y268097D01*
D02*
G37*
G36*
X268268Y304983D02*
X266936Y304808D01*
X265696Y304294D01*
X264630Y303477D01*
X263813Y302411D01*
X263299Y301171D01*
X263124Y299839D01*
X263299Y298508D01*
X263813Y297267D01*
X264630Y296202D01*
X264637Y296197D01*
Y294339D01*
X249404Y279106D01*
X248500D01*
X247325Y278951D01*
X246231Y278498D01*
X245291Y277776D01*
X244569Y276836D01*
X244116Y275742D01*
X243961Y274567D01*
X244116Y273392D01*
X244569Y272298D01*
X245291Y271357D01*
X246231Y270636D01*
X247325Y270183D01*
X248500Y270028D01*
X251500D01*
X252675Y270183D01*
X253769Y270636D01*
X254709Y271357D01*
X255431Y272298D01*
X255884Y273392D01*
X256039Y274567D01*
X255934Y275365D01*
X270835Y290267D01*
X271412Y291019D01*
X271775Y291895D01*
X271899Y292835D01*
X271899Y292835D01*
Y296197D01*
X271905Y296202D01*
X272723Y297267D01*
X273236Y298508D01*
X273412Y299839D01*
X273236Y301171D01*
X272723Y302411D01*
X271905Y303477D01*
X270840Y304294D01*
X269599Y304808D01*
X268268Y304983D01*
D02*
G37*
G36*
X120926Y288918D02*
X118026D01*
Y286018D01*
X120926D01*
Y288918D01*
D02*
G37*
G36*
X251500Y268097D02*
X251200D01*
Y265767D01*
X254791D01*
X254557Y266332D01*
X253996Y267063D01*
X253265Y267624D01*
X252414Y267977D01*
X251500Y268097D01*
D02*
G37*
G36*
X55413Y272350D02*
Y268759D01*
X57743D01*
Y269059D01*
X57622Y269973D01*
X57270Y270824D01*
X56709Y271555D01*
X55978Y272116D01*
X55413Y272350D01*
D02*
G37*
G36*
X275435Y319902D02*
X272853D01*
Y317321D01*
X273647Y317650D01*
X274473Y318283D01*
X275106Y319109D01*
X275435Y319902D01*
D02*
G37*
G36*
X272304Y385060D02*
X264705D01*
X264758Y384520D01*
X265266Y382847D01*
X266090Y381306D01*
X267199Y379955D01*
X268550Y378846D01*
X270092Y378022D01*
X271764Y377514D01*
X272304Y377461D01*
Y385060D01*
D02*
G37*
G36*
X282303D02*
X274704D01*
Y377461D01*
X275243Y377514D01*
X276916Y378022D01*
X278458Y378846D01*
X279809Y379955D01*
X280918Y381306D01*
X281742Y382847D01*
X282249Y384520D01*
X282303Y385060D01*
D02*
G37*
G36*
X80414Y379768D02*
X79546Y379408D01*
X78690Y378751D01*
X78032Y377895D01*
X77673Y377027D01*
X80414D01*
Y379768D01*
D02*
G37*
G36*
X47735Y361185D02*
Y358444D01*
X50477D01*
X50117Y359312D01*
X49460Y360169D01*
X48603Y360826D01*
X47735Y361185D01*
D02*
G37*
G36*
X122126Y425262D02*
X120794Y425087D01*
X119554Y424573D01*
X118488Y423756D01*
X117671Y422690D01*
X117157Y421450D01*
X116982Y420118D01*
X117157Y418787D01*
X117671Y417546D01*
X118488Y416480D01*
X119554Y415663D01*
X120216Y415389D01*
Y414848D01*
X119554Y414573D01*
X118488Y413756D01*
X117671Y412690D01*
X117157Y411450D01*
X116982Y410118D01*
X117157Y408787D01*
X117671Y407546D01*
X118488Y406481D01*
X119554Y405663D01*
X120216Y405389D01*
Y404847D01*
X119554Y404573D01*
X118488Y403756D01*
X117671Y402690D01*
X117157Y401450D01*
X116982Y400118D01*
X117157Y398787D01*
X117671Y397546D01*
X118488Y396480D01*
X119554Y395663D01*
X120216Y395389D01*
Y394847D01*
X119554Y394573D01*
X118488Y393756D01*
X117671Y392690D01*
X117157Y391450D01*
X116982Y390118D01*
X117157Y388787D01*
X117671Y387546D01*
X118488Y386480D01*
X119554Y385663D01*
X120216Y385389D01*
Y384847D01*
X119554Y384573D01*
X118488Y383756D01*
X117671Y382690D01*
X117157Y381450D01*
X116982Y380118D01*
X117157Y378787D01*
X117671Y377546D01*
X118488Y376481D01*
X119554Y375663D01*
X120216Y375389D01*
Y374848D01*
X119554Y374573D01*
X118488Y373756D01*
X117671Y372690D01*
X117157Y371450D01*
X116982Y370118D01*
X117157Y368787D01*
X117671Y367546D01*
X118488Y366480D01*
X119554Y365663D01*
X120216Y365389D01*
Y364847D01*
X119554Y364573D01*
X118488Y363756D01*
X117671Y362690D01*
X117157Y361450D01*
X117070Y360788D01*
X116528Y360508D01*
X115940Y360751D01*
X115000Y360875D01*
X100178D01*
X100173Y360882D01*
X99108Y361699D01*
X97867Y362213D01*
X96535Y362388D01*
X95204Y362213D01*
X93963Y361699D01*
X92898Y360882D01*
X92080Y359816D01*
X91566Y358576D01*
X91391Y357244D01*
X91566Y355913D01*
X92080Y354672D01*
X92898Y353606D01*
X93963Y352789D01*
X94625Y352515D01*
Y351974D01*
X93963Y351699D01*
X92898Y350882D01*
X92080Y349816D01*
X91566Y348576D01*
X91391Y347244D01*
X91566Y345913D01*
X92080Y344672D01*
X92898Y343606D01*
X93963Y342789D01*
X94625Y342515D01*
Y341973D01*
X93963Y341699D01*
X92898Y340882D01*
X92080Y339816D01*
X91566Y338576D01*
X91391Y337244D01*
X91566Y335913D01*
X92080Y334672D01*
X92898Y333606D01*
X92904Y333601D01*
Y330887D01*
X92898Y330882D01*
X92080Y329816D01*
X91566Y328576D01*
X91391Y327244D01*
X91566Y325913D01*
X92080Y324672D01*
X92898Y323606D01*
X93963Y322789D01*
X94625Y322515D01*
Y321973D01*
X93963Y321699D01*
X92898Y320882D01*
X92080Y319816D01*
X91566Y318576D01*
X91391Y317244D01*
X91566Y315913D01*
X92080Y314672D01*
X92898Y313606D01*
X93963Y312789D01*
X94625Y312515D01*
Y311974D01*
X93963Y311699D01*
X92898Y310882D01*
X92080Y309816D01*
X91566Y308576D01*
X91391Y307244D01*
X91566Y305913D01*
X92080Y304672D01*
X92898Y303606D01*
X93963Y302789D01*
X94625Y302515D01*
Y301974D01*
X93963Y301699D01*
X92898Y300882D01*
X92080Y299816D01*
X91566Y298576D01*
X91391Y297244D01*
X91566Y295913D01*
X92080Y294672D01*
X92898Y293606D01*
X93963Y292789D01*
X94625Y292515D01*
Y291973D01*
X93963Y291699D01*
X92898Y290882D01*
X92080Y289816D01*
X91566Y288576D01*
X91391Y287244D01*
X91486Y286525D01*
X91012Y286292D01*
X85403Y291901D01*
Y364480D01*
X91606Y370683D01*
X91614Y370682D01*
X92946Y370858D01*
X94186Y371372D01*
X95252Y372189D01*
X96069Y373255D01*
X96583Y374495D01*
X96759Y375827D01*
X96583Y377158D01*
X96069Y378399D01*
X95252Y379464D01*
X94186Y380282D01*
X92946Y380796D01*
X91614Y380971D01*
X90283Y380796D01*
X89042Y380282D01*
X87976Y379464D01*
X87159Y378399D01*
X86645Y377158D01*
X86480Y375906D01*
X86243Y375740D01*
X86088Y375767D01*
X85732Y375964D01*
X85609Y376897D01*
X85196Y377895D01*
X84539Y378751D01*
X83682Y379408D01*
X82814Y379768D01*
Y375827D01*
X81614D01*
Y374627D01*
X77673D01*
X78032Y373759D01*
X78690Y372902D01*
X79546Y372245D01*
X80544Y371832D01*
X81614Y371691D01*
X81683Y371700D01*
X81904Y371252D01*
X79204Y368552D01*
X78627Y367800D01*
X78264Y366924D01*
X78141Y365984D01*
Y290397D01*
X78264Y289457D01*
X78627Y288581D01*
X79204Y287829D01*
X89483Y277551D01*
X90235Y276974D01*
X91111Y276611D01*
X92050Y276487D01*
X92050Y276487D01*
X118483D01*
X118488Y276481D01*
X119554Y275663D01*
X120794Y275149D01*
X122126Y274974D01*
X123457Y275149D01*
X124698Y275663D01*
X125764Y276481D01*
X126581Y277546D01*
X127095Y278787D01*
X127270Y280118D01*
X127095Y281450D01*
X126581Y282690D01*
X125764Y283756D01*
X124698Y284573D01*
X123457Y285087D01*
X122126Y285262D01*
X120794Y285087D01*
X119554Y284573D01*
X118488Y283756D01*
X118483Y283749D01*
X100848D01*
X100627Y284198D01*
X100991Y284672D01*
X101505Y285913D01*
X101680Y287244D01*
X101505Y288576D01*
X100991Y289816D01*
X100173Y290882D01*
X99108Y291699D01*
X98446Y291973D01*
Y292515D01*
X99108Y292789D01*
X100173Y293606D01*
X100991Y294672D01*
X101505Y295913D01*
X101680Y297244D01*
X101505Y298576D01*
X100991Y299816D01*
X100173Y300882D01*
X99108Y301699D01*
X98446Y301974D01*
Y302515D01*
X99108Y302789D01*
X100173Y303606D01*
X100991Y304672D01*
X101505Y305913D01*
X101680Y307244D01*
X101505Y308576D01*
X100991Y309816D01*
X100173Y310882D01*
X99108Y311699D01*
X98446Y311974D01*
Y312515D01*
X99108Y312789D01*
X100173Y313606D01*
X100991Y314672D01*
X101505Y315913D01*
X101680Y317244D01*
X101505Y318576D01*
X100991Y319816D01*
X100173Y320882D01*
X99108Y321699D01*
X98446Y321973D01*
Y322515D01*
X99108Y322789D01*
X100173Y323606D01*
X100991Y324672D01*
X101505Y325913D01*
X101680Y327244D01*
X101505Y328576D01*
X100991Y329816D01*
X100173Y330882D01*
X100166Y330887D01*
Y333601D01*
X100173Y333606D01*
X100991Y334672D01*
X101505Y335913D01*
X101592Y336574D01*
X102093Y336862D01*
X102133Y336855D01*
X102722Y336611D01*
X103661Y336487D01*
X103662Y336487D01*
X118483D01*
X118488Y336480D01*
X119554Y335663D01*
X120216Y335389D01*
Y334847D01*
X119554Y334573D01*
X118488Y333756D01*
X117671Y332690D01*
X117157Y331450D01*
X116982Y330118D01*
X117157Y328787D01*
X117671Y327546D01*
X118488Y326481D01*
X119554Y325663D01*
X120216Y325389D01*
Y324848D01*
X119554Y324573D01*
X118488Y323756D01*
X117671Y322690D01*
X117157Y321450D01*
X116982Y320118D01*
X117157Y318787D01*
X117671Y317546D01*
X118488Y316480D01*
X119554Y315663D01*
X120216Y315389D01*
Y314847D01*
X119554Y314573D01*
X118488Y313756D01*
X117671Y312690D01*
X117157Y311450D01*
X116982Y310118D01*
X117157Y308787D01*
X117671Y307546D01*
X118488Y306481D01*
X119554Y305663D01*
X120216Y305389D01*
Y304848D01*
X119554Y304573D01*
X118488Y303756D01*
X117671Y302690D01*
X117157Y301450D01*
X116982Y300118D01*
X117157Y298787D01*
X117671Y297546D01*
X118488Y296480D01*
X119554Y295663D01*
X120794Y295149D01*
X122126Y294974D01*
X123457Y295149D01*
X124698Y295663D01*
X125764Y296480D01*
X126581Y297546D01*
X127095Y298787D01*
X127270Y300118D01*
X127095Y301450D01*
X126581Y302690D01*
X125764Y303756D01*
X124698Y304573D01*
X124036Y304848D01*
Y305389D01*
X124698Y305663D01*
X125764Y306481D01*
X126581Y307546D01*
X127095Y308787D01*
X127270Y310118D01*
X127095Y311450D01*
X126581Y312690D01*
X125764Y313756D01*
X124698Y314573D01*
X124036Y314847D01*
Y315389D01*
X124698Y315663D01*
X125764Y316480D01*
X126581Y317546D01*
X127095Y318787D01*
X127270Y320118D01*
X127095Y321450D01*
X126581Y322690D01*
X125764Y323756D01*
X124698Y324573D01*
X124036Y324848D01*
Y325389D01*
X124698Y325663D01*
X125764Y326481D01*
X126581Y327546D01*
X127095Y328787D01*
X127270Y330118D01*
X127095Y331450D01*
X126581Y332690D01*
X125764Y333756D01*
X124698Y334573D01*
X124036Y334847D01*
Y335389D01*
X124698Y335663D01*
X125764Y336480D01*
X126581Y337546D01*
X127095Y338787D01*
X127270Y340118D01*
X127095Y341450D01*
X126581Y342690D01*
X125764Y343756D01*
X124698Y344573D01*
X124036Y344847D01*
Y345389D01*
X124698Y345663D01*
X125764Y346480D01*
X126581Y347546D01*
X127095Y348787D01*
X127270Y350118D01*
X127095Y351450D01*
X126581Y352690D01*
X125764Y353756D01*
X124698Y354573D01*
X124036Y354848D01*
Y355389D01*
X124698Y355663D01*
X125764Y356481D01*
X126581Y357546D01*
X127095Y358787D01*
X127270Y360118D01*
X127095Y361450D01*
X126581Y362690D01*
X125764Y363756D01*
X124698Y364573D01*
X124036Y364847D01*
Y365389D01*
X124698Y365663D01*
X125764Y366480D01*
X126581Y367546D01*
X127095Y368787D01*
X127270Y370118D01*
X127095Y371450D01*
X126581Y372690D01*
X125764Y373756D01*
X124698Y374573D01*
X124036Y374848D01*
Y375389D01*
X124698Y375663D01*
X125764Y376481D01*
X126581Y377546D01*
X127095Y378787D01*
X127270Y380118D01*
X127095Y381450D01*
X126581Y382690D01*
X125764Y383756D01*
X124698Y384573D01*
X124036Y384847D01*
Y385389D01*
X124698Y385663D01*
X125764Y386480D01*
X126581Y387546D01*
X127095Y388787D01*
X127270Y390118D01*
X127095Y391450D01*
X126581Y392690D01*
X125764Y393756D01*
X124698Y394573D01*
X124036Y394847D01*
Y395389D01*
X124698Y395663D01*
X125764Y396480D01*
X126581Y397546D01*
X127095Y398787D01*
X127270Y400118D01*
X127095Y401450D01*
X126581Y402690D01*
X125764Y403756D01*
X124698Y404573D01*
X124036Y404847D01*
Y405389D01*
X124698Y405663D01*
X125764Y406481D01*
X126581Y407546D01*
X127095Y408787D01*
X127270Y410118D01*
X127095Y411450D01*
X126581Y412690D01*
X125764Y413756D01*
X124698Y414573D01*
X124036Y414848D01*
Y415389D01*
X124698Y415663D01*
X125764Y416480D01*
X126581Y417546D01*
X127095Y418787D01*
X127270Y420118D01*
X127095Y421450D01*
X126581Y422690D01*
X125764Y423756D01*
X124698Y424573D01*
X123457Y425087D01*
X122126Y425262D01*
D02*
G37*
G36*
X21732Y459562D02*
X19565Y459392D01*
X17451Y458884D01*
X15443Y458052D01*
X13589Y456917D01*
X11936Y455505D01*
X10524Y453852D01*
X9388Y451998D01*
X8557Y449990D01*
X8049Y447876D01*
X7879Y445709D01*
X8049Y443541D01*
X8557Y441428D01*
X9388Y439419D01*
X10524Y437566D01*
X11936Y435913D01*
X13589Y434501D01*
X15443Y433365D01*
X17451Y432533D01*
X19565Y432025D01*
X21732Y431855D01*
X23900Y432025D01*
X26013Y432533D01*
X28022Y433365D01*
X29875Y434501D01*
X31528Y435913D01*
X32940Y437566D01*
X34076Y439419D01*
X34908Y441428D01*
X35415Y443541D01*
X35586Y445709D01*
X35415Y447876D01*
X34908Y449990D01*
X34076Y451998D01*
X32940Y453852D01*
X31528Y455505D01*
X29875Y456917D01*
X28022Y458052D01*
X26013Y458884D01*
X23900Y459392D01*
X21732Y459562D01*
D02*
G37*
G36*
X272716Y459562D02*
X270549Y459392D01*
X268436Y458884D01*
X266427Y458052D01*
X264574Y456917D01*
X262920Y455505D01*
X261509Y453852D01*
X260373Y451998D01*
X259541Y449990D01*
X259033Y447876D01*
X258863Y445709D01*
X259033Y443541D01*
X259541Y441428D01*
X260373Y439419D01*
X261509Y437566D01*
X262920Y435913D01*
X264574Y434501D01*
X266427Y433365D01*
X268436Y432533D01*
X270549Y432025D01*
X272716Y431855D01*
X274884Y432025D01*
X276998Y432533D01*
X279006Y433365D01*
X280860Y434501D01*
X282513Y435913D01*
X283924Y437566D01*
X285060Y439419D01*
X285892Y441428D01*
X286400Y443541D01*
X286570Y445709D01*
X286400Y447876D01*
X285892Y449990D01*
X285060Y451998D01*
X283924Y453852D01*
X282513Y455505D01*
X280860Y456917D01*
X279006Y458052D01*
X276998Y458884D01*
X274884Y459392D01*
X272716Y459562D01*
D02*
G37*
G36*
X108346Y436545D02*
X107407Y436421D01*
X106531Y436058D01*
X105779Y435481D01*
X81252Y410954D01*
X37512D01*
Y412276D01*
X27606D01*
Y402370D01*
X30496D01*
X30595Y401870D01*
X30061Y401649D01*
X29027Y400855D01*
X28233Y399821D01*
X27734Y398616D01*
X27564Y397323D01*
X27734Y396030D01*
X28233Y394825D01*
X29027Y393791D01*
X30061Y392997D01*
X31266Y392498D01*
X32559Y392327D01*
X33852Y392498D01*
X35057Y392997D01*
X35963Y393692D01*
X48614D01*
X60967Y381338D01*
X60807Y380865D01*
X60283Y380796D01*
X59042Y380282D01*
X57977Y379464D01*
X57159Y378399D01*
X56645Y377158D01*
X56470Y375827D01*
X56645Y374495D01*
X57159Y373255D01*
X57977Y372189D01*
X59042Y371372D01*
X60283Y370858D01*
X61614Y370682D01*
X62946Y370858D01*
X64186Y371372D01*
X65252Y372189D01*
X66069Y373255D01*
X66344Y373917D01*
X66885D01*
X67159Y373255D01*
X67976Y372189D01*
X67983Y372184D01*
Y313827D01*
X51111Y296954D01*
X50662Y297176D01*
X50671Y297244D01*
X50530Y298314D01*
X50117Y299312D01*
X49460Y300168D01*
X48603Y300826D01*
X47735Y301185D01*
Y297244D01*
X46535D01*
Y296044D01*
X42594D01*
X42954Y295176D01*
X43611Y294320D01*
X44467Y293662D01*
X45465Y293249D01*
X46398Y293126D01*
X46595Y292771D01*
X46622Y292616D01*
X46456Y292378D01*
X45204Y292213D01*
X43963Y291699D01*
X42898Y290882D01*
X42080Y289816D01*
X41566Y288576D01*
X41391Y287244D01*
X41566Y285913D01*
X42080Y284672D01*
X42898Y283606D01*
X43963Y282789D01*
X45204Y282275D01*
X46535Y282100D01*
X47867Y282275D01*
X49108Y282789D01*
X50173Y283606D01*
X50991Y284672D01*
X51504Y285913D01*
X51680Y287244D01*
X51679Y287252D01*
X74182Y309755D01*
X74182Y309755D01*
X74759Y310507D01*
X75121Y311383D01*
X75245Y312323D01*
Y372184D01*
X75252Y372189D01*
X76069Y373255D01*
X76583Y374495D01*
X76759Y375827D01*
X76583Y377158D01*
X76069Y378399D01*
X75252Y379464D01*
X74186Y380282D01*
X72946Y380796D01*
X71614Y380971D01*
X71606Y380970D01*
X52686Y399890D01*
X51934Y400467D01*
X51058Y400830D01*
X50118Y400954D01*
X35963D01*
X35057Y401649D01*
X34523Y401870D01*
X34623Y402370D01*
X37512D01*
Y403692D01*
X82756D01*
X83696Y403816D01*
X84571Y404178D01*
X85324Y404755D01*
X109851Y429282D01*
X218260D01*
X221816Y425726D01*
X221637Y425198D01*
X220795Y425087D01*
X219554Y424573D01*
X218488Y423756D01*
X217671Y422690D01*
X217157Y421450D01*
X216982Y420118D01*
X217157Y418787D01*
X217671Y417546D01*
X218488Y416480D01*
X219554Y415663D01*
X220216Y415389D01*
Y414848D01*
X219554Y414573D01*
X218488Y413756D01*
X217671Y412690D01*
X217157Y411450D01*
X216982Y410118D01*
X217157Y408787D01*
X217671Y407546D01*
X218488Y406481D01*
X219554Y405663D01*
X220216Y405389D01*
Y404847D01*
X219554Y404573D01*
X218488Y403756D01*
X217671Y402690D01*
X217157Y401450D01*
X216982Y400118D01*
X217157Y398787D01*
X217671Y397546D01*
X218488Y396480D01*
X219554Y395663D01*
X220216Y395389D01*
Y394847D01*
X219554Y394573D01*
X218488Y393756D01*
X217671Y392690D01*
X217157Y391450D01*
X216982Y390118D01*
X217157Y388787D01*
X217671Y387546D01*
X218488Y386480D01*
X219554Y385663D01*
X220216Y385389D01*
Y384847D01*
X219554Y384573D01*
X218488Y383756D01*
X217671Y382690D01*
X217157Y381450D01*
X216982Y380118D01*
X217157Y378787D01*
X217671Y377546D01*
X218488Y376481D01*
X219554Y375663D01*
X220216Y375389D01*
Y374848D01*
X219554Y374573D01*
X218488Y373756D01*
X217671Y372690D01*
X217157Y371450D01*
X216982Y370118D01*
X217157Y368787D01*
X217671Y367546D01*
X218488Y366480D01*
X219554Y365663D01*
X220216Y365389D01*
Y364847D01*
X219554Y364573D01*
X218488Y363756D01*
X217671Y362690D01*
X217157Y361450D01*
X216982Y360118D01*
X217157Y358787D01*
X217671Y357546D01*
X218488Y356481D01*
X219554Y355663D01*
X220216Y355389D01*
Y354848D01*
X219554Y354573D01*
X218488Y353756D01*
X217671Y352690D01*
X217157Y351450D01*
X216982Y350118D01*
X217157Y348787D01*
X217671Y347546D01*
X218488Y346480D01*
X219554Y345663D01*
X220216Y345389D01*
Y344847D01*
X219554Y344573D01*
X218488Y343756D01*
X217671Y342690D01*
X217157Y341450D01*
X216982Y340118D01*
X217157Y338787D01*
X217671Y337546D01*
X218488Y336480D01*
X219554Y335663D01*
X220216Y335389D01*
Y334847D01*
X219554Y334573D01*
X218488Y333756D01*
X217671Y332690D01*
X217157Y331450D01*
X216982Y330118D01*
X217157Y328787D01*
X217671Y327546D01*
X218488Y326481D01*
X219554Y325663D01*
X220216Y325389D01*
Y324848D01*
X219554Y324573D01*
X218488Y323756D01*
X217671Y322690D01*
X217157Y321450D01*
X216982Y320118D01*
X217157Y318787D01*
X217671Y317546D01*
X218488Y316480D01*
X219554Y315663D01*
X220216Y315389D01*
Y314847D01*
X219554Y314573D01*
X218488Y313756D01*
X217671Y312690D01*
X217157Y311450D01*
X216982Y310118D01*
X217157Y308787D01*
X217671Y307546D01*
X218488Y306481D01*
X219554Y305663D01*
X220216Y305389D01*
Y304848D01*
X219554Y304573D01*
X218488Y303756D01*
X217671Y302690D01*
X217157Y301450D01*
X216982Y300118D01*
X217157Y298787D01*
X217671Y297546D01*
X218488Y296480D01*
X219554Y295663D01*
X220795Y295149D01*
X222126Y294974D01*
X223458Y295149D01*
X224698Y295663D01*
X225409Y296208D01*
X234626D01*
X234630Y296202D01*
X235696Y295385D01*
X236936Y294871D01*
X238268Y294695D01*
X239599Y294871D01*
X240840Y295385D01*
X241905Y296202D01*
X242723Y297267D01*
X243236Y298508D01*
X243412Y299839D01*
X243236Y301171D01*
X242723Y302411D01*
X241905Y303477D01*
X240840Y304294D01*
X239599Y304808D01*
X238268Y304983D01*
X236936Y304808D01*
X235696Y304294D01*
X234630Y303477D01*
X234626Y303470D01*
X225982D01*
X225764Y303756D01*
X224698Y304573D01*
X224036Y304848D01*
Y305389D01*
X224698Y305663D01*
X225764Y306481D01*
X226581Y307546D01*
X227095Y308787D01*
X227270Y310118D01*
X227095Y311450D01*
X226581Y312690D01*
X225764Y313756D01*
X224698Y314573D01*
X224036Y314847D01*
Y315389D01*
X224698Y315663D01*
X225764Y316480D01*
X226581Y317546D01*
X227095Y318787D01*
X227270Y320118D01*
X227095Y321450D01*
X226581Y322690D01*
X225764Y323756D01*
X224698Y324573D01*
X224036Y324848D01*
Y325389D01*
X224698Y325663D01*
X225764Y326481D01*
X226581Y327546D01*
X227095Y328787D01*
X227270Y330118D01*
X227095Y331450D01*
X226581Y332690D01*
X225764Y333756D01*
X224698Y334573D01*
X224036Y334847D01*
Y335389D01*
X224698Y335663D01*
X225764Y336480D01*
X226581Y337546D01*
X227095Y338787D01*
X227270Y340118D01*
X227095Y341450D01*
X226581Y342690D01*
X225764Y343756D01*
X224698Y344573D01*
X224036Y344847D01*
Y345389D01*
X224698Y345663D01*
X225764Y346480D01*
X226581Y347546D01*
X227095Y348787D01*
X227270Y350118D01*
X227095Y351450D01*
X226581Y352690D01*
X225764Y353756D01*
X224698Y354573D01*
X224036Y354848D01*
Y355389D01*
X224698Y355663D01*
X225764Y356481D01*
X226581Y357546D01*
X227095Y358787D01*
X227270Y360118D01*
X227095Y361450D01*
X226581Y362690D01*
X225764Y363756D01*
X224698Y364573D01*
X224036Y364847D01*
Y365389D01*
X224698Y365663D01*
X225764Y366480D01*
X226581Y367546D01*
X227095Y368787D01*
X227270Y370118D01*
X227095Y371450D01*
X226581Y372690D01*
X225764Y373756D01*
X224698Y374573D01*
X224036Y374848D01*
Y375389D01*
X224698Y375663D01*
X225764Y376481D01*
X226581Y377546D01*
X227095Y378787D01*
X227270Y380118D01*
X227095Y381450D01*
X226581Y382690D01*
X225764Y383756D01*
X224698Y384573D01*
X224036Y384847D01*
Y385389D01*
X224698Y385663D01*
X225764Y386480D01*
X226581Y387546D01*
X227095Y388787D01*
X227270Y390118D01*
X227095Y391450D01*
X226581Y392690D01*
X225764Y393756D01*
X224698Y394573D01*
X224036Y394847D01*
Y395389D01*
X224698Y395663D01*
X225764Y396480D01*
X226581Y397546D01*
X227095Y398787D01*
X227270Y400118D01*
X227095Y401450D01*
X226581Y402690D01*
X225764Y403756D01*
X224698Y404573D01*
X224036Y404847D01*
Y405389D01*
X224698Y405663D01*
X225764Y406481D01*
X226581Y407546D01*
X227075Y408737D01*
X227431Y408903D01*
X227569Y408950D01*
X230700Y405819D01*
Y375827D01*
X230823Y374887D01*
X231186Y374011D01*
X231763Y373259D01*
X246448Y358575D01*
Y346158D01*
X246241Y346000D01*
X245424Y344934D01*
X244910Y343694D01*
X244735Y342362D01*
X244910Y341031D01*
X245424Y339790D01*
X246241Y338725D01*
X247307Y337907D01*
X248547Y337393D01*
X249879Y337218D01*
X251210Y337393D01*
X252451Y337907D01*
X253516Y338725D01*
X254334Y339790D01*
X254848Y341031D01*
X254963Y341912D01*
X263159Y350108D01*
X264173Y349974D01*
X264181Y349975D01*
X268022Y346134D01*
Y336055D01*
X266701D01*
Y326150D01*
X276606D01*
Y336055D01*
X275285D01*
Y347638D01*
X275285Y347638D01*
X275161Y348578D01*
X274798Y349453D01*
X274221Y350205D01*
X274221Y350205D01*
X273883Y350543D01*
X274104Y350992D01*
X274173Y350983D01*
X275244Y351124D01*
X276241Y351537D01*
X277097Y352194D01*
X277755Y353050D01*
X278114Y353918D01*
X274173D01*
Y355118D01*
X272973D01*
Y359059D01*
X272106Y358699D01*
X271249Y358042D01*
X270592Y357186D01*
X270179Y356188D01*
X270056Y355254D01*
X269703Y355058D01*
X269545Y355029D01*
X269307Y355196D01*
X269142Y356450D01*
X268628Y357690D01*
X267811Y358755D01*
X266745Y359573D01*
X265505Y360087D01*
X264173Y360262D01*
X262842Y360087D01*
X261601Y359573D01*
X260536Y358755D01*
X259718Y357690D01*
X259205Y356450D01*
X259201Y356419D01*
X254172Y351390D01*
X253710Y351582D01*
Y360079D01*
X253710Y360079D01*
X253586Y361018D01*
X253223Y361894D01*
X252646Y362646D01*
X237962Y377331D01*
Y407323D01*
X237838Y408263D01*
X237475Y409138D01*
X236898Y409890D01*
X236898Y409890D01*
X227566Y419223D01*
X227574Y419261D01*
X228124Y419418D01*
X245070Y402472D01*
Y395477D01*
X244904Y395426D01*
X243189Y394510D01*
X241685Y393276D01*
X240451Y391772D01*
X239534Y390057D01*
X238970Y388195D01*
X238779Y386260D01*
X238970Y384324D01*
X239534Y382463D01*
X240451Y380748D01*
X241685Y379244D01*
X243189Y378010D01*
X244904Y377093D01*
X246765Y376529D01*
X248701Y376338D01*
X250636Y376529D01*
X252498Y377093D01*
X254213Y378010D01*
X255716Y379244D01*
X256950Y380748D01*
X257867Y382463D01*
X258432Y384324D01*
X258623Y386260D01*
X258432Y388195D01*
X257867Y390057D01*
X256950Y391772D01*
X255716Y393276D01*
X254213Y394510D01*
X252498Y395426D01*
X252332Y395477D01*
Y400536D01*
X252817Y400657D01*
X252853Y400590D01*
X254087Y399087D01*
X255590Y397853D01*
X257306Y396936D01*
X259167Y396371D01*
X261102Y396181D01*
X263038Y396371D01*
X264899Y396936D01*
X266615Y397853D01*
X268118Y399087D01*
X269352Y400590D01*
X270269Y402306D01*
X270833Y404167D01*
X271024Y406102D01*
X270833Y408038D01*
X270269Y409899D01*
X269352Y411615D01*
X268118Y413118D01*
X266615Y414352D01*
X264899Y415269D01*
X263038Y415834D01*
X261102Y416024D01*
X259167Y415834D01*
X257306Y415269D01*
X255590Y414352D01*
X254087Y413118D01*
X252853Y411615D01*
X251936Y409899D01*
X251371Y408038D01*
X251285Y407166D01*
X250815Y406998D01*
X224074Y433739D01*
X224059Y433853D01*
X223696Y434729D01*
X223119Y435481D01*
X222367Y436058D01*
X221491Y436421D01*
X220551Y436544D01*
X108346D01*
X108346Y436545D01*
D02*
G37*
G36*
X272304Y395059D02*
X271764Y395005D01*
X270092Y394498D01*
X268550Y393674D01*
X267199Y392565D01*
X266090Y391214D01*
X265266Y389672D01*
X264758Y387999D01*
X264705Y387460D01*
X272304D01*
Y395059D01*
D02*
G37*
G36*
X274704D02*
Y387460D01*
X282303D01*
X282249Y387999D01*
X281742Y389672D01*
X280918Y391214D01*
X279809Y392565D01*
X278458Y393674D01*
X276916Y394498D01*
X275243Y395005D01*
X274704Y395059D01*
D02*
G37*
G36*
X45335Y361185D02*
X44467Y360826D01*
X43611Y360169D01*
X42954Y359312D01*
X42594Y358444D01*
X45335D01*
Y361185D01*
D02*
G37*
G36*
X272853Y324884D02*
Y322302D01*
X275435D01*
X275106Y323096D01*
X274473Y323921D01*
X273647Y324555D01*
X272853Y324884D01*
D02*
G37*
G36*
X270454D02*
X269660Y324555D01*
X268834Y323921D01*
X268201Y323096D01*
X267872Y322302D01*
X270454D01*
Y324884D01*
D02*
G37*
G36*
X45335Y356044D02*
X42594D01*
X42954Y355176D01*
X43611Y354320D01*
X44467Y353662D01*
X45335Y353303D01*
Y356044D01*
D02*
G37*
G36*
X275373Y359059D02*
Y356318D01*
X278114D01*
X277755Y357186D01*
X277097Y358042D01*
X276241Y358699D01*
X275373Y359059D01*
D02*
G37*
G36*
X50477Y356044D02*
X47735D01*
Y353303D01*
X48603Y353662D01*
X49460Y354320D01*
X50117Y355176D01*
X50477Y356044D01*
D02*
G37*
%LPD*%
G36*
X42898Y323606D02*
X43963Y322789D01*
X44625Y322515D01*
Y321973D01*
X43963Y321699D01*
X43762Y321545D01*
X29312D01*
X29307Y321551D01*
X28242Y322369D01*
X27580Y322643D01*
Y323184D01*
X28242Y323458D01*
X29307Y324276D01*
X29312Y324282D01*
X42379D01*
X42898Y323606D01*
D02*
G37*
G36*
Y313606D02*
X43963Y312789D01*
X44625Y312515D01*
Y311974D01*
X43963Y311699D01*
X42898Y310882D01*
X42893Y310875D01*
X29825D01*
X29307Y311551D01*
X28242Y312369D01*
X27580Y312643D01*
Y313184D01*
X28242Y313458D01*
X29307Y314276D01*
X29312Y314282D01*
X42379D01*
X42898Y313606D01*
D02*
G37*
G36*
X116983Y350126D02*
X116982Y350118D01*
X117157Y348787D01*
X117671Y347546D01*
X118488Y346480D01*
X119554Y345663D01*
X120216Y345389D01*
Y344847D01*
X119554Y344573D01*
X118488Y343756D01*
X118483Y343749D01*
X105166D01*
X101679Y347236D01*
X101680Y347244D01*
X101505Y348576D01*
X100991Y349816D01*
X100173Y350882D01*
X99108Y351699D01*
X98446Y351974D01*
Y352515D01*
X99108Y352789D01*
X100173Y353606D01*
X100178Y353613D01*
X113496D01*
X116983Y350126D01*
D02*
G37*
G36*
X42898Y343606D02*
X43963Y342789D01*
X44625Y342515D01*
Y341973D01*
X43963Y341699D01*
X43762Y341545D01*
X29312D01*
X29307Y341551D01*
X28242Y342369D01*
X27001Y342882D01*
X26117Y342999D01*
X25862Y343537D01*
X25910Y343613D01*
X42893D01*
X42898Y343606D01*
D02*
G37*
G36*
Y333606D02*
X43963Y332789D01*
X44625Y332515D01*
Y331974D01*
X43963Y331699D01*
X43762Y331544D01*
X29312D01*
X29307Y331551D01*
X28242Y332369D01*
X27580Y332643D01*
Y333184D01*
X28242Y333458D01*
X29307Y334276D01*
X29312Y334282D01*
X42379D01*
X42898Y333606D01*
D02*
G37*
D10*
X25669Y307913D02*
D03*
Y317913D02*
D03*
Y327913D02*
D03*
Y337913D02*
D03*
X46535Y287244D02*
D03*
Y297244D02*
D03*
Y307244D02*
D03*
Y317244D02*
D03*
Y327244D02*
D03*
Y337244D02*
D03*
Y347244D02*
D03*
Y357244D02*
D03*
X96535D02*
D03*
Y347244D02*
D03*
Y337244D02*
D03*
Y327244D02*
D03*
Y317244D02*
D03*
Y307244D02*
D03*
Y297244D02*
D03*
Y287244D02*
D03*
X61614Y375827D02*
D03*
X71614D02*
D03*
X81614D02*
D03*
X91614D02*
D03*
X122126Y420118D02*
D03*
Y410118D02*
D03*
Y400118D02*
D03*
Y390118D02*
D03*
Y380118D02*
D03*
Y370118D02*
D03*
Y360118D02*
D03*
Y350118D02*
D03*
Y340118D02*
D03*
Y330118D02*
D03*
Y320118D02*
D03*
Y310118D02*
D03*
Y300118D02*
D03*
Y280118D02*
D03*
X222126D02*
D03*
Y300118D02*
D03*
Y310118D02*
D03*
Y320118D02*
D03*
Y330118D02*
D03*
Y340118D02*
D03*
Y350118D02*
D03*
Y360118D02*
D03*
Y370118D02*
D03*
Y380118D02*
D03*
Y390118D02*
D03*
Y400118D02*
D03*
Y410118D02*
D03*
Y420118D02*
D03*
D11*
X74410Y267759D02*
D03*
X104409D02*
D03*
X249879Y312362D02*
D03*
Y342362D02*
D03*
X264173Y355118D02*
D03*
X274173D02*
D03*
X268268Y299839D02*
D03*
X238268D02*
D03*
D12*
X32559Y407323D02*
D03*
X271654Y331102D02*
D03*
D13*
X32559Y397323D02*
D03*
X271654Y321102D02*
D03*
D14*
X250000Y264567D02*
D03*
Y274567D02*
D03*
D15*
X272716Y445709D02*
D03*
X273701Y267559D02*
D03*
X18779Y268543D02*
D03*
X21732Y445709D02*
D03*
D16*
X273504Y386260D02*
D03*
X248701D02*
D03*
X261102Y406102D02*
D03*
D17*
X222126Y290118D02*
D03*
X122126D02*
D03*
D18*
X54213Y267559D02*
D03*
X64213D02*
D03*
D19*
X250079Y342562D02*
X250279Y342362D01*
X250079Y342562D02*
Y360079D01*
X234331Y375827D02*
X250079Y360079D01*
X234331Y375827D02*
Y407323D01*
X222126Y419528D02*
X234331Y407323D01*
X222126Y419528D02*
Y420118D01*
X220551Y432126D02*
X248701Y403976D01*
X220551Y432126D02*
Y432913D01*
X248701Y386260D02*
Y403976D01*
X250000Y274567D02*
X268268Y292835D01*
Y299839D01*
X108346Y432913D02*
X220551D01*
X222126Y300118D02*
X222405Y299839D01*
X238268D01*
X96535Y327244D02*
Y337244D01*
X71614Y312323D02*
Y375827D01*
X46535Y287244D02*
X71614Y312323D01*
X81772Y290397D02*
Y365984D01*
X115000Y357244D02*
X122126Y350118D01*
X96535Y357244D02*
X115000D01*
X103661Y340118D02*
X122126D01*
X96535Y347244D02*
X103661Y340118D01*
X81772Y365984D02*
X91614Y375827D01*
X64213Y267559D02*
X64413Y267759D01*
X74410D01*
X26339Y307244D02*
X46535D01*
X25669Y307913D02*
X26339Y307244D01*
X45866Y317913D02*
X46535Y317244D01*
X25669Y317913D02*
X45866D01*
Y327913D02*
X46535Y327244D01*
X25669Y327913D02*
X45866D01*
Y337913D02*
X46535Y337244D01*
X25669Y337913D02*
X45866D01*
X82756Y407323D02*
X108346Y432913D01*
X32559Y407323D02*
X82756D01*
X50118Y397323D02*
X71614Y375827D01*
X32559Y397323D02*
X50118D01*
X222126Y280118D02*
X234055D01*
X249879Y295942D01*
Y312362D01*
X24016Y347244D02*
X46535D01*
X14567Y337795D02*
X24016Y347244D01*
X14567Y297638D02*
Y337795D01*
Y297638D02*
X55905Y256299D01*
X198307D02*
X222126Y280118D01*
X250279Y342362D02*
X263035Y355118D01*
X271654Y331102D02*
Y347638D01*
X264173Y355118D02*
X271654Y347638D01*
X81772Y290397D02*
X92050Y280118D01*
X122126D01*
X104409Y256378D02*
Y267759D01*
X104331Y256299D02*
X104409Y256378D01*
X55905Y256299D02*
X104331D01*
X198307D01*
M02*
