G04 Layer_Color=0*
%FSLAX25Y25*%
%MOIN*%
G70*
G01*
G75*
%ADD37C,0.02000*%
%ADD38C,0.02500*%
D37*
X652800Y188136D02*
Y208129D01*
X662797D01*
X666129Y204797D01*
Y198132D01*
X662797Y194800D01*
X652800D01*
X682790D02*
X676126D01*
X672793Y198132D01*
Y204797D01*
X676126Y208129D01*
X682790D01*
X686123Y204797D01*
Y201465D01*
X672793D01*
X692787Y208129D02*
Y198132D01*
X696119Y194800D01*
X706116D01*
Y208129D01*
X716113Y211461D02*
Y208129D01*
X712781D01*
X719445D01*
X716113D01*
Y198132D01*
X719445Y194800D01*
X759432D02*
X752768D01*
X749435Y198132D01*
Y204797D01*
X752768Y208129D01*
X759432D01*
X762765Y204797D01*
Y201465D01*
X749435D01*
X772761Y211461D02*
Y208129D01*
X769429D01*
X776093D01*
X772761D01*
Y198132D01*
X776093Y194800D01*
X786090Y208129D02*
Y194800D01*
Y201465D01*
X789423Y204797D01*
X792755Y208129D01*
X796087D01*
X816081Y194800D02*
X809416D01*
X806084Y198132D01*
Y204797D01*
X809416Y208129D01*
X816081D01*
X819413Y204797D01*
Y201465D01*
X806084D01*
X846071Y208129D02*
Y194800D01*
Y201465D01*
X849403Y204797D01*
X852735Y208129D01*
X856068D01*
X876061Y194800D02*
X869397D01*
X866064Y198132D01*
Y204797D01*
X869397Y208129D01*
X876061D01*
X879393Y204797D01*
Y201465D01*
X866064D01*
X899387Y214793D02*
Y194800D01*
X889390D01*
X886058Y198132D01*
Y204797D01*
X889390Y208129D01*
X899387D01*
X906052D02*
Y198132D01*
X909384Y194800D01*
X919380D01*
Y208129D01*
X926045Y194800D02*
X932710D01*
X929377D01*
Y208129D01*
X926045D01*
X946039Y211461D02*
Y208129D01*
X942706D01*
X949371D01*
X946039D01*
Y198132D01*
X949371Y194800D01*
X979361Y188136D02*
X982693D01*
X986026Y191468D01*
Y208129D01*
X999355D02*
Y198132D01*
X1002687Y194800D01*
X1012684D01*
Y208129D01*
X1019348Y194800D02*
X1029345D01*
X1032677Y198132D01*
X1029345Y201465D01*
X1022680D01*
X1019348Y204797D01*
X1022680Y208129D01*
X1032677D01*
X1052671Y188136D02*
Y208129D01*
X1042674D01*
X1039342Y204797D01*
Y198132D01*
X1042674Y194800D01*
X1052671D01*
X1059335Y208129D02*
Y198132D01*
X1062668Y194800D01*
X1072664D01*
Y208129D01*
X1082661Y218126D02*
Y211461D01*
X1079329Y208129D01*
X1095990D02*
X1102655D01*
X1105987Y204797D01*
Y194800D01*
X1095990D01*
X1092658Y198132D01*
X1095990Y201465D01*
X1105987D01*
X1132645Y211461D02*
X1135977Y214793D01*
X1142642D01*
X1145974Y211461D01*
Y208129D01*
X1142642Y204797D01*
X1139309D01*
X1142642D01*
X1145974Y201465D01*
Y198132D01*
X1142642Y194800D01*
X1135977D01*
X1132645Y198132D01*
X1165967Y214793D02*
X1159303Y211461D01*
X1152639Y204797D01*
Y198132D01*
X1155971Y194800D01*
X1162635D01*
X1165967Y198132D01*
Y201465D01*
X1162635Y204797D01*
X1152639D01*
X1192626Y194800D02*
Y208129D01*
X1195958D01*
X1199290Y204797D01*
Y194800D01*
Y204797D01*
X1202622Y208129D01*
X1205955Y204797D01*
Y194800D01*
X1212619D02*
X1219284D01*
X1215951D01*
Y208129D01*
X1212619D01*
X1229280Y194800D02*
X1235945D01*
X1232613D01*
Y214793D01*
X1229280D01*
X663729Y257793D02*
X650400D01*
Y237800D01*
X663729D01*
X650400Y247797D02*
X657064D01*
X670394Y237800D02*
Y251129D01*
X680390D01*
X683723Y247797D01*
Y237800D01*
X723710Y251129D02*
X713713D01*
X710381Y247797D01*
Y241132D01*
X713713Y237800D01*
X723710D01*
X733706Y251129D02*
X740371D01*
X743703Y247797D01*
Y237800D01*
X733706D01*
X730374Y241132D01*
X733706Y244464D01*
X743703D01*
X750368Y237800D02*
X760364D01*
X763697Y241132D01*
X760364Y244464D01*
X753700D01*
X750368Y247797D01*
X753700Y251129D01*
X763697D01*
X803684Y257793D02*
Y237800D01*
X793687D01*
X790355Y241132D01*
Y247797D01*
X793687Y251129D01*
X803684D01*
X820345Y237800D02*
X813681D01*
X810348Y241132D01*
Y247797D01*
X813681Y251129D01*
X820345D01*
X823677Y247797D01*
Y244464D01*
X810348D01*
X850335Y257793D02*
Y237800D01*
X860332D01*
X863664Y241132D01*
Y244464D01*
Y247797D01*
X860332Y251129D01*
X850335D01*
X880326Y237800D02*
X873661D01*
X870329Y241132D01*
Y247797D01*
X873661Y251129D01*
X880326D01*
X883658Y247797D01*
Y244464D01*
X870329D01*
X890322Y237800D02*
X900319D01*
X903652Y241132D01*
X900319Y244464D01*
X893655D01*
X890322Y247797D01*
X893655Y251129D01*
X903652D01*
X913648Y237800D02*
X920313D01*
X923645Y241132D01*
Y247797D01*
X920313Y251129D01*
X913648D01*
X910316Y247797D01*
Y241132D01*
X913648Y237800D01*
X930310D02*
X936974D01*
X933642D01*
Y251129D01*
X930310D01*
X946971Y237800D02*
Y251129D01*
X956968D01*
X960300Y247797D01*
Y237800D01*
X970297Y234468D02*
X973629Y237800D01*
Y241132D01*
X970297D01*
Y237800D01*
X973629D01*
X970297Y234468D01*
X966964Y231136D01*
X1020280Y251129D02*
X1010284D01*
X1006952Y247797D01*
Y241132D01*
X1010284Y237800D01*
X1020280D01*
X1036942D02*
X1030277D01*
X1026945Y241132D01*
Y247797D01*
X1030277Y251129D01*
X1036942D01*
X1040274Y247797D01*
Y244464D01*
X1026945D01*
X1080261Y257793D02*
Y237800D01*
X1070264D01*
X1066932Y241132D01*
Y247797D01*
X1070264Y251129D01*
X1080261D01*
X1086926Y237800D02*
X1093590D01*
X1090258D01*
Y251129D01*
X1086926D01*
X1106919D02*
X1113584D01*
X1116916Y247797D01*
Y237800D01*
X1106919D01*
X1103587Y241132D01*
X1106919Y244464D01*
X1116916D01*
X1123580Y237800D02*
Y251129D01*
X1126913D01*
X1130245Y247797D01*
Y237800D01*
Y247797D01*
X1133577Y251129D01*
X1136909Y247797D01*
Y237800D01*
X1143574D02*
Y241132D01*
X1146906D01*
Y237800D01*
X1143574D01*
X657132Y285400D02*
X663797D01*
X667129Y288732D01*
Y295397D01*
X663797Y298729D01*
X657132D01*
X653800Y295397D01*
Y288732D01*
X657132Y285400D01*
X673794D02*
Y298729D01*
X683790D01*
X687123Y295397D01*
Y285400D01*
X697119Y302061D02*
Y298729D01*
X693787D01*
X700452D01*
X697119D01*
Y288732D01*
X700452Y285400D01*
X730442Y298729D02*
Y288732D01*
X733774Y285400D01*
X743771D01*
Y298729D01*
X750435Y285400D02*
Y298729D01*
X760432D01*
X763764Y295397D01*
Y285400D01*
X803751Y305394D02*
Y285400D01*
X793755D01*
X790422Y288732D01*
Y295397D01*
X793755Y298729D01*
X803751D01*
X810416Y285400D02*
X817081D01*
X813748D01*
Y298729D01*
X810416D01*
X830410D02*
X837074D01*
X840406Y295397D01*
Y285400D01*
X830410D01*
X827077Y288732D01*
X830410Y292064D01*
X840406D01*
X847071Y285400D02*
Y298729D01*
X850403D01*
X853735Y295397D01*
Y285400D01*
Y295397D01*
X857068Y298729D01*
X860400Y295397D01*
Y285400D01*
X867064D02*
Y288732D01*
X870397D01*
Y285400D01*
X867064D01*
X917048Y305394D02*
Y285400D01*
X907051D01*
X903719Y288732D01*
Y295397D01*
X907051Y298729D01*
X917048D01*
X933710Y285400D02*
X927045D01*
X923713Y288732D01*
Y295397D01*
X927045Y298729D01*
X933710D01*
X937042Y295397D01*
Y292064D01*
X923713D01*
X977029Y305394D02*
X963700D01*
Y295397D01*
X970364Y298729D01*
X973697D01*
X977029Y295397D01*
Y288732D01*
X973697Y285400D01*
X967032D01*
X963700Y288732D01*
X983693Y302061D02*
X987026Y305394D01*
X993690D01*
X997022Y302061D01*
Y288732D01*
X993690Y285400D01*
X987026D01*
X983693Y288732D01*
Y302061D01*
X1023680Y285400D02*
Y298729D01*
X1027013D01*
X1030345Y295397D01*
Y285400D01*
Y295397D01*
X1033677Y298729D01*
X1037010Y295397D01*
Y285400D01*
X1043674D02*
X1050338D01*
X1047006D01*
Y298729D01*
X1043674D01*
X1060335Y285400D02*
X1067000D01*
X1063668D01*
Y305394D01*
X1060335D01*
X654400Y325400D02*
Y345393D01*
X664397D01*
X667729Y342061D01*
Y335397D01*
X664397Y332065D01*
X654400D01*
X677726Y338729D02*
X684390D01*
X687723Y335397D01*
Y325400D01*
X677726D01*
X674394Y328732D01*
X677726Y332065D01*
X687723D01*
X694387Y338729D02*
Y325400D01*
Y332065D01*
X697719Y335397D01*
X701052Y338729D01*
X704384D01*
X747703Y345393D02*
Y325400D01*
X737706D01*
X734374Y328732D01*
Y335397D01*
X737706Y338729D01*
X747703D01*
X764364Y325400D02*
X757700D01*
X754368Y328732D01*
Y335397D01*
X757700Y338729D01*
X764364D01*
X767697Y335397D01*
Y332065D01*
X754368D01*
X777694Y325400D02*
Y342061D01*
Y335397D01*
X774361D01*
X781026D01*
X777694D01*
Y342061D01*
X781026Y345393D01*
X794355Y338729D02*
X801019D01*
X804352Y335397D01*
Y325400D01*
X794355D01*
X791022Y328732D01*
X794355Y332065D01*
X804352D01*
X811016Y338729D02*
Y328732D01*
X814348Y325400D01*
X824345D01*
Y338729D01*
X834342Y342061D02*
Y338729D01*
X831010D01*
X837674D01*
X834342D01*
Y328732D01*
X837674Y325400D01*
X851003Y322068D02*
X854335Y325400D01*
Y328732D01*
X851003D01*
Y325400D01*
X854335D01*
X851003Y322068D01*
X847671Y318736D01*
X887658Y325400D02*
X894322D01*
X890990D01*
Y345393D01*
X887658D01*
X914316Y325400D02*
X907652D01*
X904319Y328732D01*
Y335397D01*
X907652Y338729D01*
X914316D01*
X917648Y335397D01*
Y332065D01*
X904319D01*
X924313Y325400D02*
X934309D01*
X937642Y328732D01*
X934309Y332065D01*
X927645D01*
X924313Y335397D01*
X927645Y338729D01*
X937642D01*
X964300D02*
X970964Y325400D01*
X977629Y338729D01*
X984293Y325400D02*
X990958D01*
X987626D01*
Y338729D01*
X984293D01*
X1004287D02*
X1010951D01*
X1014284Y335397D01*
Y325400D01*
X1004287D01*
X1000955Y328732D01*
X1004287Y332065D01*
X1014284D01*
X1020948Y325400D02*
X1030945D01*
X1034277Y328732D01*
X1030945Y332065D01*
X1024280D01*
X1020948Y335397D01*
X1024280Y338729D01*
X1034277D01*
X651600Y388635D02*
Y408629D01*
X661597D01*
X664929Y405297D01*
Y398632D01*
X661597Y395300D01*
X651600D01*
X681590D02*
X674926D01*
X671594Y398632D01*
Y405297D01*
X674926Y408629D01*
X681590D01*
X684923Y405297D01*
Y401965D01*
X671594D01*
X691587Y408629D02*
Y398632D01*
X694919Y395300D01*
X704916D01*
Y408629D01*
X714913Y411961D02*
Y408629D01*
X711581D01*
X718245D01*
X714913D01*
Y398632D01*
X718245Y395300D01*
X758232D02*
X751568D01*
X748235Y398632D01*
Y405297D01*
X751568Y408629D01*
X758232D01*
X761564Y405297D01*
Y401965D01*
X748235D01*
X771561Y411961D02*
Y408629D01*
X768229D01*
X774894D01*
X771561D01*
Y398632D01*
X774894Y395300D01*
X784890Y408629D02*
Y395300D01*
Y401965D01*
X788223Y405297D01*
X791555Y408629D01*
X794887D01*
X814881Y395300D02*
X808216D01*
X804884Y398632D01*
Y405297D01*
X808216Y408629D01*
X814881D01*
X818213Y405297D01*
Y401965D01*
X804884D01*
X844871Y408629D02*
Y395300D01*
Y401965D01*
X848203Y405297D01*
X851535Y408629D01*
X854868D01*
X874861Y395300D02*
X868197D01*
X864864Y398632D01*
Y405297D01*
X868197Y408629D01*
X874861D01*
X878193Y405297D01*
Y401965D01*
X864864D01*
X898187Y415294D02*
Y395300D01*
X888190D01*
X884858Y398632D01*
Y405297D01*
X888190Y408629D01*
X898187D01*
X904852D02*
Y398632D01*
X908184Y395300D01*
X918180D01*
Y408629D01*
X924845Y395300D02*
X931509D01*
X928177D01*
Y408629D01*
X924845D01*
X944839Y411961D02*
Y408629D01*
X941506D01*
X948171D01*
X944839D01*
Y398632D01*
X948171Y395300D01*
X968164D02*
X961500D01*
X958168Y398632D01*
Y405297D01*
X961500Y408629D01*
X968164D01*
X971497Y405297D01*
Y401965D01*
X958168D01*
X998155Y388635D02*
X1001487D01*
X1004819Y391968D01*
Y408629D01*
X1018148D02*
Y398632D01*
X1021480Y395300D01*
X1031477D01*
Y408629D01*
X1038142Y395300D02*
X1048139D01*
X1051471Y398632D01*
X1048139Y401965D01*
X1041474D01*
X1038142Y405297D01*
X1041474Y408629D01*
X1051471D01*
X1071464Y388635D02*
Y408629D01*
X1061468D01*
X1058135Y405297D01*
Y398632D01*
X1061468Y395300D01*
X1071464D01*
X1078129Y408629D02*
Y398632D01*
X1081461Y395300D01*
X1091458D01*
Y408629D01*
X1101455Y418626D02*
Y411961D01*
X1098122Y408629D01*
X1114784D02*
X1121448D01*
X1124780Y405297D01*
Y395300D01*
X1114784D01*
X1111451Y398632D01*
X1114784Y401965D01*
X1124780D01*
X1151439Y395300D02*
X1158103D01*
X1154771D01*
Y415294D01*
X1151439Y411961D01*
X1168100D02*
X1171432Y415294D01*
X1178096D01*
X1181429Y411961D01*
Y398632D01*
X1178096Y395300D01*
X1171432D01*
X1168100Y398632D01*
Y411961D01*
X1208087Y395300D02*
Y408629D01*
X1211419D01*
X1214751Y405297D01*
Y395300D01*
Y405297D01*
X1218084Y408629D01*
X1221416Y405297D01*
Y395300D01*
X1228080D02*
X1234745D01*
X1231413D01*
Y408629D01*
X1228080D01*
X1244742Y395300D02*
X1251406D01*
X1248074D01*
Y415294D01*
X1244742D01*
X666029Y456094D02*
X652700D01*
Y436100D01*
X666029D01*
X652700Y446097D02*
X659365D01*
X672693Y436100D02*
Y449429D01*
X682690D01*
X686023Y446097D01*
Y436100D01*
X726010Y449429D02*
X716013D01*
X712681Y446097D01*
Y439432D01*
X716013Y436100D01*
X726010D01*
X736006Y449429D02*
X742671D01*
X746003Y446097D01*
Y436100D01*
X736006D01*
X732674Y439432D01*
X736006Y442765D01*
X746003D01*
X752668Y436100D02*
X762665D01*
X765997Y439432D01*
X762665Y442765D01*
X756000D01*
X752668Y446097D01*
X756000Y449429D01*
X765997D01*
X805984Y456094D02*
Y436100D01*
X795987D01*
X792655Y439432D01*
Y446097D01*
X795987Y449429D01*
X805984D01*
X822645Y436100D02*
X815981D01*
X812648Y439432D01*
Y446097D01*
X815981Y449429D01*
X822645D01*
X825977Y446097D01*
Y442765D01*
X812648D01*
X852635Y456094D02*
Y436100D01*
X862632D01*
X865964Y439432D01*
Y442765D01*
Y446097D01*
X862632Y449429D01*
X852635D01*
X882626Y436100D02*
X875961D01*
X872629Y439432D01*
Y446097D01*
X875961Y449429D01*
X882626D01*
X885958Y446097D01*
Y442765D01*
X872629D01*
X892622Y436100D02*
X902619D01*
X905951Y439432D01*
X902619Y442765D01*
X895955D01*
X892622Y446097D01*
X895955Y449429D01*
X905951D01*
X915948Y436100D02*
X922613D01*
X925945Y439432D01*
Y446097D01*
X922613Y449429D01*
X915948D01*
X912616Y446097D01*
Y439432D01*
X915948Y436100D01*
X932610D02*
X939274D01*
X935942D01*
Y449429D01*
X932610D01*
X949271Y436100D02*
Y449429D01*
X959268D01*
X962600Y446097D01*
Y436100D01*
X972597Y432768D02*
X975929Y436100D01*
Y439432D01*
X972597D01*
Y436100D01*
X975929D01*
X972597Y432768D01*
X969264Y429435D01*
X1022581Y449429D02*
X1012584D01*
X1009251Y446097D01*
Y439432D01*
X1012584Y436100D01*
X1022581D01*
X1039242D02*
X1032577D01*
X1029245Y439432D01*
Y446097D01*
X1032577Y449429D01*
X1039242D01*
X1042574Y446097D01*
Y442765D01*
X1029245D01*
X1052571Y452761D02*
Y449429D01*
X1049238D01*
X1055903D01*
X1052571D01*
Y439432D01*
X1055903Y436100D01*
X1069232Y452761D02*
Y449429D01*
X1065900D01*
X1072564D01*
X1069232D01*
Y439432D01*
X1072564Y436100D01*
X1092558D02*
X1085893D01*
X1082561Y439432D01*
Y446097D01*
X1085893Y449429D01*
X1092558D01*
X1095890Y446097D01*
Y442765D01*
X1082561D01*
X1122548Y436100D02*
X1129213D01*
X1125880D01*
Y456094D01*
X1122548D01*
X1142542Y449429D02*
X1149206D01*
X1152538Y446097D01*
Y436100D01*
X1142542D01*
X1139209Y439432D01*
X1142542Y442765D01*
X1152538D01*
X1159203Y449429D02*
Y436100D01*
Y442765D01*
X1162535Y446097D01*
X1165868Y449429D01*
X1169200D01*
X1185861Y429435D02*
X1189193D01*
X1192526Y432768D01*
Y449429D01*
X1182529D01*
X1179196Y446097D01*
Y439432D01*
X1182529Y436100D01*
X1192526D01*
X1209187D02*
X1202522D01*
X1199190Y439432D01*
Y446097D01*
X1202522Y449429D01*
X1209187D01*
X1212519Y446097D01*
Y442765D01*
X1199190D01*
X1219184Y449429D02*
Y439432D01*
X1222516Y436100D01*
X1232513D01*
Y449429D01*
X1239177D02*
Y436100D01*
Y442765D01*
X1242509Y446097D01*
X1245842Y449429D01*
X1249174D01*
X654932Y472300D02*
X661597D01*
X664929Y475632D01*
Y482297D01*
X661597Y485629D01*
X654932D01*
X651600Y482297D01*
Y475632D01*
X654932Y472300D01*
X671594D02*
Y485629D01*
X681590D01*
X684923Y482297D01*
Y472300D01*
X694919Y488961D02*
Y485629D01*
X691587D01*
X698252D01*
X694919D01*
Y475632D01*
X698252Y472300D01*
X728242Y488961D02*
X731574Y492294D01*
X738239D01*
X741571Y488961D01*
Y485629D01*
X738239Y482297D01*
X734906D01*
X738239D01*
X741571Y478965D01*
Y475632D01*
X738239Y472300D01*
X731574D01*
X728242Y475632D01*
X761564Y472300D02*
X748235D01*
X761564Y485629D01*
Y488961D01*
X758232Y492294D01*
X751568D01*
X748235Y488961D01*
X768229Y472300D02*
Y485629D01*
X771561D01*
X774894Y482297D01*
Y472300D01*
Y482297D01*
X778226Y485629D01*
X781558Y482297D01*
Y472300D01*
X788223D02*
X794887D01*
X791555D01*
Y485629D01*
X788223D01*
X804884Y472300D02*
X811548D01*
X808216D01*
Y492294D01*
X804884D01*
X854868D02*
Y472300D01*
X844871D01*
X841539Y475632D01*
Y482297D01*
X844871Y485629D01*
X854868D01*
X871529Y472300D02*
X864864D01*
X861532Y475632D01*
Y482297D01*
X864864Y485629D01*
X871529D01*
X874861Y482297D01*
Y478965D01*
X861532D01*
X901519Y472300D02*
X908184D01*
X904852D01*
Y492294D01*
X901519D01*
X921513Y485629D02*
X928177D01*
X931509Y482297D01*
Y472300D01*
X921513D01*
X918180Y475632D01*
X921513Y478965D01*
X931509D01*
X938174Y485629D02*
Y472300D01*
Y478965D01*
X941506Y482297D01*
X944839Y485629D01*
X948171D01*
X964832Y465635D02*
X968164D01*
X971497Y468968D01*
Y485629D01*
X961500D01*
X958168Y482297D01*
Y475632D01*
X961500Y472300D01*
X971497D01*
X988158D02*
X981493D01*
X978161Y475632D01*
Y482297D01*
X981493Y485629D01*
X988158D01*
X991490Y482297D01*
Y478965D01*
X978161D01*
X998155Y485629D02*
Y475632D01*
X1001487Y472300D01*
X1011484D01*
Y485629D01*
X1018148D02*
Y472300D01*
Y478965D01*
X1021480Y482297D01*
X1024813Y485629D01*
X1028145D01*
X652100Y510100D02*
Y530093D01*
X662097D01*
X665429Y526761D01*
Y520097D01*
X662097Y516764D01*
X652100D01*
X675426Y523429D02*
X682090D01*
X685423Y520097D01*
Y510100D01*
X675426D01*
X672093Y513432D01*
X675426Y516764D01*
X685423D01*
X692087Y523429D02*
Y510100D01*
Y516764D01*
X695419Y520097D01*
X698752Y523429D01*
X702084D01*
X745403Y530093D02*
Y510100D01*
X735406D01*
X732074Y513432D01*
Y520097D01*
X735406Y523429D01*
X745403D01*
X762065Y510100D02*
X755400D01*
X752068Y513432D01*
Y520097D01*
X755400Y523429D01*
X762065D01*
X765397Y520097D01*
Y516764D01*
X752068D01*
X775393Y510100D02*
Y526761D01*
Y520097D01*
X772061D01*
X778726D01*
X775393D01*
Y526761D01*
X778726Y530093D01*
X792055Y523429D02*
X798719D01*
X802052Y520097D01*
Y510100D01*
X792055D01*
X788723Y513432D01*
X792055Y516764D01*
X802052D01*
X808716Y523429D02*
Y513432D01*
X812048Y510100D01*
X822045D01*
Y523429D01*
X832042Y526761D02*
Y523429D01*
X828710D01*
X835374D01*
X832042D01*
Y513432D01*
X835374Y510100D01*
X848703Y506768D02*
X852035Y510100D01*
Y513432D01*
X848703D01*
Y510100D01*
X852035D01*
X848703Y506768D01*
X845371Y503436D01*
X885358Y510100D02*
X892023D01*
X888690D01*
Y530093D01*
X885358D01*
X912016Y510100D02*
X905352D01*
X902019Y513432D01*
Y520097D01*
X905352Y523429D01*
X912016D01*
X915348Y520097D01*
Y516764D01*
X902019D01*
X922013Y510100D02*
X932010D01*
X935342Y513432D01*
X932010Y516764D01*
X925345D01*
X922013Y520097D01*
X925345Y523429D01*
X935342D01*
X962000Y503436D02*
Y523429D01*
X971997D01*
X975329Y520097D01*
Y513432D01*
X971997Y510100D01*
X962000D01*
X981993D02*
X988658D01*
X985326D01*
Y523429D01*
X981993D01*
X998655Y510100D02*
X1008651D01*
X1011984Y513432D01*
X1008651Y516764D01*
X1001987D01*
X998655Y520097D01*
X1001987Y523429D01*
X1011984D01*
X1021980Y526761D02*
Y523429D01*
X1018648D01*
X1025313D01*
X1021980D01*
Y513432D01*
X1025313Y510100D01*
X1045306D02*
X1038642D01*
X1035310Y513432D01*
Y520097D01*
X1038642Y523429D01*
X1045306D01*
X1048639Y520097D01*
Y516764D01*
X1035310D01*
X1055303Y510100D02*
X1065300D01*
X1068632Y513432D01*
X1065300Y516764D01*
X1058635D01*
X1055303Y520097D01*
X1058635Y523429D01*
X1068632D01*
X652100Y551100D02*
Y564429D01*
X658765Y571094D01*
X665429Y564429D01*
Y551100D01*
Y561097D01*
X652100D01*
X672093Y571094D02*
X685423D01*
X678758D01*
Y551100D01*
X692087Y571094D02*
X705416D01*
X698752D01*
Y551100D01*
X725410Y571094D02*
X712081D01*
Y551100D01*
X725410D01*
X712081Y561097D02*
X718745D01*
X732074Y551100D02*
Y571094D01*
X745403Y551100D01*
Y571094D01*
X752068D02*
X765397D01*
X758732D01*
Y551100D01*
X772061Y571094D02*
X778726D01*
X775393D01*
Y551100D01*
X772061D01*
X778726D01*
X798719Y571094D02*
X792055D01*
X788723Y567761D01*
Y554432D01*
X792055Y551100D01*
X798719D01*
X802052Y554432D01*
Y567761D01*
X798719Y571094D01*
X808716Y551100D02*
Y571094D01*
X822045Y551100D01*
Y571094D01*
X828710Y564429D02*
X832042D01*
Y561097D01*
X828710D01*
Y564429D01*
Y554432D02*
X832042D01*
Y551100D01*
X828710D01*
Y554432D01*
D38*
X-433000Y624800D02*
Y644794D01*
X-426335Y638129D01*
X-419671Y644794D01*
Y624800D01*
X-409674Y638129D02*
X-403010D01*
X-399677Y634797D01*
Y624800D01*
X-409674D01*
X-413006Y628132D01*
X-409674Y631464D01*
X-399677D01*
X-393013Y624800D02*
X-386348D01*
X-389681D01*
Y638129D01*
X-393013D01*
X-376352Y624800D02*
X-366355D01*
X-363023Y628132D01*
X-366355Y631464D01*
X-373019D01*
X-376352Y634797D01*
X-373019Y638129D01*
X-363023D01*
X-336365D02*
X-329700Y624800D01*
X-323036Y638129D01*
X-313039Y624800D02*
X-306374D01*
X-303042Y628132D01*
Y634797D01*
X-306374Y638129D01*
X-313039D01*
X-316371Y634797D01*
Y628132D01*
X-313039Y624800D01*
X-296377Y638129D02*
Y628132D01*
X-293045Y624800D01*
X-283049D01*
Y638129D01*
X-276384Y624800D02*
X-266387D01*
X-263055Y628132D01*
X-266387Y631464D01*
X-273052D01*
X-276384Y634797D01*
X-273052Y638129D01*
X-263055D01*
X-236397Y624800D02*
Y638129D01*
X-226400D01*
X-223068Y634797D01*
Y624800D01*
X-213071Y648126D02*
Y641461D01*
X-216403Y638129D01*
X-193078Y624800D02*
X-199742D01*
X-203074Y628132D01*
Y634797D01*
X-199742Y638129D01*
X-193078D01*
X-189745Y634797D01*
Y631464D01*
X-203074D01*
X-179748Y641461D02*
Y638129D01*
X-183081D01*
X-176416D01*
X-179748D01*
Y628132D01*
X-176416Y624800D01*
X-156423D02*
X-163087D01*
X-166419Y628132D01*
Y634797D01*
X-163087Y638129D01*
X-156423D01*
X-153091Y634797D01*
Y631464D01*
X-166419D01*
X-146426Y624800D02*
X-136429D01*
X-133097Y628132D01*
X-136429Y631464D01*
X-143094D01*
X-146426Y634797D01*
X-143094Y638129D01*
X-133097D01*
X-106439Y618135D02*
Y638129D01*
X-96442D01*
X-93110Y634797D01*
Y628132D01*
X-96442Y624800D01*
X-106439D01*
X-83113Y638129D02*
X-76449D01*
X-73116Y634797D01*
Y624800D01*
X-83113D01*
X-86445Y628132D01*
X-83113Y631464D01*
X-73116D01*
X-66452Y624800D02*
X-56455D01*
X-53123Y628132D01*
X-56455Y631464D01*
X-63120D01*
X-66452Y634797D01*
X-63120Y638129D01*
X-53123D01*
X-23132Y624800D02*
X-16468D01*
X-13136Y628132D01*
Y634797D01*
X-16468Y638129D01*
X-23132D01*
X-26465Y634797D01*
Y628132D01*
X-23132Y624800D01*
X-6471Y644794D02*
Y624800D01*
X3526D01*
X6858Y628132D01*
Y631464D01*
Y634797D01*
X3526Y638129D01*
X-6471D01*
X13522Y624800D02*
X20187D01*
X16855D01*
Y644794D01*
X13522D01*
X30184Y624800D02*
X36848D01*
X33516D01*
Y638129D01*
X30184D01*
X53509Y618135D02*
X56842D01*
X60174Y621468D01*
Y638129D01*
X50177D01*
X46845Y634797D01*
Y628132D01*
X50177Y624800D01*
X60174D01*
X76835D02*
X70171D01*
X66839Y628132D01*
Y634797D01*
X70171Y638129D01*
X76835D01*
X80168Y634797D01*
Y631464D01*
X66839D01*
X86832Y624800D02*
X96829D01*
X100161Y628132D01*
X96829Y631464D01*
X90164D01*
X86832Y634797D01*
X90164Y638129D01*
X100161D01*
X140148Y644794D02*
Y624800D01*
X130151D01*
X126819Y628132D01*
Y634797D01*
X130151Y638129D01*
X140148D01*
X156809Y624800D02*
X150145D01*
X146813Y628132D01*
Y634797D01*
X150145Y638129D01*
X156809D01*
X160142Y634797D01*
Y631464D01*
X146813D01*
X190132Y641461D02*
Y638129D01*
X186800D01*
X193464D01*
X190132D01*
Y628132D01*
X193464Y624800D01*
X206793D02*
X213458D01*
X216790Y628132D01*
Y634797D01*
X213458Y638129D01*
X206793D01*
X203461Y634797D01*
Y628132D01*
X206793Y624800D01*
X223454Y638129D02*
Y628132D01*
X226787Y624800D01*
X236784D01*
Y638129D01*
X246780Y641461D02*
Y638129D01*
X243448D01*
X250113D01*
X246780D01*
Y628132D01*
X250113Y624800D01*
X280103Y638129D02*
Y628132D01*
X283435Y624800D01*
X293432D01*
Y638129D01*
X303429Y641461D02*
Y638129D01*
X300096D01*
X306761D01*
X303429D01*
Y628132D01*
X306761Y624800D01*
X316758D02*
X323422D01*
X320090D01*
Y638129D01*
X316758D01*
X333419Y624800D02*
X340084D01*
X336751D01*
Y644794D01*
X333419D01*
X350080Y624800D02*
X356745D01*
X353413D01*
Y638129D01*
X350080D01*
X366742Y624800D02*
X376738D01*
X380071Y628132D01*
X376738Y631464D01*
X370074D01*
X366742Y634797D01*
X370074Y638129D01*
X380071D01*
X396732Y624800D02*
X390067D01*
X386735Y628132D01*
Y634797D01*
X390067Y638129D01*
X396732D01*
X400064Y634797D01*
Y631464D01*
X386735D01*
X406729Y638129D02*
Y624800D01*
Y631464D01*
X410061Y634797D01*
X413393Y638129D01*
X416725D01*
X426722Y631464D02*
Y648126D01*
Y628132D02*
Y624800D01*
X433387Y631464D02*
Y648126D01*
Y628132D02*
Y624800D01*
X-503000Y686393D02*
Y666400D01*
X-489671D01*
X-473010D02*
X-479674D01*
X-483006Y669732D01*
Y676397D01*
X-479674Y679729D01*
X-473010D01*
X-469677Y676397D01*
Y673065D01*
X-483006D01*
X-463013Y666400D02*
X-453016D01*
X-449684Y669732D01*
X-453016Y673065D01*
X-459681D01*
X-463013Y676397D01*
X-459681Y679729D01*
X-449684D01*
X-423026Y686393D02*
Y666400D01*
X-413029D01*
X-409697Y669732D01*
Y673065D01*
Y676397D01*
X-413029Y679729D01*
X-423026D01*
X-399700D02*
X-393036D01*
X-389703Y676397D01*
Y666400D01*
X-399700D01*
X-403032Y669732D01*
X-399700Y673065D01*
X-389703D01*
X-383039Y666400D02*
Y679729D01*
X-373042D01*
X-369710Y676397D01*
Y666400D01*
X-349716Y686393D02*
Y666400D01*
X-359713D01*
X-363045Y669732D01*
Y676397D01*
X-359713Y679729D01*
X-349716D01*
X-333055Y666400D02*
X-339719D01*
X-343052Y669732D01*
Y676397D01*
X-339719Y679729D01*
X-333055D01*
X-329723Y676397D01*
Y673065D01*
X-343052D01*
X-323058Y666400D02*
X-313061D01*
X-309729Y669732D01*
X-313061Y673065D01*
X-319726D01*
X-323058Y676397D01*
X-319726Y679729D01*
X-309729D01*
X-273074Y666400D02*
X-279739D01*
X-283071Y669732D01*
Y676397D01*
X-279739Y679729D01*
X-273074D01*
X-269742Y676397D01*
Y673065D01*
X-283071D01*
X-263077Y666400D02*
Y679729D01*
X-253081D01*
X-249748Y676397D01*
Y666400D01*
X-223090Y679729D02*
X-216426Y666400D01*
X-209761Y679729D01*
X-203097Y666400D02*
X-196432D01*
X-199765D01*
Y679729D01*
X-203097D01*
X-183103Y666400D02*
X-176439D01*
X-173107Y669732D01*
Y676397D01*
X-176439Y679729D01*
X-183103D01*
X-186436Y676397D01*
Y669732D01*
X-183103Y666400D01*
X-166442D02*
X-159778D01*
X-163110D01*
Y686393D01*
X-166442D01*
X-139784Y666400D02*
X-146449D01*
X-149781Y669732D01*
Y676397D01*
X-146449Y679729D01*
X-139784D01*
X-136452Y676397D01*
Y673065D01*
X-149781D01*
X-126455Y683061D02*
Y679729D01*
X-129787D01*
X-123123D01*
X-126455D01*
Y669732D01*
X-123123Y666400D01*
X-79803Y686393D02*
Y666400D01*
X-89800D01*
X-93132Y669732D01*
Y676397D01*
X-89800Y679729D01*
X-79803D01*
X-63142Y666400D02*
X-69807D01*
X-73139Y669732D01*
Y676397D01*
X-69807Y679729D01*
X-63142D01*
X-59810Y676397D01*
Y673065D01*
X-73139D01*
X-53145Y666400D02*
X-46481D01*
X-49813D01*
Y686393D01*
X-53145D01*
X-36484Y666400D02*
X-29820D01*
X-33152D01*
Y679729D01*
X-36484D01*
X-19823Y666400D02*
Y679729D01*
X-16490D01*
X-13158Y676397D01*
Y666400D01*
Y676397D01*
X-9826Y679729D01*
X-6494Y676397D01*
Y666400D01*
X171D02*
X6835D01*
X3503D01*
Y679729D01*
X171D01*
X20164Y683061D02*
Y679729D01*
X16832D01*
X23496D01*
X20164D01*
Y669732D01*
X23496Y666400D01*
X43490D02*
X36826D01*
X33493Y669732D01*
Y676397D01*
X36826Y679729D01*
X43490D01*
X46822Y676397D01*
Y673065D01*
X33493D01*
X53487Y666400D02*
Y679729D01*
X63484D01*
X66816Y676397D01*
Y666400D01*
X76813Y683061D02*
Y679729D01*
X73480D01*
X80145D01*
X76813D01*
Y669732D01*
X80145Y666400D01*
X110135D02*
X116800D01*
X113468D01*
Y686393D01*
X110135D01*
X130129Y679729D02*
X136793D01*
X140126Y676397D01*
Y666400D01*
X130129D01*
X126796Y669732D01*
X130129Y673065D01*
X140126D01*
X166784Y666400D02*
X176780D01*
X180113Y669732D01*
X176780Y673065D01*
X170116D01*
X166784Y676397D01*
X170116Y679729D01*
X180113D01*
X186777D02*
Y669732D01*
X190109Y666400D01*
X200106D01*
Y679729D01*
X206771D02*
Y666400D01*
Y673065D01*
X210103Y676397D01*
X213435Y679729D01*
X216767D01*
X230096Y666400D02*
Y683061D01*
Y676397D01*
X226764D01*
X233429D01*
X230096D01*
Y683061D01*
X233429Y686393D01*
X246758Y679729D02*
X253422D01*
X256754Y676397D01*
Y666400D01*
X246758D01*
X243425Y669732D01*
X246758Y673065D01*
X256754D01*
X276748Y679729D02*
X266751D01*
X263419Y676397D01*
Y669732D01*
X266751Y666400D01*
X276748D01*
X293409D02*
X286745D01*
X283413Y669732D01*
Y676397D01*
X286745Y679729D01*
X293409D01*
X296742Y676397D01*
Y673065D01*
X283413D01*
X323400Y679729D02*
Y669732D01*
X326732Y666400D01*
X336729D01*
Y679729D01*
X346725Y683061D02*
Y679729D01*
X343393D01*
X350058D01*
X346725D01*
Y669732D01*
X350058Y666400D01*
X360054D02*
X366719D01*
X363387D01*
Y679729D01*
X360054D01*
X376716Y666400D02*
X383380D01*
X380048D01*
Y686393D01*
X376716D01*
X393377Y666400D02*
X400041D01*
X396709D01*
Y679729D01*
X393377D01*
X410038Y666400D02*
X420035D01*
X423367Y669732D01*
X420035Y673065D01*
X413371D01*
X410038Y676397D01*
X413371Y679729D01*
X423367D01*
X433364D02*
X440029D01*
X443361Y676397D01*
Y666400D01*
X433364D01*
X430032Y669732D01*
X433364Y673065D01*
X443361D01*
X450025Y686393D02*
Y666400D01*
X460022D01*
X463354Y669732D01*
Y673065D01*
Y676397D01*
X460022Y679729D01*
X450025D01*
X470019Y666400D02*
X476683D01*
X473351D01*
Y686393D01*
X470019D01*
X496677Y666400D02*
X490012D01*
X486680Y669732D01*
Y676397D01*
X490012Y679729D01*
X496677D01*
X500009Y676397D01*
Y673065D01*
X486680D01*
X506674Y666400D02*
Y669732D01*
X510006D01*
Y666400D01*
X506674D01*
X523335D02*
Y669732D01*
X526667D01*
Y666400D01*
X523335D01*
X539996D02*
Y669732D01*
X543329D01*
Y666400D01*
X539996D01*
X556658D02*
Y669732D01*
X559990D01*
Y666400D01*
X556658D01*
M02*
