G04 Layer_Color=16711935*
%FSLAX25Y25*%
%MOIN*%
G70*
G01*
G75*
%ADD24C,0.07001*%
%ADD25C,0.07000*%
%ADD26R,0.06706X0.06706*%
%ADD27C,0.06706*%
%ADD28O,0.08800X0.05800*%
%ADD29C,0.24422*%
%ADD30C,0.16548*%
%ADD31R,0.07001X0.07001*%
%ADD32O,0.05800X0.08800*%
D24*
X25669Y307913D02*
D03*
Y317913D02*
D03*
Y327913D02*
D03*
Y337913D02*
D03*
X46535Y287244D02*
D03*
Y297244D02*
D03*
Y307244D02*
D03*
Y317244D02*
D03*
Y327244D02*
D03*
Y337244D02*
D03*
Y347244D02*
D03*
Y357244D02*
D03*
X96535D02*
D03*
Y347244D02*
D03*
Y337244D02*
D03*
Y327244D02*
D03*
Y317244D02*
D03*
Y307244D02*
D03*
Y297244D02*
D03*
Y287244D02*
D03*
X61614Y375827D02*
D03*
X71614D02*
D03*
X81614D02*
D03*
X91614D02*
D03*
X122126Y420118D02*
D03*
Y410118D02*
D03*
Y400118D02*
D03*
Y390118D02*
D03*
Y380118D02*
D03*
Y370118D02*
D03*
Y360118D02*
D03*
Y350118D02*
D03*
Y340118D02*
D03*
Y330118D02*
D03*
Y320118D02*
D03*
Y310118D02*
D03*
Y300118D02*
D03*
Y280118D02*
D03*
X222126D02*
D03*
Y300118D02*
D03*
Y310118D02*
D03*
Y320118D02*
D03*
Y330118D02*
D03*
Y340118D02*
D03*
Y350118D02*
D03*
Y360118D02*
D03*
Y370118D02*
D03*
Y380118D02*
D03*
Y390118D02*
D03*
Y400118D02*
D03*
Y410118D02*
D03*
Y420118D02*
D03*
D25*
X74410Y267759D02*
D03*
X104409D02*
D03*
X249879Y312362D02*
D03*
Y342362D02*
D03*
X264173Y355118D02*
D03*
X274173D02*
D03*
X268268Y299839D02*
D03*
X238268D02*
D03*
D26*
X32559Y407323D02*
D03*
X271654Y331102D02*
D03*
D27*
X32559Y397323D02*
D03*
X271654Y321102D02*
D03*
D28*
X250000Y264567D02*
D03*
Y274567D02*
D03*
D29*
X272716Y445709D02*
D03*
X273701Y267559D02*
D03*
X18779Y268543D02*
D03*
X21732Y445709D02*
D03*
D30*
X273504Y386260D02*
D03*
X248701D02*
D03*
X261102Y406102D02*
D03*
D31*
X222126Y290118D02*
D03*
X122126D02*
D03*
D32*
X54213Y267559D02*
D03*
X64213D02*
D03*
M02*
