G04 Layer_Color=0*
%FSLAX24Y24*%
%MOIN*%
G70*
G01*
G75*
%ADD37C,0.0250*%
%ADD38C,0.0200*%
G54D37*
X-50300Y68639D02*
Y66640D01*
X-48967D01*
X-47301D02*
X-47967D01*
X-48301Y66973D01*
Y67640D01*
X-47967Y67973D01*
X-47301D01*
X-46968Y67640D01*
Y67306D01*
X-48301D01*
X-46301Y66640D02*
X-45302D01*
X-44968Y66973D01*
X-45302Y67306D01*
X-45968D01*
X-46301Y67640D01*
X-45968Y67973D01*
X-44968D01*
X-42303Y68639D02*
Y66640D01*
X-41303D01*
X-40970Y66973D01*
Y67306D01*
Y67640D01*
X-41303Y67973D01*
X-42303D01*
X-39970D02*
X-39304D01*
X-38970Y67640D01*
Y66640D01*
X-39970D01*
X-40303Y66973D01*
X-39970Y67306D01*
X-38970D01*
X-38304Y66640D02*
Y67973D01*
X-37304D01*
X-36971Y67640D01*
Y66640D01*
X-34972Y68639D02*
Y66640D01*
X-35971D01*
X-36305Y66973D01*
Y67640D01*
X-35971Y67973D01*
X-34972D01*
X-33305Y66640D02*
X-33972D01*
X-34305Y66973D01*
Y67640D01*
X-33972Y67973D01*
X-33305D01*
X-32972Y67640D01*
Y67306D01*
X-34305D01*
X-32306Y66640D02*
X-31306D01*
X-30973Y66973D01*
X-31306Y67306D01*
X-31973D01*
X-32306Y67640D01*
X-31973Y67973D01*
X-30973D01*
X-27307Y66640D02*
X-27974D01*
X-28307Y66973D01*
Y67640D01*
X-27974Y67973D01*
X-27307D01*
X-26974Y67640D01*
Y67306D01*
X-28307D01*
X-26308Y66640D02*
Y67973D01*
X-25308D01*
X-24975Y67640D01*
Y66640D01*
X-22309Y67973D02*
X-21643Y66640D01*
X-20976Y67973D01*
X-20310Y66640D02*
X-19643D01*
X-19976D01*
Y67973D01*
X-20310D01*
X-18310Y66640D02*
X-17644D01*
X-17311Y66973D01*
Y67640D01*
X-17644Y67973D01*
X-18310D01*
X-18644Y67640D01*
Y66973D01*
X-18310Y66640D01*
X-16644D02*
X-15978D01*
X-16311D01*
Y68639D01*
X-16644D01*
X-13978Y66640D02*
X-14645D01*
X-14978Y66973D01*
Y67640D01*
X-14645Y67973D01*
X-13978D01*
X-13645Y67640D01*
Y67306D01*
X-14978D01*
X-12645Y68306D02*
Y67973D01*
X-12979D01*
X-12312D01*
X-12645D01*
Y66973D01*
X-12312Y66640D01*
X-7980Y68639D02*
Y66640D01*
X-8980D01*
X-9313Y66973D01*
Y67640D01*
X-8980Y67973D01*
X-7980D01*
X-6314Y66640D02*
X-6981D01*
X-7314Y66973D01*
Y67640D01*
X-6981Y67973D01*
X-6314D01*
X-5981Y67640D01*
Y67306D01*
X-7314D01*
X-5315Y66640D02*
X-4648D01*
X-4981D01*
Y68639D01*
X-5315D01*
X-3648Y66640D02*
X-2982D01*
X-3315D01*
Y67973D01*
X-3648D01*
X-1982Y66640D02*
Y67973D01*
X-1649D01*
X-1316Y67640D01*
Y66640D01*
Y67640D01*
X-983Y67973D01*
X-649Y67640D01*
Y66640D01*
X17D02*
X684D01*
X350D01*
Y67973D01*
X17D01*
X2016Y68306D02*
Y67973D01*
X1683D01*
X2350D01*
X2016D01*
Y66973D01*
X2350Y66640D01*
X4349D02*
X3683D01*
X3349Y66973D01*
Y67640D01*
X3683Y67973D01*
X4349D01*
X4682Y67640D01*
Y67306D01*
X3349D01*
X5349Y66640D02*
Y67973D01*
X6348D01*
X6682Y67640D01*
Y66640D01*
X7681Y68306D02*
Y67973D01*
X7348D01*
X8014D01*
X7681D01*
Y66973D01*
X8014Y66640D01*
X11014D02*
X11680D01*
X11347D01*
Y68639D01*
X11014D01*
X13013Y67973D02*
X13679D01*
X14013Y67640D01*
Y66640D01*
X13013D01*
X12680Y66973D01*
X13013Y67306D01*
X14013D01*
X16678Y66640D02*
X17678D01*
X18011Y66973D01*
X17678Y67306D01*
X17012D01*
X16678Y67640D01*
X17012Y67973D01*
X18011D01*
X18678D02*
Y66973D01*
X19011Y66640D01*
X20011D01*
Y67973D01*
X20677D02*
Y66640D01*
Y67306D01*
X21010Y67640D01*
X21344Y67973D01*
X21677D01*
X23010Y66640D02*
Y68306D01*
Y67640D01*
X22676D01*
X23343D01*
X23010D01*
Y68306D01*
X23343Y68639D01*
X24676Y67973D02*
X25342D01*
X25675Y67640D01*
Y66640D01*
X24676D01*
X24343Y66973D01*
X24676Y67306D01*
X25675D01*
X27675Y67973D02*
X26675D01*
X26342Y67640D01*
Y66973D01*
X26675Y66640D01*
X27675D01*
X29341D02*
X28674D01*
X28341Y66973D01*
Y67640D01*
X28674Y67973D01*
X29341D01*
X29674Y67640D01*
Y67306D01*
X28341D01*
X32340Y67973D02*
Y66973D01*
X32673Y66640D01*
X33673D01*
Y67973D01*
X34673Y68306D02*
Y67973D01*
X34339D01*
X35006D01*
X34673D01*
Y66973D01*
X35006Y66640D01*
X36005D02*
X36672D01*
X36339D01*
Y67973D01*
X36005D01*
X37672Y66640D02*
X38338D01*
X38005D01*
Y68639D01*
X37672D01*
X39338Y66640D02*
X40004D01*
X39671D01*
Y67973D01*
X39338D01*
X41004Y66640D02*
X42003D01*
X42337Y66973D01*
X42003Y67306D01*
X41337D01*
X41004Y67640D01*
X41337Y67973D01*
X42337D01*
X43336D02*
X44003D01*
X44336Y67640D01*
Y66640D01*
X43336D01*
X43003Y66973D01*
X43336Y67306D01*
X44336D01*
X45003Y68639D02*
Y66640D01*
X46002D01*
X46335Y66973D01*
Y67306D01*
Y67640D01*
X46002Y67973D01*
X45003D01*
X47002Y66640D02*
X47668D01*
X47335D01*
Y68639D01*
X47002D01*
X49668Y66640D02*
X49001D01*
X48668Y66973D01*
Y67640D01*
X49001Y67973D01*
X49668D01*
X50001Y67640D01*
Y67306D01*
X48668D01*
X50667Y66640D02*
Y66973D01*
X51001D01*
Y66640D01*
X50667D01*
X52333D02*
Y66973D01*
X52667D01*
Y66640D01*
X52333D01*
X54000D02*
Y66973D01*
X54333D01*
Y66640D01*
X54000D01*
X55666D02*
Y66973D01*
X55999D01*
Y66640D01*
X55666D01*
X-43300Y62480D02*
Y64479D01*
X-42634Y63813D01*
X-41967Y64479D01*
Y62480D01*
X-40967Y63813D02*
X-40301D01*
X-39968Y63480D01*
Y62480D01*
X-40967D01*
X-41301Y62813D01*
X-40967Y63146D01*
X-39968D01*
X-39301Y62480D02*
X-38635D01*
X-38968D01*
Y63813D01*
X-39301D01*
X-37635Y62480D02*
X-36635D01*
X-36302Y62813D01*
X-36635Y63146D01*
X-37302D01*
X-37635Y63480D01*
X-37302Y63813D01*
X-36302D01*
X-33636D02*
X-32970Y62480D01*
X-32304Y63813D01*
X-31304Y62480D02*
X-30637D01*
X-30304Y62813D01*
Y63480D01*
X-30637Y63813D01*
X-31304D01*
X-31637Y63480D01*
Y62813D01*
X-31304Y62480D01*
X-29638Y63813D02*
Y62813D01*
X-29305Y62480D01*
X-28305D01*
Y63813D01*
X-27638Y62480D02*
X-26639D01*
X-26305Y62813D01*
X-26639Y63146D01*
X-27305D01*
X-27638Y63480D01*
X-27305Y63813D01*
X-26305D01*
X-23640Y62480D02*
Y63813D01*
X-22640D01*
X-22307Y63480D01*
Y62480D01*
X-21307Y64813D02*
Y64146D01*
X-21640Y63813D01*
X-19308Y62480D02*
X-19974D01*
X-20307Y62813D01*
Y63480D01*
X-19974Y63813D01*
X-19308D01*
X-18975Y63480D01*
Y63146D01*
X-20307D01*
X-17975Y64146D02*
Y63813D01*
X-18308D01*
X-17642D01*
X-17975D01*
Y62813D01*
X-17642Y62480D01*
X-15642D02*
X-16309D01*
X-16642Y62813D01*
Y63480D01*
X-16309Y63813D01*
X-15642D01*
X-15309Y63480D01*
Y63146D01*
X-16642D01*
X-14643Y62480D02*
X-13643D01*
X-13310Y62813D01*
X-13643Y63146D01*
X-14309D01*
X-14643Y63480D01*
X-14309Y63813D01*
X-13310D01*
X-10644Y61814D02*
Y63813D01*
X-9644D01*
X-9311Y63480D01*
Y62813D01*
X-9644Y62480D01*
X-10644D01*
X-8311Y63813D02*
X-7645D01*
X-7312Y63480D01*
Y62480D01*
X-8311D01*
X-8645Y62813D01*
X-8311Y63146D01*
X-7312D01*
X-6645Y62480D02*
X-5645D01*
X-5312Y62813D01*
X-5645Y63146D01*
X-6312D01*
X-6645Y63480D01*
X-6312Y63813D01*
X-5312D01*
X-2313Y62480D02*
X-1647D01*
X-1314Y62813D01*
Y63480D01*
X-1647Y63813D01*
X-2313D01*
X-2646Y63480D01*
Y62813D01*
X-2313Y62480D01*
X-647Y64479D02*
Y62480D01*
X353D01*
X686Y62813D01*
Y63146D01*
Y63480D01*
X353Y63813D01*
X-647D01*
X1352Y62480D02*
X2019D01*
X1685D01*
Y64479D01*
X1352D01*
X3018Y62480D02*
X3685D01*
X3352D01*
Y63813D01*
X3018D01*
X5351Y61814D02*
X5684D01*
X6017Y62147D01*
Y63813D01*
X5018D01*
X4684Y63480D01*
Y62813D01*
X5018Y62480D01*
X6017D01*
X7684D02*
X7017D01*
X6684Y62813D01*
Y63480D01*
X7017Y63813D01*
X7684D01*
X8017Y63480D01*
Y63146D01*
X6684D01*
X8683Y62480D02*
X9683D01*
X10016Y62813D01*
X9683Y63146D01*
X9016D01*
X8683Y63480D01*
X9016Y63813D01*
X10016D01*
X14015Y64479D02*
Y62480D01*
X13015D01*
X12682Y62813D01*
Y63480D01*
X13015Y63813D01*
X14015D01*
X15681Y62480D02*
X15014D01*
X14681Y62813D01*
Y63480D01*
X15014Y63813D01*
X15681D01*
X16014Y63480D01*
Y63146D01*
X14681D01*
X19013Y64146D02*
Y63813D01*
X18680D01*
X19346D01*
X19013D01*
Y62813D01*
X19346Y62480D01*
X20679D02*
X21346D01*
X21679Y62813D01*
Y63480D01*
X21346Y63813D01*
X20679D01*
X20346Y63480D01*
Y62813D01*
X20679Y62480D01*
X22345Y63813D02*
Y62813D01*
X22679Y62480D01*
X23678D01*
Y63813D01*
X24678Y64146D02*
Y63813D01*
X24345D01*
X25011D01*
X24678D01*
Y62813D01*
X25011Y62480D01*
X28010Y63813D02*
Y62813D01*
X28344Y62480D01*
X29343D01*
Y63813D01*
X30343Y64146D02*
Y63813D01*
X30010D01*
X30676D01*
X30343D01*
Y62813D01*
X30676Y62480D01*
X31676D02*
X32342D01*
X32009D01*
Y63813D01*
X31676D01*
X33342Y62480D02*
X34008D01*
X33675D01*
Y64479D01*
X33342D01*
X35008Y62480D02*
X35674D01*
X35341D01*
Y63813D01*
X35008D01*
X36674Y62480D02*
X37674D01*
X38007Y62813D01*
X37674Y63146D01*
X37007D01*
X36674Y63480D01*
X37007Y63813D01*
X38007D01*
X39673Y62480D02*
X39007D01*
X38674Y62813D01*
Y63480D01*
X39007Y63813D01*
X39673D01*
X40006Y63480D01*
Y63146D01*
X38674D01*
X40673Y63813D02*
Y62480D01*
Y63146D01*
X41006Y63480D01*
X41339Y63813D01*
X41673D01*
X42672Y63146D02*
Y64813D01*
Y62813D02*
Y62480D01*
X43339Y63146D02*
Y64813D01*
Y62813D02*
Y62480D01*
G54D38*
X65210Y55110D02*
Y56443D01*
X65876Y57109D01*
X66543Y56443D01*
Y55110D01*
Y56110D01*
X65210D01*
X67209Y57109D02*
X68542D01*
X67876D01*
Y55110D01*
X69209Y57109D02*
X70542D01*
X69875D01*
Y55110D01*
X72541Y57109D02*
X71208D01*
Y55110D01*
X72541D01*
X71208Y56110D02*
X71875D01*
X73207Y55110D02*
Y57109D01*
X74540Y55110D01*
Y57109D01*
X75207D02*
X76540D01*
X75873D01*
Y55110D01*
X77206Y57109D02*
X77873D01*
X77539D01*
Y55110D01*
X77206D01*
X77873D01*
X79872Y57109D02*
X79205D01*
X78872Y56776D01*
Y55443D01*
X79205Y55110D01*
X79872D01*
X80205Y55443D01*
Y56776D01*
X79872Y57109D01*
X80872Y55110D02*
Y57109D01*
X82205Y55110D01*
Y57109D01*
X82871Y56443D02*
X83204D01*
Y56110D01*
X82871D01*
Y56443D01*
Y55443D02*
X83204D01*
Y55110D01*
X82871D01*
Y55443D01*
X65210Y51010D02*
Y53009D01*
X66210D01*
X66543Y52676D01*
Y52010D01*
X66210Y51676D01*
X65210D01*
X67543Y52343D02*
X68209D01*
X68542Y52010D01*
Y51010D01*
X67543D01*
X67209Y51343D01*
X67543Y51676D01*
X68542D01*
X69209Y52343D02*
Y51010D01*
Y51676D01*
X69542Y52010D01*
X69875Y52343D01*
X70208D01*
X74540Y53009D02*
Y51010D01*
X73541D01*
X73207Y51343D01*
Y52010D01*
X73541Y52343D01*
X74540D01*
X76206Y51010D02*
X75540D01*
X75207Y51343D01*
Y52010D01*
X75540Y52343D01*
X76206D01*
X76540Y52010D01*
Y51676D01*
X75207D01*
X77539Y51010D02*
Y52676D01*
Y52010D01*
X77206D01*
X77873D01*
X77539D01*
Y52676D01*
X77873Y53009D01*
X79205Y52343D02*
X79872D01*
X80205Y52010D01*
Y51010D01*
X79205D01*
X78872Y51343D01*
X79205Y51676D01*
X80205D01*
X80872Y52343D02*
Y51343D01*
X81205Y51010D01*
X82205D01*
Y52343D01*
X83204Y52676D02*
Y52343D01*
X82871D01*
X83537D01*
X83204D01*
Y51343D01*
X83537Y51010D01*
X84870Y50677D02*
X85204Y51010D01*
Y51343D01*
X84870D01*
Y51010D01*
X85204D01*
X84870Y50677D01*
X84537Y50344D01*
X88536Y51010D02*
X89202D01*
X88869D01*
Y53009D01*
X88536D01*
X91202Y51010D02*
X90535D01*
X90202Y51343D01*
Y52010D01*
X90535Y52343D01*
X91202D01*
X91535Y52010D01*
Y51676D01*
X90202D01*
X92201Y51010D02*
X93201D01*
X93534Y51343D01*
X93201Y51676D01*
X92535D01*
X92201Y52010D01*
X92535Y52343D01*
X93534D01*
X96200Y50344D02*
Y52343D01*
X97200D01*
X97533Y52010D01*
Y51343D01*
X97200Y51010D01*
X96200D01*
X98199D02*
X98866D01*
X98533D01*
Y52343D01*
X98199D01*
X99865Y51010D02*
X100865D01*
X101198Y51343D01*
X100865Y51676D01*
X100199D01*
X99865Y52010D01*
X100199Y52343D01*
X101198D01*
X102198Y52676D02*
Y52343D01*
X101865D01*
X102531D01*
X102198D01*
Y51343D01*
X102531Y51010D01*
X104531D02*
X103864D01*
X103531Y51343D01*
Y52010D01*
X103864Y52343D01*
X104531D01*
X104864Y52010D01*
Y51676D01*
X103531D01*
X105530Y51010D02*
X106530D01*
X106863Y51343D01*
X106530Y51676D01*
X105864D01*
X105530Y52010D01*
X105864Y52343D01*
X106863D01*
X65493Y47230D02*
X66160D01*
X66493Y47563D01*
Y48230D01*
X66160Y48563D01*
X65493D01*
X65160Y48230D01*
Y47563D01*
X65493Y47230D01*
X67159D02*
Y48563D01*
X68159D01*
X68492Y48230D01*
Y47230D01*
X69492Y48896D02*
Y48563D01*
X69159D01*
X69825D01*
X69492D01*
Y47563D01*
X69825Y47230D01*
X72824Y48896D02*
X73157Y49229D01*
X73824D01*
X74157Y48896D01*
Y48563D01*
X73824Y48230D01*
X73491D01*
X73824D01*
X74157Y47896D01*
Y47563D01*
X73824Y47230D01*
X73157D01*
X72824Y47563D01*
X76156Y47230D02*
X74824D01*
X76156Y48563D01*
Y48896D01*
X75823Y49229D01*
X75157D01*
X74824Y48896D01*
X76823Y47230D02*
Y48563D01*
X77156D01*
X77489Y48230D01*
Y47230D01*
Y48230D01*
X77823Y48563D01*
X78156Y48230D01*
Y47230D01*
X78822D02*
X79489D01*
X79155D01*
Y48563D01*
X78822D01*
X80488Y47230D02*
X81155D01*
X80822D01*
Y49229D01*
X80488D01*
X85487D02*
Y47230D01*
X84487D01*
X84154Y47563D01*
Y48230D01*
X84487Y48563D01*
X85487D01*
X87153Y47230D02*
X86486D01*
X86153Y47563D01*
Y48230D01*
X86486Y48563D01*
X87153D01*
X87486Y48230D01*
Y47896D01*
X86153D01*
X90152Y47230D02*
X90818D01*
X90485D01*
Y49229D01*
X90152D01*
X92151Y48563D02*
X92818D01*
X93151Y48230D01*
Y47230D01*
X92151D01*
X91818Y47563D01*
X92151Y47896D01*
X93151D01*
X93817Y48563D02*
Y47230D01*
Y47896D01*
X94151Y48230D01*
X94484Y48563D01*
X94817D01*
X96483Y46564D02*
X96816D01*
X97150Y46897D01*
Y48563D01*
X96150D01*
X95817Y48230D01*
Y47563D01*
X96150Y47230D01*
X97150D01*
X98816D02*
X98149D01*
X97816Y47563D01*
Y48230D01*
X98149Y48563D01*
X98816D01*
X99149Y48230D01*
Y47896D01*
X97816D01*
X99815Y48563D02*
Y47563D01*
X100149Y47230D01*
X101148D01*
Y48563D01*
X101815D02*
Y47230D01*
Y47896D01*
X102148Y48230D01*
X102481Y48563D01*
X102815D01*
X66603Y45609D02*
X65270D01*
Y43610D01*
X66603D01*
X65270Y44610D02*
X65936D01*
X67269Y43610D02*
Y44943D01*
X68269D01*
X68602Y44610D01*
Y43610D01*
X72601Y44943D02*
X71601D01*
X71268Y44610D01*
Y43943D01*
X71601Y43610D01*
X72601D01*
X73601Y44943D02*
X74267D01*
X74600Y44610D01*
Y43610D01*
X73601D01*
X73267Y43943D01*
X73601Y44276D01*
X74600D01*
X75267Y43610D02*
X76266D01*
X76600Y43943D01*
X76266Y44276D01*
X75600D01*
X75267Y44610D01*
X75600Y44943D01*
X76600D01*
X80598Y45609D02*
Y43610D01*
X79599D01*
X79265Y43943D01*
Y44610D01*
X79599Y44943D01*
X80598D01*
X82265Y43610D02*
X81598D01*
X81265Y43943D01*
Y44610D01*
X81598Y44943D01*
X82265D01*
X82598Y44610D01*
Y44276D01*
X81265D01*
X85264Y45609D02*
Y43610D01*
X86263D01*
X86596Y43943D01*
Y44276D01*
Y44610D01*
X86263Y44943D01*
X85264D01*
X88263Y43610D02*
X87596D01*
X87263Y43943D01*
Y44610D01*
X87596Y44943D01*
X88263D01*
X88596Y44610D01*
Y44276D01*
X87263D01*
X89262Y43610D02*
X90262D01*
X90595Y43943D01*
X90262Y44276D01*
X89595D01*
X89262Y44610D01*
X89595Y44943D01*
X90595D01*
X91595Y43610D02*
X92261D01*
X92594Y43943D01*
Y44610D01*
X92261Y44943D01*
X91595D01*
X91262Y44610D01*
Y43943D01*
X91595Y43610D01*
X93261D02*
X93927D01*
X93594D01*
Y44943D01*
X93261D01*
X94927Y43610D02*
Y44943D01*
X95927D01*
X96260Y44610D01*
Y43610D01*
X97260Y43277D02*
X97593Y43610D01*
Y43943D01*
X97260D01*
Y43610D01*
X97593D01*
X97260Y43277D01*
X96926Y42944D01*
X102258Y44943D02*
X101258D01*
X100925Y44610D01*
Y43943D01*
X101258Y43610D01*
X102258D01*
X103924D02*
X103258D01*
X102924Y43943D01*
Y44610D01*
X103258Y44943D01*
X103924D01*
X104257Y44610D01*
Y44276D01*
X102924D01*
X105257Y45276D02*
Y44943D01*
X104924D01*
X105590D01*
X105257D01*
Y43943D01*
X105590Y43610D01*
X106923Y45276D02*
Y44943D01*
X106590D01*
X107256D01*
X106923D01*
Y43943D01*
X107256Y43610D01*
X109256D02*
X108589D01*
X108256Y43943D01*
Y44610D01*
X108589Y44943D01*
X109256D01*
X109589Y44610D01*
Y44276D01*
X108256D01*
X112255Y43610D02*
X112921D01*
X112588D01*
Y45609D01*
X112255D01*
X114254Y44943D02*
X114921D01*
X115254Y44610D01*
Y43610D01*
X114254D01*
X113921Y43943D01*
X114254Y44276D01*
X115254D01*
X115920Y44943D02*
Y43610D01*
Y44276D01*
X116254Y44610D01*
X116587Y44943D01*
X116920D01*
X118586Y42944D02*
X118919D01*
X119253Y43277D01*
Y44943D01*
X118253D01*
X117920Y44610D01*
Y43943D01*
X118253Y43610D01*
X119253D01*
X120919D02*
X120252D01*
X119919Y43943D01*
Y44610D01*
X120252Y44943D01*
X120919D01*
X121252Y44610D01*
Y44276D01*
X119919D01*
X121918Y44943D02*
Y43943D01*
X122252Y43610D01*
X123251D01*
Y44943D01*
X123918D02*
Y43610D01*
Y44276D01*
X124251Y44610D01*
X124584Y44943D01*
X124917D01*
X65160Y38864D02*
Y40863D01*
X66160D01*
X66493Y40530D01*
Y39863D01*
X66160Y39530D01*
X65160D01*
X68159D02*
X67493D01*
X67159Y39863D01*
Y40530D01*
X67493Y40863D01*
X68159D01*
X68492Y40530D01*
Y40196D01*
X67159D01*
X69159Y40863D02*
Y39863D01*
X69492Y39530D01*
X70492D01*
Y40863D01*
X71491Y41196D02*
Y40863D01*
X71158D01*
X71825D01*
X71491D01*
Y39863D01*
X71825Y39530D01*
X75823D02*
X75157D01*
X74824Y39863D01*
Y40530D01*
X75157Y40863D01*
X75823D01*
X76156Y40530D01*
Y40196D01*
X74824D01*
X77156Y41196D02*
Y40863D01*
X76823D01*
X77489D01*
X77156D01*
Y39863D01*
X77489Y39530D01*
X78489Y40863D02*
Y39530D01*
Y40196D01*
X78822Y40530D01*
X79155Y40863D01*
X79489D01*
X81488Y39530D02*
X80822D01*
X80488Y39863D01*
Y40530D01*
X80822Y40863D01*
X81488D01*
X81821Y40530D01*
Y40196D01*
X80488D01*
X84487Y40863D02*
Y39530D01*
Y40196D01*
X84820Y40530D01*
X85154Y40863D01*
X85487D01*
X87486Y39530D02*
X86820D01*
X86486Y39863D01*
Y40530D01*
X86820Y40863D01*
X87486D01*
X87819Y40530D01*
Y40196D01*
X86486D01*
X89819Y41529D02*
Y39530D01*
X88819D01*
X88486Y39863D01*
Y40530D01*
X88819Y40863D01*
X89819D01*
X90485D02*
Y39863D01*
X90818Y39530D01*
X91818D01*
Y40863D01*
X92485Y39530D02*
X93151D01*
X92818D01*
Y40863D01*
X92485D01*
X94484Y41196D02*
Y40863D01*
X94151D01*
X94817D01*
X94484D01*
Y39863D01*
X94817Y39530D01*
X96816D02*
X96150D01*
X95817Y39863D01*
Y40530D01*
X96150Y40863D01*
X96816D01*
X97150Y40530D01*
Y40196D01*
X95817D01*
X99815Y38864D02*
X100149D01*
X100482Y39197D01*
Y40863D01*
X101815D02*
Y39863D01*
X102148Y39530D01*
X103148D01*
Y40863D01*
X103814Y39530D02*
X104814D01*
X105147Y39863D01*
X104814Y40196D01*
X104147D01*
X103814Y40530D01*
X104147Y40863D01*
X105147D01*
X107146Y38864D02*
Y40863D01*
X106147D01*
X105814Y40530D01*
Y39863D01*
X106147Y39530D01*
X107146D01*
X107813Y40863D02*
Y39863D01*
X108146Y39530D01*
X109146D01*
Y40863D01*
X110145Y41863D02*
Y41196D01*
X109812Y40863D01*
X111478D02*
X112145D01*
X112478Y40530D01*
Y39530D01*
X111478D01*
X111145Y39863D01*
X111478Y40196D01*
X112478D01*
X115144Y39530D02*
X115810D01*
X115477D01*
Y41529D01*
X115144Y41196D01*
X116810D02*
X117143Y41529D01*
X117810D01*
X118143Y41196D01*
Y39863D01*
X117810Y39530D01*
X117143D01*
X116810Y39863D01*
Y41196D01*
X120809Y39530D02*
Y40863D01*
X121142D01*
X121475Y40530D01*
Y39530D01*
Y40530D01*
X121808Y40863D01*
X122142Y40530D01*
Y39530D01*
X122808D02*
X123474D01*
X123141D01*
Y40863D01*
X122808D01*
X124474Y39530D02*
X125141D01*
X124807D01*
Y41529D01*
X124474D01*
X65440Y32540D02*
Y34539D01*
X66440D01*
X66773Y34206D01*
Y33540D01*
X66440Y33206D01*
X65440D01*
X67773Y33873D02*
X68439D01*
X68772Y33540D01*
Y32540D01*
X67773D01*
X67439Y32873D01*
X67773Y33206D01*
X68772D01*
X69439Y33873D02*
Y32540D01*
Y33206D01*
X69772Y33540D01*
X70105Y33873D01*
X70438D01*
X74770Y34539D02*
Y32540D01*
X73771D01*
X73437Y32873D01*
Y33540D01*
X73771Y33873D01*
X74770D01*
X76436Y32540D02*
X75770D01*
X75437Y32873D01*
Y33540D01*
X75770Y33873D01*
X76436D01*
X76770Y33540D01*
Y33206D01*
X75437D01*
X77769Y32540D02*
Y34206D01*
Y33540D01*
X77436D01*
X78103D01*
X77769D01*
Y34206D01*
X78103Y34539D01*
X79435Y33873D02*
X80102D01*
X80435Y33540D01*
Y32540D01*
X79435D01*
X79102Y32873D01*
X79435Y33206D01*
X80435D01*
X81102Y33873D02*
Y32873D01*
X81435Y32540D01*
X82435D01*
Y33873D01*
X83434Y34206D02*
Y33873D01*
X83101D01*
X83767D01*
X83434D01*
Y32873D01*
X83767Y32540D01*
X85100Y32207D02*
X85434Y32540D01*
Y32873D01*
X85100D01*
Y32540D01*
X85434D01*
X85100Y32207D01*
X84767Y31874D01*
X88766Y32540D02*
X89432D01*
X89099D01*
Y34539D01*
X88766D01*
X91432Y32540D02*
X90765D01*
X90432Y32873D01*
Y33540D01*
X90765Y33873D01*
X91432D01*
X91765Y33540D01*
Y33206D01*
X90432D01*
X92431Y32540D02*
X93431D01*
X93764Y32873D01*
X93431Y33206D01*
X92765D01*
X92431Y33540D01*
X92765Y33873D01*
X93764D01*
X96430D02*
X97096Y32540D01*
X97763Y33873D01*
X98429Y32540D02*
X99096D01*
X98763D01*
Y33873D01*
X98429D01*
X100429D02*
X101095D01*
X101428Y33540D01*
Y32540D01*
X100429D01*
X100095Y32873D01*
X100429Y33206D01*
X101428D01*
X102095Y32540D02*
X103095D01*
X103428Y32873D01*
X103095Y33206D01*
X102428D01*
X102095Y33540D01*
X102428Y33873D01*
X103428D01*
X65713Y28540D02*
X66380D01*
X66713Y28873D01*
Y29540D01*
X66380Y29873D01*
X65713D01*
X65380Y29540D01*
Y28873D01*
X65713Y28540D01*
X67379D02*
Y29873D01*
X68379D01*
X68712Y29540D01*
Y28540D01*
X69712Y30206D02*
Y29873D01*
X69379D01*
X70045D01*
X69712D01*
Y28873D01*
X70045Y28540D01*
X73044Y29873D02*
Y28873D01*
X73377Y28540D01*
X74377D01*
Y29873D01*
X75044Y28540D02*
Y29873D01*
X76043D01*
X76376Y29540D01*
Y28540D01*
X80375Y30539D02*
Y28540D01*
X79375D01*
X79042Y28873D01*
Y29540D01*
X79375Y29873D01*
X80375D01*
X81042Y28540D02*
X81708D01*
X81375D01*
Y29873D01*
X81042D01*
X83041D02*
X83707D01*
X84041Y29540D01*
Y28540D01*
X83041D01*
X82708Y28873D01*
X83041Y29206D01*
X84041D01*
X84707Y28540D02*
Y29873D01*
X85040D01*
X85374Y29540D01*
Y28540D01*
Y29540D01*
X85707Y29873D01*
X86040Y29540D01*
Y28540D01*
X86706D02*
Y28873D01*
X87040D01*
Y28540D01*
X86706D01*
X91705Y30539D02*
Y28540D01*
X90705D01*
X90372Y28873D01*
Y29540D01*
X90705Y29873D01*
X91705D01*
X93371Y28540D02*
X92704D01*
X92371Y28873D01*
Y29540D01*
X92704Y29873D01*
X93371D01*
X93704Y29540D01*
Y29206D01*
X92371D01*
X97703Y30539D02*
X96370D01*
Y29540D01*
X97036Y29873D01*
X97370D01*
X97703Y29540D01*
Y28873D01*
X97370Y28540D01*
X96703D01*
X96370Y28873D01*
X98369Y30206D02*
X98703Y30539D01*
X99369D01*
X99702Y30206D01*
Y28873D01*
X99369Y28540D01*
X98703D01*
X98369Y28873D01*
Y30206D01*
X102368Y28540D02*
Y29873D01*
X102701D01*
X103034Y29540D01*
Y28540D01*
Y29540D01*
X103368Y29873D01*
X103701Y29540D01*
Y28540D01*
X104367D02*
X105034D01*
X104701D01*
Y29873D01*
X104367D01*
X106034Y28540D02*
X106700D01*
X106367D01*
Y30539D01*
X106034D01*
X66373Y25779D02*
X65040D01*
Y23780D01*
X66373D01*
X65040Y24780D02*
X65706D01*
X67039Y23780D02*
Y25113D01*
X68039D01*
X68372Y24780D01*
Y23780D01*
X72371Y25113D02*
X71371D01*
X71038Y24780D01*
Y24113D01*
X71371Y23780D01*
X72371D01*
X73371Y25113D02*
X74037D01*
X74370Y24780D01*
Y23780D01*
X73371D01*
X73037Y24113D01*
X73371Y24446D01*
X74370D01*
X75037Y23780D02*
X76036D01*
X76370Y24113D01*
X76036Y24446D01*
X75370D01*
X75037Y24780D01*
X75370Y25113D01*
X76370D01*
X80368Y25779D02*
Y23780D01*
X79369D01*
X79035Y24113D01*
Y24780D01*
X79369Y25113D01*
X80368D01*
X82035Y23780D02*
X81368D01*
X81035Y24113D01*
Y24780D01*
X81368Y25113D01*
X82035D01*
X82368Y24780D01*
Y24446D01*
X81035D01*
X85034Y25779D02*
Y23780D01*
X86033D01*
X86366Y24113D01*
Y24446D01*
Y24780D01*
X86033Y25113D01*
X85034D01*
X88033Y23780D02*
X87366D01*
X87033Y24113D01*
Y24780D01*
X87366Y25113D01*
X88033D01*
X88366Y24780D01*
Y24446D01*
X87033D01*
X89032Y23780D02*
X90032D01*
X90365Y24113D01*
X90032Y24446D01*
X89365D01*
X89032Y24780D01*
X89365Y25113D01*
X90365D01*
X91365Y23780D02*
X92031D01*
X92365Y24113D01*
Y24780D01*
X92031Y25113D01*
X91365D01*
X91032Y24780D01*
Y24113D01*
X91365Y23780D01*
X93031D02*
X93697D01*
X93364D01*
Y25113D01*
X93031D01*
X94697Y23780D02*
Y25113D01*
X95697D01*
X96030Y24780D01*
Y23780D01*
X97030Y23447D02*
X97363Y23780D01*
Y24113D01*
X97030D01*
Y23780D01*
X97363D01*
X97030Y23447D01*
X96696Y23114D01*
X102028Y25113D02*
X101028D01*
X100695Y24780D01*
Y24113D01*
X101028Y23780D01*
X102028D01*
X103694D02*
X103028D01*
X102695Y24113D01*
Y24780D01*
X103028Y25113D01*
X103694D01*
X104027Y24780D01*
Y24446D01*
X102695D01*
X108026Y25779D02*
Y23780D01*
X107026D01*
X106693Y24113D01*
Y24780D01*
X107026Y25113D01*
X108026D01*
X108693Y23780D02*
X109359D01*
X109026D01*
Y25113D01*
X108693D01*
X110692D02*
X111358D01*
X111692Y24780D01*
Y23780D01*
X110692D01*
X110359Y24113D01*
X110692Y24446D01*
X111692D01*
X112358Y23780D02*
Y25113D01*
X112691D01*
X113025Y24780D01*
Y23780D01*
Y24780D01*
X113358Y25113D01*
X113691Y24780D01*
Y23780D01*
X114357D02*
Y24113D01*
X114691D01*
Y23780D01*
X114357D01*
X65280Y18814D02*
Y20813D01*
X66280D01*
X66613Y20480D01*
Y19813D01*
X66280Y19480D01*
X65280D01*
X68279D02*
X67613D01*
X67279Y19813D01*
Y20480D01*
X67613Y20813D01*
X68279D01*
X68612Y20480D01*
Y20146D01*
X67279D01*
X69279Y20813D02*
Y19813D01*
X69612Y19480D01*
X70612D01*
Y20813D01*
X71611Y21146D02*
Y20813D01*
X71278D01*
X71945D01*
X71611D01*
Y19813D01*
X71945Y19480D01*
X75943D02*
X75277D01*
X74944Y19813D01*
Y20480D01*
X75277Y20813D01*
X75943D01*
X76276Y20480D01*
Y20146D01*
X74944D01*
X77276Y21146D02*
Y20813D01*
X76943D01*
X77609D01*
X77276D01*
Y19813D01*
X77609Y19480D01*
X78609Y20813D02*
Y19480D01*
Y20146D01*
X78942Y20480D01*
X79275Y20813D01*
X79609D01*
X81608Y19480D02*
X80942D01*
X80608Y19813D01*
Y20480D01*
X80942Y20813D01*
X81608D01*
X81941Y20480D01*
Y20146D01*
X80608D01*
X84607Y20813D02*
Y19480D01*
Y20146D01*
X84940Y20480D01*
X85274Y20813D01*
X85607D01*
X87606Y19480D02*
X86940D01*
X86606Y19813D01*
Y20480D01*
X86940Y20813D01*
X87606D01*
X87939Y20480D01*
Y20146D01*
X86606D01*
X89939Y21479D02*
Y19480D01*
X88939D01*
X88606Y19813D01*
Y20480D01*
X88939Y20813D01*
X89939D01*
X90605D02*
Y19813D01*
X90938Y19480D01*
X91938D01*
Y20813D01*
X92605Y19480D02*
X93271D01*
X92938D01*
Y20813D01*
X92605D01*
X94604Y21146D02*
Y20813D01*
X94271D01*
X94937D01*
X94604D01*
Y19813D01*
X94937Y19480D01*
X97936Y18814D02*
X98269D01*
X98603Y19147D01*
Y20813D01*
X99935D02*
Y19813D01*
X100269Y19480D01*
X101268D01*
Y20813D01*
X101935Y19480D02*
X102935D01*
X103268Y19813D01*
X102935Y20146D01*
X102268D01*
X101935Y20480D01*
X102268Y20813D01*
X103268D01*
X105267Y18814D02*
Y20813D01*
X104267D01*
X103934Y20480D01*
Y19813D01*
X104267Y19480D01*
X105267D01*
X105934Y20813D02*
Y19813D01*
X106267Y19480D01*
X107266D01*
Y20813D01*
X108266Y21813D02*
Y21146D01*
X107933Y20813D01*
X109599D02*
X110265D01*
X110599Y20480D01*
Y19480D01*
X109599D01*
X109266Y19813D01*
X109599Y20146D01*
X110599D01*
X113264Y21146D02*
X113598Y21479D01*
X114264D01*
X114597Y21146D01*
Y20813D01*
X114264Y20480D01*
X113931D01*
X114264D01*
X114597Y20146D01*
Y19813D01*
X114264Y19480D01*
X113598D01*
X113264Y19813D01*
X116597Y21479D02*
X115930Y21146D01*
X115264Y20480D01*
Y19813D01*
X115597Y19480D01*
X116264D01*
X116597Y19813D01*
Y20146D01*
X116264Y20480D01*
X115264D01*
X119263Y19480D02*
Y20813D01*
X119596D01*
X119929Y20480D01*
Y19480D01*
Y20480D01*
X120262Y20813D01*
X120595Y20480D01*
Y19480D01*
X121262D02*
X121928D01*
X121595D01*
Y20813D01*
X121262D01*
X122928Y19480D02*
X123594D01*
X123261D01*
Y21479D01*
X122928D01*
M02*
