G04 Layer_Color=65535*
%FSLAX24Y24*%
%MOIN*%
G70*
G01*
G75*
%ADD20C,0.0100*%
%ADD21C,0.0098*%
%ADD22C,0.0120*%
%ADD23C,0.0079*%
G54D20*
X5346Y26411D02*
G03*
X5321Y27056I575J345D01*
G01*
X25720Y28478D02*
G03*
X25695Y29123I575J345D01*
G01*
X9936Y28724D02*
G03*
X9936Y28724I-283J0D01*
G01*
X5321Y26436D02*
Y27056D01*
Y26436D02*
Y27056D01*
Y26436D02*
Y27056D01*
Y26436D02*
Y27056D01*
X23580Y37386D02*
Y41354D01*
Y37386D02*
X30327D01*
Y41354D01*
X23580D02*
X30327D01*
X25695Y28502D02*
Y29123D01*
Y28502D02*
Y29123D01*
Y28502D02*
Y29123D01*
Y28502D02*
Y29123D01*
X25303Y30398D02*
Y30997D01*
X25603D01*
X25703Y30897D01*
Y30698D01*
X25603Y30598D01*
X25303D01*
X25503D02*
X25703Y30398D01*
X26303D02*
X25903D01*
X26303Y30798D01*
Y30897D01*
X26203Y30997D01*
X26003D01*
X25903Y30897D01*
X1458Y31049D02*
X858D01*
X1058Y31248D01*
X858Y31448D01*
X1458D01*
Y31748D02*
Y31948D01*
X1358Y32048D01*
X1158D01*
X1058Y31948D01*
Y31748D01*
X1158Y31648D01*
X1358D01*
X1458Y31748D01*
X958Y32348D02*
X1058D01*
Y32248D01*
Y32448D01*
Y32348D01*
X1358D01*
X1458Y32448D01*
Y33048D02*
Y32848D01*
X1358Y32748D01*
X1158D01*
X1058Y32848D01*
Y33048D01*
X1158Y33148D01*
X1258D01*
Y32748D01*
X1058Y33348D02*
X1358D01*
X1458Y33448D01*
Y33748D01*
X1058D01*
Y33948D02*
X1458D01*
X1258D01*
X1158Y34048D01*
X1058Y34148D01*
Y34248D01*
X27179Y33555D02*
X27079Y33655D01*
X26879D01*
X26780Y33555D01*
Y33155D01*
X26879Y33055D01*
X27079D01*
X27179Y33155D01*
X27379Y33555D02*
X27479Y33655D01*
X27679D01*
X27779Y33555D01*
Y33455D01*
X27679Y33355D01*
X27579D01*
X27679D01*
X27779Y33255D01*
Y33155D01*
X27679Y33055D01*
X27479D01*
X27379Y33155D01*
X5000Y26100D02*
Y25500D01*
X5400D01*
X5600Y26100D02*
Y25500D01*
X5900D01*
X6000Y25600D01*
Y26000D01*
X5900Y26100D01*
X5600D01*
X6200Y25500D02*
X6400D01*
X6300D01*
Y26100D01*
X6200Y26000D01*
X23827Y29127D02*
Y28528D01*
X24227D01*
X24427Y29127D02*
Y28528D01*
X24726D01*
X24826Y28628D01*
Y29027D01*
X24726Y29127D01*
X24427D01*
X25426Y28528D02*
X25026D01*
X25426Y28927D01*
Y29027D01*
X25326Y29127D01*
X25126D01*
X25026Y29027D01*
X2067Y38672D02*
X1967Y38572D01*
Y38372D01*
X2067Y38272D01*
X2167D01*
X2267Y38372D01*
Y38572D01*
X2367Y38672D01*
X2467D01*
X2567Y38572D01*
Y38372D01*
X2467Y38272D01*
X1967Y38871D02*
X2567D01*
X2367Y39071D01*
X2567Y39271D01*
X1967D01*
X2567Y40071D02*
X2167D01*
X1967Y40271D01*
X2167Y40471D01*
X2567D01*
X2267D01*
Y40071D01*
X1967Y40671D02*
X2567D01*
Y41071D01*
X1967Y41271D02*
Y41471D01*
Y41371D01*
X2567D01*
Y41271D01*
Y41471D01*
Y41771D02*
X1967D01*
X2167Y41970D01*
X1967Y42170D01*
X2567D01*
X23900Y37000D02*
X23800Y37100D01*
X23600D01*
X23500Y37000D01*
Y36900D01*
X23600Y36800D01*
X23800D01*
X23900Y36700D01*
Y36600D01*
X23800Y36500D01*
X23600D01*
X23500Y36600D01*
X24100Y37100D02*
Y36500D01*
X24300Y36700D01*
X24500Y36500D01*
Y37100D01*
X25299Y36500D02*
Y37100D01*
X25599D01*
X25699Y37000D01*
Y36800D01*
X25599Y36700D01*
X25299D01*
X25499D02*
X25699Y36500D01*
X26299Y37100D02*
X25899D01*
Y36500D01*
X26299D01*
X25899Y36800D02*
X26099D01*
X26899Y37000D02*
X26799Y37100D01*
X26599D01*
X26499Y37000D01*
Y36900D01*
X26599Y36800D01*
X26799D01*
X26899Y36700D01*
Y36600D01*
X26799Y36500D01*
X26599D01*
X26499Y36600D01*
X27499Y37100D02*
X27099D01*
Y36500D01*
X27499D01*
X27099Y36800D02*
X27299D01*
X27699Y37100D02*
X28099D01*
X27899D01*
Y36500D01*
X24516Y32366D02*
X23916D01*
Y32666D01*
X24016Y32766D01*
X24216D01*
X24316Y32666D01*
Y32366D01*
Y32566D02*
X24516Y32766D01*
X24016Y32966D02*
X23916Y33066D01*
Y33266D01*
X24016Y33366D01*
X24116D01*
X24216Y33266D01*
Y33166D01*
Y33266D01*
X24316Y33366D01*
X24416D01*
X24516Y33266D01*
Y33066D01*
X24416Y32966D01*
X11660Y45956D02*
X11260D01*
Y45356D01*
X11660D01*
X11260Y45656D02*
X11460D01*
X12260Y45856D02*
X12160Y45956D01*
X11960D01*
X11860Y45856D01*
Y45756D01*
X11960Y45656D01*
X12160D01*
X12260Y45556D01*
Y45456D01*
X12160Y45356D01*
X11960D01*
X11860Y45456D01*
X12460Y45356D02*
Y45956D01*
X12760D01*
X12860Y45856D01*
Y45656D01*
X12760Y45556D01*
X12460D01*
X13060Y45856D02*
X13160Y45956D01*
X13360D01*
X13460Y45856D01*
Y45756D01*
X13360Y45656D01*
X13260D01*
X13360D01*
X13460Y45556D01*
Y45456D01*
X13360Y45356D01*
X13160D01*
X13060Y45456D01*
X14059Y45356D02*
X13660D01*
X14059Y45756D01*
Y45856D01*
X13959Y45956D01*
X13760D01*
X13660Y45856D01*
X4043Y36903D02*
Y36303D01*
X4343D01*
X4443Y36403D01*
Y36803D01*
X4343Y36903D01*
X4043D01*
X4643Y36303D02*
Y36903D01*
X4943D01*
X5043Y36803D01*
Y36603D01*
X4943Y36503D01*
X4643D01*
X4843D02*
X5043Y36303D01*
X5243Y36903D02*
X5443D01*
X5343D01*
Y36303D01*
X5243D01*
X5443D01*
X5743Y36903D02*
Y36503D01*
X5943Y36303D01*
X6143Y36503D01*
Y36903D01*
X6742D02*
X6343D01*
Y36303D01*
X6742D01*
X6343Y36603D02*
X6543D01*
X6942Y36303D02*
Y36903D01*
X7242D01*
X7342Y36803D01*
Y36603D01*
X7242Y36503D01*
X6942D01*
X7142D02*
X7342Y36303D01*
X5550Y45016D02*
Y45416D01*
X5750Y45616D01*
X5950Y45416D01*
Y45016D01*
Y45316D01*
X5550D01*
X6150Y45616D02*
Y45016D01*
X6450D01*
X6550Y45116D01*
Y45216D01*
Y45316D01*
X6450Y45416D01*
X6150D01*
X6850D02*
X7050D01*
X7150Y45316D01*
Y45016D01*
X6850D01*
X6750Y45116D01*
X6850Y45216D01*
X7150D01*
X7350Y45016D02*
X7550D01*
X7450D01*
Y45416D01*
X7350D01*
X7850Y45016D02*
X8149D01*
X8249Y45116D01*
X8149Y45216D01*
X7950D01*
X7850Y45316D01*
X7950Y45416D01*
X8249D01*
X8449Y45016D02*
X8749D01*
X8849Y45116D01*
X8749Y45216D01*
X8549D01*
X8449Y45316D01*
X8549Y45416D01*
X8849D01*
X9349Y45016D02*
X9149D01*
X9049Y45116D01*
Y45316D01*
X9149Y45416D01*
X9349D01*
X9449Y45316D01*
Y45216D01*
X9049D01*
X9649Y45416D02*
Y45116D01*
X9749Y45016D01*
X10049D01*
Y45416D01*
X10249D02*
Y45016D01*
Y45216D01*
X10349Y45316D01*
X10449Y45416D01*
X10549D01*
X8571Y25870D02*
Y26470D01*
X8871D01*
X8971Y26370D01*
Y26170D01*
X8871Y26070D01*
X8571D01*
X8771D02*
X8971Y25870D01*
X9171D02*
X9371D01*
X9271D01*
Y26470D01*
X9171Y26370D01*
X23630Y41736D02*
Y42336D01*
X23930D01*
X24030Y42236D01*
Y42036D01*
X23930Y41936D01*
X23630D01*
X24230Y42336D02*
Y41736D01*
X24430Y41936D01*
X24630Y41736D01*
Y42336D01*
X24830Y41736D02*
Y42336D01*
X25130D01*
X25230Y42236D01*
Y42036D01*
X25130Y41936D01*
X24830D01*
X25030D02*
X25230Y41736D01*
G54D21*
X11213Y25612D02*
Y45012D01*
Y25612D02*
X23213D01*
Y45012D01*
X11213D02*
X23213D01*
X9831Y36583D02*
Y44669D01*
X5500D02*
X9831D01*
X5500Y36583D02*
Y44669D01*
Y36583D02*
X9831D01*
X10154Y28224D02*
Y36224D01*
X4154Y28224D02*
X10154D01*
X4154D02*
Y36224D01*
X10154D01*
X3367Y30191D02*
Y34391D01*
X1767D02*
X3367D01*
X1767Y30191D02*
Y34391D01*
Y30191D02*
X3367D01*
G54D22*
X26327Y29984D02*
X26417D01*
X24237D02*
X24327D01*
X26327Y29684D02*
Y29984D01*
X24327Y29684D02*
X26327D01*
X24327D02*
Y30284D01*
X26327D01*
Y29984D02*
Y30284D01*
X28280Y33736D02*
Y34736D01*
X26280Y33736D02*
X28280D01*
X26280D02*
Y34736D01*
X28280D01*
X24988Y31646D02*
Y31736D01*
Y33736D02*
Y33826D01*
X24688Y31736D02*
X24988D01*
X24688D02*
Y33736D01*
X25288D01*
Y31736D02*
Y33736D01*
X24988Y31736D02*
X25288D01*
X7851Y26776D02*
X7941D01*
X9941D02*
X10031D01*
X7941D02*
Y27076D01*
X9941D01*
Y26476D02*
Y27076D01*
X7941Y26476D02*
X9941D01*
X7941D02*
Y26776D01*
G54D23*
X24508Y36508D02*
X26508D01*
X24508Y35508D02*
Y36508D01*
Y35508D02*
X26508D01*
Y36508D01*
X3756Y39232D02*
Y41232D01*
X2756D02*
X3756D01*
X2756Y39232D02*
Y41232D01*
Y39232D02*
X3756D01*
M02*
