M48
;Layer_Color=9474304
;FILE_FORMAT=2:4
INCH,TZ
;TYPE=PLATED
T1F00S00C0.0240
T2F00S00C0.0280
T3F00S00C0.0320
T4F00S00C0.0354
T5F00S00C0.0360
T6F00S00C0.0394
T7F00S00C0.0400
T8F00S00C0.1102
T9F00S00C0.1181
T10F00S00C0.1220
%
T01
X39668Y25987
Y26987
T02
X9353Y25412
X15015Y28188
X18015
X20770Y28561
X20377Y26987
X18408Y25018
X33945Y34192
X39648Y33435
X40456Y31317
X39648Y36435
X20770Y32892
X10259Y34073
T03
X12503Y28168
X13503
X9566Y31711
X8566
T04
X8353Y24231
X9353
X40849Y36435
X41849
T05
X12896Y25018
X16896
X42030Y27380
Y31380
T06
X4704Y34648
Y35648
Y36648
X7704
Y35648
Y34648
T07
X10928Y29742
X11928
X12928
X13928
X14928
X15928
X16928
X17928
X21952Y26199
X22952
X23952
X24952
X25952
X26952
X27952
X28952
X29952
X30952
X31952
X32952
X33952
X34952
X35952
Y36199
X34952
X33952
X32952
X31952
X30952
X29952
X28952
X27952
X26952
X25952
X24952
X23952
X22952
X21952
X17928Y34742
X16928
X15928
X14928
X13928
X12928
X11928
X10928
X12896Y36829
X13896
X14896
X15896
T08
X4511Y24550
X3270Y26286
X5751
X4511Y30061
X3270Y31798
X5751
T09
X8172Y28955
T10
X43015Y25018
Y34467
M30
