G04 Layer_Color=255*
%FSLAX24Y24*%
%MOIN*%
G70*
G01*
G75*
%ADD11C,0.1000*%
%ADD12C,0.0620*%
%ADD13C,0.1575*%
%ADD14O,0.0500X0.0800*%
%ADD15C,0.0620*%
%ADD16R,0.0591X0.0591*%
%ADD17C,0.0591*%
%ADD18R,0.0620X0.0620*%
%ADD19C,0.0630*%
%ADD20C,0.2362*%
G54D11*
X42030Y27380D02*
D03*
Y31380D02*
D03*
X16896Y25018D02*
D03*
X12896D02*
D03*
G54D12*
X39668Y25987D02*
D03*
Y26987D02*
D03*
X18015Y28188D02*
D03*
X15015D02*
D03*
X39648Y36435D02*
D03*
Y33435D02*
D03*
G54D13*
X4511Y24550D02*
D03*
X3270Y26286D02*
D03*
X5751D02*
D03*
X4511Y30061D02*
D03*
X3270Y31798D02*
D03*
X5751D02*
D03*
G54D14*
X8566Y31711D02*
D03*
X9566D02*
D03*
X12503Y28168D02*
D03*
X13503D02*
D03*
G54D15*
X10928Y29742D02*
D03*
X11928D02*
D03*
X12928D02*
D03*
X13928D02*
D03*
X14928D02*
D03*
X15928D02*
D03*
X16928D02*
D03*
X17928D02*
D03*
Y34742D02*
D03*
X16928D02*
D03*
X15928D02*
D03*
X14928D02*
D03*
X13928D02*
D03*
X12928D02*
D03*
X11928D02*
D03*
X10928D02*
D03*
X15896Y36829D02*
D03*
X14896D02*
D03*
X13896D02*
D03*
X12896D02*
D03*
X21952Y26199D02*
D03*
X22952D02*
D03*
X23952D02*
D03*
X24952D02*
D03*
X25952D02*
D03*
X26952D02*
D03*
X27952D02*
D03*
X28952D02*
D03*
X29952D02*
D03*
X30952D02*
D03*
X31952D02*
D03*
X32952D02*
D03*
X33952D02*
D03*
X35952D02*
D03*
Y36199D02*
D03*
X33952D02*
D03*
X32952D02*
D03*
X31952D02*
D03*
X30952D02*
D03*
X29952D02*
D03*
X28952D02*
D03*
X27952D02*
D03*
X26952D02*
D03*
X25952D02*
D03*
X24952D02*
D03*
X23952D02*
D03*
X22952D02*
D03*
X21952D02*
D03*
G54D16*
X9353Y24231D02*
D03*
X40849Y36435D02*
D03*
G54D17*
X8353Y24231D02*
D03*
X41849Y36435D02*
D03*
G54D18*
X34952Y36199D02*
D03*
Y26199D02*
D03*
G54D19*
X7704Y34648D02*
D03*
Y35648D02*
D03*
Y36648D02*
D03*
X4704D02*
D03*
Y35648D02*
D03*
Y34648D02*
D03*
G54D20*
X8172Y28955D02*
D03*
X43015Y34467D02*
D03*
Y25018D02*
D03*
M02*
