G04 Layer_Color=8388736*
%FSLAX24Y24*%
%MOIN*%
G70*
G01*
G75*
%ADD27C,0.1080*%
%ADD28C,0.0700*%
%ADD29C,0.1655*%
%ADD30O,0.0580X0.0880*%
%ADD31C,0.0700*%
%ADD32R,0.0671X0.0671*%
%ADD33C,0.0671*%
%ADD34R,0.0700X0.0700*%
%ADD35C,0.0710*%
%ADD36C,0.2442*%
%ADD37C,0.0580*%
G54D27*
X42030Y27380D02*
D03*
Y31380D02*
D03*
X16896Y25018D02*
D03*
X12896D02*
D03*
G54D28*
X39668Y25987D02*
D03*
Y26987D02*
D03*
X18015Y28188D02*
D03*
X15015D02*
D03*
X39648Y36435D02*
D03*
Y33435D02*
D03*
G54D29*
X4511Y24550D02*
D03*
X3270Y26286D02*
D03*
X5751D02*
D03*
X4511Y30061D02*
D03*
X3270Y31798D02*
D03*
X5751D02*
D03*
G54D30*
X8566Y31711D02*
D03*
X9566D02*
D03*
X12503Y28168D02*
D03*
X13503D02*
D03*
G54D31*
X10928Y29742D02*
D03*
X11928D02*
D03*
X12928D02*
D03*
X13928D02*
D03*
X14928D02*
D03*
X15928D02*
D03*
X16928D02*
D03*
X17928D02*
D03*
Y34742D02*
D03*
X16928D02*
D03*
X15928D02*
D03*
X14928D02*
D03*
X13928D02*
D03*
X12928D02*
D03*
X11928D02*
D03*
X10928D02*
D03*
X15896Y36829D02*
D03*
X14896D02*
D03*
X13896D02*
D03*
X12896D02*
D03*
X21952Y26199D02*
D03*
X22952D02*
D03*
X23952D02*
D03*
X24952D02*
D03*
X25952D02*
D03*
X26952D02*
D03*
X27952D02*
D03*
X28952D02*
D03*
X29952D02*
D03*
X30952D02*
D03*
X31952D02*
D03*
X32952D02*
D03*
X33952D02*
D03*
X35952D02*
D03*
Y36199D02*
D03*
X33952D02*
D03*
X32952D02*
D03*
X31952D02*
D03*
X30952D02*
D03*
X29952D02*
D03*
X28952D02*
D03*
X27952D02*
D03*
X26952D02*
D03*
X25952D02*
D03*
X24952D02*
D03*
X23952D02*
D03*
X22952D02*
D03*
X21952D02*
D03*
G54D32*
X9353Y24231D02*
D03*
X40849Y36435D02*
D03*
G54D33*
X8353Y24231D02*
D03*
X41849Y36435D02*
D03*
G54D34*
X34952Y36199D02*
D03*
Y26199D02*
D03*
G54D35*
X7704Y34648D02*
D03*
Y35648D02*
D03*
Y36648D02*
D03*
X4704D02*
D03*
Y35648D02*
D03*
Y34648D02*
D03*
G54D36*
X8172Y28955D02*
D03*
X43015Y34467D02*
D03*
Y25018D02*
D03*
G54D37*
X40456Y31317D02*
D03*
X33945Y34192D02*
D03*
X10259Y34073D02*
D03*
X20770Y32892D02*
D03*
Y28561D02*
D03*
X20377Y26987D02*
D03*
X18408Y25018D02*
D03*
X9353Y25412D02*
D03*
M02*
