M48
;Layer_Color=9474304
;FILE_FORMAT=2:4
INCH,TZ
;TYPE=PLATED
T1F00S00C0.0280
T2F00S00C0.0320
T3F00S00C0.0354
T4F00S00C0.0360
T5F00S00C0.0394
T6F00S00C0.0400
T7F00S00C0.1102
T8F00S00C0.1181
T9F00S00C0.1220
%
T01
X15110Y28366
X18110
X18504Y25197
X20472Y27165
X39764Y36594
X42764
T02
X16717Y26378
X17717
X39764Y34039
Y35039
T03
X8268Y25197
Y26197
X9690Y31530
Y32530
T04
X11417Y25197
X15417
T05
X4799Y34827
Y35827
Y36827
X7799
Y35827
Y34827
T06
X22047Y26378
X23047
X24047
X25047
X26047
X27047
X28047
X29047
X30047
X31047
X32047
X33047
X34047
X35047
X36047
Y36378
X35047
X34047
X33047
X32047
X31047
X30047
X29047
X28047
X27047
X26047
X25047
X24047
X23047
X22047
X18024Y34921
Y29921
X17024
X16024
X15024
X14024
X13024
X12024
X11024
Y34921
X12024
X13024
X14024
X15024
X16024
X17024
X16000Y36670
X15000
X14000
X13000
T07
X4213Y24728
X2972Y26465
X5453
X4213Y30240
X2972Y31976
X5453
T08
X8268Y28346
T09
X42126Y27165
Y33858
M30
