G04 Layer_Color=65535*
%FSLAX24Y24*%
%MOIN*%
G70*
G01*
G75*
%ADD22C,0.0100*%
%ADD23C,0.0354*%
%ADD24C,0.0120*%
%ADD25C,0.0098*%
%ADD26C,0.0079*%
G54D22*
X11306Y29921D02*
G03*
X11306Y29921I-283J0D01*
G01*
X12102Y27839D02*
G03*
X12102Y28854I996J508D01*
G01*
X8165Y31382D02*
G03*
X8165Y32397I996J508D01*
G01*
X7137Y29496D02*
Y33465D01*
X390D02*
X7137D01*
X390Y29496D02*
Y33465D01*
Y29496D02*
X7137D01*
Y23984D02*
Y27953D01*
X390D02*
X7137D01*
X390Y23984D02*
Y27953D01*
Y23984D02*
X7137D01*
X12098Y27846D02*
Y28846D01*
X8161Y31390D02*
Y32390D01*
X42520Y29921D02*
X43119D01*
Y29621D01*
X43020Y29521D01*
X42820D01*
X42720Y29621D01*
Y29921D01*
Y29721D02*
X42520Y29521D01*
X43020Y29321D02*
X43119Y29221D01*
Y29022D01*
X43020Y28922D01*
X42920D01*
X42820Y29022D01*
Y29122D01*
Y29022D01*
X42720Y28922D01*
X42620D01*
X42520Y29022D01*
Y29221D01*
X42620Y29321D01*
X39700Y28530D02*
X39600Y28630D01*
X39400D01*
X39300Y28530D01*
Y28130D01*
X39400Y28030D01*
X39600D01*
X39700Y28130D01*
X39900Y28530D02*
X40000Y28630D01*
X40200D01*
X40300Y28530D01*
Y28430D01*
X40200Y28330D01*
X40100D01*
X40200D01*
X40300Y28230D01*
Y28130D01*
X40200Y28030D01*
X40000D01*
X39900Y28130D01*
X3543Y28346D02*
Y28946D01*
X3843D01*
X3943Y28846D01*
Y28646D01*
X3843Y28546D01*
X3543D01*
X4443Y28946D02*
X4243D01*
X4143Y28846D01*
Y28446D01*
X4243Y28346D01*
X4443D01*
X4543Y28446D01*
Y28846D01*
X4443Y28946D01*
X4743D02*
Y28346D01*
X4943Y28546D01*
X5143Y28346D01*
Y28946D01*
X5743D02*
X5343D01*
Y28346D01*
X5743D01*
X5343Y28646D02*
X5543D01*
X5943Y28346D02*
Y28946D01*
X6242D01*
X6342Y28846D01*
Y28646D01*
X6242Y28546D01*
X5943D01*
X6142D02*
X6342Y28346D01*
X2756Y33465D02*
Y33864D01*
X2956Y34064D01*
X3156Y33864D01*
Y33465D01*
Y33764D01*
X2756D01*
X3356Y33465D02*
Y34064D01*
X3656D01*
X3756Y33964D01*
Y33764D01*
X3656Y33665D01*
X3356D01*
X3956Y33465D02*
Y34064D01*
X4255D01*
X4355Y33964D01*
Y33764D01*
X4255Y33665D01*
X3956D01*
X4555Y33465D02*
Y33864D01*
X4755Y34064D01*
X4955Y33864D01*
Y33465D01*
Y33764D01*
X4555D01*
X5155Y33465D02*
Y34064D01*
X5455D01*
X5555Y33964D01*
Y33764D01*
X5455Y33665D01*
X5155D01*
X5355D02*
X5555Y33465D01*
X6155Y34064D02*
X5755D01*
Y33465D01*
X6155D01*
X5755Y33764D02*
X5955D01*
X6355Y34064D02*
X6555D01*
X6455D01*
Y33465D01*
X6355D01*
X6555D01*
X6855Y34064D02*
Y33465D01*
X7254D01*
X8210Y33956D02*
Y33356D01*
X8610D01*
X8810Y33956D02*
Y33356D01*
X9110D01*
X9210Y33456D01*
Y33856D01*
X9110Y33956D01*
X8810D01*
X9410Y33356D02*
X9610D01*
X9510D01*
Y33956D01*
X9410Y33856D01*
X11211Y27559D02*
X11811D01*
Y27959D01*
X11211Y28159D02*
X11811D01*
Y28459D01*
X11711Y28559D01*
X11311D01*
X11211Y28459D01*
Y28159D01*
X11311Y28759D02*
X11211Y28859D01*
Y29059D01*
X11311Y29159D01*
X11711D01*
X11811Y29059D01*
Y28859D01*
X11711Y28759D01*
X11311D01*
X10630Y36033D02*
Y35433D01*
X10930D01*
X11030Y35533D01*
Y35933D01*
X10930Y36033D01*
X10630D01*
X11230Y35433D02*
Y36033D01*
X11530D01*
X11630Y35933D01*
Y35733D01*
X11530Y35633D01*
X11230D01*
X11430D02*
X11630Y35433D01*
X11830Y36033D02*
X12029D01*
X11930D01*
Y35433D01*
X11830D01*
X12029D01*
X12329Y36033D02*
Y35633D01*
X12529Y35433D01*
X12729Y35633D01*
Y36033D01*
X13329D02*
X12929D01*
Y35433D01*
X13329D01*
X12929Y35733D02*
X13129D01*
X13529Y35433D02*
Y36033D01*
X13829D01*
X13929Y35933D01*
Y35733D01*
X13829Y35633D01*
X13529D01*
X13729D02*
X13929Y35433D01*
X14890Y35418D02*
Y36018D01*
X15090Y35818D01*
X15290Y36018D01*
Y35418D01*
X15790Y36018D02*
X15590D01*
X15490Y35918D01*
Y35518D01*
X15590Y35418D01*
X15790D01*
X15890Y35518D01*
Y35918D01*
X15790Y36018D01*
X16090D02*
X16490D01*
X16290D01*
Y35418D01*
X17090Y36018D02*
X16690D01*
Y35418D01*
X17090D01*
X16690Y35718D02*
X16890D01*
X17290Y36018D02*
Y35518D01*
X17390Y35418D01*
X17590D01*
X17690Y35518D01*
Y36018D01*
X17889Y35418D02*
Y36018D01*
X18189D01*
X18289Y35918D01*
Y35718D01*
X18189Y35618D01*
X17889D01*
X18089D02*
X18289Y35418D01*
X16142Y27165D02*
Y27765D01*
X16442D01*
X16542Y27665D01*
Y27465D01*
X16442Y27365D01*
X16142D01*
X16342D02*
X16542Y27165D01*
X16742Y27665D02*
X16842Y27765D01*
X17041D01*
X17141Y27665D01*
Y27265D01*
X17041Y27165D01*
X16842D01*
X16742Y27265D01*
Y27665D01*
X39370Y34646D02*
X38770D01*
Y34946D01*
X38870Y35046D01*
X39070D01*
X39170Y34946D01*
Y34646D01*
Y34846D02*
X39370Y35046D01*
Y35245D02*
Y35445D01*
Y35345D01*
X38770D01*
X38870Y35245D01*
X8274Y25697D02*
X8174Y25797D01*
X7974D01*
X7874Y25697D01*
Y25597D01*
X7974Y25497D01*
X8174D01*
X8274Y25397D01*
Y25297D01*
X8174Y25197D01*
X7974D01*
X7874Y25297D01*
X8474Y25797D02*
Y25197D01*
X8674Y25397D01*
X8874Y25197D01*
Y25797D01*
X9673Y25197D02*
Y25597D01*
X9873Y25797D01*
X10073Y25597D01*
Y25197D01*
Y25497D01*
X9673D01*
X10273Y25797D02*
Y25197D01*
X10673D01*
X10873Y25797D02*
X11073D01*
X10973D01*
Y25197D01*
X10873D01*
X11073D01*
X11373D02*
Y25797D01*
X11573Y25597D01*
X11773Y25797D01*
Y25197D01*
X39376Y37901D02*
X39276Y38001D01*
X39076D01*
X38976Y37901D01*
Y37801D01*
X39076Y37701D01*
X39276D01*
X39376Y37602D01*
Y37502D01*
X39276Y37402D01*
X39076D01*
X38976Y37502D01*
X39576Y38001D02*
Y37402D01*
X39776Y37602D01*
X39976Y37402D01*
Y38001D01*
X40776Y37402D02*
Y38001D01*
X41076D01*
X41176Y37901D01*
Y37701D01*
X41076Y37602D01*
X40776D01*
X40976D02*
X41176Y37402D01*
X41775Y38001D02*
X41376D01*
Y37402D01*
X41775D01*
X41376Y37701D02*
X41576D01*
X42375Y37901D02*
X42275Y38001D01*
X42075D01*
X41975Y37901D01*
Y37801D01*
X42075Y37701D01*
X42275D01*
X42375Y37602D01*
Y37502D01*
X42275Y37402D01*
X42075D01*
X41975Y37502D01*
X42975Y38001D02*
X42575D01*
Y37402D01*
X42975D01*
X42575Y37701D02*
X42775D01*
X43175Y38001D02*
X43575D01*
X43375D01*
Y37402D01*
X19298Y38001D02*
X18898D01*
Y37402D01*
X19298D01*
X18898Y37701D02*
X19098D01*
X19897Y37901D02*
X19797Y38001D01*
X19597D01*
X19497Y37901D01*
Y37801D01*
X19597Y37701D01*
X19797D01*
X19897Y37602D01*
Y37502D01*
X19797Y37402D01*
X19597D01*
X19497Y37502D01*
X20097Y37402D02*
Y38001D01*
X20397D01*
X20497Y37901D01*
Y37701D01*
X20397Y37602D01*
X20097D01*
X20697Y37901D02*
X20797Y38001D01*
X20997D01*
X21097Y37901D01*
Y37801D01*
X20997Y37701D01*
X20897D01*
X20997D01*
X21097Y37602D01*
Y37502D01*
X20997Y37402D01*
X20797D01*
X20697Y37502D01*
X21697Y37402D02*
X21297D01*
X21697Y37801D01*
Y37901D01*
X21597Y38001D01*
X21397D01*
X21297Y37901D01*
X13780Y25984D02*
Y26584D01*
X14079D01*
X14179Y26484D01*
Y26284D01*
X14079Y26184D01*
X13780D01*
X13979D02*
X14179Y25984D01*
X14479D02*
X14679D01*
X14779Y26084D01*
Y26284D01*
X14679Y26384D01*
X14479D01*
X14379Y26284D01*
Y26084D01*
X14479Y25984D01*
X14979Y25784D02*
Y26384D01*
X15279D01*
X15379Y26284D01*
Y26084D01*
X15279Y25984D01*
X14979D01*
X15679Y26484D02*
Y26384D01*
X15579D01*
X15779D01*
X15679D01*
Y26084D01*
X15779Y25984D01*
X6205Y38001D02*
X6005D01*
X5906Y37901D01*
Y37502D01*
X6005Y37402D01*
X6205D01*
X6305Y37502D01*
Y37901D01*
X6205Y38001D01*
X6505Y37202D02*
Y37801D01*
X6805D01*
X6905Y37701D01*
Y37502D01*
X6805Y37402D01*
X6505D01*
X7105D02*
X7305D01*
X7205D01*
Y38001D01*
X7105Y37901D01*
G54D23*
X7378Y34827D02*
G03*
X7378Y34827I-79J0D01*
G01*
G54D24*
X40264Y25665D02*
Y27665D01*
X39264D02*
X40264D01*
X39264Y25665D02*
Y27665D01*
Y25665D02*
X40264D01*
X39744Y34114D02*
X40044D01*
Y36114D01*
X39444D02*
X40044D01*
X39444Y34114D02*
Y36114D01*
Y34114D02*
X39744D01*
Y36114D02*
Y36204D01*
Y34024D02*
Y34114D01*
X16192Y25197D02*
X16592D01*
X13392D02*
X13792D01*
Y24797D02*
X16192D01*
Y25597D01*
X13792D02*
X16192D01*
X13792Y24797D02*
Y25597D01*
X15610Y28066D02*
Y28366D01*
Y28066D02*
X17610D01*
Y28666D01*
X15610D02*
X17610D01*
X15610Y28366D02*
Y28666D01*
X17610Y28366D02*
X17700D01*
X15520D02*
X15610D01*
X41726Y28359D02*
X42526D01*
X41726D02*
Y30759D01*
X42526D01*
Y28359D02*
Y30759D01*
X42126Y27959D02*
Y28359D01*
Y30759D02*
Y31159D01*
G54D25*
X18524Y29421D02*
Y35421D01*
X10524D02*
X18524D01*
X10524Y29421D02*
Y35421D01*
Y29421D02*
X18524D01*
X19047Y25378D02*
X38447D01*
Y37378D01*
X19047D02*
X38447D01*
X19047Y25378D02*
Y37378D01*
X12392Y36208D02*
Y37808D01*
X16592D01*
Y36208D02*
Y37808D01*
X12392Y36208D02*
X16592D01*
G54D26*
X40445Y37114D02*
X42445D01*
X40445Y36114D02*
Y37114D01*
Y36114D02*
X42445D01*
Y37114D01*
X7799Y34327D02*
Y37327D01*
X4799D02*
X7799D01*
X4799Y34327D02*
Y37327D01*
Y34327D02*
X7799D01*
X7949Y23909D02*
X9949D01*
Y24909D01*
X7949D02*
X9949D01*
X7949Y23909D02*
Y24909D01*
M02*
