M48
;Layer_Color=9474304
;FILE_FORMAT=2:4
INCH,TZ
;TYPE=PLATED
T1F00S00C0.0240
T2F00S00C0.0280
T3F00S00C0.0320
T4F00S00C0.0354
T5F00S00C0.0360
T6F00S00C0.0394
T7F00S00C0.0400
T8F00S00C0.1102
T9F00S00C0.1181
T10F00S00C0.1220
%
T01
X39764Y26165
Y27165
T02
X9449Y25591
X15110Y28366
X18110
X20866Y28740
X20472Y27165
X18504Y25197
X34041Y34371
X39744Y33614
X40551Y31496
X39744Y36614
X20866Y33071
X10354Y34252
T03
X12598Y28346
X13598
X9661Y31890
X8661
T04
X8449Y24409
X9449
X40945Y36614
X41945
T05
X12992Y25197
X16992
X42126Y27559
Y31559
T06
X4799Y34827
Y35827
Y36827
X7799
Y35827
Y34827
T07
X22047Y26378
X23047
X24047
X25047
X26047
X27047
X28047
X29047
X30047
X31047
X32047
X33047
X34047
X35047
X36047
Y36378
X35047
X34047
X33047
X32047
X31047
X30047
X29047
X28047
X27047
X26047
X25047
X24047
X23047
X22047
X18024Y34921
Y29921
X17024
X16024
X15024
X14024
X13024
X12024
X11024
Y34921
X12024
X13024
X14024
X15024
X16024
X17024
X15992Y37008
X14992
X13992
X12992
T08
X4606Y24728
X3366Y26465
X5846
X4606Y30240
X3366Y31976
X5846
T09
X8268Y29134
T10
X43110Y25197
Y34646
M30
