M48
;Layer_Color=9474304
;FILE_FORMAT=2:4
INCH,TZ
;TYPE=PLATED
T1F00S00C0.0240
T2F00S00C0.0280
T3F00S00C0.0320
T4F00S00C0.0354
T5F00S00C0.0400
T6F00S00C0.1102
T7F00S00C0.1220
%
T01
X26780Y34236
X27780
T02
X7441Y26776
X10441
X23827Y29984
X24988Y31236
Y34236
X26827Y29984
T03
X5421Y26756
X6421
X25795Y28823
X26795
T04
X25008Y36008
X26008
X3256Y39732
Y40732
T05
X4654Y28724
Y29724
X9654
Y28724
X12213Y29012
Y28012
X22213
Y29012
Y30012
Y31012
Y32012
Y33012
Y34012
Y35012
Y36012
Y37012
Y38012
Y39012
Y40012
Y41012
Y42012
X12213
Y41012
Y40012
Y39012
Y38012
Y37012
Y36012
Y35012
Y34012
Y33012
Y32012
Y31012
Y30012
X9654Y30724
Y31724
Y32724
Y33724
Y34724
Y35724
X9161Y37583
X8161
X7161
X6161
X4654Y35724
Y34724
Y33724
Y32724
Y31724
Y30724
X2567Y30791
Y31791
Y32791
Y33791
T06
X24870Y38626
X27350
X26110Y40610
T07
X1878Y26854
X27370Y26756
X27272Y44571
X2173Y44571
M30
