M48
;Layer_Color=9474304
;FILE_FORMAT=2:4
INCH,TZ
;TYPE=PLATED
T1F00S00C0.0240
T2F00S00C0.0280
T3F00S00C0.0320
T4F00S00C0.0354
T5F00S00C0.0400
T6F00S00C0.1102
T7F00S00C0.1220
%
T01
X12009Y22779
X13009
T02
X-6967Y14043
X-3967
X9419Y17251
X10580Y18503
Y21503
X12419Y17251
T03
X10592Y13723
X-7987Y14023
X-8987
X10592Y14723
T04
X-11152Y26999
Y27999
X12757Y20377
Y19377
T05
X-11841Y18058
Y19058
Y20058
Y21058
X-9754Y20991
Y19991
Y18991
Y17991
Y16991
Y15991
X-4754
Y16991
Y17991
Y18991
Y19991
Y20991
Y21991
Y22991
X-5247Y24849
X-6247
X-7247
X-8247
X-9754Y22991
Y21991
X-2195Y22279
Y23279
Y24279
Y25279
Y26279
Y27279
Y28279
Y29279
Y21279
Y20279
Y19279
Y18279
Y17279
Y16279
Y15279
X7805
Y16279
Y17279
Y18279
Y19279
Y20279
Y21279
Y22279
Y23279
Y24279
Y25279
Y26279
Y27279
Y28279
Y29279
T06
X10462Y25893
X12942
X11702Y27877
T07
X12962Y14023
X-12530Y14121
X12864Y31838
X-12235Y31838
M30
