G04 Layer_Physical_Order=2*
G04 Layer_Color=16711680*
%FSLAX24Y24*%
%MOIN*%
G70*
G01*
G75*
%ADD10C,0.0620*%
%ADD11C,0.0620*%
%ADD12O,0.0500X0.0800*%
%ADD13O,0.0800X0.0500*%
%ADD14R,0.0591X0.0591*%
%ADD15C,0.0591*%
%ADD16R,0.0620X0.0620*%
%ADD17C,0.1575*%
%ADD18C,0.2362*%
%ADD19C,0.0320*%
G36*
X14450Y12346D02*
X14372Y12267D01*
X-14093D01*
Y33369D01*
X14450D01*
Y12346D01*
D02*
G37*
%LPC*%
G36*
X-2315Y16689D02*
X-2605D01*
Y16399D01*
X-2315D01*
Y16689D01*
D02*
G37*
G36*
X-1785D02*
X-2075D01*
Y16399D01*
X-1785D01*
Y16689D01*
D02*
G37*
G36*
X7685Y16159D02*
X7395D01*
Y15869D01*
X7685D01*
Y16159D01*
D02*
G37*
G36*
X8215D02*
X7925D01*
Y15869D01*
X8215D01*
Y16159D01*
D02*
G37*
G36*
X7685Y16689D02*
X7395D01*
Y16399D01*
X7685D01*
Y16689D01*
D02*
G37*
G36*
X-9754Y22506D02*
X-9888Y22488D01*
X-10012Y22437D01*
X-10118Y22355D01*
X-10119Y22354D01*
X-12006D01*
X-12100Y22342D01*
X-12188Y22306D01*
X-12263Y22248D01*
X-13208Y21303D01*
X-13266Y21228D01*
X-13302Y21140D01*
X-13314Y21046D01*
Y17031D01*
X-13302Y16937D01*
X-13266Y16849D01*
X-13208Y16774D01*
X-11765Y15331D01*
X-11796Y15291D01*
X-11901Y15355D01*
X-12102Y15439D01*
X-12313Y15489D01*
X-12530Y15506D01*
X-12747Y15489D01*
X-12958Y15439D01*
X-13159Y15355D01*
X-13344Y15242D01*
X-13510Y15101D01*
X-13651Y14935D01*
X-13764Y14750D01*
X-13848Y14549D01*
X-13898Y14338D01*
X-13915Y14121D01*
X-13898Y13904D01*
X-13848Y13693D01*
X-13764Y13492D01*
X-13651Y13307D01*
X-13510Y13141D01*
X-13344Y13000D01*
X-13159Y12887D01*
X-12958Y12804D01*
X-12747Y12753D01*
X-12530Y12736D01*
X-12313Y12753D01*
X-12102Y12804D01*
X-11901Y12887D01*
X-11716Y13000D01*
X-11550Y13141D01*
X-11409Y13307D01*
X-11296Y13492D01*
X-11213Y13693D01*
X-11162Y13904D01*
X-11145Y14121D01*
X-11162Y14338D01*
X-11213Y14549D01*
X-11296Y14750D01*
X-11360Y14855D01*
X-11320Y14886D01*
X-9074Y12640D01*
X-8999Y12582D01*
X-8911Y12546D01*
X-8817Y12534D01*
X5423D01*
X5517Y12546D01*
X5604Y12582D01*
X5679Y12640D01*
X7804Y14764D01*
X7805Y14764D01*
X7938Y14782D01*
X8062Y14833D01*
X8168Y14915D01*
X8169Y14915D01*
X8997D01*
X9091Y14928D01*
X9179Y14964D01*
X9254Y15022D01*
X10837Y16604D01*
X10894Y16679D01*
X10931Y16767D01*
X10943Y16861D01*
X10943Y16861D01*
Y18139D01*
X10944Y18139D01*
X11025Y18246D01*
X11077Y18370D01*
X11094Y18503D01*
X11077Y18636D01*
X11025Y18760D01*
X10944Y18867D01*
X10837Y18948D01*
X10713Y19000D01*
X10580Y19017D01*
X10447Y19000D01*
X10323Y18948D01*
X10216Y18867D01*
X10134Y18760D01*
X10083Y18636D01*
X10065Y18503D01*
X10083Y18370D01*
X10134Y18246D01*
X10216Y18139D01*
X10217Y18139D01*
Y17011D01*
X8847Y15642D01*
X8169D01*
X8168Y15642D01*
X8062Y15724D01*
X7938Y15775D01*
X7805Y15793D01*
X7671Y15775D01*
X7547Y15724D01*
X7441Y15642D01*
X7359Y15536D01*
X7308Y15412D01*
X7290Y15279D01*
X7290Y15278D01*
X5272Y13260D01*
X-3604D01*
Y13678D01*
X-3603Y13679D01*
X-3522Y13785D01*
X-3470Y13910D01*
X-3453Y14043D01*
X-3470Y14176D01*
X-3522Y14300D01*
X-3603Y14406D01*
X-3710Y14488D01*
X-3834Y14540D01*
X-3967Y14557D01*
X-4100Y14540D01*
X-4224Y14488D01*
X-4331Y14406D01*
X-4413Y14300D01*
X-4464Y14176D01*
X-4481Y14043D01*
X-4464Y13910D01*
X-4413Y13785D01*
X-4331Y13679D01*
X-4330Y13678D01*
Y13260D01*
X-8667D01*
X-8893Y13485D01*
X-8876Y13540D01*
X-8810Y13567D01*
X-8737Y13623D01*
X-8681Y13696D01*
X-8646Y13781D01*
X-8634Y13873D01*
Y13903D01*
X-8987D01*
Y14023D01*
X-9107D01*
Y14502D01*
X-9163Y14478D01*
X-9236Y14422D01*
X-9293Y14349D01*
X-9328Y14264D01*
X-9340Y14173D01*
Y13998D01*
X-9386Y13979D01*
X-12588Y17181D01*
Y20896D01*
X-12400Y21084D01*
X-12355Y21062D01*
X-12356Y21058D01*
X-12338Y20925D01*
X-12287Y20801D01*
X-12205Y20694D01*
X-12098Y20613D01*
X-12032Y20585D01*
Y20531D01*
X-12098Y20504D01*
X-12205Y20422D01*
X-12287Y20315D01*
X-12338Y20191D01*
X-12356Y20058D01*
X-12338Y19925D01*
X-12287Y19801D01*
X-12205Y19694D01*
X-12098Y19613D01*
X-12032Y19585D01*
Y19531D01*
X-12098Y19504D01*
X-12205Y19422D01*
X-12287Y19315D01*
X-12338Y19191D01*
X-12356Y19058D01*
X-12338Y18925D01*
X-12287Y18801D01*
X-12205Y18694D01*
X-12098Y18613D01*
X-12032Y18585D01*
Y18531D01*
X-12098Y18504D01*
X-12205Y18422D01*
X-12287Y18315D01*
X-12338Y18191D01*
X-12356Y18058D01*
X-12338Y17925D01*
X-12287Y17801D01*
X-12205Y17694D01*
X-12098Y17613D01*
X-11974Y17561D01*
X-11841Y17544D01*
X-11708Y17561D01*
X-11584Y17613D01*
X-11564Y17628D01*
X-10119D01*
X-10118Y17627D01*
X-10012Y17546D01*
X-9888Y17494D01*
X-9754Y17477D01*
X-9621Y17494D01*
X-9497Y17546D01*
X-9391Y17627D01*
X-9309Y17734D01*
X-9258Y17858D01*
X-9240Y17991D01*
X-9258Y18124D01*
X-9309Y18248D01*
X-9391Y18355D01*
X-9497Y18437D01*
X-9563Y18464D01*
Y18518D01*
X-9497Y18546D01*
X-9391Y18627D01*
X-9309Y18734D01*
X-9258Y18858D01*
X-9240Y18991D01*
X-9258Y19124D01*
X-9309Y19248D01*
X-9391Y19355D01*
X-9497Y19437D01*
X-9563Y19464D01*
Y19518D01*
X-9497Y19546D01*
X-9391Y19627D01*
X-9309Y19734D01*
X-9258Y19858D01*
X-9240Y19991D01*
X-9258Y20124D01*
X-9309Y20248D01*
X-9391Y20355D01*
X-9497Y20437D01*
X-9563Y20464D01*
Y20518D01*
X-9497Y20546D01*
X-9391Y20627D01*
X-9309Y20734D01*
X-9258Y20858D01*
X-9240Y20991D01*
X-9258Y21124D01*
X-9309Y21248D01*
X-9391Y21355D01*
X-9497Y21437D01*
X-9563Y21464D01*
Y21518D01*
X-9497Y21546D01*
X-9391Y21627D01*
X-9309Y21734D01*
X-9258Y21858D01*
X-9240Y21991D01*
X-9258Y22124D01*
X-9309Y22248D01*
X-9391Y22355D01*
X-9497Y22437D01*
X-9621Y22488D01*
X-9754Y22506D01*
D02*
G37*
G36*
X12637Y19257D02*
X12379D01*
X12412Y19178D01*
X12475Y19095D01*
X12558Y19032D01*
X12637Y18999D01*
Y19257D01*
D02*
G37*
G36*
X8215Y16689D02*
X7925D01*
Y16399D01*
X8215D01*
Y16689D01*
D02*
G37*
G36*
X-9874Y17385D02*
X-9961Y17349D01*
X-10047Y17284D01*
X-10113Y17198D01*
X-10149Y17111D01*
X-9874D01*
Y17385D01*
D02*
G37*
G36*
X-1785Y16159D02*
X-2075D01*
Y15869D01*
X-1785D01*
Y16159D01*
D02*
G37*
G36*
X11071Y13603D02*
X10712D01*
Y13370D01*
X10742D01*
X10833Y13382D01*
X10918Y13418D01*
X10992Y13474D01*
X11048Y13547D01*
X11071Y13603D01*
D02*
G37*
G36*
X-7987Y14627D02*
X-8104Y14611D01*
X-8214Y14566D01*
X-8308Y14494D01*
X-8380Y14400D01*
X-8425Y14290D01*
X-8441Y14173D01*
Y13873D01*
X-8425Y13755D01*
X-8380Y13646D01*
X-8308Y13552D01*
X-8214Y13480D01*
X-8104Y13434D01*
X-7987Y13419D01*
X-7869Y13434D01*
X-7760Y13480D01*
X-7666Y13552D01*
X-7594Y13646D01*
X-7580Y13680D01*
X-7331D01*
X-7331Y13679D01*
X-7224Y13597D01*
X-7100Y13546D01*
X-6967Y13528D01*
X-6834Y13546D01*
X-6710Y13597D01*
X-6603Y13679D01*
X-6522Y13785D01*
X-6470Y13910D01*
X-6453Y14043D01*
X-6470Y14176D01*
X-6522Y14300D01*
X-6603Y14406D01*
X-6710Y14488D01*
X-6834Y14540D01*
X-6967Y14557D01*
X-7100Y14540D01*
X-7224Y14488D01*
X-7331Y14406D01*
X-7331Y14406D01*
X-7598D01*
X-7666Y14494D01*
X-7760Y14566D01*
X-7869Y14611D01*
X-7987Y14627D01*
D02*
G37*
G36*
X12962Y15408D02*
X12745Y15391D01*
X12534Y15340D01*
X12333Y15257D01*
X12148Y15143D01*
X11982Y15002D01*
X11841Y14837D01*
X11728Y14652D01*
X11644Y14451D01*
X11594Y14239D01*
X11577Y14023D01*
X11594Y13806D01*
X11644Y13595D01*
X11728Y13394D01*
X11841Y13208D01*
X11982Y13043D01*
X12148Y12902D01*
X12333Y12788D01*
X12534Y12705D01*
X12745Y12654D01*
X12962Y12637D01*
X13179Y12654D01*
X13390Y12705D01*
X13591Y12788D01*
X13776Y12902D01*
X13942Y13043D01*
X14083Y13208D01*
X14196Y13394D01*
X14280Y13595D01*
X14330Y13806D01*
X14347Y14023D01*
X14330Y14239D01*
X14280Y14451D01*
X14196Y14652D01*
X14083Y14837D01*
X13942Y15002D01*
X13776Y15143D01*
X13591Y15257D01*
X13390Y15340D01*
X13179Y15391D01*
X12962Y15408D01*
D02*
G37*
G36*
X10472Y13603D02*
X10113D01*
X10136Y13547D01*
X10192Y13474D01*
X10265Y13418D01*
X10351Y13382D01*
X10442Y13370D01*
X10472D01*
Y13603D01*
D02*
G37*
G36*
Y14076D02*
X10442D01*
X10351Y14064D01*
X10265Y14029D01*
X10192Y13973D01*
X10136Y13900D01*
X10113Y13843D01*
X10472D01*
Y14076D01*
D02*
G37*
G36*
X12419Y17765D02*
X12286Y17748D01*
X12162Y17696D01*
X12055Y17614D01*
X11973Y17508D01*
X11922Y17384D01*
X11904Y17251D01*
X11922Y17118D01*
X11973Y16994D01*
X12055Y16887D01*
X12056Y16886D01*
Y16701D01*
X10532Y15177D01*
X10442D01*
X10324Y15162D01*
X10215Y15117D01*
X10121Y15044D01*
X10049Y14950D01*
X10004Y14841D01*
X9988Y14723D01*
X10004Y14606D01*
X10049Y14497D01*
X10121Y14403D01*
X10215Y14330D01*
X10324Y14285D01*
X10442Y14270D01*
X10742D01*
X10859Y14285D01*
X10969Y14330D01*
X11063Y14403D01*
X11135Y14497D01*
X11180Y14606D01*
X11196Y14723D01*
X11185Y14803D01*
X12675Y16293D01*
X12733Y16369D01*
X12769Y16456D01*
X12782Y16550D01*
X12782Y16550D01*
Y16886D01*
X12782Y16887D01*
X12864Y16994D01*
X12916Y17118D01*
X12933Y17251D01*
X12916Y17384D01*
X12864Y17508D01*
X12782Y17614D01*
X12676Y17696D01*
X12552Y17748D01*
X12419Y17765D01*
D02*
G37*
G36*
X-2315Y16159D02*
X-2605D01*
Y15869D01*
X-2315D01*
Y16159D01*
D02*
G37*
G36*
X10742Y14076D02*
X10712D01*
Y13843D01*
X11071D01*
X11048Y13900D01*
X10992Y13973D01*
X10918Y14029D01*
X10833Y14064D01*
X10742Y14076D01*
D02*
G37*
G36*
X-8867Y14502D02*
Y14143D01*
X-8634D01*
Y14173D01*
X-8646Y14264D01*
X-8681Y14349D01*
X-8737Y14422D01*
X-8810Y14478D01*
X-8867Y14502D01*
D02*
G37*
G36*
X13135Y19257D02*
X12877D01*
Y18999D01*
X12957Y19032D01*
X13039Y19095D01*
X13103Y19178D01*
X13135Y19257D01*
D02*
G37*
G36*
X12822Y25773D02*
X12062D01*
X12068Y25719D01*
X12119Y25552D01*
X12201Y25397D01*
X12312Y25262D01*
X12447Y25151D01*
X12601Y25069D01*
X12768Y25018D01*
X12822Y25013D01*
Y25773D01*
D02*
G37*
G36*
X13822D02*
X13062D01*
Y25013D01*
X13116Y25018D01*
X13284Y25069D01*
X13438Y25151D01*
X13573Y25262D01*
X13684Y25397D01*
X13766Y25552D01*
X13817Y25719D01*
X13822Y25773D01*
D02*
G37*
G36*
X-6367Y25244D02*
X-6453Y25208D01*
X-6539Y25142D01*
X-6605Y25056D01*
X-6641Y24969D01*
X-6367D01*
Y25244D01*
D02*
G37*
G36*
X-9634Y23385D02*
Y23111D01*
X-9360D01*
X-9396Y23198D01*
X-9462Y23284D01*
X-9548Y23349D01*
X-9634Y23385D01*
D02*
G37*
G36*
X-2195Y29793D02*
X-2329Y29775D01*
X-2453Y29724D01*
X-2559Y29642D01*
X-2641Y29536D01*
X-2692Y29412D01*
X-2710Y29279D01*
X-2692Y29145D01*
X-2641Y29021D01*
X-2559Y28915D01*
X-2453Y28833D01*
X-2386Y28806D01*
Y28752D01*
X-2453Y28724D01*
X-2559Y28642D01*
X-2641Y28536D01*
X-2692Y28412D01*
X-2710Y28279D01*
X-2692Y28145D01*
X-2641Y28021D01*
X-2559Y27915D01*
X-2453Y27833D01*
X-2386Y27806D01*
Y27752D01*
X-2453Y27724D01*
X-2559Y27642D01*
X-2641Y27536D01*
X-2692Y27412D01*
X-2710Y27279D01*
X-2692Y27145D01*
X-2641Y27021D01*
X-2559Y26915D01*
X-2453Y26833D01*
X-2386Y26806D01*
Y26752D01*
X-2453Y26724D01*
X-2559Y26642D01*
X-2641Y26536D01*
X-2692Y26412D01*
X-2710Y26279D01*
X-2692Y26145D01*
X-2641Y26021D01*
X-2559Y25915D01*
X-2453Y25833D01*
X-2386Y25806D01*
Y25752D01*
X-2453Y25724D01*
X-2559Y25642D01*
X-2641Y25536D01*
X-2692Y25412D01*
X-2710Y25279D01*
X-2692Y25145D01*
X-2641Y25021D01*
X-2559Y24915D01*
X-2453Y24833D01*
X-2386Y24806D01*
Y24752D01*
X-2453Y24724D01*
X-2559Y24642D01*
X-2641Y24536D01*
X-2692Y24412D01*
X-2710Y24279D01*
X-2692Y24145D01*
X-2641Y24021D01*
X-2559Y23915D01*
X-2453Y23833D01*
X-2386Y23806D01*
Y23752D01*
X-2453Y23724D01*
X-2559Y23642D01*
X-2641Y23536D01*
X-2692Y23412D01*
X-2701Y23346D01*
X-2755Y23318D01*
X-2814Y23342D01*
X-2908Y23354D01*
X-4390D01*
X-4391Y23355D01*
X-4497Y23437D01*
X-4621Y23488D01*
X-4754Y23506D01*
X-4888Y23488D01*
X-5012Y23437D01*
X-5118Y23355D01*
X-5200Y23248D01*
X-5251Y23124D01*
X-5269Y22991D01*
X-5251Y22858D01*
X-5200Y22734D01*
X-5118Y22627D01*
X-5012Y22546D01*
X-4946Y22518D01*
Y22464D01*
X-5012Y22437D01*
X-5118Y22355D01*
X-5200Y22248D01*
X-5251Y22124D01*
X-5269Y21991D01*
X-5251Y21858D01*
X-5200Y21734D01*
X-5118Y21627D01*
X-5012Y21546D01*
X-4946Y21518D01*
Y21464D01*
X-5012Y21437D01*
X-5118Y21355D01*
X-5200Y21248D01*
X-5251Y21124D01*
X-5269Y20991D01*
X-5251Y20858D01*
X-5200Y20734D01*
X-5118Y20627D01*
X-5118Y20627D01*
Y20355D01*
X-5118Y20355D01*
X-5200Y20248D01*
X-5251Y20124D01*
X-5269Y19991D01*
X-5251Y19858D01*
X-5200Y19734D01*
X-5118Y19627D01*
X-5012Y19546D01*
X-4946Y19518D01*
Y19464D01*
X-5012Y19437D01*
X-5118Y19355D01*
X-5200Y19248D01*
X-5251Y19124D01*
X-5269Y18991D01*
X-5251Y18858D01*
X-5200Y18734D01*
X-5118Y18627D01*
X-5012Y18546D01*
X-4946Y18518D01*
Y18464D01*
X-5012Y18437D01*
X-5118Y18355D01*
X-5200Y18248D01*
X-5251Y18124D01*
X-5269Y17991D01*
X-5251Y17858D01*
X-5200Y17734D01*
X-5118Y17627D01*
X-5012Y17546D01*
X-4946Y17518D01*
Y17464D01*
X-5012Y17437D01*
X-5118Y17355D01*
X-5200Y17248D01*
X-5251Y17124D01*
X-5269Y16991D01*
X-5251Y16858D01*
X-5200Y16734D01*
X-5118Y16627D01*
X-5012Y16546D01*
X-4946Y16518D01*
Y16464D01*
X-5012Y16437D01*
X-5118Y16355D01*
X-5200Y16248D01*
X-5251Y16124D01*
X-5269Y15991D01*
X-5259Y15919D01*
X-5307Y15896D01*
X-5868Y16457D01*
Y23715D01*
X-5247Y24335D01*
X-5247Y24335D01*
X-5113Y24353D01*
X-4989Y24404D01*
X-4883Y24486D01*
X-4801Y24592D01*
X-4750Y24716D01*
X-4732Y24849D01*
X-4750Y24983D01*
X-4801Y25107D01*
X-4883Y25213D01*
X-4989Y25295D01*
X-5113Y25346D01*
X-5247Y25364D01*
X-5380Y25346D01*
X-5504Y25295D01*
X-5610Y25213D01*
X-5692Y25107D01*
X-5744Y24983D01*
X-5760Y24857D01*
X-5784Y24841D01*
X-5799Y24843D01*
X-5835Y24863D01*
X-5847Y24956D01*
X-5888Y25056D01*
X-5954Y25142D01*
X-6040Y25208D01*
X-6127Y25244D01*
Y24849D01*
X-6247D01*
Y24729D01*
X-6641D01*
X-6605Y24643D01*
X-6539Y24557D01*
X-6453Y24491D01*
X-6354Y24450D01*
X-6247Y24436D01*
X-6240Y24437D01*
X-6218Y24392D01*
X-6488Y24122D01*
X-6545Y24047D01*
X-6582Y23959D01*
X-6594Y23865D01*
Y16306D01*
X-6582Y16212D01*
X-6545Y16125D01*
X-6488Y16050D01*
X-5460Y15022D01*
X-5385Y14964D01*
X-5297Y14928D01*
X-5203Y14915D01*
X-5203Y14915D01*
X-2560D01*
X-2559Y14915D01*
X-2453Y14833D01*
X-2329Y14782D01*
X-2195Y14764D01*
X-2062Y14782D01*
X-1938Y14833D01*
X-1832Y14915D01*
X-1750Y15021D01*
X-1699Y15145D01*
X-1681Y15279D01*
X-1699Y15412D01*
X-1750Y15536D01*
X-1832Y15642D01*
X-1938Y15724D01*
X-2062Y15775D01*
X-2195Y15793D01*
X-2329Y15775D01*
X-2453Y15724D01*
X-2559Y15642D01*
X-2560Y15642D01*
X-4323D01*
X-4345Y15687D01*
X-4309Y15734D01*
X-4258Y15858D01*
X-4240Y15991D01*
X-4258Y16124D01*
X-4309Y16248D01*
X-4391Y16355D01*
X-4497Y16437D01*
X-4563Y16464D01*
Y16518D01*
X-4497Y16546D01*
X-4391Y16627D01*
X-4309Y16734D01*
X-4258Y16858D01*
X-4240Y16991D01*
X-4258Y17124D01*
X-4309Y17248D01*
X-4391Y17355D01*
X-4497Y17437D01*
X-4563Y17464D01*
Y17518D01*
X-4497Y17546D01*
X-4391Y17627D01*
X-4309Y17734D01*
X-4258Y17858D01*
X-4240Y17991D01*
X-4258Y18124D01*
X-4309Y18248D01*
X-4391Y18355D01*
X-4497Y18437D01*
X-4563Y18464D01*
Y18518D01*
X-4497Y18546D01*
X-4391Y18627D01*
X-4309Y18734D01*
X-4258Y18858D01*
X-4240Y18991D01*
X-4258Y19124D01*
X-4309Y19248D01*
X-4391Y19355D01*
X-4497Y19437D01*
X-4563Y19464D01*
Y19518D01*
X-4497Y19546D01*
X-4391Y19627D01*
X-4309Y19734D01*
X-4258Y19858D01*
X-4240Y19991D01*
X-4258Y20124D01*
X-4309Y20248D01*
X-4391Y20355D01*
X-4391Y20355D01*
Y20627D01*
X-4391Y20627D01*
X-4309Y20734D01*
X-4258Y20858D01*
X-4249Y20924D01*
X-4199Y20953D01*
X-4195Y20952D01*
X-4136Y20928D01*
X-4042Y20915D01*
X-4042Y20915D01*
X-2560D01*
X-2559Y20915D01*
X-2453Y20833D01*
X-2386Y20806D01*
Y20752D01*
X-2453Y20724D01*
X-2559Y20642D01*
X-2641Y20536D01*
X-2692Y20412D01*
X-2710Y20279D01*
X-2692Y20145D01*
X-2641Y20021D01*
X-2559Y19915D01*
X-2453Y19833D01*
X-2386Y19806D01*
Y19752D01*
X-2453Y19724D01*
X-2559Y19642D01*
X-2641Y19536D01*
X-2692Y19412D01*
X-2710Y19279D01*
X-2692Y19145D01*
X-2641Y19021D01*
X-2559Y18915D01*
X-2453Y18833D01*
X-2386Y18806D01*
Y18752D01*
X-2453Y18724D01*
X-2559Y18642D01*
X-2641Y18536D01*
X-2692Y18412D01*
X-2710Y18279D01*
X-2692Y18145D01*
X-2641Y18021D01*
X-2559Y17915D01*
X-2453Y17833D01*
X-2386Y17806D01*
Y17752D01*
X-2453Y17724D01*
X-2559Y17642D01*
X-2641Y17536D01*
X-2692Y17412D01*
X-2710Y17279D01*
X-2692Y17145D01*
X-2641Y17021D01*
X-2559Y16915D01*
X-2453Y16833D01*
X-2329Y16782D01*
X-2195Y16764D01*
X-2062Y16782D01*
X-1938Y16833D01*
X-1832Y16915D01*
X-1750Y17021D01*
X-1699Y17145D01*
X-1681Y17279D01*
X-1699Y17412D01*
X-1750Y17536D01*
X-1832Y17642D01*
X-1938Y17724D01*
X-2004Y17752D01*
Y17806D01*
X-1938Y17833D01*
X-1832Y17915D01*
X-1750Y18021D01*
X-1699Y18145D01*
X-1681Y18279D01*
X-1699Y18412D01*
X-1750Y18536D01*
X-1832Y18642D01*
X-1938Y18724D01*
X-2004Y18752D01*
Y18806D01*
X-1938Y18833D01*
X-1832Y18915D01*
X-1750Y19021D01*
X-1699Y19145D01*
X-1681Y19279D01*
X-1699Y19412D01*
X-1750Y19536D01*
X-1832Y19642D01*
X-1938Y19724D01*
X-2004Y19752D01*
Y19806D01*
X-1938Y19833D01*
X-1832Y19915D01*
X-1750Y20021D01*
X-1699Y20145D01*
X-1681Y20279D01*
X-1699Y20412D01*
X-1750Y20536D01*
X-1832Y20642D01*
X-1938Y20724D01*
X-2004Y20752D01*
Y20806D01*
X-1938Y20833D01*
X-1832Y20915D01*
X-1750Y21021D01*
X-1699Y21145D01*
X-1681Y21279D01*
X-1699Y21412D01*
X-1750Y21536D01*
X-1832Y21642D01*
X-1938Y21724D01*
X-2004Y21752D01*
Y21806D01*
X-1938Y21833D01*
X-1832Y21915D01*
X-1750Y22021D01*
X-1699Y22145D01*
X-1681Y22279D01*
X-1699Y22412D01*
X-1750Y22536D01*
X-1832Y22642D01*
X-1938Y22724D01*
X-2004Y22752D01*
Y22806D01*
X-1938Y22833D01*
X-1832Y22915D01*
X-1750Y23021D01*
X-1699Y23145D01*
X-1681Y23279D01*
X-1699Y23412D01*
X-1750Y23536D01*
X-1832Y23642D01*
X-1938Y23724D01*
X-2004Y23752D01*
Y23806D01*
X-1938Y23833D01*
X-1832Y23915D01*
X-1750Y24021D01*
X-1699Y24145D01*
X-1681Y24279D01*
X-1699Y24412D01*
X-1750Y24536D01*
X-1832Y24642D01*
X-1938Y24724D01*
X-2004Y24752D01*
Y24806D01*
X-1938Y24833D01*
X-1832Y24915D01*
X-1750Y25021D01*
X-1699Y25145D01*
X-1681Y25279D01*
X-1699Y25412D01*
X-1750Y25536D01*
X-1832Y25642D01*
X-1938Y25724D01*
X-2004Y25752D01*
Y25806D01*
X-1938Y25833D01*
X-1832Y25915D01*
X-1750Y26021D01*
X-1699Y26145D01*
X-1681Y26279D01*
X-1699Y26412D01*
X-1750Y26536D01*
X-1832Y26642D01*
X-1938Y26724D01*
X-2004Y26752D01*
Y26806D01*
X-1938Y26833D01*
X-1832Y26915D01*
X-1750Y27021D01*
X-1699Y27145D01*
X-1681Y27279D01*
X-1699Y27412D01*
X-1750Y27536D01*
X-1832Y27642D01*
X-1938Y27724D01*
X-2004Y27752D01*
Y27806D01*
X-1938Y27833D01*
X-1832Y27915D01*
X-1750Y28021D01*
X-1699Y28145D01*
X-1681Y28279D01*
X-1699Y28412D01*
X-1750Y28536D01*
X-1832Y28642D01*
X-1938Y28724D01*
X-2004Y28752D01*
Y28806D01*
X-1938Y28833D01*
X-1832Y28915D01*
X-1750Y29021D01*
X-1699Y29145D01*
X-1681Y29279D01*
X-1699Y29412D01*
X-1750Y29536D01*
X-1832Y29642D01*
X-1938Y29724D01*
X-2062Y29775D01*
X-2195Y29793D01*
D02*
G37*
G36*
X-12235Y33223D02*
X-12452Y33206D01*
X-12663Y33155D01*
X-12864Y33072D01*
X-13049Y32958D01*
X-13214Y32817D01*
X-13356Y32652D01*
X-13469Y32467D01*
X-13552Y32266D01*
X-13603Y32054D01*
X-13620Y31838D01*
X-13603Y31621D01*
X-13552Y31410D01*
X-13469Y31209D01*
X-13356Y31023D01*
X-13214Y30858D01*
X-13049Y30717D01*
X-12864Y30603D01*
X-12663Y30520D01*
X-12452Y30469D01*
X-12235Y30452D01*
X-12018Y30469D01*
X-11807Y30520D01*
X-11606Y30603D01*
X-11421Y30717D01*
X-11255Y30858D01*
X-11114Y31023D01*
X-11000Y31209D01*
X-10917Y31410D01*
X-10866Y31621D01*
X-10849Y31838D01*
X-10866Y32054D01*
X-10917Y32266D01*
X-11000Y32467D01*
X-11114Y32652D01*
X-11255Y32817D01*
X-11421Y32958D01*
X-11606Y33072D01*
X-11807Y33155D01*
X-12018Y33206D01*
X-12235Y33223D01*
D02*
G37*
G36*
X12864Y33223D02*
X12647Y33206D01*
X12436Y33155D01*
X12235Y33072D01*
X12049Y32958D01*
X11884Y32817D01*
X11743Y32652D01*
X11629Y32467D01*
X11546Y32266D01*
X11495Y32054D01*
X11478Y31838D01*
X11495Y31621D01*
X11546Y31410D01*
X11629Y31209D01*
X11743Y31023D01*
X11884Y30858D01*
X12049Y30717D01*
X12235Y30603D01*
X12436Y30520D01*
X12647Y30469D01*
X12864Y30452D01*
X13080Y30469D01*
X13292Y30520D01*
X13493Y30603D01*
X13678Y30717D01*
X13843Y30858D01*
X13984Y31023D01*
X14098Y31209D01*
X14181Y31410D01*
X14232Y31621D01*
X14249Y31838D01*
X14232Y32054D01*
X14181Y32266D01*
X14098Y32467D01*
X13984Y32652D01*
X13843Y32817D01*
X13678Y32958D01*
X13493Y33072D01*
X13292Y33155D01*
X13080Y33206D01*
X12864Y33223D01*
D02*
G37*
G36*
X-3573Y30921D02*
X-3667Y30909D01*
X-3755Y30873D01*
X-3830Y30815D01*
X-6283Y28362D01*
X-10657D01*
Y28494D01*
X-11647D01*
Y27504D01*
X-11358D01*
X-11349Y27454D01*
X-11402Y27432D01*
X-11505Y27352D01*
X-11585Y27249D01*
X-11635Y27128D01*
X-11652Y26999D01*
X-11635Y26870D01*
X-11585Y26749D01*
X-11505Y26646D01*
X-11402Y26566D01*
X-11281Y26517D01*
X-11152Y26500D01*
X-11023Y26517D01*
X-10902Y26566D01*
X-10812Y26636D01*
X-9547D01*
X-8311Y25401D01*
X-8327Y25353D01*
X-8380Y25346D01*
X-8504Y25295D01*
X-8610Y25213D01*
X-8692Y25107D01*
X-8744Y24983D01*
X-8761Y24849D01*
X-8744Y24716D01*
X-8692Y24592D01*
X-8610Y24486D01*
X-8504Y24404D01*
X-8380Y24353D01*
X-8247Y24335D01*
X-8113Y24353D01*
X-7989Y24404D01*
X-7883Y24486D01*
X-7801Y24592D01*
X-7774Y24658D01*
X-7720D01*
X-7692Y24592D01*
X-7610Y24486D01*
X-7610Y24485D01*
Y18649D01*
X-9297Y16962D01*
X-9342Y16984D01*
X-9341Y16991D01*
X-9355Y17098D01*
X-9396Y17198D01*
X-9462Y17284D01*
X-9548Y17349D01*
X-9634Y17385D01*
Y16991D01*
X-9754D01*
Y16871D01*
X-10149D01*
X-10113Y16784D01*
X-10047Y16699D01*
X-9961Y16633D01*
X-9862Y16592D01*
X-9768Y16579D01*
X-9749Y16544D01*
X-9746Y16528D01*
X-9762Y16505D01*
X-9888Y16488D01*
X-10012Y16437D01*
X-10118Y16355D01*
X-10200Y16248D01*
X-10251Y16124D01*
X-10269Y15991D01*
X-10251Y15858D01*
X-10200Y15734D01*
X-10118Y15627D01*
X-10012Y15546D01*
X-9888Y15494D01*
X-9754Y15477D01*
X-9621Y15494D01*
X-9497Y15546D01*
X-9391Y15627D01*
X-9309Y15734D01*
X-9258Y15858D01*
X-9240Y15991D01*
X-9240Y15992D01*
X-6990Y18242D01*
X-6990Y18242D01*
X-6932Y18318D01*
X-6896Y18405D01*
X-6884Y18499D01*
Y24485D01*
X-6883Y24486D01*
X-6801Y24592D01*
X-6750Y24716D01*
X-6732Y24849D01*
X-6750Y24983D01*
X-6801Y25107D01*
X-6883Y25213D01*
X-6989Y25295D01*
X-7113Y25346D01*
X-7247Y25364D01*
X-7247Y25364D01*
X-9139Y27256D01*
X-9215Y27314D01*
X-9302Y27350D01*
X-9396Y27362D01*
X-10812D01*
X-10902Y27432D01*
X-10956Y27454D01*
X-10946Y27504D01*
X-10657D01*
Y27636D01*
X-6132D01*
X-6038Y27648D01*
X-5951Y27685D01*
X-5876Y27742D01*
X-3423Y30195D01*
X7418D01*
X7774Y29839D01*
X7756Y29787D01*
X7671Y29775D01*
X7547Y29724D01*
X7441Y29642D01*
X7359Y29536D01*
X7308Y29412D01*
X7290Y29279D01*
X7308Y29145D01*
X7359Y29021D01*
X7441Y28915D01*
X7547Y28833D01*
X7614Y28806D01*
Y28752D01*
X7547Y28724D01*
X7441Y28642D01*
X7359Y28536D01*
X7308Y28412D01*
X7290Y28279D01*
X7308Y28145D01*
X7359Y28021D01*
X7441Y27915D01*
X7547Y27833D01*
X7614Y27806D01*
Y27752D01*
X7547Y27724D01*
X7441Y27642D01*
X7359Y27536D01*
X7308Y27412D01*
X7290Y27279D01*
X7308Y27145D01*
X7359Y27021D01*
X7441Y26915D01*
X7547Y26833D01*
X7614Y26806D01*
Y26752D01*
X7547Y26724D01*
X7441Y26642D01*
X7359Y26536D01*
X7308Y26412D01*
X7290Y26279D01*
X7308Y26145D01*
X7359Y26021D01*
X7441Y25915D01*
X7547Y25833D01*
X7614Y25806D01*
Y25752D01*
X7547Y25724D01*
X7441Y25642D01*
X7359Y25536D01*
X7308Y25412D01*
X7290Y25279D01*
X7308Y25145D01*
X7359Y25021D01*
X7441Y24915D01*
X7547Y24833D01*
X7614Y24806D01*
Y24752D01*
X7547Y24724D01*
X7441Y24642D01*
X7359Y24536D01*
X7308Y24412D01*
X7290Y24279D01*
X7308Y24145D01*
X7359Y24021D01*
X7441Y23915D01*
X7547Y23833D01*
X7614Y23806D01*
Y23752D01*
X7547Y23724D01*
X7441Y23642D01*
X7359Y23536D01*
X7308Y23412D01*
X7290Y23279D01*
X7308Y23145D01*
X7359Y23021D01*
X7441Y22915D01*
X7547Y22833D01*
X7614Y22806D01*
Y22752D01*
X7547Y22724D01*
X7441Y22642D01*
X7359Y22536D01*
X7308Y22412D01*
X7290Y22279D01*
X7308Y22145D01*
X7359Y22021D01*
X7441Y21915D01*
X7547Y21833D01*
X7614Y21806D01*
Y21752D01*
X7547Y21724D01*
X7441Y21642D01*
X7359Y21536D01*
X7308Y21412D01*
X7290Y21279D01*
X7308Y21145D01*
X7359Y21021D01*
X7441Y20915D01*
X7547Y20833D01*
X7614Y20806D01*
Y20752D01*
X7547Y20724D01*
X7441Y20642D01*
X7359Y20536D01*
X7308Y20412D01*
X7290Y20279D01*
X7308Y20145D01*
X7359Y20021D01*
X7441Y19915D01*
X7547Y19833D01*
X7614Y19806D01*
Y19752D01*
X7547Y19724D01*
X7441Y19642D01*
X7359Y19536D01*
X7308Y19412D01*
X7290Y19279D01*
X7308Y19145D01*
X7359Y19021D01*
X7441Y18915D01*
X7547Y18833D01*
X7614Y18806D01*
Y18752D01*
X7547Y18724D01*
X7441Y18642D01*
X7359Y18536D01*
X7308Y18412D01*
X7290Y18279D01*
X7308Y18145D01*
X7359Y18021D01*
X7441Y17915D01*
X7547Y17833D01*
X7614Y17806D01*
Y17752D01*
X7547Y17724D01*
X7441Y17642D01*
X7359Y17536D01*
X7308Y17412D01*
X7290Y17279D01*
X7308Y17145D01*
X7359Y17021D01*
X7441Y16915D01*
X7547Y16833D01*
X7671Y16782D01*
X7805Y16764D01*
X7938Y16782D01*
X8062Y16833D01*
X8133Y16888D01*
X9055D01*
X9055Y16887D01*
X9162Y16805D01*
X9286Y16754D01*
X9419Y16736D01*
X9552Y16754D01*
X9676Y16805D01*
X9782Y16887D01*
X9864Y16994D01*
X9916Y17118D01*
X9933Y17251D01*
X9916Y17384D01*
X9864Y17508D01*
X9782Y17614D01*
X9676Y17696D01*
X9552Y17748D01*
X9419Y17765D01*
X9286Y17748D01*
X9162Y17696D01*
X9055Y17614D01*
X9055Y17614D01*
X8190D01*
X8168Y17642D01*
X8062Y17724D01*
X7996Y17752D01*
Y17806D01*
X8062Y17833D01*
X8168Y17915D01*
X8250Y18021D01*
X8301Y18145D01*
X8319Y18279D01*
X8301Y18412D01*
X8250Y18536D01*
X8168Y18642D01*
X8062Y18724D01*
X7996Y18752D01*
Y18806D01*
X8062Y18833D01*
X8168Y18915D01*
X8250Y19021D01*
X8301Y19145D01*
X8319Y19279D01*
X8301Y19412D01*
X8250Y19536D01*
X8168Y19642D01*
X8062Y19724D01*
X7996Y19752D01*
Y19806D01*
X8062Y19833D01*
X8168Y19915D01*
X8250Y20021D01*
X8301Y20145D01*
X8319Y20279D01*
X8301Y20412D01*
X8250Y20536D01*
X8168Y20642D01*
X8062Y20724D01*
X7996Y20752D01*
Y20806D01*
X8062Y20833D01*
X8168Y20915D01*
X8250Y21021D01*
X8301Y21145D01*
X8319Y21279D01*
X8301Y21412D01*
X8250Y21536D01*
X8168Y21642D01*
X8062Y21724D01*
X7996Y21752D01*
Y21806D01*
X8062Y21833D01*
X8168Y21915D01*
X8250Y22021D01*
X8301Y22145D01*
X8319Y22279D01*
X8301Y22412D01*
X8250Y22536D01*
X8168Y22642D01*
X8062Y22724D01*
X7996Y22752D01*
Y22806D01*
X8062Y22833D01*
X8168Y22915D01*
X8250Y23021D01*
X8301Y23145D01*
X8319Y23279D01*
X8301Y23412D01*
X8250Y23536D01*
X8168Y23642D01*
X8062Y23724D01*
X7996Y23752D01*
Y23806D01*
X8062Y23833D01*
X8168Y23915D01*
X8250Y24021D01*
X8301Y24145D01*
X8319Y24279D01*
X8301Y24412D01*
X8250Y24536D01*
X8168Y24642D01*
X8062Y24724D01*
X7996Y24752D01*
Y24806D01*
X8062Y24833D01*
X8168Y24915D01*
X8250Y25021D01*
X8301Y25145D01*
X8319Y25279D01*
X8301Y25412D01*
X8250Y25536D01*
X8168Y25642D01*
X8062Y25724D01*
X7996Y25752D01*
Y25806D01*
X8062Y25833D01*
X8168Y25915D01*
X8250Y26021D01*
X8301Y26145D01*
X8319Y26279D01*
X8301Y26412D01*
X8250Y26536D01*
X8168Y26642D01*
X8062Y26724D01*
X7996Y26752D01*
Y26806D01*
X8062Y26833D01*
X8168Y26915D01*
X8250Y27021D01*
X8301Y27145D01*
X8319Y27279D01*
X8301Y27412D01*
X8250Y27536D01*
X8168Y27642D01*
X8062Y27724D01*
X7996Y27752D01*
Y27806D01*
X8062Y27833D01*
X8168Y27915D01*
X8250Y28021D01*
X8299Y28140D01*
X8335Y28157D01*
X8349Y28162D01*
X8662Y27849D01*
Y24849D01*
X8674Y24755D01*
X8711Y24668D01*
X8768Y24593D01*
X10237Y23124D01*
Y21883D01*
X10216Y21867D01*
X10134Y21760D01*
X10083Y21636D01*
X10065Y21503D01*
X10083Y21370D01*
X10134Y21246D01*
X10216Y21139D01*
X10323Y21058D01*
X10447Y21006D01*
X10580Y20989D01*
X10713Y21006D01*
X10837Y21058D01*
X10944Y21139D01*
X11025Y21246D01*
X11077Y21370D01*
X11088Y21458D01*
X11908Y22278D01*
X12009Y22264D01*
X12010Y22264D01*
X12394Y21880D01*
Y20872D01*
X12262D01*
Y19882D01*
X13253D01*
Y20872D01*
X13120D01*
Y22031D01*
X13120Y22031D01*
X13108Y22125D01*
X13072Y22212D01*
X13014Y22287D01*
X13014Y22287D01*
X12980Y22321D01*
X13002Y22366D01*
X13009Y22365D01*
X13116Y22379D01*
X13216Y22420D01*
X13302Y22486D01*
X13367Y22572D01*
X13403Y22659D01*
X13009D01*
Y22779D01*
X12889D01*
Y23173D01*
X12803Y23137D01*
X12717Y23071D01*
X12651Y22985D01*
X12610Y22886D01*
X12598Y22792D01*
X12562Y22773D01*
X12546Y22770D01*
X12523Y22786D01*
X12506Y22912D01*
X12455Y23036D01*
X12373Y23142D01*
X12266Y23224D01*
X12142Y23275D01*
X12009Y23293D01*
X11876Y23275D01*
X11752Y23224D01*
X11646Y23142D01*
X11564Y23036D01*
X11512Y22912D01*
X11512Y22909D01*
X11009Y22406D01*
X10963Y22425D01*
Y23275D01*
X10963Y23275D01*
X10951Y23369D01*
X10914Y23456D01*
X10857Y23531D01*
X9388Y25000D01*
Y27999D01*
X9376Y28093D01*
X9340Y28181D01*
X9282Y28256D01*
X9282Y28256D01*
X8349Y29189D01*
X8349Y29193D01*
X8404Y29209D01*
X10099Y27514D01*
Y26814D01*
X10082Y26809D01*
X9911Y26718D01*
X9760Y26594D01*
X9637Y26444D01*
X9545Y26272D01*
X9489Y26086D01*
X9470Y25893D01*
X9489Y25699D01*
X9545Y25513D01*
X9637Y25342D01*
X9760Y25191D01*
X9911Y25068D01*
X10082Y24976D01*
X10268Y24920D01*
X10462Y24901D01*
X10656Y24920D01*
X10842Y24976D01*
X11013Y25068D01*
X11164Y25191D01*
X11287Y25342D01*
X11379Y25513D01*
X11435Y25699D01*
X11454Y25893D01*
X11435Y26086D01*
X11379Y26272D01*
X11287Y26444D01*
X11164Y26594D01*
X11013Y26718D01*
X10842Y26809D01*
X10825Y26814D01*
Y27320D01*
X10874Y27332D01*
X10877Y27326D01*
X11001Y27175D01*
X11151Y27052D01*
X11323Y26960D01*
X11509Y26904D01*
X11702Y26885D01*
X11896Y26904D01*
X12082Y26960D01*
X12253Y27052D01*
X12404Y27175D01*
X12527Y27326D01*
X12619Y27497D01*
X12675Y27683D01*
X12694Y27877D01*
X12675Y28071D01*
X12619Y28257D01*
X12527Y28428D01*
X12404Y28579D01*
X12253Y28702D01*
X12082Y28794D01*
X11896Y28850D01*
X11702Y28869D01*
X11509Y28850D01*
X11323Y28794D01*
X11151Y28702D01*
X11001Y28579D01*
X10877Y28428D01*
X10786Y28257D01*
X10729Y28071D01*
X10720Y27983D01*
X10673Y27967D01*
X7999Y30641D01*
X7998Y30652D01*
X7962Y30740D01*
X7904Y30815D01*
X7829Y30873D01*
X7741Y30909D01*
X7647Y30921D01*
X-3573D01*
X-3573Y30921D01*
D02*
G37*
G36*
X12822Y26773D02*
X12768Y26767D01*
X12601Y26717D01*
X12447Y26634D01*
X12312Y26523D01*
X12201Y26388D01*
X12119Y26234D01*
X12068Y26067D01*
X12062Y26013D01*
X12822D01*
Y26773D01*
D02*
G37*
G36*
X13062D02*
Y26013D01*
X13822D01*
X13817Y26067D01*
X13766Y26234D01*
X13684Y26388D01*
X13573Y26523D01*
X13438Y26634D01*
X13284Y26717D01*
X13116Y26767D01*
X13062Y26773D01*
D02*
G37*
G36*
X-9874Y23385D02*
X-9961Y23349D01*
X-10047Y23284D01*
X-10113Y23198D01*
X-10149Y23111D01*
X-9874D01*
Y23385D01*
D02*
G37*
G36*
X12877Y19755D02*
Y19497D01*
X13135D01*
X13103Y19576D01*
X13039Y19659D01*
X12957Y19722D01*
X12877Y19755D01*
D02*
G37*
G36*
X12637D02*
X12558Y19722D01*
X12475Y19659D01*
X12412Y19576D01*
X12379Y19497D01*
X12637D01*
Y19755D01*
D02*
G37*
G36*
X-9874Y22871D02*
X-10149D01*
X-10113Y22784D01*
X-10047Y22699D01*
X-9961Y22633D01*
X-9874Y22597D01*
Y22871D01*
D02*
G37*
G36*
X13129Y23173D02*
Y22899D01*
X13403D01*
X13367Y22985D01*
X13302Y23071D01*
X13216Y23137D01*
X13129Y23173D01*
D02*
G37*
G36*
X-9360Y22871D02*
X-9634D01*
Y22597D01*
X-9548Y22633D01*
X-9462Y22699D01*
X-9396Y22784D01*
X-9360Y22871D01*
D02*
G37*
%LPD*%
G36*
X-10118Y19627D02*
X-10012Y19546D01*
X-9946Y19518D01*
Y19464D01*
X-10012Y19437D01*
X-10032Y19421D01*
X-11477D01*
X-11477Y19422D01*
X-11584Y19504D01*
X-11650Y19531D01*
Y19585D01*
X-11584Y19613D01*
X-11477Y19694D01*
X-11477Y19695D01*
X-10170D01*
X-10118Y19627D01*
D02*
G37*
G36*
Y18627D02*
X-10012Y18546D01*
X-9946Y18518D01*
Y18464D01*
X-10012Y18437D01*
X-10118Y18355D01*
X-10119Y18354D01*
X-11425D01*
X-11477Y18422D01*
X-11584Y18504D01*
X-11650Y18531D01*
Y18585D01*
X-11584Y18613D01*
X-11477Y18694D01*
X-11477Y18695D01*
X-10170D01*
X-10118Y18627D01*
D02*
G37*
G36*
X-2710Y22279D02*
X-2710Y22279D01*
X-2692Y22145D01*
X-2641Y22021D01*
X-2559Y21915D01*
X-2453Y21833D01*
X-2386Y21806D01*
Y21752D01*
X-2453Y21724D01*
X-2559Y21642D01*
X-2560Y21642D01*
X-3891D01*
X-4240Y21990D01*
X-4240Y21991D01*
X-4258Y22124D01*
X-4309Y22248D01*
X-4391Y22355D01*
X-4497Y22437D01*
X-4563Y22464D01*
Y22518D01*
X-4497Y22546D01*
X-4391Y22627D01*
X-4390Y22628D01*
X-3058D01*
X-2710Y22279D01*
D02*
G37*
G36*
X-10118Y21627D02*
X-10012Y21546D01*
X-9946Y21518D01*
Y21464D01*
X-10012Y21437D01*
X-10032Y21421D01*
X-11477D01*
X-11477Y21422D01*
X-11584Y21504D01*
X-11708Y21555D01*
X-11796Y21567D01*
X-11822Y21620D01*
X-11817Y21628D01*
X-10119D01*
X-10118Y21627D01*
D02*
G37*
G36*
Y20627D02*
X-10012Y20546D01*
X-9946Y20518D01*
Y20464D01*
X-10012Y20437D01*
X-10032Y20421D01*
X-11477D01*
X-11477Y20422D01*
X-11584Y20504D01*
X-11650Y20531D01*
Y20585D01*
X-11584Y20613D01*
X-11477Y20694D01*
X-11477Y20695D01*
X-10170D01*
X-10118Y20627D01*
D02*
G37*
G54D10*
X12419Y17251D02*
D03*
X9419D02*
D03*
X12009Y22779D02*
D03*
X13009D02*
D03*
X10580Y18503D02*
D03*
Y21503D02*
D03*
X-6967Y14043D02*
D03*
X-3967D02*
D03*
G54D11*
X-11841Y18058D02*
D03*
Y19058D02*
D03*
Y20058D02*
D03*
Y21058D02*
D03*
X-2195Y29279D02*
D03*
Y28279D02*
D03*
Y27279D02*
D03*
Y26279D02*
D03*
Y25279D02*
D03*
Y24279D02*
D03*
Y23279D02*
D03*
Y22279D02*
D03*
Y21279D02*
D03*
Y20279D02*
D03*
Y19279D02*
D03*
Y18279D02*
D03*
Y17279D02*
D03*
Y15279D02*
D03*
X7805D02*
D03*
Y17279D02*
D03*
Y18279D02*
D03*
Y19279D02*
D03*
Y20279D02*
D03*
Y21279D02*
D03*
Y22279D02*
D03*
Y23279D02*
D03*
Y24279D02*
D03*
Y25279D02*
D03*
Y26279D02*
D03*
Y27279D02*
D03*
Y28279D02*
D03*
Y29279D02*
D03*
X-9754Y15991D02*
D03*
Y16991D02*
D03*
Y17991D02*
D03*
Y18991D02*
D03*
Y19991D02*
D03*
Y20991D02*
D03*
Y21991D02*
D03*
Y22991D02*
D03*
X-4754D02*
D03*
Y21991D02*
D03*
Y20991D02*
D03*
Y19991D02*
D03*
Y18991D02*
D03*
Y17991D02*
D03*
Y16991D02*
D03*
Y15991D02*
D03*
X-8247Y24849D02*
D03*
X-7247D02*
D03*
X-6247D02*
D03*
X-5247D02*
D03*
G54D12*
X-8987Y14023D02*
D03*
X-7987D02*
D03*
G54D13*
X10592Y13723D02*
D03*
Y14723D02*
D03*
G54D14*
X-11152Y27999D02*
D03*
X12757Y20377D02*
D03*
G54D15*
X-11152Y26999D02*
D03*
X12757Y19377D02*
D03*
G54D16*
X7805Y16279D02*
D03*
X-2195D02*
D03*
G54D17*
X12942Y25893D02*
D03*
X10462D02*
D03*
X11702Y27877D02*
D03*
G54D18*
X-12235Y31838D02*
D03*
X-12530Y14121D02*
D03*
X12962Y14023D02*
D03*
X12864Y31838D02*
D03*
G54D19*
X-3975Y12897D02*
X5423D01*
X-8817D02*
X-3975D01*
X-3967Y12905D01*
Y14043D01*
X-5203Y15279D02*
X-2195D01*
X-6231Y16306D02*
X-5203Y15279D01*
X12009Y22779D02*
X12757Y22031D01*
Y20377D02*
Y22031D01*
X10620Y21503D02*
X11895Y22779D01*
X5423Y12897D02*
X7805Y15279D01*
X-12951Y17031D02*
X-8817Y12897D01*
X-12951Y17031D02*
Y21046D01*
X-12006Y21991D01*
X-9754D01*
X10580Y16861D02*
Y18503D01*
X8997Y15279D02*
X10580Y16861D01*
X7805Y15279D02*
X8997D01*
X-11152Y26999D02*
X-9396D01*
X-7247Y24849D01*
X-11152Y27999D02*
X-6132D01*
X-3573Y30558D01*
X-11841Y21058D02*
X-9821D01*
X-9754Y20991D01*
X-11841Y20058D02*
X-9821D01*
X-9754Y19991D01*
X-11841Y19058D02*
X-9821D01*
X-9754Y18991D01*
X-11841Y18058D02*
X-11774Y17991D01*
X-9754D01*
X-7967Y14043D02*
X-6967D01*
X-7987Y14023D02*
X-7967Y14043D01*
X-6231Y23865D02*
X-5247Y24849D01*
X-4754Y21991D02*
X-4042Y21279D01*
X-2195D01*
X-4754Y22991D02*
X-2908D01*
X-2195Y22279D01*
X-6231Y16306D02*
Y23865D01*
X-9754Y15991D02*
X-7247Y18499D01*
Y24849D01*
X-4754Y19991D02*
Y20991D01*
X7832Y17251D02*
X9419D01*
X7805Y17279D02*
X7832Y17251D01*
X-3573Y30558D02*
X7647D01*
X12419Y16550D02*
Y17251D01*
X10592Y14723D02*
X12419Y16550D01*
X10462Y25893D02*
Y27664D01*
X7647Y30479D02*
Y30558D01*
Y30479D02*
X10462Y27664D01*
X7805Y29220D02*
Y29279D01*
Y29220D02*
X9025Y27999D01*
Y24849D02*
Y27999D01*
Y24849D02*
X10600Y23275D01*
Y21523D02*
Y23275D01*
Y21523D02*
X10620Y21503D01*
M02*
