G04 Layer_Color=16711935*
%FSLAX24Y24*%
%MOIN*%
G70*
G01*
G75*
%ADD36C,0.2442*%
%ADD37R,0.0671X0.0671*%
%ADD38C,0.0671*%
%ADD39C,0.0700*%
%ADD40C,0.1080*%
%ADD41C,0.0710*%
%ADD42R,0.0700X0.0700*%
%ADD43C,0.0700*%
%ADD44C,0.0880*%
%ADD45O,0.0580X0.0880*%
%ADD46O,0.0880X0.0580*%
%ADD47R,0.0671X0.0671*%
%ADD48C,0.1655*%
%ADD49C,0.0580*%
G54D36*
X-14232Y27087D02*
D03*
X13720D02*
D03*
Y-28031D02*
D03*
X-14232D02*
D03*
G54D37*
X5242Y19331D02*
D03*
X4742Y-23669D02*
D03*
G54D38*
X6242Y19331D02*
D03*
X3742Y-23669D02*
D03*
X13242Y15831D02*
D03*
Y16831D02*
D03*
Y17831D02*
D03*
X3742Y-13169D02*
D03*
G54D39*
X2742Y19331D02*
D03*
Y20331D02*
D03*
G54D40*
X9242Y21831D02*
D03*
Y17831D02*
D03*
X-2758Y-26669D02*
D03*
Y-22669D02*
D03*
Y3331D02*
D03*
Y7331D02*
D03*
Y-20669D02*
D03*
Y-16669D02*
D03*
Y9331D02*
D03*
Y13331D02*
D03*
Y-14669D02*
D03*
Y-10669D02*
D03*
Y15331D02*
D03*
Y19331D02*
D03*
Y-8669D02*
D03*
Y-4669D02*
D03*
Y-2669D02*
D03*
Y1331D02*
D03*
Y21331D02*
D03*
Y25331D02*
D03*
X6242Y15331D02*
D03*
X10242D02*
D03*
X13701Y-17642D02*
D03*
Y-13642D02*
D03*
G54D41*
X-7258Y-23169D02*
D03*
X-6258D02*
D03*
X-5258D02*
D03*
Y-26169D02*
D03*
X-6258D02*
D03*
X-7258D02*
D03*
Y6831D02*
D03*
X-6258D02*
D03*
X-5258D02*
D03*
Y3831D02*
D03*
X-6258D02*
D03*
X-7258D02*
D03*
Y-17169D02*
D03*
X-6258D02*
D03*
X-5258D02*
D03*
Y-20169D02*
D03*
X-6258D02*
D03*
X-7258D02*
D03*
Y12831D02*
D03*
X-6258D02*
D03*
X-5258D02*
D03*
Y9831D02*
D03*
X-6258D02*
D03*
X-7258D02*
D03*
Y-11169D02*
D03*
X-6258D02*
D03*
X-5258D02*
D03*
Y-14169D02*
D03*
X-6258D02*
D03*
X-7258D02*
D03*
Y18831D02*
D03*
X-6258D02*
D03*
X-5258D02*
D03*
Y15831D02*
D03*
X-6258D02*
D03*
X-7258D02*
D03*
Y-5169D02*
D03*
X-6258D02*
D03*
X-5258D02*
D03*
Y-8169D02*
D03*
X-6258D02*
D03*
X-7258D02*
D03*
Y831D02*
D03*
X-6258D02*
D03*
X-5258D02*
D03*
Y-2169D02*
D03*
X-6258D02*
D03*
X-7258D02*
D03*
Y24831D02*
D03*
X-6258D02*
D03*
X-5258D02*
D03*
Y21831D02*
D03*
X-6258D02*
D03*
X-7258D02*
D03*
G54D42*
X3742Y-5169D02*
D03*
X13742D02*
D03*
G54D43*
Y7831D02*
D03*
Y6831D02*
D03*
Y5831D02*
D03*
Y4831D02*
D03*
Y3831D02*
D03*
Y2831D02*
D03*
Y1831D02*
D03*
Y831D02*
D03*
Y-169D02*
D03*
Y-1169D02*
D03*
Y-2169D02*
D03*
Y-3169D02*
D03*
Y-4169D02*
D03*
Y-6169D02*
D03*
X3742D02*
D03*
Y-4169D02*
D03*
Y-3169D02*
D03*
Y-2169D02*
D03*
Y-1169D02*
D03*
Y-169D02*
D03*
Y831D02*
D03*
Y1831D02*
D03*
Y2831D02*
D03*
Y3831D02*
D03*
Y4831D02*
D03*
Y5831D02*
D03*
Y6831D02*
D03*
Y7831D02*
D03*
G54D44*
X3780Y-21024D02*
D03*
Y-18024D02*
D03*
X9240Y-21169D02*
D03*
Y-18169D02*
D03*
G54D45*
X4742Y15331D02*
D03*
X3742D02*
D03*
G54D46*
X13701Y-19142D02*
D03*
Y-20142D02*
D03*
G54D47*
X13242Y14831D02*
D03*
X3742Y-14169D02*
D03*
G54D48*
X10967Y-26650D02*
D03*
X9230Y-27890D02*
D03*
Y-25409D02*
D03*
X-13238Y16106D02*
D03*
X-14478Y17843D02*
D03*
X-11998D02*
D03*
X-13238Y10106D02*
D03*
X-14478Y11843D02*
D03*
X-11998D02*
D03*
X-13238Y4106D02*
D03*
X-14478Y5843D02*
D03*
X-11998D02*
D03*
X-13238Y-1894D02*
D03*
X-14478Y-157D02*
D03*
X-11998D02*
D03*
X-13238Y-7894D02*
D03*
X-14478Y-6157D02*
D03*
X-11998D02*
D03*
X-13238Y-13894D02*
D03*
X-14478Y-12157D02*
D03*
X-11998D02*
D03*
X-13238Y-19894D02*
D03*
X-14478Y-18157D02*
D03*
X-11998D02*
D03*
X-13238Y-25894D02*
D03*
X-14478Y-24157D02*
D03*
X-11998D02*
D03*
X-13238Y22106D02*
D03*
X-14478Y23843D02*
D03*
X-11998D02*
D03*
G54D49*
X11673Y4163D02*
D03*
X-760Y12539D02*
D03*
M02*
