M48
;Layer_Color=9474304
;FILE_FORMAT=2:4
INCH,TZ
;TYPE=PLATED
T1F00S00C0.0236
T2F00S00C0.0315
T3F00S00C0.0320
T4F00S00C0.0354
T5F00S00C0.0394
T6F00S00C0.0400
T7F00S00C0.0560
T8F00S00C0.1102
T9F00S00C0.1260
%
T01
X8000Y2500
Y4500
Y8000
Y10000
Y13500
Y15500
Y19000
Y21000
Y24500
Y26500
Y30000
Y32000
Y35500
Y37500
Y41000
Y43000
Y46500
Y48500
T02
X20500Y2500
X24000Y13500
X9500Y11500
Y6000
Y17000
X33500Y19500
Y20500
Y21500
X33000Y25500
X31500Y45000
X26500Y41000
T03
X38500Y21000
Y22000
X38500Y26000
Y27000
T04
X35000Y9000
X36000
X37000
X38000
X32000Y4000
X31000
X28000Y12500
X27000
X24000Y9000
X23000
X22000
X21000
X22500Y18500
Y19500
Y20500
Y21500
Y22500
Y23500
Y24500
Y25500
Y26500
Y27500
Y28500
X34000Y39000
X33000
X32000
X31000
T05
X11500Y2000
X12500
X13500
Y5000
X12500
X11500
Y7500
X12500
X13500
Y10500
X12500
X11500
Y13000
X12500
X13500
Y16000
X12500
X11500
Y18500
X12500
X13500
Y21500
X12500
X11500
Y24000
X12500
X13500
Y27000
X12500
X11500
Y29500
X12500
X13500
Y32500
X12500
X11500
Y35000
X12500
X13500
Y38000
X12500
X11500
Y40500
X12500
X13500
Y43500
X12500
X11500
Y46000
X12500
X13500
Y49000
X12500
X11500
T06
X25500Y17500
Y18500
Y19500
Y20500
Y21500
Y22500
Y23500
Y24500
Y25500
Y26500
Y27500
Y28500
Y29500
X35500
Y28500
Y27500
Y26500
Y25500
Y24500
Y23500
Y22500
Y21500
Y20500
Y19500
Y18500
Y17500
Y30500
Y31500
X25500
Y30500
X23000Y46000
X21000
Y49000
X23000
T07
X31500Y7000
Y12000
T08
X26244Y7020
X27980Y8260
Y5780
X4053Y4750
X5293Y3014
X2813
Y8514
X5293
X4053Y10250
X5293Y14014
X2813
X4053Y15750
X5293Y19514
X2813
X4053Y21250
X5293Y25014
X2813
X4053Y26750
X5293Y30514
X2813
X4053Y32250
X5293Y36014
X2813
X4053Y37750
X5293Y41514
X2813
X4053Y43250
X5293Y47014
X2813
X4053Y48750
T09
X37500Y2000
X18000
Y49000
X37500
M30
