M48
;Layer_Color=9474304
;FILE_FORMAT=2:4
INCH,TZ
;TYPE=PLATED
T1F00S00C0.0240
T2F00S00C0.0320
T3F00S00C0.0354
T4F00S00C0.0360
T5F00S00C0.0394
T6F00S00C0.0400
T7F00S00C0.1102
T8F00S00C0.1220
%
T01
X-2476Y44213
Y45213
T02
X4024Y3713
Y6713
X8482Y5740
Y4740
X-1476Y3713
Y6713
Y40213
X-476
T03
X-1476Y1213
X-476
X-1476Y10713
Y11713
X8024Y39713
Y40713
Y41713
Y42713
X1024Y44213
X24
T04
X-7976Y-1787
X8482Y7240
Y11240
X-7976Y10213
Y8213
Y4213
Y2213
Y14213
Y16213
Y20213
Y22213
Y26213
Y28213
X5024Y40213
X4024Y42713
X1024Y40213
X-7976
Y38213
Y34213
Y32213
Y44213
Y46213
Y50213
X4024Y46713
T05
X-12476Y-1287
X-11476
X-10476
Y1713
X-11476
X-12476
Y4713
X-11476
X-10476
Y7713
X-11476
X-12476
Y10713
X-11476
X-10476
Y13713
X-11476
X-12476
Y16713
X-11476
X-10476
Y19713
X-11476
X-12476
Y22713
X-11476
X-10476
Y25713
X-11476
X-12476
Y28713
X-11476
X-10476
Y31713
X-11476
X-12476
Y34713
X-11476
X-10476
Y37713
X-11476
X-12476
Y40713
X-11476
X-10476
Y43713
X-11476
X-12476
Y46713
X-11476
X-10476
Y49713
X-11476
X-12476
T06
X-1476Y18713
Y19713
Y20713
Y21713
Y22713
Y23713
Y24713
Y25713
Y26713
Y27713
Y28713
Y29713
X8524
Y28713
Y27713
Y26713
Y25713
Y24713
Y23713
Y22713
Y21713
Y20713
Y19713
Y18713
Y30713
Y31713
Y32713
X-1476
Y31713
Y30713
T07
X4012Y-3008
X5748Y-1768
X4012Y-528
X-17217Y724
X-19697
X-18457Y-1012
Y4988
X-17217Y6724
X-19697
X-18457Y10988
X-17217Y12724
X-19697
X-18457Y16988
X-17217Y18724
X-19697
X-18457Y22988
X-17217Y24724
X-19697
X-18457Y28988
X-17217Y30724
X-19697
X-18457Y34988
X-17217Y36724
X-19697
X-18457Y40988
X-17217Y42724
X-19697
X-18457Y46988
X-17217Y48724
X-19697
T08
X-19449Y-3150
X8504
X-19449Y51968
X8504
M30
