G04 Layer_Physical_Order=2*
G04 Layer_Color=16711680*
%FSLAX24Y24*%
%MOIN*%
G70*
G01*
G75*
%ADD10C,0.0315*%
%ADD11C,0.2362*%
%ADD12C,0.0630*%
%ADD13C,0.1575*%
%ADD14C,0.0591*%
%ADD15R,0.0591X0.0591*%
%ADD16C,0.1000*%
%ADD17O,0.1000X0.0500*%
%ADD18R,0.0620X0.0620*%
%ADD19C,0.0620*%
%ADD20O,0.0800X0.0500*%
%ADD21R,0.0591X0.0591*%
%ADD22O,0.1500X0.1200*%
%ADD23C,0.0551*%
%ADD24R,0.0400X0.0500*%
%ADD25R,0.0500X0.0400*%
G36*
X39500Y19514D02*
Y2838D01*
X38788Y2644D01*
X38713Y2664D01*
X38621Y2814D01*
X38480Y2980D01*
X38314Y3121D01*
X38129Y3234D01*
X37928Y3318D01*
X37717Y3368D01*
X37500Y3385D01*
X37283Y3368D01*
X37072Y3318D01*
X36871Y3234D01*
X36686Y3121D01*
X36520Y2980D01*
X36379Y2814D01*
X36266Y2629D01*
X36182Y2428D01*
X36132Y2217D01*
X36115Y2000D01*
X36132Y1783D01*
X36182Y1572D01*
X36266Y1371D01*
X36379Y1186D01*
X36520Y1020D01*
X36686Y879D01*
X36836Y787D01*
X36856Y712D01*
X36662Y0D01*
X18838D01*
X18644Y712D01*
X18664Y787D01*
X18814Y879D01*
X18980Y1020D01*
X19121Y1186D01*
X19234Y1371D01*
X19318Y1572D01*
X19368Y1783D01*
X19385Y2000D01*
X19368Y2217D01*
X19318Y2428D01*
X19234Y2629D01*
X19121Y2814D01*
X18980Y2980D01*
X18814Y3121D01*
X18629Y3234D01*
X18428Y3318D01*
X18217Y3368D01*
X18008Y3385D01*
X17985Y3412D01*
X17666Y3980D01*
X17638Y4128D01*
X19710Y6200D01*
X20064Y6554D01*
X20064Y6554D01*
X20255Y6745D01*
X20265Y6758D01*
X20265Y6758D01*
X20312Y6820D01*
X20348Y6907D01*
X20361Y7000D01*
X20361Y7247D01*
X20361Y7247D01*
X20361Y7771D01*
Y7919D01*
X20379Y7950D01*
X20494Y8082D01*
X21000Y8500D01*
X21000Y8500D01*
X21129Y8517D01*
X21673Y8587D01*
X21880Y8596D01*
Y9000D01*
X22120D01*
Y8596D01*
X22327Y8587D01*
X22871Y8517D01*
X23000Y8500D01*
X23752Y8505D01*
X24111Y8505D01*
X24495D01*
Y9495D01*
X24119D01*
X23793Y10283D01*
X25626Y12116D01*
X25649Y12139D01*
X26656D01*
X26750Y12067D01*
X26750D01*
X26871Y12017D01*
X26871Y12017D01*
X27000Y12000D01*
X27000Y12000D01*
X27505Y12005D01*
X27887Y12005D01*
X28097D01*
X28495D01*
Y12985D01*
X29149Y13639D01*
X30613D01*
X30796Y13562D01*
X30827Y13500D01*
X31042Y12743D01*
X30903Y12668D01*
X30782Y12568D01*
X30682Y12447D01*
X30607Y12308D01*
X30562Y12157D01*
X30546Y12000D01*
X30562Y11843D01*
X30607Y11692D01*
X30633Y11643D01*
X30598Y11608D01*
X28351Y9361D01*
X28212Y9222D01*
X28174Y9233D01*
X27980Y9252D01*
X27787Y9233D01*
X27601Y9176D01*
X27429Y9085D01*
X27306Y8984D01*
X27279Y8961D01*
X27279Y8961D01*
X27155Y8811D01*
X26867Y8440D01*
X26716Y8267D01*
X26681Y8248D01*
X26575Y8193D01*
X26051Y7993D01*
X25864Y7936D01*
X25693Y7845D01*
X25543Y7721D01*
X25419Y7571D01*
X25327Y7399D01*
X25271Y7213D01*
X25252Y7020D01*
X25271Y6826D01*
X25327Y6640D01*
X25419Y6468D01*
X25543Y6318D01*
X25693Y6195D01*
X25864Y6103D01*
X26051Y6047D01*
X26244Y6028D01*
X26325Y6035D01*
X26588Y5947D01*
X26963Y5700D01*
X27142Y5487D01*
X27157Y5438D01*
X27239Y5284D01*
X27350Y5149D01*
X27485Y5038D01*
X27639Y4956D01*
X27806Y4905D01*
X27860Y4900D01*
Y5780D01*
X27980D01*
Y5900D01*
X28860D01*
X28855Y5953D01*
X28804Y6121D01*
X28722Y6275D01*
X28611Y6410D01*
X28476Y6521D01*
X28435Y6543D01*
X28375Y6987D01*
X28445Y7389D01*
X28532Y7435D01*
X28682Y7558D01*
X28805Y7709D01*
X28897Y7880D01*
X28953Y8066D01*
X28972Y8260D01*
X28953Y8453D01*
X28897Y8640D01*
X28811Y8801D01*
X28874Y8865D01*
X31133Y11124D01*
X31219Y11209D01*
X31240Y11207D01*
X31350Y11196D01*
X31650D01*
X31807Y11212D01*
X31852Y11225D01*
X32448Y10961D01*
X32639Y10758D01*
Y8682D01*
Y8649D01*
X32392Y8402D01*
X31781Y7791D01*
X31760Y7793D01*
X31650Y7804D01*
X31350D01*
X31193Y7788D01*
X31042Y7743D01*
X30903Y7668D01*
X30782Y7568D01*
X30682Y7447D01*
X30607Y7308D01*
X30562Y7157D01*
X30546Y7000D01*
X30562Y6843D01*
X30607Y6692D01*
X30682Y6553D01*
X30782Y6432D01*
X30903Y6332D01*
X31042Y6257D01*
X31193Y6212D01*
X31350Y6196D01*
X31573D01*
X31639Y6196D01*
X31639Y6196D01*
Y5881D01*
Y5372D01*
Y5082D01*
X31573Y4895D01*
X31573D01*
X31573Y4895D01*
Y4895D01*
X31120Y4505D01*
Y4000D01*
Y3600D01*
X31154Y3598D01*
X31871Y3517D01*
X32000Y3500D01*
X32000Y3500D01*
X32129Y3517D01*
X32129Y3517D01*
X32182Y3539D01*
X32182Y3539D01*
X32250Y3567D01*
X32353Y3647D01*
X32353Y3647D01*
X32433Y3750D01*
X32433Y3750D01*
X32433Y3750D01*
X32483Y3871D01*
X32483Y3871D01*
X32490Y3927D01*
X32490Y3927D01*
X32500Y4000D01*
X32500Y4000D01*
X32496Y4028D01*
X32483Y4129D01*
X32483Y4129D01*
X32433Y4384D01*
X32361Y4759D01*
Y5224D01*
Y5933D01*
Y6356D01*
X32404Y6630D01*
X32438Y6843D01*
X32454Y7000D01*
X32454Y7000D01*
X32438Y7157D01*
X32393Y7308D01*
X32367Y7357D01*
X32846Y7836D01*
X32994Y7984D01*
X33096Y8034D01*
X33100Y8035D01*
X33100Y8035D01*
X33138Y8035D01*
X33860Y8035D01*
X34118Y7873D01*
X34245Y7745D01*
X34258Y7735D01*
X34258Y7735D01*
X34320Y7688D01*
X34407Y7652D01*
X34500Y7639D01*
X34770Y7639D01*
X34770Y7639D01*
X35250Y7639D01*
X35730Y7639D01*
X35730Y7639D01*
X36000Y7639D01*
X36093Y7652D01*
X36180Y7688D01*
X36255Y7745D01*
X36446Y7937D01*
X36729Y8219D01*
X37410Y8476D01*
X37501Y8504D01*
X37798Y8505D01*
X38111Y8505D01*
X38495D01*
Y9495D01*
X38183D01*
X37752Y9495D01*
X37000Y9500D01*
X36871Y9483D01*
X36750Y9433D01*
X36750Y9433D01*
X36365Y9309D01*
X36120Y9380D01*
Y9000D01*
X35880D01*
Y9496D01*
X35463Y9833D01*
X35361Y9980D01*
Y13818D01*
Y13851D01*
X35397Y13887D01*
X36910Y15400D01*
X37261Y15752D01*
X37262Y15752D01*
X37455Y15945D01*
X37512Y16020D01*
X37548Y16107D01*
X37561Y16200D01*
X37561Y16432D01*
X37561Y16432D01*
X37561Y16971D01*
Y19518D01*
Y19550D01*
X38400D01*
Y19550D01*
X38713Y19850D01*
X39500Y19514D01*
D02*
G37*
G36*
X36856Y50288D02*
X36836Y50213D01*
X36686Y50121D01*
X36520Y49980D01*
X36379Y49814D01*
X36266Y49629D01*
X36182Y49428D01*
X36132Y49217D01*
X36115Y49000D01*
X36132Y48783D01*
X36182Y48572D01*
X36266Y48371D01*
X36379Y48186D01*
X36520Y48020D01*
X36686Y47879D01*
X36871Y47766D01*
X37072Y47682D01*
X37283Y47632D01*
X37500Y47615D01*
X37717Y47632D01*
X37928Y47682D01*
X38129Y47766D01*
X38314Y47879D01*
X38480Y48020D01*
X38621Y48186D01*
X38713Y48336D01*
X38788Y48356D01*
X39500Y48162D01*
Y27743D01*
X39295Y27575D01*
X38748Y27344D01*
X38713Y27345D01*
X38650Y27353D01*
X38650Y27353D01*
X38620D01*
Y27000D01*
X38500D01*
Y26880D01*
X37986D01*
X37928Y26241D01*
X37912Y26117D01*
X37896Y26000D01*
X37896Y26000D01*
X37912Y25883D01*
Y25883D01*
X37957Y25773D01*
Y25773D01*
X38005Y25711D01*
X37950Y25461D01*
X37787Y25013D01*
X37751Y24950D01*
X36800D01*
X36165Y25318D01*
X36014Y25500D01*
X35997Y25633D01*
X35946Y25757D01*
X35946Y25757D01*
X35864Y25886D01*
Y26114D01*
X35946Y26243D01*
X35946Y26243D01*
X35997Y26367D01*
X36014Y26500D01*
X35997Y26633D01*
X35946Y26757D01*
X35946Y26757D01*
X35864Y26886D01*
Y27114D01*
X35946Y27243D01*
X35946Y27243D01*
X35997Y27367D01*
X36014Y27500D01*
X36014Y27500D01*
X35997Y27633D01*
X35985Y27662D01*
X35946Y27757D01*
X35946Y27757D01*
X35864Y27886D01*
Y28114D01*
X35946Y28243D01*
X35946Y28243D01*
X35985Y28338D01*
X35997Y28367D01*
X36014Y28500D01*
X35997Y28633D01*
X35946Y28757D01*
X35946Y28757D01*
X35864Y28886D01*
Y29114D01*
X35946Y29243D01*
X35946Y29243D01*
X35997Y29367D01*
X36014Y29500D01*
X35997Y29633D01*
X35946Y29757D01*
X35946Y29757D01*
X35864Y29886D01*
Y30114D01*
X35946Y30243D01*
X35946Y30243D01*
X35997Y30367D01*
X36014Y30500D01*
X35997Y30633D01*
X35985Y30662D01*
X35946Y30757D01*
X35946Y30757D01*
X35864Y30886D01*
Y31114D01*
X35946Y31243D01*
X35946Y31243D01*
X35946Y31243D01*
X35985Y31338D01*
X35997Y31367D01*
X35997Y31367D01*
X36010Y31469D01*
X36010Y31469D01*
X36014Y31500D01*
X36014Y31500D01*
X35997Y31633D01*
X35997Y31633D01*
X35985Y31662D01*
X35985D01*
X35957Y31728D01*
X35957Y31728D01*
X35946Y31757D01*
X35946Y31757D01*
X35883Y31839D01*
D01*
X35864Y31864D01*
X35782Y31927D01*
Y31927D01*
X35757Y31946D01*
X35757Y31946D01*
X35633Y31997D01*
X35633Y31997D01*
X35602Y32001D01*
X35602Y32001D01*
X35500Y32014D01*
X35500Y32014D01*
X35469Y32010D01*
X35469Y32010D01*
X35367Y31997D01*
X35367Y31997D01*
X35338Y31985D01*
X35338D01*
X35243Y31946D01*
X35243Y31946D01*
X35136Y31864D01*
X34413Y32108D01*
X34389Y32121D01*
X34361Y32149D01*
Y32182D01*
Y38617D01*
X34361Y38656D01*
X34433Y38750D01*
Y38750D01*
X34483Y38871D01*
X34483Y38871D01*
X34500Y39000D01*
X34500Y39000D01*
X34483Y39129D01*
X34483Y39129D01*
X34466Y39170D01*
X34466Y39170D01*
X34433Y39250D01*
X34433Y39250D01*
X34388Y39308D01*
X34388Y39308D01*
X34353Y39353D01*
X34353D01*
X34295Y39398D01*
X34250Y39433D01*
X34250Y39433D01*
X34197Y39454D01*
X34197Y39454D01*
X34129Y39483D01*
X34129Y39483D01*
X34073Y39490D01*
X34073Y39490D01*
X34000Y39500D01*
X34000Y39500D01*
X33871Y39483D01*
X33871Y39483D01*
X33750Y39433D01*
X33750Y39433D01*
X33750Y39433D01*
X33612Y39353D01*
X33388D01*
X33250Y39433D01*
X33250Y39433D01*
X33129Y39483D01*
X33000Y39500D01*
X32871Y39483D01*
X32327Y39413D01*
X32120Y39404D01*
Y39000D01*
X31880D01*
Y39426D01*
X31658Y39466D01*
X31495Y39495D01*
X31064D01*
X31055Y39498D01*
X30968Y39542D01*
X25884Y44626D01*
X25861Y44649D01*
Y44844D01*
X25897Y45550D01*
X25900Y45550D01*
X25900Y45615D01*
X25900Y45615D01*
Y46450D01*
X24300D01*
X24300Y46450D01*
X23521Y46469D01*
X23497Y46497D01*
X23391Y46585D01*
X23269Y46650D01*
X23137Y46690D01*
X23000Y46703D01*
X22863Y46690D01*
X22731Y46650D01*
X22609Y46585D01*
X22503Y46497D01*
X22415Y46391D01*
X22000Y46325D01*
X21585Y46391D01*
X21497Y46497D01*
X21391Y46585D01*
X21269Y46650D01*
X21137Y46690D01*
X21000Y46703D01*
X20863Y46690D01*
X20731Y46650D01*
X20609Y46585D01*
X20503Y46497D01*
X20415Y46391D01*
X20350Y46269D01*
X20310Y46137D01*
X20297Y46000D01*
X20310Y45863D01*
X20350Y45731D01*
X20415Y45609D01*
X20503Y45503D01*
X20609Y45415D01*
X20731Y45350D01*
X20863Y45310D01*
X21000Y45297D01*
X21137Y45310D01*
X21269Y45350D01*
X21391Y45415D01*
X21497Y45503D01*
X21585Y45609D01*
X22000Y45675D01*
X22415Y45609D01*
X22503Y45503D01*
X22609Y45415D01*
X22731Y45350D01*
X22863Y45310D01*
X23000Y45297D01*
X23137Y45310D01*
X23269Y45350D01*
X23391Y45415D01*
X23497Y45503D01*
X24102Y45001D01*
X24339Y44772D01*
Y31605D01*
X24339D01*
X24339Y31605D01*
Y29300D01*
X24352Y29207D01*
X24388Y29120D01*
X24445Y29045D01*
X24787Y28704D01*
X24550Y27982D01*
X24417Y27868D01*
X24404Y27861D01*
X23582D01*
X22895Y28105D01*
Y28380D01*
X22500D01*
Y28500D01*
X22380D01*
Y28895D01*
X22105D01*
Y28650D01*
X21398Y28323D01*
X21364Y28346D01*
X20861Y28765D01*
Y41729D01*
X20861Y42249D01*
X20861Y42249D01*
X20861Y42500D01*
X20848Y42593D01*
X20812Y42680D01*
X20755Y42755D01*
X20586Y42924D01*
X20586Y42924D01*
X20210Y43300D01*
X16699Y46811D01*
X16670Y46955D01*
X16732Y47305D01*
X16908Y47432D01*
X17550Y47692D01*
X17572Y47682D01*
X17783Y47632D01*
X18000Y47615D01*
X18217Y47632D01*
X18428Y47682D01*
X18629Y47766D01*
X18814Y47879D01*
X18980Y48020D01*
X19121Y48186D01*
X19234Y48371D01*
X19318Y48572D01*
X19368Y48783D01*
X19385Y49000D01*
X19368Y49217D01*
X19318Y49428D01*
X19234Y49629D01*
X19121Y49814D01*
X18980Y49980D01*
X18814Y50121D01*
X18664Y50213D01*
X18644Y50288D01*
X18838Y51000D01*
X36662D01*
X36856Y50288D01*
D02*
G37*
G36*
X30481Y39009D02*
X30505Y38985D01*
X30505Y38919D01*
Y38505D01*
X30639D01*
Y18263D01*
Y18000D01*
X29864Y17861D01*
X26602D01*
X25910Y18090D01*
Y18380D01*
X25085D01*
X25083Y18352D01*
X25003Y17633D01*
X24990Y17531D01*
X24990Y17531D01*
X24986Y17500D01*
X24986Y17500D01*
X25003Y17367D01*
X25003Y17367D01*
X25043Y17272D01*
X25043Y17272D01*
X25054Y17243D01*
X25054Y17243D01*
X25117Y17161D01*
D01*
X25136Y17136D01*
X25136Y17136D01*
X25243Y17054D01*
X25243Y17054D01*
X25367Y17003D01*
X25367Y17003D01*
X25398Y16999D01*
X25398Y16999D01*
X25500Y16986D01*
X25500Y16986D01*
X25531Y16990D01*
X25531D01*
X25633Y17003D01*
X25633Y17003D01*
X25643Y17007D01*
X25757Y17054D01*
X25757Y17054D01*
X25782Y17073D01*
X25782D01*
X25864Y17136D01*
X25864Y17136D01*
X25866Y17139D01*
X25906D01*
X30831D01*
D01*
X31540Y16950D01*
X32726Y15764D01*
X32593Y14987D01*
X32516Y14859D01*
X32500Y14861D01*
X32357Y14861D01*
X32216Y14861D01*
X31710D01*
X31710Y14861D01*
X28500D01*
X28407Y14848D01*
X28320Y14812D01*
X28245Y14755D01*
X27290Y13800D01*
X27108Y13618D01*
X26745Y13255D01*
X26735Y13242D01*
X26106Y12861D01*
X25677Y12861D01*
X25677Y12861D01*
X25500Y12861D01*
X25407Y12848D01*
X25320Y12812D01*
X25245Y12755D01*
X25054Y12564D01*
X25054Y12564D01*
X24700Y12210D01*
X23290Y10800D01*
X22936Y10446D01*
X22936Y10446D01*
X22745Y10255D01*
X22688Y10180D01*
X22684Y10172D01*
X22395Y9775D01*
X22000Y9541D01*
X21432Y9877D01*
X21361Y9980D01*
Y16818D01*
Y16851D01*
X22512Y18002D01*
X22629Y18017D01*
X22629Y18017D01*
X22697Y18046D01*
X22697Y18046D01*
X22750Y18067D01*
X22750Y18067D01*
X22808Y18112D01*
X22853Y18147D01*
Y18147D01*
X22898Y18205D01*
X22933Y18250D01*
X22933Y18250D01*
X22933Y18250D01*
X22983Y18371D01*
X22983Y18371D01*
X22983Y18371D01*
X23000Y18500D01*
X23000Y18500D01*
X23418Y19006D01*
X23550Y19121D01*
X23581Y19139D01*
X24398D01*
X25090Y18910D01*
Y18620D01*
X25915D01*
X25917Y18649D01*
X25997Y19367D01*
X26014Y19500D01*
X25997Y19633D01*
X25946Y19757D01*
X25946Y19757D01*
X25864Y19886D01*
Y20114D01*
X25946Y20243D01*
X25946Y20243D01*
X25997Y20367D01*
X26014Y20500D01*
X25997Y20633D01*
X25946Y20757D01*
X25946Y20757D01*
X25864Y20886D01*
Y21114D01*
X25946Y21243D01*
X25946Y21243D01*
X25997Y21367D01*
X26014Y21500D01*
X26014Y21500D01*
X25997Y21633D01*
X25946Y21757D01*
X25946Y21757D01*
X25864Y21886D01*
Y22114D01*
X25946Y22243D01*
X25946Y22243D01*
X25997Y22367D01*
X26014Y22500D01*
X26014Y22500D01*
X25997Y22633D01*
X25946Y22757D01*
X25946Y22757D01*
X25864Y22886D01*
Y23114D01*
X25946Y23243D01*
X25946Y23243D01*
X25997Y23367D01*
X26014Y23500D01*
X25997Y23633D01*
X25946Y23757D01*
X25946Y23757D01*
X25864Y23886D01*
Y24114D01*
X25946Y24243D01*
X25946Y24243D01*
X25997Y24367D01*
X26014Y24500D01*
X25997Y24633D01*
X25946Y24757D01*
X25946Y24757D01*
X25864Y24886D01*
Y25114D01*
X25946Y25243D01*
X25946Y25243D01*
X25997Y25367D01*
X26014Y25500D01*
X25997Y25633D01*
X25946Y25757D01*
X25946Y25757D01*
X25864Y25886D01*
Y26114D01*
X25946Y26243D01*
X25946Y26243D01*
X25997Y26367D01*
X26014Y26500D01*
X25997Y26633D01*
X25946Y26757D01*
X25946Y26757D01*
X25864Y26886D01*
Y27114D01*
X25946Y27243D01*
X25946Y27243D01*
X25997Y27367D01*
X26014Y27500D01*
X25997Y27633D01*
X25946Y27757D01*
X25946Y27757D01*
X25864Y27886D01*
Y28114D01*
X25946Y28243D01*
X25946Y28243D01*
X25997Y28367D01*
X26014Y28500D01*
X25997Y28633D01*
X25985Y28662D01*
X25946Y28757D01*
X25946Y28757D01*
X25864Y28886D01*
Y29114D01*
X25946Y29243D01*
X25946Y29243D01*
X25985Y29338D01*
X25997Y29367D01*
X26014Y29500D01*
X26014Y29500D01*
X25997Y29633D01*
X25997Y29633D01*
X25985Y29662D01*
X25946Y29757D01*
X25946Y29757D01*
X25864Y29886D01*
Y30114D01*
X25946Y30243D01*
X25946Y30243D01*
X25997Y30367D01*
X25997Y30367D01*
X26014Y30500D01*
X26014Y30500D01*
X25997Y30633D01*
X25985Y30662D01*
X25946Y30757D01*
X25946Y30757D01*
X25864Y30886D01*
Y31114D01*
X25930Y31218D01*
X25946Y31243D01*
X25946Y31243D01*
X25985Y31338D01*
Y31338D01*
X25997Y31367D01*
X25997Y31367D01*
X26010Y31469D01*
X26010Y31469D01*
X26014Y31500D01*
X26014Y31500D01*
X26001Y31604D01*
X25997Y31633D01*
X25985Y31662D01*
X25957Y31728D01*
X25946Y31757D01*
X25883Y31839D01*
X25864Y31864D01*
Y31864D01*
X25757Y31946D01*
X25757Y31946D01*
X25633Y31997D01*
X25633Y31997D01*
X25602Y32001D01*
X25602Y32001D01*
X25500Y32014D01*
X25130Y32558D01*
X25061Y32722D01*
Y43316D01*
X25848Y43642D01*
X30481Y39009D01*
D02*
G37*
G36*
X32565Y38127D02*
X32639Y38020D01*
Y30771D01*
X32639Y30254D01*
X32639Y30254D01*
X32639Y30000D01*
X32652Y29907D01*
X32688Y29820D01*
X32745Y29745D01*
X32939Y29551D01*
X32939Y29551D01*
X33290Y29200D01*
X34592Y27898D01*
Y27898D01*
X34996Y27279D01*
X35131Y26878D01*
X35054Y26757D01*
X35054Y26757D01*
X35003Y26633D01*
X34986Y26500D01*
X35003Y26367D01*
X35054Y26243D01*
X35054Y26243D01*
X35136Y26114D01*
Y25886D01*
X35054Y25757D01*
X35054Y25757D01*
X35003Y25633D01*
X34986Y25500D01*
X34986Y25500D01*
X35003Y25367D01*
X35054Y25243D01*
X35054Y25243D01*
X35136Y25114D01*
Y24886D01*
X35054Y24757D01*
X35054Y24757D01*
X35003Y24633D01*
X34986Y24500D01*
X35003Y24367D01*
X35054Y24243D01*
X35054Y24243D01*
X35136Y24114D01*
Y23886D01*
X35054Y23757D01*
X35054Y23757D01*
X35003Y23633D01*
X34986Y23500D01*
X34986Y23500D01*
X35003Y23367D01*
X35054Y23243D01*
X35054Y23243D01*
X35100Y23171D01*
X35136Y23114D01*
X35136Y22886D01*
X35054Y22757D01*
X35054Y22757D01*
X35003Y22633D01*
X34986Y22500D01*
X34569Y21998D01*
X34417Y21868D01*
X34404Y21861D01*
X33811D01*
X33740Y21915D01*
X33740D01*
X33624Y21963D01*
X33624Y21963D01*
X33500Y21980D01*
X33500Y21980D01*
X33376Y21963D01*
X33376Y21963D01*
X33260Y21915D01*
X33260Y21915D01*
X33161Y21839D01*
X33161Y21839D01*
X33085Y21740D01*
X33085Y21740D01*
X33037Y21624D01*
X33037Y21624D01*
X33020Y21500D01*
X33020Y21500D01*
X33037Y21376D01*
X33037Y21376D01*
X33085Y21260D01*
Y21260D01*
X33085Y21260D01*
X33161Y21110D01*
Y20890D01*
X33085Y20740D01*
X33085Y20740D01*
X33037Y20624D01*
X33020Y20500D01*
X33037Y20376D01*
X33085Y20260D01*
X33085Y20260D01*
X33161Y20110D01*
Y19890D01*
X33085Y19740D01*
X33085Y19740D01*
X33037Y19624D01*
X33037Y19624D01*
X33020Y19500D01*
X33037Y19376D01*
X33085Y19260D01*
X33085Y19260D01*
X33161Y19161D01*
X33260Y19085D01*
X33260Y19085D01*
X33376Y19037D01*
X33376Y19037D01*
X33500Y19020D01*
X33500Y19020D01*
X33624Y19037D01*
X33624Y19037D01*
X33740Y19085D01*
X33740Y19085D01*
X33811Y19139D01*
X34398D01*
X35090Y18910D01*
Y18620D01*
X35915D01*
X35917Y18649D01*
X35997Y19367D01*
X36014Y19500D01*
X36014Y19500D01*
X35997Y19633D01*
X35946Y19757D01*
X35946Y19757D01*
X35864Y19886D01*
Y20114D01*
X35946Y20243D01*
X35946Y20243D01*
X35997Y20367D01*
X36014Y20500D01*
X35997Y20633D01*
X35946Y20757D01*
X35946Y20757D01*
X35864Y20886D01*
Y21114D01*
X35946Y21243D01*
X35946Y21243D01*
X35997Y21367D01*
X36014Y21500D01*
X35997Y21633D01*
X35946Y21757D01*
X35946Y21757D01*
X35864Y21886D01*
Y22114D01*
X35946Y22243D01*
X35946Y22243D01*
X35997Y22367D01*
X36014Y22500D01*
X35997Y22633D01*
X35946Y22757D01*
X35946Y22757D01*
X35900Y22829D01*
X35864Y22886D01*
Y23114D01*
X35946Y23243D01*
X35946Y23243D01*
X35997Y23367D01*
X36014Y23500D01*
X36165Y23682D01*
X36800Y24050D01*
X38400D01*
Y24050D01*
X38713Y24350D01*
X39500Y24014D01*
Y22743D01*
X39295Y22575D01*
X38748Y22344D01*
X38713Y22345D01*
X38650Y22353D01*
X38650Y22353D01*
X38620D01*
Y22000D01*
X38500D01*
Y21880D01*
X37986D01*
X37928Y21241D01*
X37912Y21117D01*
X37896Y21000D01*
X37473Y20596D01*
X37251Y20450D01*
X36800D01*
Y19615D01*
X36800Y19615D01*
Y19550D01*
X36803Y19550D01*
X36839Y18844D01*
Y16382D01*
Y16349D01*
X36816Y16326D01*
X35000Y14510D01*
X32304Y17206D01*
X31910Y17600D01*
X31747Y17762D01*
X31361Y18390D01*
Y38020D01*
X31434Y38125D01*
X32000Y38460D01*
X32565Y38127D01*
D02*
G37*
G36*
X17356Y50288D02*
X17336Y50213D01*
X17186Y50121D01*
X17020Y49980D01*
X16879Y49814D01*
X16766Y49629D01*
X16682Y49428D01*
X16632Y49217D01*
X16615Y49000D01*
X16621Y48916D01*
X16536Y48797D01*
X15697Y48613D01*
X15600Y48710D01*
X15215Y49095D01*
X15215Y49095D01*
X15055Y49255D01*
X14980Y49312D01*
X14893Y49348D01*
X14800Y49361D01*
X14630Y49361D01*
X14630Y49361D01*
X14029Y49361D01*
X13872D01*
X13867Y49367D01*
X13778Y49436D01*
X13760Y49450D01*
X13760D01*
X13634Y49502D01*
X13634Y49502D01*
X13500Y49519D01*
X13500Y49519D01*
X13366Y49502D01*
X12826Y49432D01*
X12620Y49424D01*
Y49000D01*
Y48576D01*
X12826Y48568D01*
X13366Y48498D01*
X13500Y48481D01*
X13500Y48481D01*
X13634Y48498D01*
X13634Y48498D01*
X13655Y48507D01*
X13760Y48550D01*
X13760D01*
X13778Y48564D01*
X13867Y48633D01*
X13872Y48639D01*
X14651D01*
X15550Y47740D01*
X15550Y47646D01*
Y47400D01*
Y46600D01*
X15853D01*
X15890Y46600D01*
X15956Y46535D01*
X20116Y42374D01*
X20139Y42351D01*
Y42318D01*
Y38984D01*
X19352Y38658D01*
X16450Y41560D01*
X16450Y41654D01*
Y41900D01*
Y42700D01*
X16147D01*
X16110Y42700D01*
X16035Y42775D01*
X15600Y43210D01*
X15215Y43595D01*
X15215Y43595D01*
X15055Y43755D01*
X14980Y43812D01*
X14893Y43848D01*
X14800Y43861D01*
X14630Y43861D01*
X14630Y43861D01*
X14029Y43861D01*
X13872D01*
X13867Y43867D01*
X13778Y43936D01*
X13760Y43950D01*
X13760D01*
X13634Y44002D01*
X13634Y44002D01*
X13500Y44019D01*
X13500Y44019D01*
X13366Y44002D01*
X12826Y43932D01*
X12620Y43924D01*
Y43500D01*
Y43076D01*
X12826Y43068D01*
X13366Y42998D01*
X13500Y42981D01*
X13500Y42981D01*
X13634Y42998D01*
X13634Y42998D01*
X13655Y43007D01*
X13760Y43050D01*
X13760D01*
X13778Y43064D01*
X13867Y43133D01*
X13872Y43139D01*
X14651D01*
X15550Y42240D01*
X15550Y42146D01*
Y41900D01*
Y41100D01*
X15853D01*
X15890Y41100D01*
X15955Y41036D01*
X19116Y37874D01*
X19139Y37851D01*
Y37818D01*
Y34484D01*
X18352Y34158D01*
X16450Y36060D01*
X16450Y36154D01*
Y36400D01*
Y37200D01*
X16147D01*
X16110Y37200D01*
X16035Y37275D01*
X15600Y37710D01*
X15215Y38095D01*
X15215Y38095D01*
X15055Y38255D01*
X14980Y38312D01*
X14893Y38348D01*
X14800Y38361D01*
X14630Y38361D01*
X14630Y38361D01*
X14029Y38361D01*
X13872D01*
X13867Y38367D01*
X13778Y38436D01*
X13760Y38450D01*
X13760D01*
X13634Y38502D01*
X13634Y38502D01*
X13500Y38519D01*
X13500Y38519D01*
X13366Y38502D01*
X12826Y38432D01*
X12620Y38424D01*
Y38000D01*
Y37576D01*
X12826Y37568D01*
X13366Y37498D01*
X13500Y37481D01*
X13500Y37481D01*
X13634Y37498D01*
X13634Y37498D01*
X13655Y37507D01*
X13760Y37550D01*
X13760D01*
X13778Y37564D01*
X13867Y37633D01*
X13872Y37639D01*
X14651D01*
X15550Y36740D01*
X15550Y36646D01*
Y36400D01*
Y35600D01*
X15853D01*
X15890Y35600D01*
X15953Y35537D01*
X18116Y33374D01*
X18139Y33351D01*
Y33318D01*
Y29984D01*
X17352Y29658D01*
X16450Y30560D01*
X16450Y30654D01*
Y30900D01*
Y31700D01*
X16147D01*
X16110Y31700D01*
X16035Y31775D01*
X15600Y32210D01*
X15215Y32595D01*
X15215Y32595D01*
X15055Y32755D01*
X14980Y32812D01*
X14893Y32848D01*
X14800Y32861D01*
X14630Y32861D01*
X14630Y32861D01*
X14029Y32861D01*
X13872D01*
X13867Y32867D01*
X13778Y32936D01*
X13760Y32950D01*
X13760D01*
X13634Y33002D01*
X13634Y33002D01*
X13500Y33019D01*
X13500Y33019D01*
X13366Y33002D01*
X12826Y32932D01*
X12620Y32924D01*
Y32500D01*
Y32076D01*
X12826Y32068D01*
X13366Y31998D01*
X13500Y31981D01*
X13500Y31981D01*
X13634Y31998D01*
X13634Y31998D01*
X13655Y32007D01*
X13760Y32050D01*
X13760D01*
X13778Y32064D01*
X13867Y32133D01*
X13872Y32139D01*
X14651D01*
X15550Y31240D01*
X15550Y31146D01*
Y30900D01*
Y30100D01*
X15853D01*
X15890Y30100D01*
X15949Y30041D01*
X17116Y28874D01*
X17139Y28851D01*
Y27771D01*
X17139Y27173D01*
X17139Y27173D01*
X17139Y27000D01*
X17141Y26984D01*
X16467Y26712D01*
X16424Y26700D01*
X16147D01*
X16110Y26700D01*
X15694Y27116D01*
X15694Y27116D01*
X15555Y27255D01*
X15480Y27312D01*
X15393Y27348D01*
X15300Y27361D01*
X15105Y27361D01*
X15104Y27361D01*
X14529Y27361D01*
X13872D01*
X13867Y27367D01*
X13778Y27436D01*
X13760Y27450D01*
X13760D01*
X13634Y27502D01*
X13634Y27502D01*
X13500Y27519D01*
X13500Y27519D01*
X13366Y27502D01*
X12826Y27432D01*
X12620Y27424D01*
Y27000D01*
Y26576D01*
X12826Y26568D01*
X13366Y26498D01*
X13500Y26481D01*
X13500Y26481D01*
X13634Y26498D01*
X13634Y26498D01*
X13655Y26507D01*
X13760Y26550D01*
X13760D01*
X13778Y26564D01*
X13867Y26633D01*
X13872Y26639D01*
X15151D01*
X15550Y26240D01*
X15550Y26146D01*
Y25900D01*
Y25100D01*
X16385D01*
X16385Y25100D01*
X16450D01*
X16450Y25103D01*
X17156Y25139D01*
X17351D01*
X17374Y25116D01*
X18984Y23506D01*
X19034Y23404D01*
X19165Y23000D01*
X19034Y22596D01*
X18984Y22494D01*
X17374Y20884D01*
X17351Y20861D01*
X17156D01*
X16450Y20897D01*
X16450Y20900D01*
X16385Y20900D01*
X16385Y20900D01*
X15550D01*
Y20900D01*
X14763Y20747D01*
X14018Y21492D01*
X14019Y21500D01*
X14019Y21500D01*
X14002Y21634D01*
X14002Y21634D01*
X13958Y21739D01*
X13958Y21739D01*
X13950Y21760D01*
X13950Y21760D01*
X13881Y21849D01*
X13867Y21867D01*
X13867Y21867D01*
X13867Y21867D01*
X13778Y21936D01*
X13760Y21950D01*
X13760Y21950D01*
X13760Y21950D01*
X13634Y22002D01*
X13634Y22002D01*
X13634Y22002D01*
X13500Y22019D01*
X13500Y22019D01*
X13488Y22018D01*
X13366Y22002D01*
X12826Y21932D01*
X12620Y21924D01*
Y21500D01*
Y21076D01*
X12826Y21068D01*
X13366Y20998D01*
X13466Y20985D01*
X13545Y20945D01*
X14500Y19990D01*
X14892Y19598D01*
X14892Y19598D01*
X15045Y19445D01*
X15045D01*
X15092Y19409D01*
X15120Y19388D01*
X15120Y19388D01*
X15207Y19352D01*
X15207Y19352D01*
X15284Y19341D01*
X15550Y19300D01*
X15615D01*
X15615Y19300D01*
X15615Y19300D01*
X16055Y19300D01*
X16450D01*
Y19739D01*
X16946Y19917D01*
X17629Y19421D01*
X17639Y19364D01*
Y19312D01*
Y17182D01*
Y17149D01*
X17616Y17126D01*
X16206Y15716D01*
X15550Y15400D01*
D01*
X14763Y15247D01*
X14018Y15992D01*
X14019Y16000D01*
X14019Y16000D01*
X14002Y16134D01*
X14002Y16134D01*
X13958Y16239D01*
X13958Y16239D01*
X13950Y16260D01*
X13950Y16260D01*
X13881Y16349D01*
X13867Y16367D01*
X13867Y16367D01*
X13867Y16367D01*
X13778Y16436D01*
X13760Y16450D01*
X13760Y16450D01*
X13760Y16450D01*
X13634Y16502D01*
X13634Y16502D01*
X13634Y16502D01*
X13500Y16519D01*
X13500Y16519D01*
X13487Y16518D01*
X13366Y16502D01*
X12826Y16432D01*
X12620Y16424D01*
Y16000D01*
Y15576D01*
X12826Y15568D01*
X13366Y15498D01*
X13466Y15485D01*
X13545Y15445D01*
X14500Y14490D01*
X14892Y14098D01*
X14892Y14098D01*
X15045Y13945D01*
X15045D01*
X15092Y13909D01*
X15120Y13888D01*
X15120Y13888D01*
X15207Y13852D01*
X15207Y13852D01*
X15284Y13841D01*
X15550Y13800D01*
X15615D01*
X15615Y13800D01*
X15615Y13800D01*
X16055Y13800D01*
X16450D01*
Y14600D01*
X16450Y14940D01*
X17852Y16342D01*
X18639Y16016D01*
Y12682D01*
Y12649D01*
X18616Y12626D01*
X16206Y10216D01*
X15550Y9900D01*
D01*
X14763Y9747D01*
X14018Y10492D01*
X14019Y10500D01*
X14019Y10500D01*
X14002Y10634D01*
X14002Y10634D01*
X13958Y10739D01*
X13958Y10739D01*
X13950Y10760D01*
X13950Y10760D01*
X13881Y10849D01*
X13867Y10867D01*
X13867Y10867D01*
X13867Y10867D01*
X13778Y10936D01*
X13760Y10950D01*
X13760Y10950D01*
X13760Y10950D01*
X13634Y11002D01*
X13634Y11002D01*
X13634Y11002D01*
X13500Y11019D01*
X13500Y11019D01*
X13487Y11018D01*
X13366Y11002D01*
X12826Y10932D01*
X12620Y10924D01*
Y10500D01*
Y10076D01*
X12826Y10068D01*
X13366Y9998D01*
X13466Y9985D01*
X13545Y9945D01*
X14500Y8990D01*
X14892Y8598D01*
X14892Y8598D01*
X15045Y8445D01*
X15045D01*
X15092Y8409D01*
X15120Y8388D01*
X15120Y8388D01*
X15207Y8352D01*
X15207Y8352D01*
X15284Y8341D01*
X15550Y8300D01*
X15615D01*
X15615Y8300D01*
X15615Y8300D01*
X16055Y8300D01*
X16450D01*
Y9100D01*
X16450Y9440D01*
X18852Y11842D01*
X19639Y11516D01*
Y7182D01*
Y7149D01*
X19616Y7126D01*
X17136Y4646D01*
X17079Y4625D01*
X16385Y4400D01*
X16385Y4400D01*
X16385Y4400D01*
X15550D01*
Y4400D01*
X14763Y4247D01*
X14018Y4992D01*
X14019Y5000D01*
X14019Y5000D01*
X14002Y5134D01*
X14002Y5134D01*
X13958Y5239D01*
X13958Y5239D01*
X13950Y5260D01*
X13950Y5260D01*
X13881Y5349D01*
X13867Y5367D01*
X13867Y5367D01*
X13867Y5367D01*
X13778Y5436D01*
X13760Y5450D01*
X13760Y5450D01*
X13760Y5450D01*
X13634Y5502D01*
X13634Y5502D01*
X13634Y5502D01*
X13500Y5519D01*
X13500Y5519D01*
X13487Y5518D01*
X13366Y5502D01*
X12826Y5432D01*
X12620Y5424D01*
Y5000D01*
Y4576D01*
X12826Y4568D01*
X13366Y4498D01*
X13466Y4485D01*
X13545Y4445D01*
X14500Y3490D01*
X14892Y3098D01*
X14892Y3098D01*
X15045Y2945D01*
X15092Y2909D01*
X15120Y2888D01*
X15120Y2888D01*
X15207Y2852D01*
X15207Y2852D01*
X15284Y2841D01*
X15550Y2800D01*
X15615D01*
X16295Y2542D01*
X16621Y2084D01*
X16615Y2000D01*
X16632Y1783D01*
X16682Y1572D01*
X16766Y1371D01*
X16879Y1186D01*
X17020Y1020D01*
X17186Y879D01*
X17336Y787D01*
X17356Y712D01*
X17162Y0D01*
X2000D01*
Y1436D01*
X2113Y1608D01*
X2227Y1706D01*
X2787Y2024D01*
X2813Y2022D01*
X3007Y2041D01*
X3193Y2097D01*
X3210Y2107D01*
X3527Y1790D01*
X3940Y1377D01*
X3940Y1377D01*
X4072Y1245D01*
X4146Y1188D01*
X4233Y1152D01*
X4327Y1139D01*
X4597Y1139D01*
X4597Y1139D01*
X5098Y1139D01*
X6229D01*
X6730Y1139D01*
X6730Y1139D01*
X7000Y1139D01*
X7093Y1152D01*
X7180Y1188D01*
X7255Y1245D01*
X7454Y1444D01*
X7454Y1444D01*
X7815Y1805D01*
X8477Y2107D01*
Y2107D01*
X9251Y2139D01*
X10217D01*
X10981Y2000D01*
X10998Y1866D01*
X10998Y1866D01*
X11050Y1740D01*
X11050Y1740D01*
X11119Y1651D01*
X11119Y1651D01*
X11133Y1633D01*
X11133D01*
X11222Y1564D01*
X11240Y1550D01*
X11240Y1550D01*
X11240D01*
X11366Y1498D01*
X11366Y1498D01*
X11366Y1498D01*
X11500Y1481D01*
X11500Y1481D01*
X11522Y1484D01*
X11634Y1498D01*
X11634Y1498D01*
X11644Y1502D01*
X11760Y1550D01*
X11760Y1550D01*
X11760Y1550D01*
X11886Y1633D01*
X12114D01*
X12240Y1550D01*
X12240Y1550D01*
X12240D01*
X12366Y1498D01*
X12500Y1481D01*
X12634Y1498D01*
X12760Y1550D01*
X12760Y1550D01*
X12875Y1626D01*
X12886Y1633D01*
X13114D01*
X13118Y1630D01*
X13118D01*
X13240Y1550D01*
X13240Y1550D01*
X13240D01*
X13345Y1507D01*
X13345D01*
X13366Y1498D01*
X13366Y1498D01*
X13500Y1481D01*
X13500Y1481D01*
X13634Y1498D01*
X13634Y1498D01*
X13739Y1542D01*
X13739Y1542D01*
X13760Y1550D01*
Y1550D01*
X13849Y1619D01*
X13849Y1619D01*
X13867Y1633D01*
X13932Y1718D01*
X13950Y1740D01*
X14002Y1866D01*
X14004Y1882D01*
X14019Y2000D01*
X14016Y2022D01*
X14016Y2022D01*
X14002Y2134D01*
X13998Y2144D01*
X13958Y2239D01*
X13950Y2260D01*
X13881Y2349D01*
X13881Y2349D01*
X13867Y2367D01*
X13778Y2436D01*
X13778Y2436D01*
X13760Y2450D01*
X13760Y2450D01*
X13634Y2502D01*
X13634Y2502D01*
X13621Y2503D01*
X13500Y2519D01*
X13500Y2519D01*
X13478Y2516D01*
X13366Y2502D01*
X13366Y2502D01*
X12976Y2420D01*
X12306Y2704D01*
X11799Y3211D01*
Y3211D01*
X11320Y3800D01*
X11412Y4148D01*
X11626Y4497D01*
X11634Y4498D01*
X12174Y4568D01*
X12380Y4576D01*
Y5000D01*
Y5424D01*
X12174Y5432D01*
X11634Y5502D01*
X11522Y5516D01*
X11522Y5516D01*
X11500Y5519D01*
X11500Y5519D01*
X11409Y5507D01*
X11366Y5502D01*
X11345Y5493D01*
X11261Y5458D01*
X11240Y5450D01*
X11151Y5381D01*
X11133Y5367D01*
X11064Y5278D01*
X11050Y5260D01*
X10998Y5134D01*
X10998Y5134D01*
X10314Y5085D01*
X10202Y5221D01*
X10196Y5233D01*
X9940Y5818D01*
X9963Y5876D01*
X9980Y6000D01*
X9963Y6124D01*
X9915Y6240D01*
X9839Y6339D01*
X9740Y6415D01*
X9740Y6415D01*
X9624Y6463D01*
X9624Y6463D01*
X9500Y6480D01*
X9500Y6480D01*
X9376Y6463D01*
X9376Y6463D01*
X9260Y6415D01*
X9260Y6415D01*
X9189Y6361D01*
X8317D01*
X7956Y7136D01*
X8200Y7476D01*
X8210Y7485D01*
X8477Y7607D01*
Y7607D01*
X9251Y7639D01*
X10217D01*
X10981Y7500D01*
X10998Y7366D01*
X10998Y7366D01*
X11050Y7240D01*
X11050Y7240D01*
X11119Y7151D01*
X11119Y7151D01*
X11133Y7133D01*
X11133D01*
X11222Y7064D01*
X11240Y7050D01*
X11240Y7050D01*
X11240D01*
X11366Y6998D01*
X11366Y6998D01*
X11366Y6998D01*
X11500Y6981D01*
X11500Y6981D01*
X11522Y6984D01*
X11634Y6998D01*
X11634Y6998D01*
X11644Y7002D01*
X11760Y7050D01*
X11760Y7050D01*
X11760Y7050D01*
X11886Y7133D01*
X12114D01*
X12240Y7050D01*
X12240Y7050D01*
X12240D01*
X12366Y6998D01*
X12500Y6981D01*
X12634Y6998D01*
X12760Y7050D01*
X12760Y7050D01*
X12875Y7126D01*
X12886Y7133D01*
X13114D01*
X13118Y7131D01*
X13118D01*
X13240Y7050D01*
X13240Y7050D01*
X13240D01*
X13345Y7007D01*
X13345D01*
X13366Y6998D01*
X13366Y6998D01*
X13500Y6981D01*
X13500Y6981D01*
X13634Y6998D01*
X13634Y6998D01*
X13739Y7042D01*
X13739Y7042D01*
X13760Y7050D01*
Y7050D01*
X13849Y7119D01*
X13849Y7119D01*
X13867Y7133D01*
X13932Y7218D01*
X13950Y7240D01*
X14002Y7366D01*
X14004Y7382D01*
X14019Y7500D01*
X14016Y7522D01*
X14016Y7522D01*
X14002Y7634D01*
X13998Y7644D01*
X13958Y7739D01*
X13950Y7760D01*
X13881Y7849D01*
X13881Y7849D01*
X13867Y7867D01*
X13778Y7936D01*
X13778Y7936D01*
X13760Y7950D01*
X13760Y7950D01*
X13634Y8002D01*
X13634Y8002D01*
X13621Y8003D01*
X13500Y8019D01*
X13500Y8019D01*
X13478Y8016D01*
X13366Y8002D01*
X13366Y8002D01*
X12976Y7920D01*
X12306Y8204D01*
X11799Y8711D01*
Y8711D01*
X11799Y8711D01*
X11320Y9300D01*
X11412Y9648D01*
X11626Y9997D01*
X11634Y9998D01*
X12174Y10068D01*
X12380Y10076D01*
Y10500D01*
Y10924D01*
X12174Y10932D01*
X11634Y11002D01*
X11522Y11016D01*
X11522Y11016D01*
X11500Y11019D01*
X11500Y11019D01*
X11409Y11007D01*
X11366Y11002D01*
X11345Y10993D01*
X11261Y10958D01*
X11240Y10950D01*
X11151Y10881D01*
X11133Y10867D01*
X11064Y10778D01*
X11050Y10760D01*
X10998Y10634D01*
X10998Y10634D01*
X10314Y10585D01*
X10202Y10721D01*
X10196Y10733D01*
X9940Y11318D01*
X9963Y11376D01*
X9980Y11500D01*
X9963Y11624D01*
X9915Y11740D01*
X9839Y11839D01*
X9740Y11915D01*
X9740Y11915D01*
X9624Y11963D01*
X9624Y11963D01*
X9500Y11980D01*
X9500Y11980D01*
X9376Y11963D01*
X9376Y11963D01*
X9260Y11915D01*
X9260Y11915D01*
X9189Y11861D01*
X8317D01*
X7956Y12636D01*
X8200Y12976D01*
X8210Y12985D01*
X8477Y13107D01*
Y13107D01*
X9251Y13139D01*
X10217D01*
X10981Y13000D01*
X10998Y12866D01*
X10998Y12866D01*
X11050Y12740D01*
X11050Y12740D01*
X11119Y12651D01*
X11119Y12651D01*
X11133Y12633D01*
X11133D01*
X11222Y12564D01*
X11240Y12550D01*
X11240Y12550D01*
X11240D01*
X11366Y12498D01*
X11366Y12498D01*
X11366Y12498D01*
X11500Y12481D01*
X11500Y12481D01*
X11522Y12484D01*
X11634Y12498D01*
X11634Y12498D01*
X11644Y12502D01*
X11760Y12550D01*
X11760Y12550D01*
X11760Y12550D01*
X11886Y12633D01*
X12114D01*
X12240Y12550D01*
X12240Y12550D01*
X12240Y12550D01*
X12366Y12498D01*
X12500Y12481D01*
X12634Y12498D01*
X12634D01*
X12634Y12498D01*
X13240Y12550D01*
X13240Y12550D01*
X13240D01*
X13345Y12507D01*
X13345D01*
X13366Y12498D01*
X13366Y12498D01*
X13500Y12481D01*
X13500Y12481D01*
X13634Y12498D01*
X13634Y12498D01*
X13739Y12542D01*
X13739Y12542D01*
X13760Y12550D01*
X13760Y12550D01*
X13849Y12619D01*
Y12619D01*
X13867Y12633D01*
X13867Y12633D01*
X13936Y12722D01*
X13950Y12740D01*
X14002Y12866D01*
X14005Y12888D01*
X14005Y12888D01*
X14019Y13000D01*
X14016Y13022D01*
X14016Y13022D01*
X14002Y13134D01*
X13998Y13144D01*
X13958Y13239D01*
X13950Y13260D01*
X13881Y13349D01*
X13881Y13349D01*
X13867Y13367D01*
X13778Y13436D01*
X13778Y13436D01*
X13760Y13450D01*
X13760Y13450D01*
X13634Y13502D01*
X13634Y13502D01*
X13621Y13503D01*
X13500Y13519D01*
X13500Y13519D01*
X13478Y13516D01*
X13366Y13502D01*
X13366Y13502D01*
X12976Y13420D01*
X12306Y13704D01*
X11799Y14211D01*
Y14211D01*
X11320Y14800D01*
X11412Y15148D01*
X11626Y15497D01*
X11634Y15498D01*
X12174Y15568D01*
X12380Y15576D01*
Y16000D01*
Y16424D01*
X12174Y16432D01*
X11634Y16502D01*
X11522Y16516D01*
X11522Y16516D01*
X11500Y16519D01*
X11500Y16519D01*
X11409Y16507D01*
X11366Y16502D01*
X11345Y16493D01*
X11261Y16458D01*
X11240Y16450D01*
X11151Y16381D01*
X11133Y16367D01*
X11064Y16278D01*
X11050Y16260D01*
X10998Y16134D01*
X10998Y16134D01*
X10314Y16085D01*
X10202Y16221D01*
X10196Y16233D01*
X9940Y16818D01*
X9963Y16876D01*
X9980Y17000D01*
X9963Y17124D01*
X9915Y17240D01*
X9839Y17339D01*
X9740Y17415D01*
X9740Y17415D01*
X9624Y17463D01*
X9624Y17463D01*
X9500Y17480D01*
X9500Y17480D01*
X9376Y17463D01*
X9376Y17463D01*
X9260Y17415D01*
X9260Y17415D01*
X9189Y17361D01*
X8317D01*
X7956Y18136D01*
X8200Y18476D01*
X8210Y18485D01*
X8477Y18607D01*
Y18607D01*
X9251Y18639D01*
X10217D01*
X10981Y18500D01*
X10998Y18366D01*
X10998Y18366D01*
X11050Y18240D01*
X11050Y18240D01*
X11119Y18151D01*
X11119Y18151D01*
X11133Y18133D01*
X11133D01*
X11222Y18064D01*
X11240Y18050D01*
X11240Y18050D01*
X11240D01*
X11366Y17998D01*
X11366Y17998D01*
X11366Y17998D01*
X11500Y17981D01*
X11500Y17981D01*
X11522Y17984D01*
X11634Y17998D01*
X11634Y17998D01*
X11644Y18002D01*
X11760Y18050D01*
X11760Y18050D01*
X11760Y18050D01*
X11886Y18133D01*
X12114D01*
X12240Y18050D01*
X12240Y18050D01*
X12240D01*
X12366Y17998D01*
X12500Y17981D01*
X12634Y17998D01*
X12760Y18050D01*
X12760Y18050D01*
X12875Y18126D01*
X12886Y18133D01*
X13114D01*
X13118Y18131D01*
X13118D01*
X13240Y18050D01*
X13240Y18050D01*
X13240D01*
X13345Y18007D01*
X13345D01*
X13366Y17998D01*
X13366Y17998D01*
X13500Y17981D01*
X13500Y17981D01*
X13634Y17998D01*
X13634Y17998D01*
X13739Y18042D01*
X13739Y18042D01*
X13760Y18050D01*
X13849Y18119D01*
X13849Y18119D01*
X13867Y18133D01*
X13936Y18222D01*
X13936Y18222D01*
X13950Y18240D01*
X14002Y18366D01*
X14004Y18382D01*
X14019Y18500D01*
X14018Y18509D01*
X14002Y18634D01*
X13996Y18649D01*
Y18649D01*
X13958Y18739D01*
X13950Y18760D01*
X13881Y18849D01*
X13881Y18849D01*
X13867Y18867D01*
X13778Y18936D01*
D01*
X13760Y18950D01*
X13760Y18950D01*
X13634Y19002D01*
X13634Y19002D01*
X13621Y19003D01*
X13500Y19019D01*
X13500Y19019D01*
X13478Y19016D01*
X13478Y19016D01*
X13366Y19002D01*
X13366Y19002D01*
X12976Y18920D01*
X12306Y19204D01*
X11799Y19711D01*
Y19711D01*
X11320Y20300D01*
X11412Y20648D01*
X11626Y20997D01*
X11634Y20998D01*
X12174Y21068D01*
X12380Y21076D01*
Y21500D01*
Y21924D01*
X12174Y21932D01*
X11634Y22002D01*
X11522Y22016D01*
X11522Y22016D01*
X11500Y22019D01*
X11500Y22019D01*
X11409Y22007D01*
X11366Y22002D01*
X11345Y21993D01*
X11261Y21958D01*
X11240Y21950D01*
X11151Y21881D01*
X11133Y21867D01*
X11064Y21778D01*
X11050Y21760D01*
X10998Y21634D01*
X10998Y21634D01*
X10997Y21626D01*
X10754Y21477D01*
X10016Y21359D01*
X10000Y21361D01*
X9803Y21361D01*
X9803Y21361D01*
X9251Y21361D01*
X8477Y21393D01*
Y21393D01*
X8477Y21393D01*
X8367Y21438D01*
X8250Y21454D01*
X8250Y21454D01*
X8000D01*
X7750D01*
X7750Y21454D01*
X7633Y21438D01*
X7523Y21393D01*
X7523Y21393D01*
X6780Y21361D01*
X6686Y21348D01*
X6599Y21312D01*
X6525Y21255D01*
X6394Y21124D01*
X6394Y21124D01*
X6133Y20864D01*
X5318Y20884D01*
X5136Y20979D01*
X5045Y21250D01*
X5043Y21273D01*
X5026Y21444D01*
X4970Y21630D01*
X4878Y21801D01*
X4755Y21952D01*
X4604Y22075D01*
X4433Y22167D01*
X4247Y22223D01*
X4053Y22242D01*
X3860Y22223D01*
X3673Y22167D01*
X3502Y22075D01*
X3352Y21952D01*
X3228Y21801D01*
X3137Y21630D01*
X3080Y21444D01*
X3072Y21362D01*
X2727Y21141D01*
X2000Y21538D01*
Y23436D01*
X2113Y23608D01*
X2227Y23706D01*
X2787Y24024D01*
X2813Y24022D01*
X3007Y24041D01*
X3193Y24097D01*
X3210Y24107D01*
X3527Y23790D01*
X3940Y23377D01*
X3940Y23377D01*
X4072Y23245D01*
X4146Y23188D01*
X4233Y23152D01*
X4327Y23139D01*
X4597Y23139D01*
X4597Y23139D01*
X5098Y23139D01*
X6229D01*
X6730Y23139D01*
X6730Y23139D01*
X7000Y23139D01*
X7093Y23152D01*
X7180Y23188D01*
X7255Y23245D01*
X7454Y23444D01*
X7454Y23444D01*
X7815Y23805D01*
X8477Y24107D01*
Y24107D01*
X9251Y24139D01*
X10217D01*
X10981Y24000D01*
X10998Y23866D01*
X10998Y23866D01*
X11050Y23740D01*
X11050Y23740D01*
X11119Y23651D01*
X11119Y23651D01*
X11133Y23633D01*
X11133D01*
X11222Y23564D01*
X11240Y23550D01*
X11240Y23550D01*
X11240D01*
X11366Y23498D01*
X11366Y23498D01*
X11366Y23498D01*
X11500Y23481D01*
X11500Y23481D01*
X11522Y23484D01*
X11634Y23498D01*
X11634Y23498D01*
X11644Y23502D01*
X11760Y23550D01*
X11760Y23550D01*
X11760Y23550D01*
X11886Y23633D01*
X12114D01*
X12240Y23550D01*
X12240Y23550D01*
X12240D01*
X12366Y23498D01*
X12500Y23481D01*
X12634Y23498D01*
X12760Y23550D01*
X12760Y23550D01*
X12875Y23626D01*
X12886Y23633D01*
X13114D01*
X13118Y23630D01*
X13118D01*
X13240Y23550D01*
X13240Y23550D01*
X13240D01*
X13345Y23507D01*
X13345D01*
X13366Y23498D01*
X13366Y23498D01*
X13500Y23481D01*
X13500Y23481D01*
X13634Y23498D01*
X13634Y23498D01*
X13739Y23542D01*
X13739Y23542D01*
X13760Y23550D01*
X13760Y23550D01*
X13812Y23590D01*
X13849Y23619D01*
X13867Y23633D01*
X13936Y23722D01*
X13936Y23722D01*
X13950Y23740D01*
X14002Y23866D01*
X14004Y23882D01*
X14019Y24000D01*
X14016Y24022D01*
X14016Y24022D01*
X14002Y24134D01*
X13996Y24149D01*
Y24149D01*
X13958Y24239D01*
X13950Y24260D01*
X13881Y24349D01*
X13881Y24349D01*
X13867Y24367D01*
X13778Y24436D01*
D01*
X13760Y24450D01*
X13760Y24450D01*
X13634Y24502D01*
X13634Y24502D01*
X13621Y24503D01*
X13500Y24519D01*
X13500Y24519D01*
X13478Y24516D01*
X13366Y24502D01*
X13366Y24502D01*
X12976Y24420D01*
X12306Y24704D01*
X11799Y25211D01*
Y25211D01*
X11320Y25800D01*
X11412Y26148D01*
X11626Y26497D01*
X11634Y26498D01*
X12174Y26568D01*
X12380Y26576D01*
Y27000D01*
Y27424D01*
X12174Y27432D01*
X11634Y27502D01*
X11522Y27516D01*
X11522Y27516D01*
X11500Y27519D01*
X11500Y27519D01*
X11409Y27507D01*
X11366Y27502D01*
X11345Y27493D01*
X11261Y27458D01*
X11240Y27450D01*
X11151Y27381D01*
X11133Y27367D01*
X11064Y27278D01*
X11050Y27260D01*
X10998Y27134D01*
X10998Y27134D01*
X10997Y27126D01*
X10754Y26977D01*
X10016Y26859D01*
X10000Y26861D01*
X9803Y26861D01*
X9803Y26861D01*
X9251Y26861D01*
X8477Y26893D01*
Y26893D01*
X8477Y26893D01*
X8367Y26938D01*
X8250Y26954D01*
X8250Y26954D01*
X8000D01*
X7750D01*
X7750Y26954D01*
X7633Y26938D01*
X7523Y26893D01*
X7523Y26893D01*
X6780Y26861D01*
X6686Y26848D01*
X6599Y26812D01*
X6525Y26755D01*
X6394Y26624D01*
X6394Y26624D01*
X6133Y26364D01*
X5318Y26384D01*
X5136Y26479D01*
X5045Y26750D01*
X5043Y26773D01*
X5026Y26944D01*
X4970Y27130D01*
X4878Y27301D01*
X4755Y27452D01*
X4604Y27575D01*
X4433Y27667D01*
X4247Y27723D01*
X4053Y27742D01*
X3860Y27723D01*
X3673Y27667D01*
X3502Y27575D01*
X3352Y27452D01*
X3228Y27301D01*
X3137Y27130D01*
X3080Y26944D01*
X2992Y26712D01*
X2787Y26607D01*
X2000Y27038D01*
Y28936D01*
X2113Y29108D01*
X2227Y29206D01*
X2787Y29524D01*
X2813Y29522D01*
X3007Y29541D01*
X3193Y29597D01*
X3210Y29607D01*
X3527Y29290D01*
X3940Y28877D01*
X3940Y28877D01*
X4072Y28745D01*
X4146Y28688D01*
X4233Y28652D01*
X4327Y28639D01*
X4597Y28639D01*
X4597Y28639D01*
X5098Y28639D01*
X6229D01*
X6730Y28639D01*
X6730Y28639D01*
X7000Y28639D01*
X7093Y28652D01*
X7180Y28688D01*
X7255Y28745D01*
X7454Y28944D01*
X7454Y28944D01*
X7815Y29305D01*
X8477Y29607D01*
Y29607D01*
X9251Y29639D01*
X10217D01*
X10981Y29500D01*
X10998Y29366D01*
X10998Y29366D01*
X11050Y29240D01*
X11050Y29240D01*
X11119Y29151D01*
X11119Y29151D01*
X11133Y29133D01*
X11133D01*
X11222Y29064D01*
X11240Y29050D01*
X11240Y29050D01*
X11240D01*
X11366Y28998D01*
X11366Y28998D01*
X11366Y28998D01*
X11500Y28981D01*
X11500Y28981D01*
X11522Y28984D01*
X11634Y28998D01*
X11634Y28998D01*
X11644Y29002D01*
X11760Y29050D01*
X11760Y29050D01*
X11760Y29050D01*
X11886Y29133D01*
X12114D01*
X12240Y29050D01*
X12240Y29050D01*
X12240D01*
X12366Y28998D01*
X12500Y28981D01*
X12634Y28998D01*
X12760Y29050D01*
X12760Y29050D01*
X12875Y29126D01*
X12886Y29133D01*
X13114D01*
X13118Y29130D01*
X13118D01*
X13240Y29050D01*
X13240Y29050D01*
X13240D01*
X13345Y29007D01*
X13345D01*
X13366Y28998D01*
X13366Y28998D01*
X13500Y28981D01*
X13500Y28981D01*
X13634Y28998D01*
X13634Y28998D01*
X13739Y29042D01*
X13739Y29042D01*
X13760Y29050D01*
X13760Y29050D01*
X13812Y29090D01*
X13849Y29119D01*
X13867Y29133D01*
X13936Y29222D01*
X13936Y29222D01*
X13950Y29240D01*
X14002Y29366D01*
X14004Y29382D01*
X14019Y29500D01*
X14016Y29522D01*
X14016Y29522D01*
X14002Y29634D01*
X13996Y29649D01*
Y29649D01*
X13958Y29739D01*
X13950Y29760D01*
X13881Y29849D01*
X13881Y29849D01*
X13867Y29867D01*
X13778Y29936D01*
D01*
X13760Y29950D01*
X13760Y29950D01*
X13634Y30002D01*
X13634Y30002D01*
X13621Y30003D01*
X13500Y30019D01*
X13500Y30019D01*
X13478Y30016D01*
X13366Y30002D01*
X13366Y30002D01*
X12976Y29920D01*
X12306Y30204D01*
X11799Y30711D01*
Y30711D01*
X11320Y31300D01*
X11412Y31648D01*
X11626Y31997D01*
X11634Y31998D01*
X12174Y32068D01*
X12380Y32076D01*
Y32500D01*
Y32924D01*
X12174Y32932D01*
X11634Y33002D01*
X11522Y33016D01*
X11522Y33016D01*
X11500Y33019D01*
X11500Y33019D01*
X11409Y33007D01*
X11366Y33002D01*
X11345Y32993D01*
X11261Y32958D01*
X11240Y32950D01*
X11151Y32881D01*
X11133Y32867D01*
X11064Y32778D01*
X11050Y32760D01*
X10998Y32634D01*
X10998Y32634D01*
X10997Y32626D01*
X10754Y32477D01*
X10016Y32359D01*
X10000Y32361D01*
X9803Y32361D01*
X9803Y32361D01*
X9251Y32361D01*
X8477Y32393D01*
Y32393D01*
X8477Y32393D01*
X8367Y32438D01*
X8250Y32454D01*
X8250Y32454D01*
X8000D01*
X7750D01*
X7750Y32454D01*
X7733Y32452D01*
X7002Y32361D01*
X7000Y32361D01*
X6907Y32348D01*
X6907Y32348D01*
X6820Y32312D01*
X6820D01*
X6796Y32294D01*
X6745Y32255D01*
X6636Y32146D01*
X6636Y32146D01*
X6189Y31699D01*
X5241Y31812D01*
X5174Y31888D01*
X5160Y31905D01*
X5045Y32250D01*
X5043Y32273D01*
X5026Y32444D01*
X4970Y32630D01*
X4878Y32801D01*
X4755Y32952D01*
X4604Y33075D01*
X4433Y33167D01*
X4247Y33223D01*
X4053Y33242D01*
X3860Y33223D01*
X3673Y33167D01*
X3502Y33075D01*
X3352Y32952D01*
X3228Y32801D01*
X3137Y32630D01*
X3080Y32444D01*
X3072Y32362D01*
X2727Y32141D01*
X2000Y32538D01*
Y34436D01*
X2113Y34608D01*
X2227Y34706D01*
X2787Y35024D01*
X2813Y35022D01*
X3007Y35041D01*
X3193Y35097D01*
X3210Y35107D01*
X3527Y34790D01*
X3940Y34377D01*
X3940Y34377D01*
X4072Y34245D01*
X4146Y34188D01*
X4233Y34152D01*
X4327Y34139D01*
X4597Y34139D01*
X4597Y34139D01*
X5098Y34139D01*
X6229D01*
X6730Y34139D01*
X6730Y34139D01*
X7000Y34139D01*
X7093Y34152D01*
X7180Y34188D01*
X7255Y34245D01*
X7454Y34444D01*
X7454Y34444D01*
X7815Y34805D01*
X8477Y35107D01*
Y35107D01*
X9251Y35139D01*
X10217D01*
X10981Y35000D01*
X10998Y34866D01*
X10998Y34866D01*
X11050Y34740D01*
X11050Y34740D01*
X11119Y34651D01*
X11119Y34651D01*
X11133Y34633D01*
X11133D01*
X11222Y34564D01*
X11240Y34550D01*
X11240Y34550D01*
X11240D01*
X11366Y34498D01*
X11366Y34498D01*
X11366Y34498D01*
X11500Y34481D01*
X11500Y34481D01*
X11522Y34484D01*
X11634Y34498D01*
X11634Y34498D01*
X11644Y34502D01*
X11760Y34550D01*
X11760Y34550D01*
X11760Y34550D01*
X11886Y34633D01*
X12114D01*
X12240Y34550D01*
X12240Y34550D01*
X12240D01*
X12366Y34498D01*
X12500Y34481D01*
X12634Y34498D01*
X12760Y34550D01*
X12760Y34550D01*
X12875Y34626D01*
X12886Y34633D01*
X13114D01*
X13118Y34630D01*
X13118D01*
X13240Y34550D01*
X13240Y34550D01*
X13240D01*
X13345Y34507D01*
X13345D01*
X13366Y34498D01*
X13366Y34498D01*
X13500Y34481D01*
X13500Y34481D01*
X13634Y34498D01*
X13634Y34498D01*
X13739Y34542D01*
X13739Y34542D01*
X13760Y34550D01*
X13760Y34550D01*
X13812Y34590D01*
X13849Y34619D01*
X13867Y34633D01*
X13936Y34722D01*
X13936Y34722D01*
X13950Y34740D01*
X14002Y34866D01*
X14004Y34882D01*
X14019Y35000D01*
X14016Y35022D01*
X14016Y35022D01*
X14002Y35134D01*
X13996Y35149D01*
Y35149D01*
X13958Y35239D01*
X13950Y35260D01*
X13881Y35349D01*
X13881Y35349D01*
X13867Y35367D01*
X13778Y35436D01*
D01*
X13760Y35450D01*
X13760Y35450D01*
X13634Y35502D01*
X13634Y35502D01*
X13621Y35503D01*
X13500Y35519D01*
X13500Y35519D01*
X13478Y35516D01*
X13366Y35502D01*
X13366Y35502D01*
X12976Y35420D01*
X12306Y35704D01*
X11799Y36211D01*
Y36211D01*
X11320Y36800D01*
X11412Y37148D01*
X11626Y37497D01*
X11634Y37498D01*
X12174Y37568D01*
X12380Y37576D01*
Y38000D01*
Y38424D01*
X12174Y38432D01*
X11634Y38502D01*
X11522Y38516D01*
X11522Y38516D01*
X11500Y38519D01*
X11500Y38519D01*
X11409Y38507D01*
X11366Y38502D01*
X11345Y38493D01*
X11261Y38458D01*
X11240Y38450D01*
X11151Y38381D01*
X11133Y38367D01*
X11064Y38278D01*
X11050Y38260D01*
X10998Y38134D01*
X10998Y38134D01*
X10997Y38126D01*
X10754Y37977D01*
X10016Y37859D01*
X10000Y37861D01*
X9803Y37861D01*
X9803Y37861D01*
X9251Y37861D01*
X8477Y37893D01*
Y37893D01*
X8477Y37893D01*
X8367Y37938D01*
X8250Y37954D01*
X8250Y37954D01*
X8000D01*
X7750D01*
X7750Y37954D01*
X7733Y37952D01*
X7002Y37861D01*
X7000Y37861D01*
X6907Y37848D01*
X6907Y37848D01*
X6820Y37812D01*
X6820D01*
X6796Y37794D01*
X6745Y37755D01*
X6636Y37646D01*
X6636Y37646D01*
X6189Y37199D01*
X5241Y37312D01*
X5174Y37388D01*
X5160Y37405D01*
X5045Y37750D01*
X5043Y37773D01*
X5026Y37944D01*
X4970Y38130D01*
X4878Y38301D01*
X4755Y38452D01*
X4604Y38575D01*
X4433Y38667D01*
X4247Y38723D01*
X4053Y38742D01*
X3860Y38723D01*
X3673Y38667D01*
X3502Y38575D01*
X3352Y38452D01*
X3228Y38301D01*
X3137Y38130D01*
X3080Y37944D01*
X3072Y37862D01*
X2727Y37641D01*
X2000Y38038D01*
Y39936D01*
X2113Y40108D01*
X2227Y40206D01*
X2787Y40524D01*
X2813Y40522D01*
X3007Y40541D01*
X3193Y40597D01*
X3210Y40607D01*
X3527Y40290D01*
X3940Y39877D01*
X3940Y39877D01*
X4072Y39745D01*
X4146Y39688D01*
X4233Y39652D01*
X4327Y39639D01*
X4597Y39639D01*
X4597Y39639D01*
X5098Y39639D01*
X6229D01*
X6730Y39639D01*
X6730Y39639D01*
X7000Y39639D01*
X7093Y39652D01*
X7180Y39688D01*
X7255Y39745D01*
X7454Y39944D01*
X7454Y39944D01*
X7815Y40305D01*
X8477Y40607D01*
Y40607D01*
X9251Y40639D01*
X10217D01*
X10981Y40500D01*
X10998Y40366D01*
X10998Y40366D01*
X11050Y40240D01*
X11050Y40240D01*
X11119Y40151D01*
X11119Y40151D01*
X11133Y40133D01*
X11133D01*
X11222Y40064D01*
X11240Y40050D01*
X11240Y40050D01*
X11240D01*
X11366Y39998D01*
X11366Y39998D01*
X11366Y39998D01*
X11500Y39981D01*
X11500Y39981D01*
X11522Y39984D01*
X11634Y39998D01*
X11634Y39998D01*
X11644Y40002D01*
X11760Y40050D01*
X11760Y40050D01*
X11760Y40050D01*
X11886Y40133D01*
X12114D01*
X12240Y40050D01*
X12240Y40050D01*
X12240D01*
X12366Y39998D01*
X12500Y39981D01*
X12634Y39998D01*
X12760Y40050D01*
X12760Y40050D01*
X12875Y40126D01*
X12886Y40133D01*
X13114D01*
X13118Y40131D01*
X13118D01*
X13240Y40050D01*
X13240Y40050D01*
X13240D01*
X13345Y40007D01*
X13345D01*
X13366Y39998D01*
X13366Y39998D01*
X13500Y39981D01*
X13500Y39981D01*
X13634Y39998D01*
X13634Y39998D01*
X13739Y40042D01*
X13739Y40042D01*
X13760Y40050D01*
X13760Y40050D01*
X13812Y40090D01*
X13849Y40119D01*
X13867Y40133D01*
X13936Y40222D01*
X13936Y40222D01*
X13950Y40240D01*
X14002Y40366D01*
X14004Y40382D01*
X14019Y40500D01*
X14016Y40522D01*
X14016Y40522D01*
X14002Y40634D01*
X13996Y40649D01*
Y40649D01*
X13958Y40739D01*
X13950Y40760D01*
X13881Y40849D01*
X13881Y40849D01*
X13867Y40867D01*
X13778Y40936D01*
D01*
X13760Y40950D01*
X13760Y40950D01*
X13634Y41002D01*
X13634Y41002D01*
X13621Y41003D01*
X13500Y41019D01*
X13500Y41019D01*
X13478Y41016D01*
X13366Y41002D01*
X13366Y41002D01*
X12976Y40920D01*
X12306Y41204D01*
X11799Y41711D01*
Y41711D01*
X11320Y42300D01*
X11412Y42648D01*
X11626Y42997D01*
X11634Y42998D01*
X12174Y43068D01*
X12380Y43076D01*
Y43500D01*
Y43924D01*
X12174Y43932D01*
X11634Y44002D01*
X11522Y44016D01*
X11522Y44016D01*
X11500Y44019D01*
X11500Y44019D01*
X11409Y44007D01*
X11366Y44002D01*
X11345Y43993D01*
X11261Y43958D01*
X11240Y43950D01*
X11151Y43881D01*
X11133Y43867D01*
X11064Y43778D01*
X11050Y43760D01*
X10998Y43634D01*
X10998Y43634D01*
X10997Y43626D01*
X10754Y43477D01*
X10016Y43359D01*
X10000Y43361D01*
X9803Y43361D01*
X9803Y43361D01*
X9251Y43361D01*
X8477Y43393D01*
Y43393D01*
X8477Y43393D01*
X8367Y43438D01*
X8250Y43454D01*
X8250Y43454D01*
X8000D01*
X7750D01*
X7750Y43454D01*
X7633Y43438D01*
X7523Y43393D01*
X7523Y43393D01*
X6780Y43361D01*
X6686Y43348D01*
X6599Y43312D01*
X6525Y43255D01*
X6394Y43124D01*
X6394Y43124D01*
X6133Y42864D01*
X5318Y42884D01*
X5136Y42979D01*
X5045Y43250D01*
X5043Y43273D01*
X5026Y43444D01*
X4970Y43630D01*
X4878Y43801D01*
X4755Y43952D01*
X4604Y44075D01*
X4433Y44167D01*
X4247Y44223D01*
X4053Y44242D01*
X3860Y44223D01*
X3673Y44167D01*
X3502Y44075D01*
X3352Y43952D01*
X3228Y43801D01*
X3137Y43630D01*
X3080Y43444D01*
X3072Y43362D01*
X2727Y43141D01*
X2000Y43538D01*
Y45436D01*
X2113Y45608D01*
X2227Y45706D01*
X2787Y46024D01*
X2813Y46022D01*
X3007Y46041D01*
X3193Y46097D01*
X3210Y46107D01*
X3527Y45790D01*
X3940Y45377D01*
X3940Y45377D01*
X4072Y45245D01*
X4146Y45188D01*
X4233Y45152D01*
X4327Y45139D01*
X4597Y45139D01*
X4597Y45139D01*
X5098Y45139D01*
X6229D01*
X6730Y45139D01*
X6730Y45139D01*
X7000Y45139D01*
X7093Y45152D01*
X7180Y45188D01*
X7255Y45245D01*
X7454Y45444D01*
X7454Y45444D01*
X7815Y45805D01*
X8477Y46107D01*
Y46107D01*
X9251Y46139D01*
X10217D01*
X10981Y46000D01*
X10998Y45866D01*
X10998Y45866D01*
X11050Y45740D01*
X11050Y45740D01*
X11119Y45651D01*
X11119Y45651D01*
X11133Y45633D01*
X11133D01*
X11222Y45564D01*
X11240Y45550D01*
X11240Y45550D01*
X11240D01*
X11366Y45498D01*
X11366Y45498D01*
X11366Y45498D01*
X11500Y45481D01*
X11500Y45481D01*
X11522Y45484D01*
X11634Y45498D01*
X11634Y45498D01*
X11644Y45502D01*
X11760Y45550D01*
X11760Y45550D01*
X11760Y45550D01*
X11886Y45633D01*
X12114D01*
X12240Y45550D01*
X12240Y45550D01*
X12240D01*
X12366Y45498D01*
X12500Y45481D01*
X12634Y45498D01*
X12760Y45550D01*
X12760Y45550D01*
X12875Y45626D01*
X12886Y45633D01*
X13114D01*
X13118Y45631D01*
X13118D01*
X13240Y45550D01*
X13240Y45550D01*
X13240D01*
X13345Y45507D01*
X13345D01*
X13366Y45498D01*
X13366Y45498D01*
X13500Y45481D01*
X13500Y45481D01*
X13634Y45498D01*
X13634Y45498D01*
X13739Y45542D01*
X13739Y45542D01*
X13760Y45550D01*
X13760Y45550D01*
X13812Y45590D01*
X13849Y45619D01*
X13867Y45633D01*
X13936Y45722D01*
X13936Y45722D01*
X13950Y45740D01*
X14002Y45866D01*
X14004Y45882D01*
X14019Y46000D01*
X14016Y46022D01*
X14016Y46022D01*
X14002Y46134D01*
X13996Y46149D01*
Y46149D01*
X13958Y46239D01*
X13950Y46260D01*
X13881Y46349D01*
X13881Y46349D01*
X13867Y46367D01*
X13778Y46436D01*
D01*
X13760Y46450D01*
X13760Y46450D01*
X13634Y46502D01*
X13634Y46502D01*
X13621Y46503D01*
X13500Y46519D01*
X13500Y46519D01*
X13478Y46516D01*
X13366Y46502D01*
X13366Y46502D01*
X12976Y46420D01*
X12306Y46704D01*
X11799Y47211D01*
Y47211D01*
X11320Y47800D01*
X11412Y48148D01*
X11626Y48497D01*
X11634Y48498D01*
X12174Y48568D01*
X12380Y48576D01*
Y49000D01*
Y49424D01*
X12174Y49432D01*
X11634Y49502D01*
X11522Y49516D01*
X11522Y49516D01*
X11500Y49519D01*
X11500Y49519D01*
X11409Y49507D01*
X11366Y49502D01*
X11345Y49493D01*
X11261Y49458D01*
X11240Y49450D01*
X11151Y49381D01*
X11133Y49367D01*
X11064Y49278D01*
X11050Y49260D01*
X10998Y49134D01*
X10998Y49134D01*
X10997Y49126D01*
X10754Y48977D01*
X10016Y48859D01*
X10000Y48861D01*
X9803Y48861D01*
X9803Y48861D01*
X9251Y48861D01*
X8477Y48893D01*
Y48893D01*
X8477Y48893D01*
X8367Y48938D01*
X8250Y48954D01*
X8250Y48954D01*
X8000D01*
X7750D01*
X7750Y48954D01*
X7633Y48938D01*
X7523Y48893D01*
X7523Y48893D01*
X6780Y48861D01*
X6686Y48848D01*
X6599Y48812D01*
X6525Y48755D01*
X6394Y48624D01*
X6394Y48624D01*
X6133Y48364D01*
X5318Y48384D01*
X5136Y48479D01*
X5045Y48750D01*
X5043Y48773D01*
X5026Y48944D01*
X4970Y49130D01*
X4878Y49301D01*
X4755Y49452D01*
X4604Y49575D01*
X4433Y49667D01*
X4247Y49723D01*
X4053Y49742D01*
X3860Y49723D01*
X3673Y49667D01*
X3502Y49575D01*
X3352Y49452D01*
X3228Y49301D01*
X3137Y49130D01*
X3080Y48944D01*
X3072Y48862D01*
X2727Y48641D01*
X2000Y49038D01*
Y51000D01*
X17162D01*
X17356Y50288D01*
D02*
G37*
%LPC*%
G36*
X23880Y13857D02*
X23811Y13828D01*
X23732Y13768D01*
X23672Y13689D01*
X23643Y13620D01*
X23880D01*
Y13857D01*
D02*
G37*
G36*
Y13380D02*
X23643D01*
X23672Y13311D01*
X23732Y13232D01*
X23811Y13172D01*
X23880Y13143D01*
Y13380D01*
D02*
G37*
G36*
X24120Y13857D02*
Y13620D01*
X24357D01*
X24328Y13689D01*
X24268Y13768D01*
X24189Y13828D01*
X24120Y13857D01*
D02*
G37*
G36*
X38350Y22353D02*
X38350Y22353D01*
X38259Y22341D01*
X38259Y22341D01*
X38173Y22306D01*
X38173Y22306D01*
X38100Y22250D01*
X38100Y22250D01*
X38044Y22177D01*
X38044Y22176D01*
X38021Y22120D01*
X38380D01*
Y22353D01*
X38350D01*
D02*
G37*
G36*
X35915Y18380D02*
X35085D01*
X35083Y18352D01*
X35016Y17748D01*
X35003Y17633D01*
Y17633D01*
X34990Y17531D01*
X34990Y17531D01*
X34986Y17500D01*
X34986Y17500D01*
X35003Y17367D01*
X35003Y17367D01*
X35043Y17272D01*
X35043Y17272D01*
X35054Y17243D01*
X35054Y17243D01*
X35117Y17161D01*
D01*
X35136Y17136D01*
X35136Y17136D01*
X35218Y17073D01*
X35218D01*
X35243Y17054D01*
X35243D01*
X35367Y17003D01*
X35398Y16999D01*
X35398Y16999D01*
X35500Y16986D01*
X35531Y16990D01*
X35633Y17003D01*
X35643Y17007D01*
X35728Y17043D01*
X35728D01*
X35757Y17054D01*
X35757Y17054D01*
X35839Y17117D01*
X35839D01*
X35864Y17136D01*
X35864Y17136D01*
X35927Y17218D01*
X35927Y17218D01*
X35946Y17243D01*
X35946Y17243D01*
X35983Y17333D01*
X35983Y17333D01*
X35997Y17367D01*
X35997Y17367D01*
X36014Y17500D01*
X36014Y17500D01*
X36010Y17531D01*
Y17531D01*
X35997Y17633D01*
Y17633D01*
X35973Y17849D01*
X35917Y18352D01*
X35915Y18380D01*
D02*
G37*
G36*
X20380Y2857D02*
X20311Y2828D01*
X20232Y2768D01*
X20172Y2689D01*
X20143Y2620D01*
X20380D01*
Y2857D01*
D02*
G37*
G36*
X20620D02*
Y2620D01*
X20857D01*
X20828Y2689D01*
X20768Y2768D01*
X20689Y2828D01*
X20620Y2857D01*
D02*
G37*
G36*
X20857Y2380D02*
X20620D01*
Y2143D01*
X20689Y2172D01*
X20768Y2232D01*
X20828Y2311D01*
X20857Y2380D01*
D02*
G37*
G36*
X20380D02*
X20143D01*
X20172Y2311D01*
X20232Y2232D01*
X20311Y2172D01*
X20380Y2143D01*
Y2380D01*
D02*
G37*
G36*
X28860Y5660D02*
X28100D01*
Y4900D01*
X28154Y4905D01*
X28322Y4956D01*
X28476Y5038D01*
X28611Y5149D01*
X28722Y5284D01*
X28804Y5438D01*
X28855Y5606D01*
X28860Y5660D01*
D02*
G37*
G36*
X24357Y13380D02*
X24120D01*
Y13143D01*
X24189Y13172D01*
X24268Y13232D01*
X24328Y13311D01*
X24357Y13380D01*
D02*
G37*
G36*
X30880Y3880D02*
X30605D01*
Y3605D01*
X30880D01*
Y3880D01*
D02*
G37*
G36*
Y4395D02*
X30605D01*
Y4120D01*
X30880D01*
Y4395D01*
D02*
G37*
G36*
X33357Y25380D02*
X33120D01*
Y25143D01*
X33189Y25172D01*
X33268Y25232D01*
X33328Y25311D01*
X33357Y25380D01*
D02*
G37*
G36*
X31380Y44880D02*
X31143D01*
X31172Y44811D01*
X31232Y44732D01*
X31311Y44672D01*
X31380Y44643D01*
Y44880D01*
D02*
G37*
G36*
Y45357D02*
X31311Y45328D01*
X31232Y45268D01*
X31172Y45189D01*
X31143Y45120D01*
X31380D01*
Y45357D01*
D02*
G37*
G36*
X26620Y41357D02*
Y41120D01*
X26857D01*
X26828Y41189D01*
X26768Y41268D01*
X26689Y41328D01*
X26620Y41357D01*
D02*
G37*
G36*
X31857Y44880D02*
X31620D01*
Y44643D01*
X31689Y44672D01*
X31768Y44732D01*
X31828Y44811D01*
X31857Y44880D01*
D02*
G37*
G36*
X23000Y49703D02*
X22863Y49690D01*
X22731Y49650D01*
X22609Y49585D01*
X22503Y49497D01*
X22425Y49403D01*
X22401Y49375D01*
X22352Y49322D01*
X21611Y49302D01*
X21534Y49304D01*
X21480Y49360D01*
X21426Y49426D01*
X21426Y49426D01*
X21335Y49501D01*
X21231Y49557D01*
X21120Y49591D01*
Y49000D01*
Y48409D01*
X21231Y48443D01*
X21335Y48499D01*
X21426Y48574D01*
X21426Y48574D01*
X21480Y48640D01*
X21534Y48696D01*
X21611Y48698D01*
X22109Y48685D01*
X22185Y48668D01*
X22412Y48610D01*
X22503Y48503D01*
X22609Y48415D01*
X22609Y48415D01*
X22731Y48350D01*
X22731Y48350D01*
X22863Y48310D01*
X22863Y48310D01*
X23000Y48297D01*
X23000Y48297D01*
X23137Y48310D01*
X23269Y48350D01*
X23391Y48415D01*
X23497Y48503D01*
X23585Y48609D01*
X23650Y48731D01*
X23690Y48863D01*
X23703Y49000D01*
X23690Y49137D01*
X23650Y49269D01*
X23585Y49391D01*
X23497Y49497D01*
X23391Y49585D01*
X23269Y49650D01*
X23137Y49690D01*
X23000Y49703D01*
D02*
G37*
G36*
X20880Y49591D02*
X20769Y49557D01*
X20769Y49557D01*
X20769Y49557D01*
X20665Y49501D01*
X20574Y49426D01*
X20499Y49335D01*
X20443Y49231D01*
X20443Y49231D01*
X20409Y49120D01*
X20880D01*
Y49591D01*
D02*
G37*
G36*
X31620Y45357D02*
Y45120D01*
X31857D01*
X31828Y45189D01*
X31768Y45268D01*
X31689Y45328D01*
X31620Y45357D01*
D02*
G37*
G36*
X20880Y48880D02*
X20409D01*
X20443Y48769D01*
X20499Y48665D01*
X20574Y48574D01*
X20665Y48499D01*
X20769Y48443D01*
X20880Y48409D01*
Y48880D01*
D02*
G37*
G36*
X33120Y25857D02*
Y25620D01*
X33357D01*
X33328Y25689D01*
X33268Y25768D01*
X33189Y25828D01*
X33120Y25857D01*
D02*
G37*
G36*
X38350Y27353D02*
X38350Y27353D01*
X38259Y27341D01*
X38259Y27341D01*
X38173Y27306D01*
X38173Y27306D01*
X38100Y27250D01*
X38100Y27250D01*
X38044Y27177D01*
X38044Y27176D01*
X38021Y27120D01*
X38380D01*
Y27353D01*
X38350D01*
D02*
G37*
G36*
X32880Y25380D02*
X32643D01*
X32672Y25311D01*
X32732Y25232D01*
X32811Y25172D01*
X32880Y25143D01*
Y25380D01*
D02*
G37*
G36*
Y25857D02*
X32811Y25828D01*
X32732Y25768D01*
X32672Y25689D01*
X32643Y25620D01*
X32880D01*
Y25857D01*
D02*
G37*
G36*
X26380Y40880D02*
X26143D01*
X26172Y40811D01*
X26232Y40732D01*
X26311Y40672D01*
X26380Y40643D01*
Y40880D01*
D02*
G37*
G36*
Y41357D02*
X26311Y41328D01*
X26232Y41268D01*
X26172Y41189D01*
X26143Y41120D01*
X26380D01*
Y41357D01*
D02*
G37*
G36*
X22895Y28895D02*
X22620D01*
Y28620D01*
X22895D01*
Y28895D01*
D02*
G37*
G36*
X26857Y40880D02*
X26620D01*
Y40643D01*
X26689Y40672D01*
X26768Y40732D01*
X26828Y40811D01*
X26857Y40880D01*
D02*
G37*
%LPD*%
G54D10*
X31500Y7000D02*
X33000Y8500D01*
Y12500D01*
X31500Y14000D02*
X33000Y12500D01*
X29000Y14000D02*
X31500D01*
X28000Y13000D02*
X29000Y14000D01*
X28000Y12500D02*
Y13000D01*
X32500Y14500D02*
X34000Y13000D01*
X28500Y14500D02*
X32500D01*
X27000Y13000D02*
X28500Y14500D01*
X34000Y8500D02*
Y13000D01*
X33500Y19500D02*
X35500D01*
X33500Y20500D02*
X35500D01*
X33500Y21500D02*
X35500D01*
X6500Y17000D02*
X9500D01*
X5250Y15750D02*
X6500Y17000D01*
X4053Y15750D02*
X5250D01*
X7000Y15500D02*
X8000D01*
X5514Y14014D02*
X7000Y15500D01*
X5293Y14014D02*
X5514D01*
X6500Y11500D02*
X9500D01*
X5250Y10250D02*
X6500Y11500D01*
X4053Y10250D02*
X5250D01*
X7000Y10000D02*
X8000D01*
X5514Y8514D02*
X7000Y10000D01*
X5293Y8514D02*
X5514D01*
X6500Y6000D02*
X9500D01*
X5250Y4750D02*
X6500Y6000D01*
X4053Y4750D02*
X5250D01*
X27980Y8480D02*
X31500Y12000D01*
X27980Y8260D02*
Y8480D01*
X32000Y4000D02*
Y6500D01*
X31500Y7000D02*
X32000Y6500D01*
X25500Y12500D02*
X27000D01*
X23000Y10000D02*
X25500Y12500D01*
X36000Y8000D02*
X37000Y9000D01*
X34500Y8000D02*
X36000D01*
X34000Y8500D02*
X34500Y8000D01*
X27000Y12500D02*
Y13000D01*
X23000Y9000D02*
Y10000D01*
X31000Y18000D02*
X31500Y17500D01*
X35000Y14000D01*
X25500Y17500D02*
X31500D01*
X31000Y18000D02*
Y39000D01*
X35000Y9000D02*
Y14000D01*
X37200Y16200D01*
Y20000D01*
X38000D02*
X38500Y20500D01*
Y21000D01*
X34000Y32000D02*
X35500Y30500D01*
X34000Y32000D02*
Y39000D01*
X33000Y30000D02*
X35500Y27500D01*
X33000Y30000D02*
Y39000D01*
X38500Y25000D02*
Y26000D01*
X38000Y24500D02*
X38500Y25000D01*
X35500Y24500D02*
X37200D01*
X25500Y44500D02*
X31000Y39000D01*
X25500Y44500D02*
Y46000D01*
X25500Y28500D02*
Y28500D01*
X24700Y29300D02*
X25500Y28500D01*
X24700Y29300D02*
Y46000D01*
X23000D02*
X24500D01*
X2813Y3014D02*
X4327Y1500D01*
X7000D01*
X8000Y2500D01*
X11000D01*
X11500Y2000D01*
X5293Y3014D02*
X5514D01*
X7000Y4500D01*
X8000D01*
X10000D01*
X12500Y2000D01*
X2813Y8514D02*
X4327Y7000D01*
X7000D01*
X8000Y8000D01*
X11000D01*
X11500Y7500D01*
X8000Y10000D02*
X10000D01*
X12500Y7500D01*
X2813Y14014D02*
X4327Y12500D01*
X7000D01*
X8000Y13500D01*
X11000D01*
X11500Y13000D01*
X8000Y15500D02*
X10000D01*
X12500Y13000D01*
X2813Y19514D02*
X4327Y18000D01*
X7000D01*
X8000Y19000D01*
X11000D01*
X11500Y18500D01*
X5293Y19514D02*
X6780Y21000D01*
X8000D01*
X10000D01*
X12500Y18500D01*
X2813Y25014D02*
X4327Y23500D01*
X7000D01*
X8000Y24500D01*
X11000D01*
X11500Y24000D01*
X5293Y25014D02*
X6780Y26500D01*
X8000D01*
X10000D01*
X12500Y24000D01*
X2813Y30514D02*
X4327Y29000D01*
X7000D01*
X8000Y30000D01*
X11000D01*
X11500Y29500D01*
X5293Y30514D02*
X5514D01*
X7000Y32000D01*
X8000D01*
X10000D01*
X12500Y29500D01*
X2813Y36014D02*
X4327Y34500D01*
X7000D01*
X8000Y35500D01*
X11000D01*
X11500Y35000D01*
X5293Y36014D02*
X5514D01*
X7000Y37500D01*
X8000D01*
X10000D01*
X12500Y35000D01*
X2813Y47014D02*
X4327Y45500D01*
X2813Y41514D02*
X4327Y40000D01*
X7000D01*
X8000Y41000D01*
X11000D01*
X11500Y40500D01*
X5293Y41514D02*
X6780Y43000D01*
X8000D01*
X10000D01*
X12500Y40500D01*
X5293Y47014D02*
X6780Y48500D01*
X8000D01*
X4327Y45500D02*
X7000D01*
X8000Y46500D01*
X11000D01*
X11500Y46000D01*
X8000Y48500D02*
X10000D01*
X12500Y46000D01*
X13500Y5000D02*
X15300Y3200D01*
X16000D01*
X13500Y10500D02*
X15300Y8700D01*
X16000D01*
X13500Y16000D02*
X15300Y14200D01*
X16000D01*
X13500Y21500D02*
X15300Y19700D01*
X16000D01*
X13500Y27000D02*
X15300D01*
X16000Y26300D01*
X13500Y32500D02*
X14800D01*
X16000Y31300D01*
X13500Y38000D02*
X14800D01*
X16000Y36800D01*
X13500Y43500D02*
X14800D01*
X16000Y42300D01*
X13500Y49000D02*
X14800D01*
X16000Y47800D01*
X21000Y17000D02*
X22500Y18500D01*
X21000Y9000D02*
Y17000D01*
X22500Y19500D02*
X25500D01*
X21000D02*
X22500D01*
X20000Y18500D02*
X21000Y19500D01*
X20000Y7000D02*
Y18500D01*
X17000Y4000D02*
X20000Y7000D01*
X16000Y4000D02*
X17000D01*
X22500Y20500D02*
X25500D01*
X20500D02*
X22500D01*
X19000Y19000D02*
X20500Y20500D01*
X19000Y12500D02*
Y19000D01*
X16000Y9500D02*
X19000Y12500D01*
X22500Y21500D02*
X25500D01*
X20000D02*
X22500D01*
X18000Y19500D02*
X20000Y21500D01*
X18000Y17000D02*
Y19500D01*
X16000Y15000D02*
X18000Y17000D01*
X22500Y22500D02*
X25500D01*
X19500D02*
X22500D01*
X17500Y20500D02*
X19500Y22500D01*
X16000Y20500D02*
X17500D01*
X16000Y25500D02*
X17500D01*
X19500Y23500D01*
X22500D01*
X25500D01*
X22500Y24500D02*
X25500D01*
X20000D02*
X22500D01*
X17500Y27000D02*
X20000Y24500D01*
X17500Y27000D02*
Y29000D01*
X16000Y30500D02*
X17500Y29000D01*
X16000Y36000D02*
X18500Y33500D01*
Y27500D02*
Y33500D01*
Y27500D02*
X20500Y25500D01*
X22500D01*
X25500D01*
X22500Y27500D02*
X25500D01*
X22500Y26500D02*
X25500D01*
X21000D02*
X22500D01*
X19500Y28000D02*
X21000Y26500D01*
X19500Y28000D02*
Y38000D01*
X16000Y41500D02*
X19500Y38000D01*
X16000Y47000D02*
X20500Y42500D01*
Y28500D02*
Y42500D01*
Y28500D02*
X21500Y27500D01*
X22500D01*
G54D11*
X18000Y2000D02*
D03*
X37500D02*
D03*
Y49000D02*
D03*
X18000D02*
D03*
G54D12*
X13500Y21500D02*
D03*
X12500D02*
D03*
X11500D02*
D03*
Y18500D02*
D03*
X12500D02*
D03*
X13500D02*
D03*
Y49000D02*
D03*
X12500D02*
D03*
X11500D02*
D03*
Y46000D02*
D03*
X12500D02*
D03*
X13500D02*
D03*
Y16000D02*
D03*
X12500D02*
D03*
X11500D02*
D03*
Y13000D02*
D03*
X12500D02*
D03*
X13500D02*
D03*
Y43500D02*
D03*
X12500D02*
D03*
X11500D02*
D03*
Y40500D02*
D03*
X12500D02*
D03*
X13500D02*
D03*
Y10500D02*
D03*
X12500D02*
D03*
X11500D02*
D03*
Y7500D02*
D03*
X12500D02*
D03*
X13500D02*
D03*
Y38000D02*
D03*
X12500D02*
D03*
X11500D02*
D03*
Y35000D02*
D03*
X12500D02*
D03*
X13500D02*
D03*
Y5000D02*
D03*
X12500D02*
D03*
X11500D02*
D03*
Y2000D02*
D03*
X12500D02*
D03*
X13500D02*
D03*
Y32500D02*
D03*
X12500D02*
D03*
X11500D02*
D03*
Y29500D02*
D03*
X12500D02*
D03*
X13500D02*
D03*
Y27000D02*
D03*
X12500D02*
D03*
X11500D02*
D03*
Y24000D02*
D03*
X12500D02*
D03*
X13500D02*
D03*
G54D13*
X5293Y47014D02*
D03*
X2813D02*
D03*
X4053Y48750D02*
D03*
X5293Y41514D02*
D03*
X2813D02*
D03*
X4053Y43250D02*
D03*
X5293Y36014D02*
D03*
X2813D02*
D03*
X4053Y37750D02*
D03*
X5293Y30514D02*
D03*
X2813D02*
D03*
X4053Y32250D02*
D03*
X5293Y25014D02*
D03*
X2813D02*
D03*
X4053Y26750D02*
D03*
X5293Y19514D02*
D03*
X2813D02*
D03*
X4053Y21250D02*
D03*
X5293Y14014D02*
D03*
X2813D02*
D03*
X4053Y15750D02*
D03*
X5293Y8514D02*
D03*
X2813D02*
D03*
X4053Y10250D02*
D03*
X5293Y3014D02*
D03*
X2813D02*
D03*
X4053Y4750D02*
D03*
X27980Y8260D02*
D03*
Y5780D02*
D03*
X26244Y7020D02*
D03*
G54D14*
X22500Y18500D02*
D03*
Y19500D02*
D03*
Y20500D02*
D03*
Y21500D02*
D03*
Y22500D02*
D03*
Y23500D02*
D03*
Y24500D02*
D03*
Y25500D02*
D03*
Y26500D02*
D03*
Y27500D02*
D03*
X23000Y9000D02*
D03*
X22000D02*
D03*
X21000D02*
D03*
X37000D02*
D03*
X36000D02*
D03*
X35000D02*
D03*
X32000Y4000D02*
D03*
Y39000D02*
D03*
X33000D02*
D03*
X34000D02*
D03*
X27000Y12500D02*
D03*
G54D15*
X22500Y28500D02*
D03*
G54D16*
X21000Y49000D02*
D03*
Y46000D02*
D03*
X23000D02*
D03*
Y49000D02*
D03*
G54D17*
X8000Y48500D02*
D03*
Y46500D02*
D03*
Y43000D02*
D03*
Y41000D02*
D03*
Y37500D02*
D03*
Y35500D02*
D03*
Y32000D02*
D03*
Y30000D02*
D03*
Y26500D02*
D03*
Y24500D02*
D03*
Y21000D02*
D03*
Y19000D02*
D03*
Y15500D02*
D03*
Y13500D02*
D03*
Y10000D02*
D03*
Y8000D02*
D03*
Y4500D02*
D03*
Y2500D02*
D03*
G54D18*
X25500Y18500D02*
D03*
X35500D02*
D03*
G54D19*
Y31500D02*
D03*
Y30500D02*
D03*
Y29500D02*
D03*
Y28500D02*
D03*
Y27500D02*
D03*
Y26500D02*
D03*
Y25500D02*
D03*
Y24500D02*
D03*
Y23500D02*
D03*
Y22500D02*
D03*
Y21500D02*
D03*
Y20500D02*
D03*
Y19500D02*
D03*
Y17500D02*
D03*
X25500D02*
D03*
Y19500D02*
D03*
Y20500D02*
D03*
Y21500D02*
D03*
Y22500D02*
D03*
Y23500D02*
D03*
Y24500D02*
D03*
Y25500D02*
D03*
Y26500D02*
D03*
Y27500D02*
D03*
Y28500D02*
D03*
Y29500D02*
D03*
Y30500D02*
D03*
Y31500D02*
D03*
G54D20*
X38500Y21000D02*
D03*
Y22000D02*
D03*
X38500Y26000D02*
D03*
Y27000D02*
D03*
G54D21*
X24000Y9000D02*
D03*
X38000D02*
D03*
X31000Y4000D02*
D03*
Y39000D02*
D03*
X28000Y12500D02*
D03*
G54D22*
X31500Y12000D02*
D03*
Y7000D02*
D03*
G54D23*
X20500Y2500D02*
D03*
X24000Y13500D02*
D03*
X33000Y25500D02*
D03*
X31500Y45000D02*
D03*
X26500Y41000D02*
D03*
X33500Y19500D02*
D03*
Y20500D02*
D03*
Y21500D02*
D03*
X9500Y11500D02*
D03*
Y17000D02*
D03*
Y6000D02*
D03*
G54D24*
X37200Y20000D02*
D03*
X38000D02*
D03*
X37200Y24500D02*
D03*
X38000D02*
D03*
X24700Y46000D02*
D03*
X25500D02*
D03*
G54D25*
X16000Y4000D02*
D03*
Y3200D02*
D03*
X16000Y19700D02*
D03*
Y20500D02*
D03*
X16000Y9500D02*
D03*
Y8700D02*
D03*
X16000Y15000D02*
D03*
Y14200D02*
D03*
Y25500D02*
D03*
Y26300D02*
D03*
Y30500D02*
D03*
Y31300D02*
D03*
Y36000D02*
D03*
Y36800D02*
D03*
Y41500D02*
D03*
Y42300D02*
D03*
Y47000D02*
D03*
Y47800D02*
D03*
M02*
