M48
;Layer_Color=9474304
;FILE_FORMAT=2:4
INCH,TZ
;TYPE=PLATED
T1F00S00C0.0240
T2F00S00C0.0280
T3F00S00C0.0320
T4F00S00C0.0354
T5F00S00C0.0360
T6F00S00C0.0394
T7F00S00C0.0400
T8F00S00C0.1102
T9F00S00C0.1220
%
T01
X2742Y19331
Y20331
T02
X11673Y4163
X-760Y12539
T03
X9240Y-21169
Y-18169
X13701Y-19142
Y-20142
X3780Y-21024
Y-18024
X3742Y15331
X4742
T04
X3742Y-23669
X4742
X3742Y-14169
Y-13169
X13242Y14831
Y15831
Y16831
Y17831
X6242Y19331
X5242
T05
X-2758Y-26669
X13701Y-17642
Y-13642
X-2758Y-14669
Y-16669
Y-20669
Y-22669
Y-10669
Y-8669
Y-4669
Y-2669
Y1331
Y3331
X10242Y15331
X9242Y17831
X6242Y15331
X-2758
Y13331
Y9331
Y7331
Y19331
Y21331
Y25331
X9242Y21831
T06
X-7258Y-26169
X-6258
X-5258
Y-23169
X-6258
X-7258
Y-20169
X-6258
X-5258
Y-17169
X-6258
X-7258
Y-14169
X-6258
X-5258
Y-11169
X-6258
X-7258
Y-8169
X-6258
X-5258
Y-5169
X-6258
X-7258
Y-2169
X-6258
X-5258
Y831
X-6258
X-7258
Y3831
X-6258
X-5258
Y6831
X-6258
X-7258
Y9831
X-6258
X-5258
Y12831
X-6258
X-7258
Y15831
X-6258
X-5258
Y18831
X-6258
X-7258
Y21831
X-6258
X-5258
Y24831
X-6258
X-7258
T07
X3742Y-6169
Y-5169
Y-4169
Y-3169
Y-2169
Y-1169
Y-169
Y831
Y1831
Y2831
Y3831
Y4831
X13742
Y3831
Y2831
Y1831
Y831
Y-169
Y-1169
Y-2169
Y-3169
Y-4169
Y-5169
Y-6169
Y5831
Y6831
Y7831
X3742
Y6831
Y5831
T08
X9230Y-27890
X10967Y-26650
X9230Y-25409
X-11998Y-24157
X-14478
X-13238Y-25894
Y-19894
X-11998Y-18157
X-14478
X-13238Y-13894
X-11998Y-12157
X-14478
X-13238Y-7894
X-11998Y-6157
X-14478
X-13238Y-1894
X-11998Y-157
X-14478
X-13238Y4106
X-11998Y5843
X-14478
X-13238Y10106
X-11998Y11843
X-14478
X-13238Y16106
X-11998Y17843
X-14478
X-13238Y22106
X-11998Y23843
X-14478
T09
X-14232Y-28031
X13720
X-14232Y27087
X13720
M30
