G04 Layer_Physical_Order=1*
G04 Layer_Color=255*
%FSLAX24Y24*%
%MOIN*%
G70*
G01*
G75*
%ADD10C,0.0315*%
%ADD11C,0.2362*%
%ADD12C,0.0630*%
%ADD13C,0.1575*%
%ADD14C,0.0591*%
%ADD15R,0.0591X0.0591*%
%ADD16C,0.1000*%
%ADD17O,0.1000X0.0500*%
%ADD18R,0.0620X0.0620*%
%ADD19C,0.0620*%
%ADD20O,0.0800X0.0500*%
%ADD21R,0.0591X0.0591*%
%ADD22O,0.1500X0.1200*%
%ADD23C,0.0551*%
G36*
X36856Y50288D02*
X36836Y50213D01*
X36686Y50121D01*
X36520Y49980D01*
X36379Y49814D01*
X36266Y49629D01*
X36182Y49428D01*
X36132Y49217D01*
X36115Y49000D01*
X36132Y48783D01*
X36182Y48572D01*
X36266Y48371D01*
X36379Y48186D01*
X36520Y48020D01*
X36686Y47879D01*
X36871Y47766D01*
X37072Y47682D01*
X37283Y47632D01*
X37500Y47615D01*
X37717Y47632D01*
X37928Y47682D01*
X38129Y47766D01*
X38314Y47879D01*
X38480Y48020D01*
X38621Y48186D01*
X38713Y48336D01*
X38788Y48356D01*
X39500Y48162D01*
Y27743D01*
X39295Y27575D01*
X38748Y27344D01*
X38713Y27345D01*
X38650Y27353D01*
X38650Y27353D01*
X38620D01*
Y27000D01*
X38500D01*
Y26880D01*
X37986D01*
X37928Y26241D01*
X37916Y26154D01*
X37912Y26117D01*
X37896Y26000D01*
X37896Y26000D01*
X37912Y25883D01*
X37912Y25883D01*
X37912Y25883D01*
X37957Y25773D01*
X37957Y25773D01*
X37957Y25773D01*
X38029Y25679D01*
X38029Y25679D01*
X38123Y25607D01*
X38123Y25607D01*
X38123Y25607D01*
X38233Y25562D01*
X38233Y25562D01*
X38350Y25546D01*
X38350Y25546D01*
X38650Y25546D01*
X38650Y25546D01*
X39324Y25272D01*
X39500Y25140D01*
Y22743D01*
X39295Y22575D01*
X38748Y22344D01*
X38713Y22345D01*
X38650Y22353D01*
X38650Y22353D01*
X38620D01*
Y22000D01*
X38500D01*
Y21880D01*
X37986D01*
X37928Y21241D01*
X37916Y21154D01*
X37912Y21117D01*
X37896Y21000D01*
X37896Y21000D01*
X37912Y20883D01*
X37912Y20883D01*
X37912Y20883D01*
X37957Y20773D01*
X37957Y20773D01*
X37957Y20773D01*
X38029Y20679D01*
X38029Y20679D01*
X38123Y20607D01*
X38123Y20607D01*
X38123Y20607D01*
X38233Y20562D01*
X38233Y20562D01*
X38350Y20546D01*
X38350Y20546D01*
X38650Y20546D01*
X38650Y20546D01*
X39324Y20272D01*
X39500Y20140D01*
Y2838D01*
X38788Y2644D01*
X38713Y2664D01*
X38621Y2814D01*
X38480Y2980D01*
X38314Y3121D01*
X38129Y3234D01*
X37928Y3318D01*
X37717Y3368D01*
X37500Y3385D01*
X37283Y3368D01*
X37072Y3318D01*
X36871Y3234D01*
X36686Y3121D01*
X36520Y2980D01*
X36379Y2814D01*
X36266Y2629D01*
X36182Y2428D01*
X36132Y2217D01*
X36115Y2000D01*
X36132Y1783D01*
X36182Y1572D01*
X36266Y1371D01*
X36379Y1186D01*
X36520Y1020D01*
X36686Y879D01*
X36836Y787D01*
X36856Y712D01*
X36662Y0D01*
X18838D01*
X18644Y712D01*
X18664Y787D01*
X18814Y879D01*
X18980Y1020D01*
X19121Y1186D01*
X19234Y1371D01*
X19318Y1572D01*
X19368Y1783D01*
X19385Y2000D01*
X19368Y2217D01*
X19318Y2428D01*
X19234Y2629D01*
X19121Y2814D01*
X18980Y2980D01*
X18814Y3121D01*
X18629Y3234D01*
X18428Y3318D01*
X18217Y3368D01*
X18000Y3385D01*
X17783Y3368D01*
X17572Y3318D01*
X17371Y3234D01*
X17186Y3121D01*
X17020Y2980D01*
X16879Y2814D01*
X16766Y2629D01*
X16682Y2428D01*
X16632Y2217D01*
X16615Y2000D01*
X16632Y1783D01*
X16682Y1572D01*
X16766Y1371D01*
X16879Y1186D01*
X17020Y1020D01*
X17186Y879D01*
X17336Y787D01*
X17356Y712D01*
X17162Y0D01*
X2000D01*
Y1436D01*
X2113Y1608D01*
X2227Y1706D01*
X2787Y2024D01*
X2813Y2022D01*
X3007Y2041D01*
X3193Y2097D01*
X3364Y2189D01*
X3515Y2312D01*
X3638Y2463D01*
X3805Y2501D01*
X4301D01*
X4468Y2463D01*
X4592Y2312D01*
X4742Y2189D01*
X4914Y2097D01*
X5100Y2041D01*
X5293Y2022D01*
X5487Y2041D01*
X5673Y2097D01*
X5845Y2189D01*
X5995Y2312D01*
X6118Y2463D01*
X6210Y2634D01*
X6266Y2820D01*
X6285Y3014D01*
X6266Y3207D01*
X6210Y3393D01*
X6118Y3565D01*
X5995Y3715D01*
X5845Y3839D01*
X5673Y3930D01*
X5634Y3942D01*
X5473Y4046D01*
X5174Y4388D01*
X5160Y4405D01*
X5045Y4750D01*
X5043Y4773D01*
X5026Y4944D01*
X4970Y5130D01*
X4878Y5301D01*
X4755Y5452D01*
X4604Y5575D01*
X4433Y5667D01*
X4247Y5723D01*
X4053Y5742D01*
X3860Y5723D01*
X3673Y5667D01*
X3502Y5575D01*
X3352Y5452D01*
X3228Y5301D01*
X3137Y5130D01*
X3080Y4944D01*
X3072Y4862D01*
X2727Y4641D01*
X2000Y5038D01*
Y6936D01*
X2113Y7108D01*
X2227Y7206D01*
X2787Y7524D01*
X2813Y7522D01*
X3007Y7541D01*
X3193Y7597D01*
X3364Y7689D01*
X3515Y7812D01*
X3638Y7963D01*
X3805Y8001D01*
X4301D01*
X4468Y7963D01*
X4592Y7812D01*
X4742Y7689D01*
X4914Y7597D01*
X5100Y7541D01*
X5293Y7522D01*
X5487Y7541D01*
X5673Y7597D01*
X5845Y7689D01*
X5995Y7812D01*
X6118Y7963D01*
X6210Y8134D01*
X6266Y8320D01*
X6285Y8514D01*
X6266Y8707D01*
X6210Y8893D01*
X6118Y9065D01*
X5995Y9215D01*
X5845Y9339D01*
X5673Y9430D01*
X5634Y9442D01*
X5473Y9546D01*
X5174Y9888D01*
X5160Y9905D01*
X5045Y10250D01*
X5043Y10273D01*
X5026Y10444D01*
X4970Y10630D01*
X4878Y10801D01*
X4755Y10952D01*
X4604Y11075D01*
X4433Y11167D01*
X4247Y11223D01*
X4053Y11242D01*
X3860Y11223D01*
X3673Y11167D01*
X3502Y11075D01*
X3352Y10952D01*
X3228Y10801D01*
X3137Y10630D01*
X3080Y10444D01*
X3072Y10362D01*
X2727Y10141D01*
X2000Y10538D01*
Y12436D01*
X2113Y12608D01*
X2227Y12706D01*
X2787Y13024D01*
X2813Y13022D01*
X3007Y13041D01*
X3193Y13097D01*
X3364Y13189D01*
X3515Y13312D01*
X3638Y13463D01*
X3805Y13501D01*
X4301D01*
X4468Y13463D01*
X4592Y13312D01*
X4742Y13189D01*
X4914Y13097D01*
X5100Y13041D01*
X5293Y13022D01*
X5487Y13041D01*
X5673Y13097D01*
X5845Y13189D01*
X5995Y13312D01*
X6118Y13463D01*
X6210Y13634D01*
X6266Y13820D01*
X6285Y14014D01*
X6266Y14207D01*
X6210Y14393D01*
X6118Y14565D01*
X5995Y14715D01*
X5845Y14839D01*
X5673Y14930D01*
X5634Y14942D01*
X5473Y15046D01*
X5174Y15388D01*
X5160Y15405D01*
X5045Y15750D01*
X5043Y15773D01*
X5026Y15944D01*
X4970Y16130D01*
X4878Y16301D01*
X4755Y16452D01*
X4604Y16575D01*
X4433Y16667D01*
X4247Y16723D01*
X4053Y16742D01*
X3860Y16723D01*
X3673Y16667D01*
X3502Y16575D01*
X3352Y16452D01*
X3228Y16301D01*
X3137Y16130D01*
X3080Y15944D01*
X3072Y15862D01*
X2727Y15641D01*
X2000Y16038D01*
Y17936D01*
X2113Y18108D01*
X2227Y18206D01*
X2787Y18524D01*
X2813Y18522D01*
X3007Y18541D01*
X3193Y18597D01*
X3364Y18689D01*
X3515Y18812D01*
X3638Y18963D01*
X3805Y19001D01*
X4301D01*
X4468Y18963D01*
X4592Y18812D01*
X4742Y18689D01*
X4914Y18597D01*
X5100Y18541D01*
X5293Y18522D01*
X5487Y18541D01*
X5673Y18597D01*
X5845Y18689D01*
X5995Y18812D01*
X6118Y18963D01*
X6210Y19134D01*
X6266Y19320D01*
X6285Y19514D01*
X6266Y19707D01*
X6210Y19893D01*
X6118Y20065D01*
X5995Y20215D01*
X5845Y20339D01*
X5673Y20430D01*
X5634Y20442D01*
X5473Y20546D01*
X5174Y20888D01*
X5160Y20905D01*
X5045Y21250D01*
X5043Y21273D01*
X5026Y21444D01*
X4970Y21630D01*
X4878Y21801D01*
X4755Y21952D01*
X4604Y22075D01*
X4433Y22167D01*
X4247Y22223D01*
X4053Y22242D01*
X3860Y22223D01*
X3673Y22167D01*
X3502Y22075D01*
X3352Y21952D01*
X3228Y21801D01*
X3137Y21630D01*
X3080Y21444D01*
X3072Y21362D01*
X2727Y21141D01*
X2000Y21538D01*
Y23436D01*
X2113Y23608D01*
X2227Y23706D01*
X2787Y24024D01*
X2813Y24022D01*
X3007Y24041D01*
X3193Y24097D01*
X3364Y24189D01*
X3515Y24312D01*
X3638Y24463D01*
X3805Y24501D01*
X4301D01*
X4468Y24463D01*
X4592Y24312D01*
X4742Y24189D01*
X4914Y24097D01*
X5100Y24041D01*
X5293Y24022D01*
X5487Y24041D01*
X5673Y24097D01*
X5845Y24189D01*
X5995Y24312D01*
X6118Y24463D01*
X6210Y24634D01*
X6266Y24820D01*
X6285Y25014D01*
X6266Y25207D01*
X6210Y25393D01*
X6118Y25565D01*
X6018Y25688D01*
X5995Y25715D01*
X5995Y25715D01*
X5845Y25839D01*
X5473Y26127D01*
X5300Y26278D01*
X5281Y26313D01*
X5226Y26419D01*
X5026Y26944D01*
X4970Y27130D01*
X4878Y27301D01*
X4755Y27452D01*
X4604Y27575D01*
X4433Y27667D01*
X4247Y27723D01*
X4053Y27742D01*
X3860Y27723D01*
X3673Y27667D01*
X3502Y27575D01*
X3352Y27452D01*
X3228Y27301D01*
X3137Y27130D01*
X3080Y26944D01*
X3072Y26862D01*
X2727Y26641D01*
X2000Y27038D01*
Y28936D01*
X2113Y29108D01*
X2227Y29206D01*
X2787Y29524D01*
X2813Y29522D01*
X3007Y29541D01*
X3193Y29597D01*
X3364Y29689D01*
X3515Y29812D01*
X3638Y29963D01*
X3805Y30001D01*
X4301D01*
X4468Y29963D01*
X4592Y29812D01*
X4742Y29689D01*
X4914Y29597D01*
X5100Y29541D01*
X5293Y29522D01*
X5487Y29541D01*
X5673Y29597D01*
X5845Y29689D01*
X5995Y29812D01*
X6118Y29963D01*
X6210Y30134D01*
X6266Y30320D01*
X6285Y30514D01*
X6266Y30707D01*
X6210Y30893D01*
X6118Y31065D01*
X5995Y31215D01*
X5845Y31339D01*
X5673Y31430D01*
X5634Y31442D01*
X5473Y31546D01*
X5174Y31888D01*
X5160Y31905D01*
X5045Y32250D01*
X5043Y32273D01*
X5026Y32444D01*
X4970Y32630D01*
X4878Y32801D01*
X4755Y32952D01*
X4604Y33075D01*
X4433Y33167D01*
X4247Y33223D01*
X4053Y33242D01*
X3860Y33223D01*
X3673Y33167D01*
X3502Y33075D01*
X3352Y32952D01*
X3228Y32801D01*
X3137Y32630D01*
X3080Y32444D01*
X2992Y32212D01*
X2787Y32107D01*
X2000Y32538D01*
Y34436D01*
X2113Y34608D01*
X2227Y34706D01*
X2787Y35024D01*
X2813Y35022D01*
X3007Y35041D01*
X3193Y35097D01*
X3364Y35189D01*
X3515Y35312D01*
X3638Y35463D01*
X3805Y35501D01*
X4301D01*
X4468Y35463D01*
X4592Y35312D01*
X4742Y35189D01*
X4914Y35097D01*
X5100Y35041D01*
X5293Y35022D01*
X5487Y35041D01*
X5673Y35097D01*
X5845Y35189D01*
X5995Y35312D01*
X6118Y35463D01*
X6210Y35634D01*
X6266Y35820D01*
X6285Y36014D01*
X6266Y36207D01*
X6210Y36393D01*
X6118Y36565D01*
X6018Y36688D01*
X5995Y36715D01*
X5995Y36715D01*
X5845Y36839D01*
X5473Y37127D01*
X5300Y37278D01*
X5281Y37313D01*
X5226Y37419D01*
X5026Y37944D01*
X4970Y38130D01*
X4878Y38301D01*
X4755Y38452D01*
X4604Y38575D01*
X4433Y38667D01*
X4247Y38723D01*
X4053Y38742D01*
X3860Y38723D01*
X3673Y38667D01*
X3502Y38575D01*
X3352Y38452D01*
X3228Y38301D01*
X3137Y38130D01*
X3080Y37944D01*
X3072Y37862D01*
X2727Y37641D01*
X2000Y38038D01*
Y39936D01*
X2113Y40108D01*
X2227Y40206D01*
X2787Y40524D01*
X2813Y40522D01*
X3007Y40541D01*
X3193Y40597D01*
X3364Y40689D01*
X3515Y40812D01*
X3638Y40963D01*
X3805Y41001D01*
X4301D01*
X4468Y40963D01*
X4592Y40812D01*
X4742Y40689D01*
X4914Y40597D01*
X5100Y40541D01*
X5293Y40522D01*
X5487Y40541D01*
X5673Y40597D01*
X5845Y40689D01*
X5995Y40812D01*
X6118Y40963D01*
X6210Y41134D01*
X6266Y41320D01*
X6285Y41514D01*
X6266Y41707D01*
X6210Y41893D01*
X6118Y42065D01*
X5995Y42215D01*
X5845Y42339D01*
X5673Y42430D01*
X5634Y42442D01*
X5473Y42546D01*
X5174Y42888D01*
X5160Y42905D01*
X5045Y43250D01*
X5043Y43273D01*
X5026Y43444D01*
X4970Y43630D01*
X4878Y43801D01*
X4755Y43952D01*
X4604Y44075D01*
X4433Y44167D01*
X4247Y44223D01*
X4053Y44242D01*
X3860Y44223D01*
X3673Y44167D01*
X3502Y44075D01*
X3352Y43952D01*
X3228Y43801D01*
X3137Y43630D01*
X3080Y43444D01*
X3072Y43362D01*
X2727Y43141D01*
X2000Y43538D01*
Y45436D01*
X2113Y45608D01*
X2227Y45706D01*
X2787Y46024D01*
X2813Y46022D01*
X3007Y46041D01*
X3193Y46097D01*
X3364Y46189D01*
X3515Y46312D01*
X3638Y46463D01*
X3805Y46501D01*
X4301D01*
X4468Y46463D01*
X4592Y46312D01*
X4742Y46189D01*
X4914Y46097D01*
X5100Y46041D01*
X5293Y46022D01*
X5487Y46041D01*
X5673Y46097D01*
X5845Y46189D01*
X5995Y46312D01*
X6118Y46463D01*
X6210Y46634D01*
X6266Y46820D01*
X6285Y47014D01*
X6266Y47207D01*
X6210Y47393D01*
X6118Y47565D01*
X5995Y47715D01*
X5845Y47839D01*
X5673Y47930D01*
X5634Y47942D01*
X5473Y48046D01*
X5174Y48388D01*
X5160Y48405D01*
X5045Y48750D01*
X5043Y48773D01*
X5026Y48944D01*
X4970Y49130D01*
X4878Y49301D01*
X4755Y49452D01*
X4604Y49575D01*
X4433Y49667D01*
X4247Y49723D01*
X4053Y49742D01*
X3860Y49723D01*
X3673Y49667D01*
X3502Y49575D01*
X3352Y49452D01*
X3228Y49301D01*
X3137Y49130D01*
X3080Y48944D01*
X3072Y48862D01*
X2727Y48641D01*
X2000Y49038D01*
Y51000D01*
X17162D01*
X17356Y50288D01*
X17336Y50213D01*
X17186Y50121D01*
X17020Y49980D01*
X16879Y49814D01*
X16766Y49629D01*
X16682Y49428D01*
X16632Y49217D01*
X16615Y49000D01*
X16632Y48783D01*
X16682Y48572D01*
X16766Y48371D01*
X16879Y48186D01*
X17020Y48020D01*
X17186Y47879D01*
X17371Y47766D01*
X17572Y47682D01*
X17783Y47632D01*
X18000Y47615D01*
X18217Y47632D01*
X18428Y47682D01*
X18629Y47766D01*
X18814Y47879D01*
X18980Y48020D01*
X19121Y48186D01*
X19234Y48371D01*
X19318Y48572D01*
X19368Y48783D01*
X19385Y49000D01*
X19368Y49217D01*
X19318Y49428D01*
X19234Y49629D01*
X19121Y49814D01*
X18980Y49980D01*
X18814Y50121D01*
X18664Y50213D01*
X18644Y50288D01*
X18838Y51000D01*
X36662D01*
X36856Y50288D01*
D02*
G37*
%LPC*%
G36*
X22900Y28380D02*
X22100D01*
X22098Y28346D01*
X22072Y28112D01*
X22017Y27629D01*
Y27629D01*
X22000Y27500D01*
X22009Y27404D01*
X22017Y27318D01*
X22005Y26542D01*
X22005Y26542D01*
X22005Y26542D01*
X22000Y26500D01*
X22009Y26404D01*
X22017Y26318D01*
X22005Y25542D01*
X22005Y25542D01*
X22005Y25542D01*
X22000Y25500D01*
X22009Y25404D01*
X22017Y25318D01*
X22005Y24542D01*
X22005Y24542D01*
X22005Y24542D01*
X22000Y24500D01*
X22009Y24404D01*
X22017Y24318D01*
X22005Y23542D01*
X22000Y23500D01*
X22005Y23458D01*
X22017Y22682D01*
X22000Y22500D01*
X22005Y22458D01*
X22005Y22458D01*
X22017Y22318D01*
X22017Y22133D01*
Y21865D01*
Y21682D01*
X22005Y21542D01*
X22000Y21500D01*
X22005Y21458D01*
X22017Y20682D01*
X22000Y20500D01*
X22005Y20458D01*
X22005Y20458D01*
X22005Y20458D01*
X22017Y19682D01*
X22000Y19500D01*
X22005Y19448D01*
X22012Y19000D01*
X22007Y18654D01*
X22005Y18552D01*
X22000Y18500D01*
X22000D01*
X22017Y18371D01*
X22017Y18371D01*
X22067Y18250D01*
X22067Y18250D01*
X22102Y18205D01*
X22102Y18205D01*
X22147Y18147D01*
X22147D01*
X22192Y18112D01*
Y18112D01*
X22192Y18112D01*
X22250Y18067D01*
X22371Y18017D01*
X22371Y18017D01*
X22427Y18010D01*
X22500Y18000D01*
X22556Y18008D01*
X22564Y18009D01*
X22629Y18017D01*
X22629Y18017D01*
X22682Y18039D01*
X22682D01*
X22750Y18067D01*
X22750D01*
X22795Y18102D01*
X22795D01*
X22853Y18147D01*
X22853D01*
X22888Y18192D01*
X22888Y18192D01*
X22933Y18250D01*
X22933Y18250D01*
X22954Y18303D01*
X22954Y18303D01*
X22983Y18371D01*
X22983Y18371D01*
X23000Y18500D01*
X23000Y18500D01*
X22995Y18542D01*
X22991Y18755D01*
X22983Y19318D01*
X23000Y19500D01*
X22995Y19542D01*
X22995Y19542D01*
X22995Y19542D01*
X22983Y20318D01*
X23000Y20500D01*
X22995Y20542D01*
X22995Y20542D01*
X22995Y20542D01*
X22983Y21318D01*
X23000Y21500D01*
X22995Y21542D01*
X22995Y21542D01*
X22995Y21542D01*
X22983Y22318D01*
X23000Y22500D01*
X22995Y22542D01*
X22995Y22542D01*
X22995Y22542D01*
X22983Y23318D01*
X23000Y23500D01*
X22995Y23542D01*
X22995Y23542D01*
X22995Y23542D01*
X22983Y24318D01*
X23000Y24500D01*
X22995Y24542D01*
X22995Y24542D01*
X22995Y24542D01*
X22983Y25318D01*
X23000Y25500D01*
X22995Y25542D01*
X22995Y25542D01*
X22983Y25682D01*
X22983Y25867D01*
Y26135D01*
Y26318D01*
X22995Y26458D01*
X23000Y26500D01*
X22995Y26542D01*
X22983Y26682D01*
Y27000D01*
Y27318D01*
X22995Y27458D01*
X23000Y27500D01*
X22983Y27629D01*
X22902Y28346D01*
X22900Y28380D01*
D02*
G37*
G36*
X25500Y32014D02*
X25469Y32010D01*
X25469D01*
X25367Y31997D01*
X25338Y31985D01*
X25338D01*
X25272Y31957D01*
X25243Y31946D01*
X25161Y31883D01*
Y31883D01*
X25136Y31864D01*
X25073Y31782D01*
X25073D01*
X25054Y31757D01*
X25054Y31757D01*
X25003Y31633D01*
X25003Y31633D01*
X24986Y31500D01*
X24986Y31500D01*
X24990Y31469D01*
X24990Y31469D01*
X25003Y31367D01*
X25003Y31367D01*
X25054Y31243D01*
Y31243D01*
X25054Y31243D01*
X25070Y31218D01*
Y31218D01*
X25136Y31114D01*
X25136Y30886D01*
X25054Y30757D01*
X25054Y30757D01*
X25003Y30633D01*
X24986Y30500D01*
X25003Y30367D01*
X25054Y30243D01*
X25054Y30243D01*
X25100Y30171D01*
X25136Y30114D01*
X25136Y29886D01*
X25054Y29757D01*
X25054Y29757D01*
X25003Y29633D01*
X24986Y29500D01*
X25003Y29367D01*
X25054Y29243D01*
X25054Y29243D01*
X25100Y29171D01*
X25136Y29114D01*
X25136Y28886D01*
X25054Y28757D01*
X25054Y28757D01*
X25003Y28633D01*
X24986Y28500D01*
X24986Y28500D01*
X25003Y28367D01*
X25054Y28243D01*
X25054Y28243D01*
X25100Y28171D01*
X25136Y28114D01*
X25136Y27886D01*
X25054Y27757D01*
X25054Y27757D01*
X25003Y27633D01*
X24986Y27500D01*
X24986Y27500D01*
X25003Y27367D01*
X25054Y27243D01*
X25054Y27243D01*
X25100Y27171D01*
X25136Y27114D01*
X25136Y26886D01*
X25054Y26757D01*
X25054Y26757D01*
X25003Y26633D01*
X24986Y26500D01*
X25003Y26367D01*
X25054Y26243D01*
X25054Y26243D01*
X25100Y26171D01*
X25136Y26114D01*
X25136Y25886D01*
X25054Y25757D01*
X25054Y25757D01*
X25003Y25633D01*
X24986Y25500D01*
X24986Y25500D01*
X25003Y25367D01*
X25054Y25243D01*
X25054Y25243D01*
X25100Y25171D01*
X25136Y25114D01*
X25136Y24886D01*
X25054Y24757D01*
X25054Y24757D01*
X25003Y24633D01*
X24986Y24500D01*
X25003Y24367D01*
X25054Y24243D01*
X25054Y24243D01*
X25100Y24171D01*
X25136Y24114D01*
X25136Y23886D01*
X25054Y23757D01*
X25054Y23757D01*
X25003Y23633D01*
X24986Y23500D01*
X24986Y23500D01*
X25003Y23367D01*
X25054Y23243D01*
X25054Y23243D01*
X25100Y23171D01*
X25136Y23114D01*
X25136Y22886D01*
X25054Y22757D01*
X25054Y22757D01*
X25003Y22633D01*
X24986Y22500D01*
X24986Y22500D01*
X25003Y22367D01*
X25054Y22243D01*
X25054Y22243D01*
X25100Y22171D01*
X25136Y22114D01*
X25136Y21886D01*
X25054Y21757D01*
X25054Y21757D01*
X25003Y21633D01*
X24986Y21500D01*
X24986Y21500D01*
X25003Y21367D01*
X25054Y21243D01*
X25054Y21243D01*
X25100Y21171D01*
X25136Y21114D01*
X25136Y20886D01*
X25054Y20757D01*
X25054Y20757D01*
X25003Y20633D01*
X24986Y20500D01*
X25003Y20367D01*
X25054Y20243D01*
X25054Y20243D01*
X25100Y20171D01*
X25136Y20114D01*
X25136Y19886D01*
X25054Y19757D01*
X25054Y19757D01*
X25003Y19633D01*
X24986Y19500D01*
X25003Y19367D01*
X25083Y18649D01*
X25085Y18620D01*
X25915D01*
X25917Y18649D01*
X25997Y19367D01*
X26014Y19500D01*
X25997Y19633D01*
X25946Y19757D01*
X25946Y19757D01*
X25900Y19829D01*
X25864Y19886D01*
Y20114D01*
X25946Y20243D01*
X25946Y20243D01*
X25997Y20367D01*
X26014Y20500D01*
X25997Y20633D01*
X25946Y20757D01*
X25946Y20757D01*
X25900Y20829D01*
X25864Y20886D01*
Y21114D01*
X25946Y21243D01*
X25946Y21243D01*
X25997Y21367D01*
X26014Y21500D01*
X26014Y21500D01*
X25997Y21633D01*
X25946Y21757D01*
X25946Y21757D01*
X25900Y21829D01*
X25864Y21886D01*
Y22114D01*
X25946Y22243D01*
X25946Y22243D01*
X25997Y22367D01*
X26014Y22500D01*
X26014Y22500D01*
X25997Y22633D01*
X25946Y22757D01*
X25946Y22757D01*
X25900Y22829D01*
X25864Y22886D01*
Y23114D01*
X25946Y23243D01*
X25946Y23243D01*
X25997Y23367D01*
X26014Y23500D01*
X26014Y23500D01*
X25997Y23633D01*
X25946Y23757D01*
X25946Y23757D01*
X25900Y23829D01*
X25864Y23886D01*
Y24114D01*
X25946Y24243D01*
X25946Y24243D01*
X25997Y24367D01*
X26014Y24500D01*
X25997Y24633D01*
X25946Y24757D01*
X25946Y24757D01*
X25900Y24829D01*
X25864Y24886D01*
Y25114D01*
X25946Y25243D01*
X25946Y25243D01*
X25997Y25367D01*
X26014Y25500D01*
X26014Y25500D01*
X25997Y25633D01*
X25946Y25757D01*
X25946Y25757D01*
X25900Y25829D01*
X25864Y25886D01*
Y26114D01*
X25946Y26243D01*
X25946Y26243D01*
X25997Y26367D01*
X26014Y26500D01*
X25997Y26633D01*
X25946Y26757D01*
X25946Y26757D01*
X25900Y26829D01*
X25864Y26886D01*
Y27114D01*
X25946Y27243D01*
X25946Y27243D01*
X25997Y27367D01*
X26014Y27500D01*
X26014Y27500D01*
X25997Y27633D01*
X25946Y27757D01*
X25946Y27757D01*
X25900Y27829D01*
X25864Y27886D01*
Y28114D01*
X25946Y28243D01*
X25946Y28243D01*
X25997Y28367D01*
X26014Y28500D01*
X26014Y28500D01*
X25997Y28633D01*
X25946Y28757D01*
X25946Y28757D01*
X25900Y28829D01*
X25864Y28886D01*
Y29114D01*
X25946Y29243D01*
X25946Y29243D01*
X25997Y29367D01*
X26014Y29500D01*
X25997Y29633D01*
X25946Y29757D01*
X25946Y29757D01*
X25900Y29829D01*
X25864Y29886D01*
Y30114D01*
X25946Y30243D01*
X25946Y30243D01*
X25997Y30367D01*
X26014Y30500D01*
X25997Y30633D01*
X25946Y30757D01*
X25946Y30757D01*
X25900Y30829D01*
X25864Y30886D01*
Y31114D01*
X25900Y31171D01*
Y31171D01*
X25946Y31243D01*
X25946Y31243D01*
Y31243D01*
X25997Y31367D01*
X25997Y31367D01*
X26010Y31469D01*
X26010Y31469D01*
X26014Y31500D01*
X26014Y31500D01*
X25997Y31633D01*
X25997Y31633D01*
X25985Y31662D01*
X25985Y31662D01*
X25957Y31728D01*
X25946Y31757D01*
X25946Y31757D01*
X25883Y31839D01*
X25883D01*
X25864Y31864D01*
X25788Y31922D01*
X25757Y31946D01*
X25633Y31997D01*
X25602Y32001D01*
X25602Y32001D01*
X25500Y32014D01*
D02*
G37*
G36*
X8250Y19454D02*
X7950Y19454D01*
X7750D01*
X7750Y19454D01*
X7633Y19438D01*
X7523Y19393D01*
X7429Y19321D01*
X7357Y19227D01*
X7312Y19117D01*
X7296Y19000D01*
X7312Y18883D01*
X7312Y18883D01*
X7357Y18773D01*
X7357Y18773D01*
X7429Y18679D01*
Y18679D01*
X7523Y18607D01*
X7523Y18607D01*
X7633Y18562D01*
X7633Y18562D01*
X7750Y18546D01*
X7750Y18546D01*
X8050Y18546D01*
X8250Y18546D01*
X8250Y18546D01*
X8367Y18562D01*
X8477Y18607D01*
X8571Y18679D01*
X8643Y18773D01*
X8688Y18883D01*
X8704Y19000D01*
X8688Y19117D01*
X8688Y19117D01*
X8643Y19227D01*
Y19227D01*
X8571Y19321D01*
Y19321D01*
X8477Y19393D01*
X8477Y19393D01*
X8367Y19438D01*
X8367Y19438D01*
X8250Y19454D01*
X8250Y19454D01*
X8250Y19454D01*
D02*
G37*
G36*
X35500Y32014D02*
X35469Y32010D01*
X35469D01*
X35367Y31997D01*
X35338Y31985D01*
X35338D01*
X35272Y31957D01*
X35243Y31946D01*
X35161Y31883D01*
Y31883D01*
X35136Y31864D01*
X35073Y31782D01*
X35073D01*
X35054Y31757D01*
X35054Y31757D01*
X35003Y31633D01*
X35003Y31633D01*
X34986Y31500D01*
X34986Y31500D01*
X34990Y31469D01*
X34990Y31469D01*
X35003Y31367D01*
X35003Y31367D01*
X35054Y31243D01*
Y31243D01*
X35054Y31243D01*
X35070Y31218D01*
Y31218D01*
X35136Y31114D01*
X35136Y30886D01*
X35054Y30757D01*
X35054Y30757D01*
X35003Y30633D01*
X34986Y30500D01*
X35003Y30367D01*
X35054Y30243D01*
X35054Y30243D01*
X35100Y30171D01*
X35136Y30114D01*
X35136Y29886D01*
X35054Y29757D01*
X35054Y29757D01*
X35003Y29633D01*
X34986Y29500D01*
X35003Y29367D01*
X35054Y29243D01*
X35054Y29243D01*
X35100Y29171D01*
X35136Y29114D01*
X35136Y28886D01*
X35054Y28757D01*
X35054Y28757D01*
X35003Y28633D01*
X34986Y28500D01*
X35003Y28367D01*
X35054Y28243D01*
X35054Y28243D01*
X35100Y28171D01*
X35136Y28114D01*
X35136Y27886D01*
X35054Y27757D01*
X35054Y27757D01*
X35003Y27633D01*
X34986Y27500D01*
X34986Y27500D01*
X35003Y27367D01*
X35054Y27243D01*
X35054Y27243D01*
X35100Y27171D01*
X35136Y27114D01*
X35136Y26886D01*
X35054Y26757D01*
X35054Y26757D01*
X35003Y26633D01*
X34986Y26500D01*
X35003Y26367D01*
X35054Y26243D01*
X35054Y26243D01*
X35100Y26171D01*
X35136Y26114D01*
X35136Y25886D01*
X35054Y25757D01*
X35054Y25757D01*
X35003Y25633D01*
X34986Y25500D01*
X34986Y25500D01*
X35003Y25367D01*
X35054Y25243D01*
X35054Y25243D01*
X35100Y25171D01*
X35136Y25114D01*
X35136Y24886D01*
X35054Y24757D01*
X35054Y24757D01*
X35003Y24633D01*
X34986Y24500D01*
X35003Y24367D01*
X35054Y24243D01*
X35054Y24243D01*
X35100Y24171D01*
X35136Y24114D01*
X35136Y23886D01*
X35054Y23757D01*
X35054Y23757D01*
X35003Y23633D01*
X34986Y23500D01*
X35003Y23367D01*
X35054Y23243D01*
X35054Y23243D01*
X35100Y23171D01*
X35136Y23114D01*
X35136Y22886D01*
X35054Y22757D01*
X35054Y22757D01*
X35003Y22633D01*
X34986Y22500D01*
X35003Y22367D01*
X35054Y22243D01*
X35054Y22243D01*
X35100Y22171D01*
X35136Y22114D01*
X35136Y21886D01*
X35054Y21757D01*
X35054Y21757D01*
X35003Y21633D01*
X34986Y21500D01*
X34986Y21500D01*
X35003Y21367D01*
X35054Y21243D01*
X35054Y21243D01*
X35100Y21171D01*
X35136Y21114D01*
X35136Y20886D01*
X35054Y20757D01*
X35054Y20757D01*
X35003Y20633D01*
X34986Y20500D01*
X34986Y20500D01*
X35003Y20367D01*
X35054Y20243D01*
X35054Y20243D01*
X35100Y20171D01*
X35136Y20114D01*
X35136Y19886D01*
X35054Y19757D01*
X35054Y19757D01*
X35003Y19633D01*
X34986Y19500D01*
X35003Y19367D01*
X35083Y18649D01*
X35085Y18620D01*
X35915D01*
X35917Y18649D01*
X35997Y19367D01*
X36014Y19500D01*
X35997Y19633D01*
X35946Y19757D01*
X35946Y19757D01*
X35900Y19829D01*
X35864Y19886D01*
Y20114D01*
X35946Y20243D01*
X35946Y20243D01*
X35997Y20367D01*
X36014Y20500D01*
X36014Y20500D01*
X35997Y20633D01*
X35946Y20757D01*
X35946Y20757D01*
X35900Y20829D01*
X35864Y20886D01*
Y21114D01*
X35946Y21243D01*
X35946Y21243D01*
X35997Y21367D01*
X36014Y21500D01*
X36014Y21500D01*
X35997Y21633D01*
X35946Y21757D01*
X35946Y21757D01*
X35900Y21829D01*
X35864Y21886D01*
Y22114D01*
X35946Y22243D01*
X35946Y22243D01*
X35997Y22367D01*
X36014Y22500D01*
X35997Y22633D01*
X35946Y22757D01*
X35946Y22757D01*
X35900Y22829D01*
X35864Y22886D01*
Y23114D01*
X35946Y23243D01*
X35946Y23243D01*
X35997Y23367D01*
X36014Y23500D01*
X35997Y23633D01*
X35946Y23757D01*
X35946Y23757D01*
X35900Y23829D01*
X35864Y23886D01*
Y24114D01*
X35946Y24243D01*
X35946Y24243D01*
X35997Y24367D01*
X36014Y24500D01*
X35997Y24633D01*
X35946Y24757D01*
X35946Y24757D01*
X35900Y24829D01*
X35864Y24886D01*
Y25114D01*
X35946Y25243D01*
X35946Y25243D01*
X35997Y25367D01*
X36014Y25500D01*
X36014Y25500D01*
X35997Y25633D01*
X35946Y25757D01*
X35946Y25757D01*
X35900Y25829D01*
X35864Y25886D01*
Y26114D01*
X35946Y26243D01*
X35946Y26243D01*
X35997Y26367D01*
X36014Y26500D01*
X35997Y26633D01*
X35946Y26757D01*
X35946Y26757D01*
X35900Y26829D01*
X35864Y26886D01*
Y27114D01*
X35946Y27243D01*
X35946Y27243D01*
X35997Y27367D01*
X36014Y27500D01*
X36014Y27500D01*
X35997Y27633D01*
X35946Y27757D01*
X35946Y27757D01*
X35900Y27829D01*
X35864Y27886D01*
Y28114D01*
X35946Y28243D01*
X35946Y28243D01*
X35997Y28367D01*
X36014Y28500D01*
X35997Y28633D01*
X35946Y28757D01*
X35946Y28757D01*
X35900Y28829D01*
X35864Y28886D01*
Y29114D01*
X35946Y29243D01*
X35946Y29243D01*
X35997Y29367D01*
X36014Y29500D01*
X35997Y29633D01*
X35946Y29757D01*
X35946Y29757D01*
X35900Y29829D01*
X35864Y29886D01*
Y30114D01*
X35946Y30243D01*
X35946Y30243D01*
X35997Y30367D01*
X36014Y30500D01*
X35997Y30633D01*
X35946Y30757D01*
X35946Y30757D01*
X35900Y30829D01*
X35864Y30886D01*
Y31114D01*
X35900Y31171D01*
Y31171D01*
X35946Y31243D01*
X35946Y31243D01*
Y31243D01*
X35997Y31367D01*
X35997Y31367D01*
X36010Y31469D01*
X36010Y31469D01*
X36014Y31500D01*
X36014Y31500D01*
X35997Y31633D01*
X35997Y31633D01*
X35985Y31662D01*
X35985Y31662D01*
X35957Y31728D01*
X35946Y31757D01*
X35946Y31757D01*
X35883Y31839D01*
X35883D01*
X35864Y31864D01*
X35788Y31922D01*
X35757Y31946D01*
X35633Y31997D01*
X35602Y32001D01*
X35602Y32001D01*
X35500Y32014D01*
D02*
G37*
G36*
X35915Y18380D02*
X35085D01*
X35083Y18352D01*
X35016Y17748D01*
X35003Y17633D01*
Y17633D01*
X34990Y17531D01*
X34990Y17531D01*
X34986Y17500D01*
X34986Y17500D01*
X35003Y17367D01*
X35003Y17367D01*
X35043Y17272D01*
X35043Y17272D01*
X35054Y17243D01*
X35054Y17243D01*
X35117Y17161D01*
D01*
X35136Y17136D01*
X35136Y17136D01*
X35218Y17073D01*
X35218D01*
X35243Y17054D01*
X35243D01*
X35367Y17003D01*
X35398Y16999D01*
X35398Y16999D01*
X35500Y16986D01*
X35531Y16990D01*
X35633Y17003D01*
X35643Y17007D01*
X35728Y17043D01*
X35728D01*
X35757Y17054D01*
X35757Y17054D01*
X35839Y17117D01*
X35839D01*
X35864Y17136D01*
X35864Y17136D01*
X35927Y17218D01*
X35927Y17218D01*
X35946Y17243D01*
X35946Y17243D01*
X35983Y17333D01*
X35983Y17333D01*
X35997Y17367D01*
X35997Y17367D01*
X36014Y17500D01*
X36014Y17500D01*
X36010Y17531D01*
Y17531D01*
X35997Y17633D01*
Y17633D01*
X35973Y17849D01*
X35917Y18352D01*
X35915Y18380D01*
D02*
G37*
G36*
X23880Y13380D02*
X23643D01*
X23672Y13311D01*
X23732Y13232D01*
X23811Y13172D01*
X23880Y13143D01*
Y13380D01*
D02*
G37*
G36*
X27000Y13000D02*
X27000Y13000D01*
X26871Y12983D01*
X26871Y12983D01*
X26750Y12933D01*
X26750Y12933D01*
X26705Y12898D01*
Y12898D01*
X26647Y12853D01*
X26647Y12853D01*
X26612Y12808D01*
Y12808D01*
X26567Y12750D01*
Y12750D01*
X26517Y12629D01*
X26517Y12629D01*
X26512Y12584D01*
X26500Y12500D01*
X26512Y12416D01*
X26517Y12371D01*
X26517Y12371D01*
X26539Y12318D01*
X26567Y12250D01*
X26567Y12250D01*
X26602Y12205D01*
X26602Y12205D01*
X26647Y12147D01*
Y12147D01*
X26692Y12112D01*
Y12112D01*
X26750Y12067D01*
X26750Y12067D01*
X26871Y12017D01*
X26871Y12017D01*
X27000Y12000D01*
X27000Y12000D01*
X27052Y12001D01*
X27052D01*
X27305Y12002D01*
X27752Y12005D01*
X28111Y12005D01*
X28495D01*
Y12995D01*
X28183D01*
X27752Y12995D01*
X27252Y12998D01*
X27011Y12999D01*
X27000Y13000D01*
D02*
G37*
G36*
X24357Y13380D02*
X24120D01*
Y13143D01*
X24189Y13172D01*
X24189Y13172D01*
X24268Y13232D01*
X24328Y13311D01*
X24357Y13380D01*
D02*
G37*
G36*
X8250Y15954D02*
X7950Y15954D01*
X7750D01*
X7750Y15954D01*
X7633Y15938D01*
X7523Y15893D01*
X7429Y15821D01*
X7357Y15727D01*
X7312Y15617D01*
X7296Y15500D01*
X7312Y15383D01*
X7312Y15383D01*
X7357Y15273D01*
X7357Y15273D01*
X7429Y15179D01*
Y15179D01*
X7523Y15107D01*
X7523Y15107D01*
X7633Y15062D01*
X7633Y15062D01*
X7750Y15046D01*
X7750Y15046D01*
X8050Y15046D01*
X8250Y15046D01*
X8250Y15046D01*
X8367Y15062D01*
X8477Y15107D01*
X8571Y15179D01*
X8643Y15273D01*
X8688Y15383D01*
X8704Y15500D01*
X8688Y15617D01*
X8688Y15617D01*
X8643Y15727D01*
Y15727D01*
X8571Y15821D01*
Y15821D01*
X8477Y15893D01*
X8477Y15893D01*
X8367Y15938D01*
X8367Y15938D01*
X8250Y15954D01*
X8250Y15954D01*
X8250Y15954D01*
D02*
G37*
G36*
Y13954D02*
X7950Y13954D01*
X7750D01*
X7750Y13954D01*
X7633Y13938D01*
X7523Y13893D01*
X7429Y13821D01*
X7357Y13727D01*
X7312Y13617D01*
X7296Y13500D01*
X7312Y13383D01*
X7312Y13383D01*
X7357Y13273D01*
X7357Y13273D01*
X7429Y13179D01*
Y13179D01*
X7523Y13107D01*
X7523Y13107D01*
X7633Y13062D01*
X7633Y13062D01*
X7750Y13046D01*
X7750Y13046D01*
X8050Y13046D01*
X8250Y13046D01*
X8250Y13046D01*
X8367Y13062D01*
X8477Y13107D01*
X8571Y13179D01*
X8643Y13273D01*
X8688Y13383D01*
X8704Y13500D01*
X8688Y13617D01*
X8688Y13617D01*
X8643Y13727D01*
Y13727D01*
X8571Y13821D01*
Y13821D01*
X8477Y13893D01*
X8477Y13893D01*
X8367Y13938D01*
X8367Y13938D01*
X8250Y13954D01*
X8250Y13954D01*
X8250Y13954D01*
D02*
G37*
G36*
Y24954D02*
X7950Y24954D01*
X7750D01*
X7750Y24954D01*
X7633Y24938D01*
X7523Y24893D01*
X7429Y24821D01*
X7357Y24727D01*
X7312Y24617D01*
X7296Y24500D01*
X7312Y24383D01*
X7312Y24383D01*
X7357Y24273D01*
X7357Y24273D01*
X7429Y24179D01*
Y24179D01*
X7523Y24107D01*
X7523Y24107D01*
X7633Y24062D01*
X7633Y24062D01*
X7750Y24046D01*
X7750Y24046D01*
X8050Y24046D01*
X8250Y24046D01*
X8250Y24046D01*
X8367Y24062D01*
X8477Y24107D01*
X8571Y24179D01*
X8643Y24273D01*
X8688Y24383D01*
X8704Y24500D01*
X8688Y24617D01*
X8688Y24617D01*
X8643Y24727D01*
Y24727D01*
X8571Y24821D01*
Y24821D01*
X8477Y24893D01*
X8477Y24893D01*
X8367Y24938D01*
X8367Y24938D01*
X8250Y24954D01*
X8250Y24954D01*
X8250Y24954D01*
D02*
G37*
G36*
X13500Y24519D02*
X13478Y24516D01*
X13366Y24502D01*
X13366Y24502D01*
X13240Y24450D01*
X12634Y24502D01*
X12634Y24502D01*
X12634Y24502D01*
X12500Y24519D01*
X12366Y24502D01*
X12240Y24450D01*
X12240Y24450D01*
X12240Y24450D01*
X12114Y24367D01*
X11886D01*
X11760Y24450D01*
X11760Y24450D01*
X11760D01*
X11655Y24493D01*
X11655D01*
X11634Y24502D01*
X11634Y24502D01*
X11500Y24519D01*
X11500Y24519D01*
X11366Y24502D01*
X11366Y24502D01*
X11261Y24458D01*
X11261Y24458D01*
X11240Y24450D01*
X11240Y24450D01*
X11188Y24410D01*
X11151Y24381D01*
X11133Y24367D01*
X11064Y24278D01*
X11064Y24278D01*
X11050Y24260D01*
X10998Y24134D01*
X10996Y24118D01*
X10981Y24000D01*
X10984Y23978D01*
X10984Y23978D01*
X10998Y23866D01*
X11004Y23851D01*
Y23851D01*
X11042Y23761D01*
X11050Y23740D01*
X11119Y23651D01*
Y23651D01*
X11119D01*
X11133Y23633D01*
Y23633D01*
X11222Y23564D01*
D01*
X11240Y23550D01*
X11240Y23550D01*
X11366Y23498D01*
X11366Y23498D01*
X11388Y23495D01*
X11388Y23495D01*
X11500Y23481D01*
X11500Y23481D01*
X11522Y23484D01*
X11634Y23498D01*
X11634Y23498D01*
X11760Y23550D01*
X12366Y23498D01*
X12366Y23498D01*
X12366Y23498D01*
X12500Y23481D01*
X12634Y23498D01*
X12760Y23550D01*
X12760Y23550D01*
X12760Y23550D01*
X12886Y23633D01*
X13114D01*
X13240Y23550D01*
X13240Y23550D01*
X13240D01*
X13345Y23507D01*
X13345D01*
X13366Y23498D01*
X13366Y23498D01*
X13500Y23481D01*
X13500Y23481D01*
X13634Y23498D01*
X13634Y23498D01*
X13739Y23542D01*
X13739Y23542D01*
X13760Y23550D01*
Y23550D01*
X13849Y23619D01*
Y23619D01*
X13867Y23633D01*
X13932Y23718D01*
X13950Y23740D01*
X14002Y23866D01*
X14004Y23882D01*
X14019Y24000D01*
X14016Y24022D01*
X14016Y24022D01*
X14002Y24134D01*
X13998Y24144D01*
X13958Y24239D01*
X13950Y24260D01*
X13881Y24349D01*
Y24349D01*
X13881D01*
X13867Y24367D01*
Y24367D01*
X13778Y24436D01*
D01*
X13760Y24450D01*
X13760Y24450D01*
X13634Y24502D01*
X13634Y24502D01*
X13612Y24505D01*
X13612Y24505D01*
X13500Y24519D01*
X13500Y24519D01*
D02*
G37*
G36*
X33357Y25380D02*
X33120D01*
Y25143D01*
X33189Y25172D01*
X33268Y25232D01*
X33328Y25311D01*
X33357Y25380D01*
D02*
G37*
G36*
X32880Y25857D02*
X32811Y25828D01*
X32732Y25768D01*
X32672Y25689D01*
X32643Y25620D01*
X32880D01*
Y25857D01*
D02*
G37*
G36*
Y25380D02*
X32643D01*
X32672Y25311D01*
X32732Y25232D01*
X32811Y25172D01*
X32880Y25143D01*
Y25380D01*
D02*
G37*
G36*
X8250Y21454D02*
X7950Y21454D01*
X7750D01*
X7750Y21454D01*
X7633Y21438D01*
X7523Y21393D01*
X7429Y21321D01*
X7357Y21227D01*
X7312Y21117D01*
X7296Y21000D01*
X7312Y20883D01*
X7312Y20883D01*
X7357Y20773D01*
X7357Y20773D01*
X7429Y20679D01*
Y20679D01*
X7523Y20607D01*
X7523Y20607D01*
X7633Y20562D01*
X7633Y20562D01*
X7750Y20546D01*
X7750Y20546D01*
X8050Y20546D01*
X8250Y20546D01*
X8250Y20546D01*
X8367Y20562D01*
X8477Y20607D01*
X8571Y20679D01*
X8643Y20773D01*
X8688Y20883D01*
X8704Y21000D01*
X8688Y21117D01*
X8688Y21117D01*
X8643Y21227D01*
Y21227D01*
X8571Y21321D01*
Y21321D01*
X8477Y21393D01*
X8477Y21393D01*
X8367Y21438D01*
X8367Y21438D01*
X8250Y21454D01*
X8250Y21454D01*
X8250Y21454D01*
D02*
G37*
G36*
X11500Y22019D02*
X11500Y22019D01*
X11409Y22007D01*
Y22007D01*
X11366Y22002D01*
X11366Y22002D01*
X11345Y21993D01*
X11345D01*
X11240Y21950D01*
X11240Y21950D01*
X11151Y21881D01*
X11133Y21867D01*
X11133Y21867D01*
X11064Y21778D01*
X11050Y21760D01*
Y21760D01*
X10998Y21634D01*
X10995Y21612D01*
X10981Y21500D01*
X10984Y21478D01*
X10998Y21366D01*
X11007Y21345D01*
X11007Y21345D01*
X11042Y21261D01*
Y21261D01*
X11050Y21240D01*
Y21240D01*
X11119Y21151D01*
X11119Y21151D01*
X11133Y21133D01*
Y21133D01*
X11222Y21064D01*
X11222Y21064D01*
X11240Y21050D01*
X11240Y21050D01*
X11366Y20998D01*
X11366Y20998D01*
X11388Y20995D01*
X11388Y20995D01*
X11500Y20981D01*
X11500Y20981D01*
X11522Y20984D01*
X11522Y20984D01*
X11634Y20998D01*
X11634Y20998D01*
X11855Y21027D01*
X12174Y21068D01*
X12380Y21076D01*
Y21500D01*
Y21924D01*
X12174Y21932D01*
X11743Y21988D01*
X11634Y22002D01*
X11634D01*
X11500Y22019D01*
D02*
G37*
G36*
X33500Y21980D02*
X33376Y21963D01*
X33376Y21963D01*
X33260Y21915D01*
X33260Y21915D01*
X33189Y21861D01*
X31771D01*
X31216Y21861D01*
X31216Y21861D01*
X31000Y21861D01*
X30907Y21848D01*
X30820Y21812D01*
X30745Y21755D01*
X30554Y21564D01*
X30554Y21564D01*
X30200Y21210D01*
X27790Y18800D01*
X27436Y18446D01*
X27436Y18446D01*
X27245Y18255D01*
X27188Y18180D01*
X27152Y18093D01*
X27139Y18000D01*
X27139Y17878D01*
X27139Y17878D01*
Y17823D01*
X26414Y17227D01*
X26224Y17248D01*
X26014Y17500D01*
X26014Y17500D01*
X25997Y17633D01*
X25917Y18352D01*
X25915Y18380D01*
X25085D01*
X25083Y18352D01*
X25003Y17633D01*
X24986Y17500D01*
X24986Y17500D01*
X24569Y16998D01*
X24417Y16868D01*
X24404Y16861D01*
X22182D01*
X22149D01*
X21918Y17092D01*
X21755Y17255D01*
X21680Y17312D01*
X21593Y17348D01*
X21500Y17361D01*
X21494D01*
D01*
X21073D01*
X14837D01*
X14441D01*
X13909Y17927D01*
X13879Y18148D01*
X13936Y18222D01*
Y18222D01*
X13950Y18240D01*
Y18240D01*
X14002Y18366D01*
X14002Y18366D01*
X14005Y18388D01*
X14005Y18388D01*
X14019Y18500D01*
X14019Y18500D01*
X14016Y18522D01*
X14016Y18522D01*
X14002Y18634D01*
X14002Y18634D01*
X13993Y18655D01*
X13965Y18722D01*
X13965Y18722D01*
X13950Y18760D01*
X13950Y18760D01*
X13881Y18849D01*
X13881Y18849D01*
X13881D01*
X13867Y18867D01*
Y18867D01*
X13778Y18936D01*
D01*
X13760Y18950D01*
X13760Y18950D01*
X13634Y19002D01*
X13634Y19002D01*
X13612Y19005D01*
X13612Y19005D01*
X13500Y19019D01*
X13500Y19019D01*
X13478Y19016D01*
X13366Y19002D01*
X13366Y19002D01*
X13240Y18950D01*
X12634Y19002D01*
X12634Y19002D01*
X12634Y19002D01*
X12500Y19019D01*
X12366Y19002D01*
X12240Y18950D01*
X12240Y18950D01*
X12240Y18950D01*
X12114Y18867D01*
X11886D01*
X11760Y18950D01*
X11760Y18950D01*
X11760D01*
X11655Y18993D01*
X11634Y19002D01*
X11634Y19002D01*
X11500Y19019D01*
X11500Y19019D01*
X11366Y19002D01*
X11366Y19002D01*
X11261Y18958D01*
X11240Y18950D01*
X11240Y18950D01*
X11151Y18881D01*
X11151Y18881D01*
X11133Y18867D01*
X11064Y18778D01*
X11064Y18778D01*
X11050Y18760D01*
X11050Y18760D01*
X10998Y18634D01*
X10998Y18634D01*
X10995Y18612D01*
X10981Y18500D01*
X10981Y18500D01*
X10984Y18478D01*
X10998Y18366D01*
X10998Y18366D01*
X11004Y18351D01*
Y18351D01*
X11042Y18261D01*
Y18261D01*
X11050Y18240D01*
X11050Y18240D01*
X11060Y18228D01*
Y18228D01*
X11121Y18148D01*
X11091Y17927D01*
X10559Y17361D01*
X10207D01*
X9811D01*
X9740Y17415D01*
X9740D01*
X9624Y17463D01*
X9624Y17463D01*
X9500Y17480D01*
X9500Y17480D01*
X9376Y17463D01*
X9376Y17463D01*
X9260Y17415D01*
X9260Y17415D01*
X9161Y17339D01*
X9085Y17240D01*
X9037Y17124D01*
X9020Y17000D01*
X9037Y16876D01*
X9085Y16760D01*
X9161Y16661D01*
X9260Y16585D01*
X9260Y16585D01*
X9376Y16537D01*
X9376Y16537D01*
X9500Y16520D01*
X9500Y16520D01*
X9624Y16537D01*
X9624Y16537D01*
X9740Y16585D01*
X9740D01*
X9811Y16639D01*
X10399D01*
X10406Y16635D01*
X10565Y16501D01*
X10981Y16000D01*
X10998Y15866D01*
X10998Y15866D01*
X11007Y15845D01*
X11042Y15761D01*
X11050Y15740D01*
X11119Y15651D01*
X11133Y15633D01*
X11222Y15564D01*
X11240Y15550D01*
X11366Y15498D01*
X11388Y15495D01*
X11500Y15481D01*
X11500Y15481D01*
X11522Y15484D01*
X11634Y15498D01*
X12174Y15568D01*
X12380Y15576D01*
Y16000D01*
X12620D01*
Y15576D01*
X12826Y15568D01*
X13366Y15498D01*
X13500Y15481D01*
X13500Y15481D01*
X13591Y15493D01*
X13634Y15498D01*
X13655Y15507D01*
X13739Y15542D01*
X13760Y15550D01*
X13849Y15619D01*
X13867Y15633D01*
X13936Y15722D01*
X13950Y15740D01*
X14002Y15866D01*
X14002Y15866D01*
X14005Y15888D01*
X14019Y16000D01*
X14435Y16501D01*
X14594Y16635D01*
X14601Y16639D01*
X14825D01*
X21027D01*
X21255D01*
X21297Y16573D01*
X21593Y16107D01*
X21659Y15980D01*
X21534Y15596D01*
X21484Y15494D01*
X18384Y12394D01*
X17818Y11861D01*
X17442D01*
X14850D01*
X14441D01*
X13909Y12427D01*
X13879Y12648D01*
X13936Y12722D01*
Y12722D01*
X13950Y12740D01*
Y12740D01*
X14002Y12866D01*
X14002Y12866D01*
X14005Y12888D01*
X14005Y12888D01*
X14019Y13000D01*
X14019Y13000D01*
X14016Y13022D01*
X14016Y13022D01*
X14002Y13134D01*
X14002Y13134D01*
X13993Y13155D01*
X13965Y13222D01*
X13965Y13222D01*
X13950Y13260D01*
X13950Y13260D01*
X13881Y13349D01*
X13881Y13349D01*
X13881D01*
X13867Y13367D01*
Y13367D01*
X13778Y13436D01*
D01*
X13760Y13450D01*
X13760Y13450D01*
X13634Y13502D01*
X13634Y13502D01*
X13612Y13505D01*
X13612Y13505D01*
X13500Y13519D01*
X13500Y13519D01*
X13478Y13516D01*
X13366Y13502D01*
X13366Y13502D01*
X13240Y13450D01*
X12634Y13502D01*
X12634Y13502D01*
X12634Y13502D01*
X12500Y13519D01*
X12366Y13502D01*
X12240Y13450D01*
X12240Y13450D01*
X12240Y13450D01*
X12114Y13367D01*
X11886D01*
X11760Y13450D01*
X11760Y13450D01*
X11760D01*
X11655Y13493D01*
X11634Y13502D01*
X11634Y13502D01*
X11500Y13519D01*
X11500Y13519D01*
X11366Y13502D01*
X11366Y13502D01*
X11261Y13458D01*
X11261Y13458D01*
X11240Y13450D01*
X11240Y13450D01*
X11151Y13381D01*
X11151Y13381D01*
X11133Y13367D01*
X11064Y13278D01*
X11064Y13278D01*
X11050Y13260D01*
X11050Y13260D01*
X10998Y13134D01*
X10998Y13134D01*
X10995Y13112D01*
X10981Y13000D01*
X10981Y13000D01*
X10984Y12978D01*
X10998Y12866D01*
X10998Y12866D01*
X11004Y12851D01*
Y12851D01*
X11042Y12761D01*
Y12761D01*
X11050Y12740D01*
X11050Y12740D01*
X11060Y12728D01*
Y12728D01*
X11121Y12648D01*
X11091Y12427D01*
X10559Y11861D01*
X10207D01*
X9811D01*
X9740Y11915D01*
X9740D01*
X9624Y11963D01*
X9624Y11963D01*
X9500Y11980D01*
X9500Y11980D01*
X9376Y11963D01*
X9376Y11963D01*
X9260Y11915D01*
X9260Y11915D01*
X9161Y11839D01*
X9085Y11740D01*
X9037Y11624D01*
X9020Y11500D01*
X9037Y11376D01*
X9085Y11260D01*
X9161Y11161D01*
X9260Y11085D01*
X9260Y11085D01*
X9376Y11037D01*
X9376Y11037D01*
X9500Y11020D01*
X9500Y11020D01*
X9624Y11037D01*
X9624Y11037D01*
X9740Y11085D01*
X9740D01*
X9811Y11139D01*
X10399D01*
X10406Y11135D01*
X10565Y11001D01*
X10981Y10500D01*
X10998Y10366D01*
X10998Y10366D01*
X11007Y10345D01*
X11042Y10261D01*
X11050Y10240D01*
X11119Y10151D01*
X11133Y10133D01*
X11222Y10064D01*
X11240Y10050D01*
X11366Y9998D01*
X11388Y9995D01*
X11500Y9981D01*
X11500Y9981D01*
X11522Y9984D01*
X11634Y9998D01*
X12174Y10068D01*
X12380Y10076D01*
Y10500D01*
X12620D01*
Y10076D01*
X12826Y10068D01*
X13366Y9998D01*
X13500Y9981D01*
X13500Y9981D01*
X13591Y9993D01*
X13634Y9998D01*
X13655Y10007D01*
X13739Y10042D01*
X13760Y10050D01*
X13849Y10119D01*
X13867Y10133D01*
X13936Y10222D01*
X13950Y10240D01*
X14002Y10366D01*
X14002Y10366D01*
X14005Y10388D01*
X14019Y10500D01*
X14435Y11001D01*
X14594Y11135D01*
X14601Y11139D01*
X14841D01*
X17516D01*
X17543Y11073D01*
X17815Y10418D01*
X17842Y10352D01*
X14923Y7433D01*
X14787Y7297D01*
X14713Y7316D01*
X14352Y7412D01*
X14003Y7626D01*
X14002Y7634D01*
X14002Y7634D01*
X13993Y7655D01*
X13965Y7722D01*
X13965Y7722D01*
X13950Y7760D01*
X13950Y7760D01*
X13881Y7849D01*
X13881D01*
X13867Y7867D01*
X13867Y7867D01*
X13778Y7936D01*
X13760Y7950D01*
X13634Y8002D01*
X13634Y8002D01*
X13634Y8002D01*
X13612Y8005D01*
X13500Y8019D01*
X13500Y8019D01*
X13478Y8016D01*
X13478Y8016D01*
X13366Y8002D01*
X13366Y8002D01*
X13240Y7950D01*
X12634Y8002D01*
X12634Y8002D01*
X12634Y8002D01*
X12500Y8019D01*
X12366Y8002D01*
X12240Y7950D01*
X12240Y7950D01*
X12240Y7950D01*
X12114Y7867D01*
X11886D01*
X11760Y7950D01*
X11760Y7950D01*
X11760D01*
X11655Y7993D01*
X11634Y8002D01*
X11634Y8002D01*
X11500Y8019D01*
X11500Y8019D01*
X11366Y8002D01*
X11366Y8002D01*
X11261Y7958D01*
X11261Y7958D01*
X11240Y7950D01*
X11240Y7950D01*
X11151Y7881D01*
X11151Y7881D01*
X11133Y7867D01*
X11064Y7778D01*
X11064Y7778D01*
X11050Y7760D01*
X11050Y7760D01*
X10998Y7634D01*
X10998Y7634D01*
X10995Y7612D01*
X10981Y7500D01*
X10981Y7500D01*
X10984Y7478D01*
X10998Y7366D01*
X10998Y7366D01*
X11004Y7351D01*
Y7351D01*
X11042Y7261D01*
Y7261D01*
X11050Y7240D01*
X11050Y7240D01*
X11060Y7228D01*
Y7228D01*
X11121Y7148D01*
X11091Y6927D01*
X10559Y6361D01*
X10207D01*
X9811D01*
X9740Y6415D01*
X9740D01*
X9624Y6463D01*
X9624Y6463D01*
X9500Y6480D01*
X9500Y6480D01*
X9376Y6463D01*
X9376Y6463D01*
X9260Y6415D01*
X9260Y6415D01*
X9161Y6339D01*
X9085Y6240D01*
X9037Y6124D01*
X9020Y6000D01*
X9037Y5876D01*
X9085Y5760D01*
X9161Y5661D01*
X9260Y5585D01*
X9260Y5585D01*
X9376Y5537D01*
X9376Y5537D01*
X9500Y5520D01*
X9500Y5520D01*
X9624Y5537D01*
X9624Y5537D01*
X9740Y5585D01*
X9740D01*
X9811Y5639D01*
X10399D01*
X10406Y5635D01*
X10565Y5501D01*
X10981Y5000D01*
X10998Y4866D01*
X10998Y4866D01*
X11007Y4845D01*
X11042Y4761D01*
X11050Y4740D01*
X11119Y4651D01*
X11133Y4633D01*
X11222Y4564D01*
X11240Y4550D01*
X11366Y4498D01*
X11388Y4495D01*
X11500Y4481D01*
X11500Y4481D01*
X11522Y4484D01*
X11634Y4498D01*
X12174Y4568D01*
X12380Y4576D01*
Y5000D01*
X12620D01*
Y4576D01*
X12826Y4568D01*
X13366Y4498D01*
X13478Y4484D01*
D01*
X13500Y4481D01*
X13500Y4481D01*
X13591Y4493D01*
X13634Y4498D01*
X13655Y4507D01*
X13739Y4542D01*
X13760Y4550D01*
X13849Y4619D01*
X13867Y4633D01*
X13936Y4722D01*
X13950Y4740D01*
X14002Y4866D01*
X14002Y4866D01*
X14012Y4945D01*
X14045Y5090D01*
X14134Y5405D01*
X14156Y5464D01*
X14278Y5728D01*
X14374Y5864D01*
X14431Y5921D01*
X15117Y6607D01*
X15117Y6607D01*
X15442Y6932D01*
X18299Y9789D01*
X18570Y10060D01*
X18570Y10060D01*
X22461Y13951D01*
X23286Y13882D01*
X23325Y13869D01*
X23525Y13620D01*
X24475D01*
X24803Y14028D01*
X24961Y14139D01*
X27229D01*
X27774Y14139D01*
X27774Y14139D01*
X28000Y14139D01*
X28093Y14152D01*
X28180Y14188D01*
X28255Y14245D01*
X28446Y14436D01*
X28446Y14436D01*
X28800Y14790D01*
X29210Y15200D01*
X29564Y15554D01*
X29564Y15554D01*
X29755Y15745D01*
X29812Y15820D01*
X29848Y15907D01*
X29861Y16000D01*
X29861Y16122D01*
X29861Y16122D01*
X29861Y16851D01*
X29884Y16874D01*
X32126Y19116D01*
X32149Y19139D01*
X33189D01*
X33260Y19085D01*
X33260Y19085D01*
X33376Y19037D01*
X33376Y19037D01*
X33500Y19020D01*
X33500Y19020D01*
X33624Y19037D01*
X33624Y19037D01*
X33624Y19037D01*
X33740Y19085D01*
X33740D01*
X33740Y19085D01*
X33839Y19161D01*
X33839Y19161D01*
Y19161D01*
X33915Y19260D01*
X33915Y19260D01*
X33963Y19376D01*
X33963Y19376D01*
X33980Y19500D01*
X33980Y19500D01*
X33963Y19679D01*
X33975Y20457D01*
X33975Y20457D01*
X33975Y20457D01*
X33980Y20500D01*
X33963Y20679D01*
X33973Y21320D01*
X33975Y21457D01*
X33975Y21457D01*
X33980Y21500D01*
X33980Y21500D01*
X33963Y21624D01*
X33963Y21624D01*
X33915Y21740D01*
X33915Y21740D01*
X33839Y21839D01*
X33839Y21839D01*
X33740Y21915D01*
X33740Y21915D01*
X33740Y21915D01*
X33624Y21963D01*
X33624Y21963D01*
X33624Y21963D01*
X33500Y21980D01*
X33500Y21980D01*
D02*
G37*
G36*
X38350Y22353D02*
X38350Y22353D01*
X38259Y22341D01*
X38259Y22341D01*
X38173Y22306D01*
X38173Y22306D01*
X38100Y22250D01*
X38100Y22250D01*
X38044Y22177D01*
X38044Y22176D01*
X38021Y22120D01*
X38380D01*
Y22353D01*
X38350D01*
D02*
G37*
G36*
X13500Y22019D02*
X13478Y22016D01*
X13478Y22016D01*
X13366Y22002D01*
X13366Y22002D01*
X13257Y21988D01*
X12826Y21932D01*
X12620Y21924D01*
Y21500D01*
Y21076D01*
X12826Y21068D01*
X13257Y21012D01*
X13366Y20998D01*
X13366D01*
X13500Y20981D01*
X13500Y20981D01*
X13591Y20993D01*
Y20993D01*
X13634Y20998D01*
X13634Y20998D01*
X13655Y21007D01*
X13655Y21007D01*
X13760Y21050D01*
X13849Y21119D01*
X13849Y21119D01*
X13867Y21133D01*
X13936Y21222D01*
X13950Y21240D01*
Y21240D01*
X14002Y21366D01*
X14005Y21388D01*
X14005Y21388D01*
X14019Y21500D01*
X14016Y21522D01*
X14002Y21634D01*
X13993Y21655D01*
X13958Y21739D01*
Y21739D01*
X13950Y21760D01*
Y21760D01*
X13881Y21849D01*
Y21849D01*
X13867Y21867D01*
X13867Y21867D01*
X13778Y21936D01*
D01*
X13760Y21950D01*
X13760Y21950D01*
X13634Y22002D01*
X13634Y22002D01*
X13612Y22005D01*
X13612Y22005D01*
X13500Y22019D01*
X13500Y22019D01*
D02*
G37*
G36*
X30880Y3880D02*
X30605D01*
Y3605D01*
X30880D01*
Y3880D01*
D02*
G37*
G36*
X8250Y2954D02*
X7950Y2954D01*
X7750D01*
X7750Y2954D01*
X7633Y2938D01*
X7523Y2893D01*
X7429Y2821D01*
X7357Y2727D01*
X7312Y2617D01*
X7296Y2500D01*
X7312Y2383D01*
X7312Y2383D01*
X7357Y2273D01*
X7357Y2273D01*
X7429Y2179D01*
Y2179D01*
X7523Y2107D01*
X7523Y2107D01*
X7633Y2062D01*
X7633Y2062D01*
X7750Y2046D01*
X7750Y2046D01*
X8050Y2046D01*
X8250Y2046D01*
X8250Y2046D01*
X8367Y2062D01*
X8477Y2107D01*
X8571Y2179D01*
X8643Y2273D01*
X8688Y2383D01*
X8704Y2500D01*
X8688Y2617D01*
X8688Y2617D01*
X8643Y2727D01*
Y2727D01*
X8571Y2821D01*
Y2821D01*
X8477Y2893D01*
X8477Y2893D01*
X8367Y2938D01*
X8367Y2938D01*
X8250Y2954D01*
X8250Y2954D01*
X8250Y2954D01*
D02*
G37*
G36*
X30880Y4395D02*
X30605D01*
Y4120D01*
X30880D01*
Y4395D01*
D02*
G37*
G36*
X27980Y9252D02*
X27787Y9233D01*
X27601Y9176D01*
X27429Y9085D01*
X27279Y8961D01*
X27155Y8811D01*
X27064Y8640D01*
X27052Y8600D01*
X26948Y8439D01*
X26606Y8140D01*
X26589Y8127D01*
X26244Y8012D01*
X26222Y8010D01*
X26051Y7993D01*
X25864Y7936D01*
X25693Y7845D01*
X25543Y7721D01*
X25419Y7571D01*
X25327Y7399D01*
X25271Y7213D01*
X25252Y7020D01*
X25271Y6826D01*
X25327Y6640D01*
X25419Y6468D01*
X25543Y6318D01*
X25693Y6195D01*
X25864Y6103D01*
X26051Y6047D01*
X26244Y6028D01*
X26325Y6035D01*
X26588Y5947D01*
X26963Y5700D01*
X27142Y5487D01*
X27157Y5438D01*
X27239Y5284D01*
X27350Y5149D01*
X27485Y5038D01*
X27639Y4956D01*
X27806Y4905D01*
X27860Y4900D01*
Y5780D01*
X27980D01*
Y5900D01*
X28860D01*
X28855Y5953D01*
X28804Y6121D01*
X28722Y6275D01*
X28611Y6410D01*
X28476Y6521D01*
X28435Y6543D01*
X28375Y6987D01*
X28445Y7389D01*
X28532Y7435D01*
X28682Y7558D01*
X28805Y7709D01*
X28897Y7880D01*
X28953Y8066D01*
X28972Y8260D01*
X28953Y8453D01*
X28897Y8640D01*
X28805Y8811D01*
X28682Y8961D01*
X28532Y9085D01*
X28360Y9176D01*
X28174Y9233D01*
X27980Y9252D01*
D02*
G37*
G36*
X32000Y4500D02*
X31871Y4483D01*
X31871Y4483D01*
X31735Y4467D01*
X31154Y4402D01*
X31120Y4400D01*
Y4000D01*
Y3600D01*
X31154Y3598D01*
X31663Y3541D01*
X31871Y3517D01*
X31871D01*
X32000Y3500D01*
X32000Y3500D01*
X32129Y3517D01*
X32129Y3517D01*
X32182Y3539D01*
X32182Y3539D01*
X32250Y3567D01*
X32250Y3567D01*
X32295Y3602D01*
Y3602D01*
X32353Y3647D01*
X32353Y3647D01*
X32388Y3692D01*
Y3692D01*
X32433Y3750D01*
Y3750D01*
X32454Y3803D01*
X32454Y3803D01*
X32483Y3871D01*
X32490Y3927D01*
D01*
X32500Y4000D01*
X32492Y4056D01*
X32483Y4129D01*
X32461Y4182D01*
Y4182D01*
X32433Y4250D01*
X32433Y4250D01*
X32398Y4295D01*
Y4295D01*
X32353Y4353D01*
X32353Y4353D01*
X32308Y4388D01*
X32308Y4388D01*
X32250Y4433D01*
X32250Y4433D01*
X32197Y4454D01*
X32197Y4454D01*
X32129Y4483D01*
X32129Y4483D01*
X32001Y4499D01*
X32001Y4499D01*
X32000Y4500D01*
X32000Y4500D01*
D02*
G37*
G36*
X20380Y2380D02*
X20143D01*
X20172Y2311D01*
X20232Y2232D01*
X20311Y2172D01*
X20380Y2143D01*
Y2380D01*
D02*
G37*
G36*
X20857D02*
X20620D01*
Y2143D01*
X20689Y2172D01*
X20768Y2232D01*
X20828Y2311D01*
X20857Y2380D01*
D02*
G37*
G36*
X13500Y2519D02*
X13478Y2516D01*
X13366Y2502D01*
X13366Y2502D01*
X13240Y2450D01*
X12634Y2502D01*
X12634Y2502D01*
X12634Y2502D01*
X12500Y2519D01*
X12366Y2502D01*
X12240Y2450D01*
X12240Y2450D01*
X12240Y2450D01*
X12114Y2367D01*
X11886D01*
X11760Y2450D01*
X11760Y2450D01*
X11760D01*
X11655Y2493D01*
X11655D01*
X11634Y2502D01*
X11634Y2502D01*
X11500Y2519D01*
X11500Y2519D01*
X11366Y2502D01*
X11366Y2502D01*
X11261Y2458D01*
X11261Y2458D01*
X11240Y2450D01*
Y2450D01*
X11151Y2381D01*
Y2381D01*
X11133Y2367D01*
X11068Y2282D01*
X11050Y2260D01*
X10998Y2134D01*
X10996Y2118D01*
X10981Y2000D01*
X10984Y1978D01*
X10984Y1978D01*
X10998Y1866D01*
X11002Y1856D01*
X11042Y1761D01*
X11050Y1740D01*
X11119Y1651D01*
Y1651D01*
X11119D01*
X11133Y1633D01*
Y1633D01*
X11222Y1564D01*
X11222Y1564D01*
X11240Y1550D01*
X11240Y1550D01*
X11366Y1498D01*
X11366Y1498D01*
X11388Y1495D01*
X11388Y1495D01*
X11500Y1481D01*
X11500Y1481D01*
X11522Y1484D01*
X11634Y1498D01*
X11634Y1498D01*
X11760Y1550D01*
X12366Y1498D01*
X12366Y1498D01*
X12366Y1498D01*
X12500Y1481D01*
X12634Y1498D01*
X12760Y1550D01*
X12760Y1550D01*
X12760Y1550D01*
X12886Y1633D01*
X13114D01*
X13240Y1550D01*
X13240Y1550D01*
X13240D01*
X13345Y1507D01*
X13345D01*
X13366Y1498D01*
X13366Y1498D01*
X13500Y1481D01*
X13500Y1481D01*
X13634Y1498D01*
X13634Y1498D01*
X13739Y1542D01*
X13739Y1542D01*
X13760Y1550D01*
Y1550D01*
X13849Y1619D01*
Y1619D01*
X13867Y1633D01*
X13932Y1718D01*
X13950Y1740D01*
X14002Y1866D01*
X14004Y1882D01*
X14019Y2000D01*
X14016Y2022D01*
X14016Y2022D01*
X14002Y2134D01*
X13998Y2144D01*
X13958Y2239D01*
X13950Y2260D01*
X13881Y2349D01*
Y2349D01*
X13881D01*
X13867Y2367D01*
Y2367D01*
X13778Y2436D01*
D01*
X13760Y2450D01*
X13760Y2450D01*
X13634Y2502D01*
X13634Y2502D01*
X13612Y2505D01*
X13612Y2505D01*
X13500Y2519D01*
X13500Y2519D01*
D02*
G37*
G36*
X20620Y2857D02*
Y2620D01*
X20857D01*
X20828Y2689D01*
X20768Y2768D01*
X20689Y2828D01*
X20620Y2857D01*
D02*
G37*
G36*
X20380D02*
X20311Y2828D01*
X20232Y2768D01*
X20172Y2689D01*
X20143Y2620D01*
X20380D01*
Y2857D01*
D02*
G37*
G36*
X21000Y9500D02*
X21000Y9500D01*
X20927Y9490D01*
X20927Y9490D01*
X20871Y9483D01*
X20871Y9483D01*
X20818Y9461D01*
D01*
X20750Y9433D01*
X20750Y9433D01*
X20705Y9398D01*
Y9398D01*
X20647Y9353D01*
X20647Y9353D01*
X20612Y9308D01*
Y9308D01*
X20567Y9250D01*
Y9250D01*
X20546Y9197D01*
Y9197D01*
X20517Y9129D01*
X20510Y9073D01*
X20500Y9000D01*
X20508Y8944D01*
X20517Y8871D01*
X20539Y8818D01*
Y8818D01*
X20567Y8750D01*
Y8750D01*
X20602Y8705D01*
Y8705D01*
X20647Y8647D01*
Y8647D01*
X20692Y8612D01*
X20692Y8612D01*
X20750Y8567D01*
X20750Y8567D01*
X20803Y8546D01*
X20803Y8546D01*
X20871Y8517D01*
X20871Y8517D01*
X20927Y8510D01*
X20927Y8510D01*
X21000Y8500D01*
X21000Y8500D01*
X21129Y8517D01*
X21129D01*
X21266Y8535D01*
X21673Y8587D01*
X21880Y8596D01*
Y9000D01*
Y9404D01*
X21673Y9413D01*
X21266Y9465D01*
X21129Y9483D01*
X21129D01*
X21028Y9496D01*
X21000Y9500D01*
D02*
G37*
G36*
X37000Y9500D02*
X36871Y9483D01*
X36327Y9413D01*
X36120Y9404D01*
Y9000D01*
Y8596D01*
X36327Y8587D01*
X36871Y8517D01*
X37000Y8500D01*
X37752Y8505D01*
X38111Y8505D01*
X38495D01*
Y9495D01*
X38183D01*
X37752Y9495D01*
X37000Y9500D01*
D02*
G37*
G36*
X35000Y9500D02*
X35000Y9500D01*
X34927Y9490D01*
X34927Y9490D01*
X34871Y9483D01*
X34871Y9483D01*
X34818Y9461D01*
D01*
X34750Y9433D01*
X34750Y9433D01*
X34705Y9398D01*
Y9398D01*
X34647Y9353D01*
X34647Y9353D01*
X34612Y9308D01*
Y9308D01*
X34567Y9250D01*
Y9250D01*
X34546Y9197D01*
Y9197D01*
X34517Y9129D01*
X34510Y9073D01*
X34500Y9000D01*
X34508Y8944D01*
X34517Y8871D01*
X34539Y8818D01*
Y8818D01*
X34567Y8750D01*
Y8750D01*
X34602Y8705D01*
Y8705D01*
X34647Y8647D01*
Y8647D01*
X34692Y8612D01*
X34692Y8612D01*
X34750Y8567D01*
X34750Y8567D01*
X34803Y8546D01*
X34803Y8546D01*
X34871Y8517D01*
X34871Y8517D01*
X34927Y8510D01*
X34927Y8510D01*
X35000Y8500D01*
X35000Y8500D01*
X35129Y8517D01*
X35129D01*
X35266Y8535D01*
X35673Y8587D01*
X35880Y8596D01*
Y9000D01*
Y9404D01*
X35673Y9413D01*
X35266Y9465D01*
X35129Y9483D01*
X35129D01*
X35028Y9496D01*
X35000Y9500D01*
D02*
G37*
G36*
X31650Y12804D02*
X31350D01*
X31193Y12788D01*
X31042Y12743D01*
X30903Y12668D01*
X30782Y12568D01*
X30682Y12447D01*
X30607Y12308D01*
X30562Y12157D01*
X30546Y12000D01*
X30562Y11843D01*
X30607Y11692D01*
X30682Y11553D01*
X30782Y11432D01*
X30903Y11332D01*
X31042Y11257D01*
X31193Y11212D01*
X31350Y11196D01*
X31650D01*
X31807Y11212D01*
X31958Y11257D01*
X32097Y11332D01*
X32218Y11432D01*
X32318Y11553D01*
X32393Y11692D01*
X32438Y11843D01*
X32454Y12000D01*
X32438Y12157D01*
X32393Y12308D01*
X32318Y12447D01*
X32218Y12568D01*
X32097Y12668D01*
X31958Y12743D01*
X31807Y12788D01*
X31650Y12804D01*
D02*
G37*
G36*
X8250Y10454D02*
X7950Y10454D01*
X7750D01*
X7750Y10454D01*
X7633Y10438D01*
X7523Y10393D01*
X7429Y10321D01*
X7357Y10227D01*
X7312Y10117D01*
X7296Y10000D01*
X7312Y9883D01*
X7312Y9883D01*
X7357Y9773D01*
X7357Y9773D01*
X7429Y9679D01*
Y9679D01*
X7523Y9607D01*
X7523Y9607D01*
X7633Y9562D01*
X7633Y9562D01*
X7750Y9546D01*
X7750Y9546D01*
X8050Y9546D01*
X8250Y9546D01*
X8250Y9546D01*
X8367Y9562D01*
X8477Y9607D01*
X8571Y9679D01*
X8643Y9773D01*
X8688Y9883D01*
X8704Y10000D01*
X8688Y10117D01*
X8688Y10117D01*
X8643Y10227D01*
Y10227D01*
X8571Y10321D01*
Y10321D01*
X8477Y10393D01*
X8477Y10393D01*
X8367Y10438D01*
X8367Y10438D01*
X8250Y10454D01*
X8250Y10454D01*
X8250Y10454D01*
D02*
G37*
G36*
Y4954D02*
X7950Y4954D01*
X7750D01*
X7750Y4954D01*
X7633Y4938D01*
X7523Y4893D01*
X7429Y4821D01*
X7357Y4727D01*
X7312Y4617D01*
X7296Y4500D01*
X7312Y4383D01*
X7312Y4383D01*
X7357Y4273D01*
X7357Y4273D01*
X7429Y4179D01*
Y4179D01*
X7523Y4107D01*
X7523Y4107D01*
X7633Y4062D01*
X7633Y4062D01*
X7750Y4046D01*
X7750Y4046D01*
X8050Y4046D01*
X8250Y4046D01*
X8250Y4046D01*
X8367Y4062D01*
X8477Y4107D01*
X8571Y4179D01*
X8643Y4273D01*
X8688Y4383D01*
X8704Y4500D01*
X8688Y4617D01*
X8688Y4617D01*
X8643Y4727D01*
Y4727D01*
X8571Y4821D01*
Y4821D01*
X8477Y4893D01*
X8477Y4893D01*
X8367Y4938D01*
X8367Y4938D01*
X8250Y4954D01*
X8250Y4954D01*
X8250Y4954D01*
D02*
G37*
G36*
X28860Y5660D02*
X28100D01*
Y4900D01*
X28154Y4905D01*
X28322Y4956D01*
X28476Y5038D01*
X28611Y5149D01*
X28722Y5284D01*
X28804Y5438D01*
X28855Y5606D01*
X28860Y5660D01*
D02*
G37*
G36*
X31650Y7804D02*
X31350D01*
X31193Y7788D01*
X31042Y7743D01*
X30903Y7668D01*
X30782Y7568D01*
X30682Y7447D01*
X30607Y7308D01*
X30562Y7157D01*
X30546Y7000D01*
X30562Y6843D01*
X30607Y6692D01*
X30682Y6553D01*
X30782Y6432D01*
X30903Y6332D01*
X31042Y6257D01*
X31193Y6212D01*
X31350Y6196D01*
X31650D01*
X31807Y6212D01*
X31958Y6257D01*
X32097Y6332D01*
X32218Y6432D01*
X32318Y6553D01*
X32393Y6692D01*
X32438Y6843D01*
X32454Y7000D01*
X32438Y7157D01*
X32393Y7308D01*
X32318Y7447D01*
X32218Y7568D01*
X32097Y7668D01*
X31958Y7743D01*
X31807Y7788D01*
X31650Y7804D01*
D02*
G37*
G36*
X23000Y9500D02*
X22871Y9483D01*
X22327Y9413D01*
X22120Y9404D01*
Y9000D01*
Y8596D01*
X22327Y8587D01*
X22871Y8517D01*
X23000Y8500D01*
X23752Y8505D01*
X24111Y8505D01*
X24495D01*
Y9495D01*
X24183D01*
X23752Y9495D01*
X23000Y9500D01*
D02*
G37*
G36*
X8250Y8454D02*
X7950Y8454D01*
X7750D01*
X7750Y8454D01*
X7633Y8438D01*
X7523Y8393D01*
X7429Y8321D01*
X7357Y8227D01*
X7312Y8117D01*
X7296Y8000D01*
X7312Y7883D01*
X7312Y7883D01*
X7357Y7773D01*
X7357Y7773D01*
X7429Y7679D01*
Y7679D01*
X7523Y7607D01*
X7523Y7607D01*
X7633Y7562D01*
X7633Y7562D01*
X7750Y7546D01*
X7750Y7546D01*
X8050Y7546D01*
X8250Y7546D01*
X8250Y7546D01*
X8367Y7562D01*
X8477Y7607D01*
X8571Y7679D01*
X8643Y7773D01*
X8688Y7883D01*
X8704Y8000D01*
X8688Y8117D01*
X8688Y8117D01*
X8643Y8227D01*
Y8227D01*
X8571Y8321D01*
Y8321D01*
X8477Y8393D01*
X8477Y8393D01*
X8367Y8438D01*
X8367Y8438D01*
X8250Y8454D01*
X8250Y8454D01*
X8250Y8454D01*
D02*
G37*
G36*
X33120Y25857D02*
Y25620D01*
X33357D01*
X33328Y25689D01*
X33268Y25768D01*
X33189Y25828D01*
X33120Y25857D01*
D02*
G37*
G36*
X13500Y44019D02*
X13478Y44016D01*
X13478Y44016D01*
X13366Y44002D01*
X13366Y44002D01*
X13257Y43988D01*
X12826Y43932D01*
X12620Y43924D01*
Y43500D01*
Y43076D01*
X12826Y43068D01*
X13257Y43012D01*
X13366Y42998D01*
X13366D01*
X13500Y42981D01*
X13500Y42981D01*
X13591Y42993D01*
Y42993D01*
X13634Y42998D01*
X13634Y42998D01*
X13655Y43007D01*
X13655Y43007D01*
X13760Y43050D01*
X13849Y43119D01*
X13849Y43119D01*
X13867Y43133D01*
X13936Y43222D01*
X13950Y43240D01*
Y43240D01*
X14002Y43366D01*
X14005Y43388D01*
X14005Y43388D01*
X14019Y43500D01*
X14016Y43522D01*
X14002Y43634D01*
X13993Y43655D01*
X13958Y43739D01*
Y43739D01*
X13950Y43760D01*
Y43760D01*
X13881Y43849D01*
Y43849D01*
X13867Y43867D01*
X13867Y43867D01*
X13778Y43936D01*
D01*
X13760Y43950D01*
X13760Y43950D01*
X13634Y44002D01*
X13634Y44002D01*
X13612Y44005D01*
X13612Y44005D01*
X13500Y44019D01*
X13500Y44019D01*
D02*
G37*
G36*
X8250Y43454D02*
X7950Y43454D01*
X7750D01*
X7750Y43454D01*
X7633Y43438D01*
X7523Y43393D01*
X7429Y43321D01*
X7357Y43227D01*
X7312Y43117D01*
X7296Y43000D01*
X7312Y42883D01*
X7312Y42883D01*
X7357Y42773D01*
X7357Y42773D01*
X7429Y42679D01*
Y42679D01*
X7523Y42607D01*
X7523Y42607D01*
X7633Y42562D01*
X7633Y42562D01*
X7750Y42546D01*
X7750Y42546D01*
X8050Y42546D01*
X8250Y42546D01*
X8250Y42546D01*
X8367Y42562D01*
X8477Y42607D01*
X8571Y42679D01*
X8643Y42773D01*
X8688Y42883D01*
X8704Y43000D01*
X8688Y43117D01*
X8688Y43117D01*
X8643Y43227D01*
Y43227D01*
X8571Y43321D01*
Y43321D01*
X8477Y43393D01*
X8477Y43393D01*
X8367Y43438D01*
X8367Y43438D01*
X8250Y43454D01*
X8250Y43454D01*
X8250Y43454D01*
D02*
G37*
G36*
X31857Y44880D02*
X31620D01*
Y44643D01*
X31689Y44672D01*
X31768Y44732D01*
X31828Y44811D01*
X31857Y44880D01*
D02*
G37*
G36*
X31380Y45357D02*
X31311Y45328D01*
X31232Y45268D01*
X31172Y45189D01*
X31143Y45120D01*
X31380D01*
Y45357D01*
D02*
G37*
G36*
Y44880D02*
X31143D01*
X31172Y44811D01*
X31232Y44732D01*
X31311Y44672D01*
X31380Y44643D01*
Y44880D01*
D02*
G37*
G36*
X26380Y41357D02*
X26311Y41328D01*
X26232Y41268D01*
X26172Y41189D01*
X26143Y41120D01*
X26380D01*
Y41357D01*
D02*
G37*
G36*
X13500Y41019D02*
X13478Y41016D01*
X13366Y41002D01*
X13366Y41002D01*
X13240Y40950D01*
X12634Y41002D01*
X12634Y41002D01*
X12634Y41002D01*
X12500Y41019D01*
X12366Y41002D01*
X12240Y40950D01*
X12240Y40950D01*
X12240Y40950D01*
X12114Y40867D01*
X11886D01*
X11760Y40950D01*
X11760Y40950D01*
X11760D01*
X11655Y40993D01*
X11655D01*
X11634Y41002D01*
X11634Y41002D01*
X11500Y41019D01*
X11500Y41019D01*
X11366Y41002D01*
X11366Y41002D01*
X11261Y40958D01*
X11261Y40958D01*
X11240Y40950D01*
X11240Y40950D01*
X11188Y40910D01*
X11151Y40881D01*
X11133Y40867D01*
X11064Y40778D01*
X11064Y40778D01*
X11050Y40760D01*
X10998Y40634D01*
X10996Y40618D01*
X10981Y40500D01*
X10984Y40478D01*
X10984Y40478D01*
X10998Y40366D01*
X11004Y40351D01*
Y40351D01*
X11042Y40261D01*
X11050Y40240D01*
X11119Y40151D01*
Y40151D01*
X11119D01*
X11133Y40133D01*
Y40133D01*
X11222Y40064D01*
D01*
X11240Y40050D01*
X11240Y40050D01*
X11366Y39998D01*
X11366Y39998D01*
X11388Y39995D01*
X11388Y39995D01*
X11500Y39981D01*
X11500Y39981D01*
X11522Y39984D01*
X11634Y39998D01*
X11634Y39998D01*
X11760Y40050D01*
X12366Y39998D01*
X12366Y39998D01*
X12366Y39998D01*
X12500Y39981D01*
X12634Y39998D01*
X12760Y40050D01*
X12760Y40050D01*
X12760Y40050D01*
X12886Y40133D01*
X13114D01*
X13240Y40050D01*
X13240Y40050D01*
X13240D01*
X13345Y40007D01*
X13345D01*
X13366Y39998D01*
X13366Y39998D01*
X13500Y39981D01*
X13500Y39981D01*
X13634Y39998D01*
X13634Y39998D01*
X13739Y40042D01*
X13739Y40042D01*
X13760Y40050D01*
Y40050D01*
X13849Y40119D01*
Y40119D01*
X13867Y40133D01*
X13932Y40218D01*
X13950Y40240D01*
X14002Y40366D01*
X14004Y40382D01*
X14019Y40500D01*
X14016Y40522D01*
X14016Y40522D01*
X14002Y40634D01*
X13998Y40644D01*
X13958Y40739D01*
X13950Y40760D01*
X13881Y40849D01*
Y40849D01*
X13881D01*
X13867Y40867D01*
Y40867D01*
X13778Y40936D01*
D01*
X13760Y40950D01*
X13760Y40950D01*
X13634Y41002D01*
X13634Y41002D01*
X13612Y41005D01*
X13612Y41005D01*
X13500Y41019D01*
X13500Y41019D01*
D02*
G37*
G36*
X26620Y41357D02*
Y41120D01*
X26857D01*
X26828Y41189D01*
X26768Y41268D01*
X26689Y41328D01*
X26620Y41357D01*
D02*
G37*
G36*
X11500Y44019D02*
X11500Y44019D01*
X11409Y44007D01*
Y44007D01*
X11366Y44002D01*
X11366Y44002D01*
X11345Y43993D01*
X11345D01*
X11240Y43950D01*
X11240Y43950D01*
X11151Y43881D01*
X11133Y43867D01*
X11133Y43867D01*
X11064Y43778D01*
X11050Y43760D01*
Y43760D01*
X10998Y43634D01*
X10995Y43612D01*
X10981Y43500D01*
X10984Y43478D01*
X10998Y43366D01*
X11007Y43345D01*
X11007Y43345D01*
X11042Y43261D01*
Y43261D01*
X11050Y43240D01*
Y43240D01*
X11119Y43151D01*
X11119Y43151D01*
X11133Y43133D01*
Y43133D01*
X11222Y43064D01*
X11222Y43064D01*
X11240Y43050D01*
X11240Y43050D01*
X11366Y42998D01*
X11366Y42998D01*
X11388Y42995D01*
X11388Y42995D01*
X11500Y42981D01*
X11500Y42981D01*
X11522Y42984D01*
X11522Y42984D01*
X11634Y42998D01*
X11634Y42998D01*
X11855Y43027D01*
X12174Y43068D01*
X12380Y43076D01*
Y43500D01*
Y43924D01*
X12174Y43932D01*
X11743Y43988D01*
X11634Y44002D01*
X11634D01*
X11500Y44019D01*
D02*
G37*
G36*
X8250Y41454D02*
X7950Y41454D01*
X7750D01*
X7750Y41454D01*
X7633Y41438D01*
X7523Y41393D01*
X7429Y41321D01*
X7357Y41227D01*
X7312Y41117D01*
X7296Y41000D01*
X7312Y40883D01*
X7312Y40883D01*
X7357Y40773D01*
X7357Y40773D01*
X7429Y40679D01*
Y40679D01*
X7523Y40607D01*
X7523Y40607D01*
X7633Y40562D01*
X7633Y40562D01*
X7750Y40546D01*
X7750Y40546D01*
X8050Y40546D01*
X8250Y40546D01*
X8250Y40546D01*
X8367Y40562D01*
X8477Y40607D01*
X8571Y40679D01*
X8643Y40773D01*
X8688Y40883D01*
X8704Y41000D01*
X8688Y41117D01*
X8688Y41117D01*
X8643Y41227D01*
Y41227D01*
X8571Y41321D01*
Y41321D01*
X8477Y41393D01*
X8477Y41393D01*
X8367Y41438D01*
X8367Y41438D01*
X8250Y41454D01*
X8250Y41454D01*
X8250Y41454D01*
D02*
G37*
G36*
Y48954D02*
X7950Y48954D01*
X7750D01*
X7750Y48954D01*
X7633Y48938D01*
X7523Y48893D01*
X7429Y48821D01*
X7357Y48727D01*
X7312Y48617D01*
X7296Y48500D01*
X7312Y48383D01*
X7312Y48383D01*
X7357Y48273D01*
X7357Y48273D01*
X7429Y48179D01*
Y48179D01*
X7523Y48107D01*
X7523Y48107D01*
X7633Y48062D01*
X7633Y48062D01*
X7750Y48046D01*
X7750Y48046D01*
X8050Y48046D01*
X8250Y48046D01*
X8250Y48046D01*
X8367Y48062D01*
X8477Y48107D01*
X8571Y48179D01*
X8643Y48273D01*
X8688Y48383D01*
X8704Y48500D01*
X8688Y48617D01*
X8688Y48617D01*
X8643Y48727D01*
Y48727D01*
X8571Y48821D01*
Y48821D01*
X8477Y48893D01*
X8477Y48893D01*
X8367Y48938D01*
X8367Y48938D01*
X8250Y48954D01*
X8250Y48954D01*
X8250Y48954D01*
D02*
G37*
G36*
X11500Y49519D02*
X11500Y49519D01*
X11409Y49507D01*
Y49507D01*
X11366Y49502D01*
X11366Y49502D01*
X11345Y49493D01*
X11345D01*
X11240Y49450D01*
X11240Y49450D01*
X11151Y49381D01*
X11133Y49367D01*
X11133Y49367D01*
X11064Y49278D01*
X11050Y49260D01*
Y49260D01*
X10998Y49134D01*
X10995Y49112D01*
X10981Y49000D01*
X10984Y48978D01*
X10998Y48866D01*
X11007Y48845D01*
X11007Y48845D01*
X11042Y48761D01*
Y48761D01*
X11050Y48740D01*
Y48740D01*
X11119Y48651D01*
X11119Y48651D01*
X11133Y48633D01*
Y48633D01*
X11222Y48564D01*
X11222Y48564D01*
X11240Y48550D01*
X11240Y48550D01*
X11366Y48498D01*
X11366Y48498D01*
X11388Y48495D01*
X11388Y48495D01*
X11500Y48481D01*
X11500Y48481D01*
X11522Y48484D01*
X11522Y48484D01*
X11634Y48498D01*
X11634Y48498D01*
X11855Y48527D01*
X12174Y48568D01*
X12380Y48576D01*
Y49000D01*
Y49424D01*
X12174Y49432D01*
X11743Y49488D01*
X11634Y49502D01*
X11634D01*
X11500Y49519D01*
D02*
G37*
G36*
X23000Y49703D02*
X22863Y49690D01*
X22731Y49650D01*
X22609Y49585D01*
X22503Y49497D01*
X22425Y49403D01*
X22401Y49375D01*
X22352Y49322D01*
X21611Y49302D01*
X21534Y49304D01*
X21480Y49360D01*
X21426Y49426D01*
X21426Y49426D01*
X21335Y49501D01*
X21231Y49557D01*
X21120Y49591D01*
Y49000D01*
Y48409D01*
X21231Y48443D01*
X21335Y48499D01*
X21426Y48574D01*
X21426Y48574D01*
X21480Y48640D01*
X21534Y48696D01*
X21611Y48698D01*
X22109Y48685D01*
X22185Y48668D01*
X22412Y48610D01*
X22503Y48503D01*
X22609Y48415D01*
X22609Y48415D01*
X22731Y48350D01*
X22731Y48350D01*
X22863Y48310D01*
X22863Y48310D01*
X23000Y48297D01*
X23000Y48297D01*
X23137Y48310D01*
X23269Y48350D01*
X23391Y48415D01*
X23497Y48503D01*
X23585Y48609D01*
X23650Y48731D01*
X23690Y48863D01*
X23703Y49000D01*
X23690Y49137D01*
X23650Y49269D01*
X23585Y49391D01*
X23497Y49497D01*
X23391Y49585D01*
X23269Y49650D01*
X23137Y49690D01*
X23000Y49703D01*
D02*
G37*
G36*
X20880Y49591D02*
X20769Y49557D01*
X20769Y49557D01*
X20769Y49557D01*
X20665Y49501D01*
X20574Y49426D01*
X20499Y49335D01*
X20443Y49231D01*
X20443Y49231D01*
X20409Y49120D01*
X20880D01*
Y49591D01*
D02*
G37*
G36*
X13500Y49519D02*
X13478Y49516D01*
X13478Y49516D01*
X13366Y49502D01*
X13366Y49502D01*
X13257Y49488D01*
X12826Y49432D01*
X12620Y49424D01*
Y49000D01*
Y48576D01*
X12826Y48568D01*
X13257Y48512D01*
X13366Y48498D01*
X13366D01*
X13500Y48481D01*
X13500Y48481D01*
X13591Y48493D01*
Y48493D01*
X13634Y48498D01*
X13634Y48498D01*
X13655Y48507D01*
X13655Y48507D01*
X13760Y48550D01*
X13849Y48619D01*
X13849Y48619D01*
X13867Y48633D01*
X13936Y48722D01*
X13950Y48740D01*
Y48740D01*
X14002Y48866D01*
X14005Y48888D01*
X14005Y48888D01*
X14019Y49000D01*
X14016Y49022D01*
X14002Y49134D01*
X13993Y49155D01*
X13958Y49239D01*
Y49239D01*
X13950Y49260D01*
Y49260D01*
X13881Y49349D01*
Y49349D01*
X13867Y49367D01*
X13867Y49367D01*
X13778Y49436D01*
D01*
X13760Y49450D01*
X13760Y49450D01*
X13634Y49502D01*
X13634Y49502D01*
X13612Y49505D01*
X13612Y49505D01*
X13500Y49519D01*
X13500Y49519D01*
D02*
G37*
G36*
X23000Y46703D02*
X22863Y46690D01*
X22731Y46650D01*
X22609Y46585D01*
X22503Y46497D01*
X22415Y46391D01*
X22000Y46325D01*
X21585Y46391D01*
X21497Y46497D01*
X21391Y46585D01*
X21269Y46650D01*
X21137Y46690D01*
X21000Y46703D01*
X20863Y46690D01*
X20731Y46650D01*
X20609Y46585D01*
X20503Y46497D01*
X20415Y46391D01*
X20350Y46269D01*
X20310Y46137D01*
X20297Y46000D01*
X20310Y45863D01*
X20350Y45731D01*
X20415Y45609D01*
X20503Y45503D01*
X20609Y45415D01*
X20731Y45350D01*
X20863Y45310D01*
X21000Y45297D01*
X21137Y45310D01*
X21269Y45350D01*
X21391Y45415D01*
X21497Y45503D01*
X21585Y45609D01*
X22000Y45675D01*
X22415Y45609D01*
X22503Y45503D01*
X22609Y45415D01*
X22731Y45350D01*
X22863Y45310D01*
X23000Y45297D01*
X23137Y45310D01*
X23269Y45350D01*
X23391Y45415D01*
X23497Y45503D01*
X23585Y45609D01*
X23650Y45731D01*
X23690Y45863D01*
X23703Y46000D01*
X23690Y46137D01*
X23650Y46269D01*
X23585Y46391D01*
X23497Y46497D01*
X23391Y46585D01*
X23269Y46650D01*
X23137Y46690D01*
X23000Y46703D01*
D02*
G37*
G36*
X31620Y45357D02*
Y45120D01*
X31857D01*
X31828Y45189D01*
X31768Y45268D01*
X31689Y45328D01*
X31620Y45357D01*
D02*
G37*
G36*
X13500Y46519D02*
X13478Y46516D01*
X13366Y46502D01*
X13366Y46502D01*
X13240Y46450D01*
X12634Y46502D01*
X12634Y46502D01*
X12634Y46502D01*
X12500Y46519D01*
X12366Y46502D01*
X12240Y46450D01*
X12240Y46450D01*
X12240Y46450D01*
X12114Y46367D01*
X11886D01*
X11760Y46450D01*
X11760Y46450D01*
X11760D01*
X11655Y46493D01*
X11655D01*
X11634Y46502D01*
X11634Y46502D01*
X11500Y46519D01*
X11500Y46519D01*
X11366Y46502D01*
X11366Y46502D01*
X11261Y46458D01*
X11261Y46458D01*
X11240Y46450D01*
X11240Y46450D01*
X11188Y46410D01*
X11151Y46381D01*
X11133Y46367D01*
X11064Y46278D01*
X11064Y46278D01*
X11050Y46260D01*
X10998Y46134D01*
X10996Y46118D01*
X10981Y46000D01*
X10984Y45978D01*
X10984Y45978D01*
X10998Y45866D01*
X11004Y45851D01*
Y45851D01*
X11042Y45761D01*
X11050Y45740D01*
X11119Y45651D01*
Y45651D01*
X11119D01*
X11133Y45633D01*
Y45633D01*
X11222Y45564D01*
D01*
X11240Y45550D01*
X11240Y45550D01*
X11366Y45498D01*
X11366Y45498D01*
X11388Y45495D01*
X11388Y45495D01*
X11500Y45481D01*
X11500Y45481D01*
X11522Y45484D01*
X11634Y45498D01*
X11634Y45498D01*
X11760Y45550D01*
X12366Y45498D01*
X12366Y45498D01*
X12366Y45498D01*
X12500Y45481D01*
X12634Y45498D01*
X12760Y45550D01*
X12760Y45550D01*
X12760Y45550D01*
X12886Y45633D01*
X13114D01*
X13240Y45550D01*
X13240Y45550D01*
X13240D01*
X13345Y45507D01*
X13345D01*
X13366Y45498D01*
X13366Y45498D01*
X13500Y45481D01*
X13500Y45481D01*
X13634Y45498D01*
X13634Y45498D01*
X13739Y45542D01*
X13739Y45542D01*
X13760Y45550D01*
Y45550D01*
X13849Y45619D01*
Y45619D01*
X13867Y45633D01*
X13932Y45718D01*
X13950Y45740D01*
X14002Y45866D01*
X14004Y45882D01*
X14019Y46000D01*
X14016Y46022D01*
X14016Y46022D01*
X14002Y46134D01*
X13998Y46144D01*
X13958Y46239D01*
X13950Y46260D01*
X13881Y46349D01*
Y46349D01*
X13881D01*
X13867Y46367D01*
Y46367D01*
X13778Y46436D01*
D01*
X13760Y46450D01*
X13760Y46450D01*
X13634Y46502D01*
X13634Y46502D01*
X13612Y46505D01*
X13612Y46505D01*
X13500Y46519D01*
X13500Y46519D01*
D02*
G37*
G36*
X20880Y48880D02*
X20409D01*
X20443Y48769D01*
X20499Y48665D01*
X20574Y48574D01*
X20665Y48499D01*
X20769Y48443D01*
X20880Y48409D01*
Y48880D01*
D02*
G37*
G36*
X8250Y46954D02*
X7950Y46954D01*
X7750D01*
X7750Y46954D01*
X7633Y46938D01*
X7523Y46893D01*
X7429Y46821D01*
X7357Y46727D01*
X7312Y46617D01*
X7296Y46500D01*
X7312Y46383D01*
X7312Y46383D01*
X7357Y46273D01*
X7357Y46273D01*
X7429Y46179D01*
Y46179D01*
X7523Y46107D01*
X7523Y46107D01*
X7633Y46062D01*
X7633Y46062D01*
X7750Y46046D01*
X7750Y46046D01*
X8050Y46046D01*
X8250Y46046D01*
X8250Y46046D01*
X8367Y46062D01*
X8477Y46107D01*
X8571Y46179D01*
X8643Y46273D01*
X8688Y46383D01*
X8704Y46500D01*
X8688Y46617D01*
X8688Y46617D01*
X8643Y46727D01*
Y46727D01*
X8571Y46821D01*
Y46821D01*
X8477Y46893D01*
X8477Y46893D01*
X8367Y46938D01*
X8367Y46938D01*
X8250Y46954D01*
X8250Y46954D01*
X8250Y46954D01*
D02*
G37*
G36*
X13500Y30019D02*
X13478Y30016D01*
X13366Y30002D01*
X13366Y30002D01*
X13240Y29950D01*
X12634Y30002D01*
X12634Y30002D01*
X12634Y30002D01*
X12500Y30019D01*
X12366Y30002D01*
X12240Y29950D01*
X12240Y29950D01*
X12240Y29950D01*
X12114Y29867D01*
X11886D01*
X11760Y29950D01*
X11760Y29950D01*
X11760D01*
X11655Y29993D01*
X11655D01*
X11634Y30002D01*
X11634Y30002D01*
X11500Y30019D01*
X11500Y30019D01*
X11366Y30002D01*
X11366Y30002D01*
X11261Y29958D01*
X11261Y29958D01*
X11240Y29950D01*
X11240Y29950D01*
X11188Y29910D01*
X11151Y29881D01*
X11133Y29867D01*
X11064Y29778D01*
X11064Y29778D01*
X11050Y29760D01*
X10998Y29634D01*
X10996Y29618D01*
X10981Y29500D01*
X10984Y29478D01*
X10984Y29478D01*
X10998Y29366D01*
X11004Y29351D01*
Y29351D01*
X11042Y29261D01*
X11050Y29240D01*
X11119Y29151D01*
Y29151D01*
X11119D01*
X11133Y29133D01*
Y29133D01*
X11222Y29064D01*
D01*
X11240Y29050D01*
X11240Y29050D01*
X11366Y28998D01*
X11366Y28998D01*
X11388Y28995D01*
X11388Y28995D01*
X11500Y28981D01*
X11500Y28981D01*
X11522Y28984D01*
X11634Y28998D01*
X11634Y28998D01*
X11760Y29050D01*
X12366Y28998D01*
X12366Y28998D01*
X12366Y28998D01*
X12500Y28981D01*
X12634Y28998D01*
X12760Y29050D01*
X12760Y29050D01*
X12760Y29050D01*
X12886Y29133D01*
X13114D01*
X13240Y29050D01*
X13240Y29050D01*
X13240D01*
X13345Y29007D01*
X13345D01*
X13366Y28998D01*
X13366Y28998D01*
X13500Y28981D01*
X13500Y28981D01*
X13634Y28998D01*
X13634Y28998D01*
X13739Y29042D01*
X13739Y29042D01*
X13760Y29050D01*
Y29050D01*
X13849Y29119D01*
Y29119D01*
X13867Y29133D01*
X13932Y29218D01*
X13950Y29240D01*
X14002Y29366D01*
X14004Y29382D01*
X14019Y29500D01*
X14016Y29522D01*
X14016Y29522D01*
X14002Y29634D01*
X13998Y29644D01*
X13958Y29739D01*
X13950Y29760D01*
X13881Y29849D01*
Y29849D01*
X13881D01*
X13867Y29867D01*
Y29867D01*
X13778Y29936D01*
D01*
X13760Y29950D01*
X13760Y29950D01*
X13634Y30002D01*
X13634Y30002D01*
X13612Y30005D01*
X13612Y30005D01*
X13500Y30019D01*
X13500Y30019D01*
D02*
G37*
G36*
X22895Y28895D02*
X22620D01*
Y28620D01*
X22895D01*
Y28710D01*
Y28895D01*
D02*
G37*
G36*
X8250Y30454D02*
X7950Y30454D01*
X7750D01*
X7750Y30454D01*
X7633Y30438D01*
X7523Y30393D01*
X7429Y30321D01*
X7357Y30227D01*
X7312Y30117D01*
X7296Y30000D01*
X7312Y29883D01*
X7312Y29883D01*
X7357Y29773D01*
X7357Y29773D01*
X7429Y29679D01*
Y29679D01*
X7523Y29607D01*
X7523Y29607D01*
X7633Y29562D01*
X7633Y29562D01*
X7750Y29546D01*
X7750Y29546D01*
X8050Y29546D01*
X8250Y29546D01*
X8250Y29546D01*
X8367Y29562D01*
X8477Y29607D01*
X8571Y29679D01*
X8643Y29773D01*
X8688Y29883D01*
X8704Y30000D01*
X8688Y30117D01*
X8688Y30117D01*
X8643Y30227D01*
Y30227D01*
X8571Y30321D01*
Y30321D01*
X8477Y30393D01*
X8477Y30393D01*
X8367Y30438D01*
X8367Y30438D01*
X8250Y30454D01*
X8250Y30454D01*
X8250Y30454D01*
D02*
G37*
G36*
Y32454D02*
X7950Y32454D01*
X7750D01*
X7750Y32454D01*
X7633Y32438D01*
X7523Y32393D01*
X7429Y32321D01*
X7357Y32227D01*
X7312Y32117D01*
X7296Y32000D01*
X7312Y31883D01*
X7312Y31883D01*
X7357Y31773D01*
X7357Y31773D01*
X7429Y31679D01*
Y31679D01*
X7523Y31607D01*
X7523Y31607D01*
X7633Y31562D01*
X7633Y31562D01*
X7750Y31546D01*
X7750Y31546D01*
X8050Y31546D01*
X8250Y31546D01*
X8250Y31546D01*
X8367Y31562D01*
X8477Y31607D01*
X8571Y31679D01*
X8643Y31773D01*
X8688Y31883D01*
X8704Y32000D01*
X8688Y32117D01*
X8688Y32117D01*
X8643Y32227D01*
Y32227D01*
X8571Y32321D01*
Y32321D01*
X8477Y32393D01*
X8477Y32393D01*
X8367Y32438D01*
X8367Y32438D01*
X8250Y32454D01*
X8250Y32454D01*
X8250Y32454D01*
D02*
G37*
G36*
X11500Y33019D02*
X11500Y33019D01*
X11409Y33007D01*
Y33007D01*
X11366Y33002D01*
X11366Y33002D01*
X11345Y32993D01*
X11345D01*
X11240Y32950D01*
X11240Y32950D01*
X11151Y32881D01*
X11133Y32867D01*
X11133Y32867D01*
X11064Y32778D01*
X11050Y32760D01*
Y32760D01*
X10998Y32634D01*
X10995Y32612D01*
X10981Y32500D01*
X10984Y32478D01*
X10998Y32366D01*
X11007Y32345D01*
X11007Y32345D01*
X11042Y32261D01*
Y32261D01*
X11050Y32240D01*
Y32240D01*
X11119Y32151D01*
X11119Y32151D01*
X11133Y32133D01*
Y32133D01*
X11222Y32064D01*
X11222Y32064D01*
X11240Y32050D01*
X11240Y32050D01*
X11366Y31998D01*
X11366Y31998D01*
X11388Y31995D01*
X11388Y31995D01*
X11500Y31981D01*
X11500Y31981D01*
X11522Y31984D01*
X11522Y31984D01*
X11634Y31998D01*
X11634Y31998D01*
X11855Y32027D01*
X12174Y32068D01*
X12380Y32076D01*
Y32500D01*
Y32924D01*
X12174Y32932D01*
X11743Y32988D01*
X11634Y33002D01*
X11634D01*
X11500Y33019D01*
D02*
G37*
G36*
X8250Y26954D02*
X7950Y26954D01*
X7750D01*
X7750Y26954D01*
X7633Y26938D01*
X7523Y26893D01*
X7429Y26821D01*
X7357Y26727D01*
X7312Y26617D01*
X7296Y26500D01*
X7312Y26383D01*
X7312Y26383D01*
X7357Y26273D01*
X7357Y26273D01*
X7429Y26179D01*
Y26179D01*
X7523Y26107D01*
X7523Y26107D01*
X7633Y26062D01*
X7633Y26062D01*
X7750Y26046D01*
X7750Y26046D01*
X8050Y26046D01*
X8250Y26046D01*
X8250Y26046D01*
X8367Y26062D01*
X8477Y26107D01*
X8571Y26179D01*
X8643Y26273D01*
X8688Y26383D01*
X8704Y26500D01*
X8688Y26617D01*
X8688Y26617D01*
X8643Y26727D01*
Y26727D01*
X8571Y26821D01*
Y26821D01*
X8477Y26893D01*
X8477Y26893D01*
X8367Y26938D01*
X8367Y26938D01*
X8250Y26954D01*
X8250Y26954D01*
X8250Y26954D01*
D02*
G37*
G36*
X11500Y27519D02*
X11500Y27519D01*
X11409Y27507D01*
Y27507D01*
X11366Y27502D01*
X11366Y27502D01*
X11345Y27493D01*
X11345D01*
X11240Y27450D01*
X11240Y27450D01*
X11151Y27381D01*
X11133Y27367D01*
X11133Y27367D01*
X11064Y27278D01*
X11050Y27260D01*
Y27260D01*
X10998Y27134D01*
X10995Y27112D01*
X10981Y27000D01*
X10984Y26978D01*
X10998Y26866D01*
X11007Y26845D01*
X11007Y26845D01*
X11042Y26761D01*
Y26761D01*
X11050Y26740D01*
Y26740D01*
X11119Y26651D01*
X11119Y26651D01*
X11133Y26633D01*
Y26633D01*
X11222Y26564D01*
X11222Y26564D01*
X11240Y26550D01*
X11240Y26550D01*
X11366Y26498D01*
X11366Y26498D01*
X11388Y26495D01*
X11388Y26495D01*
X11500Y26481D01*
X11500Y26481D01*
X11522Y26484D01*
X11522Y26484D01*
X11634Y26498D01*
X11634Y26498D01*
X11855Y26527D01*
X12174Y26568D01*
X12380Y26576D01*
Y27000D01*
Y27424D01*
X12174Y27432D01*
X11743Y27488D01*
X11634Y27502D01*
X11634D01*
X11500Y27519D01*
D02*
G37*
G36*
X38350Y27353D02*
X38350Y27353D01*
X38259Y27341D01*
X38259Y27341D01*
X38173Y27306D01*
X38173Y27306D01*
X38100Y27250D01*
X38100Y27250D01*
X38044Y27177D01*
X38044Y27176D01*
X38021Y27120D01*
X38380D01*
Y27353D01*
X38350D01*
D02*
G37*
G36*
X22380Y28895D02*
X22105D01*
Y28620D01*
X22380D01*
Y28895D01*
D02*
G37*
G36*
X13500Y27519D02*
X13478Y27516D01*
X13478Y27516D01*
X13366Y27502D01*
X13366Y27502D01*
X13257Y27488D01*
X12826Y27432D01*
X12620Y27424D01*
Y27000D01*
Y26576D01*
X12826Y26568D01*
X13257Y26512D01*
X13366Y26498D01*
X13366D01*
X13500Y26481D01*
X13500Y26481D01*
X13591Y26493D01*
Y26493D01*
X13634Y26498D01*
X13634Y26498D01*
X13655Y26507D01*
X13655Y26507D01*
X13760Y26550D01*
X13849Y26619D01*
X13849Y26619D01*
X13867Y26633D01*
X13936Y26722D01*
X13950Y26740D01*
Y26740D01*
X14002Y26866D01*
X14005Y26888D01*
X14005Y26888D01*
X14019Y27000D01*
X14016Y27022D01*
X14002Y27134D01*
X13993Y27155D01*
X13958Y27239D01*
Y27239D01*
X13950Y27260D01*
Y27260D01*
X13881Y27349D01*
Y27349D01*
X13867Y27367D01*
X13867Y27367D01*
X13778Y27436D01*
D01*
X13760Y27450D01*
X13760Y27450D01*
X13634Y27502D01*
X13634Y27502D01*
X13612Y27505D01*
X13612Y27505D01*
X13500Y27519D01*
X13500Y27519D01*
D02*
G37*
G36*
Y38519D02*
X13478Y38516D01*
X13478Y38516D01*
X13366Y38502D01*
X13366Y38502D01*
X13257Y38488D01*
X12826Y38432D01*
X12620Y38424D01*
Y38000D01*
Y37576D01*
X12826Y37568D01*
X13257Y37512D01*
X13366Y37498D01*
X13366D01*
X13500Y37481D01*
X13500Y37481D01*
X13591Y37493D01*
Y37493D01*
X13634Y37498D01*
X13634Y37498D01*
X13655Y37507D01*
X13655Y37507D01*
X13760Y37550D01*
X13849Y37619D01*
X13849Y37619D01*
X13867Y37633D01*
X13936Y37722D01*
X13950Y37740D01*
Y37740D01*
X14002Y37866D01*
X14005Y37888D01*
X14005Y37888D01*
X14019Y38000D01*
X14016Y38022D01*
X14002Y38134D01*
X13993Y38155D01*
X13958Y38239D01*
Y38239D01*
X13950Y38260D01*
Y38260D01*
X13881Y38349D01*
Y38349D01*
X13867Y38367D01*
X13867Y38367D01*
X13778Y38436D01*
D01*
X13760Y38450D01*
X13760Y38450D01*
X13634Y38502D01*
X13634Y38502D01*
X13612Y38505D01*
X13612Y38505D01*
X13500Y38519D01*
X13500Y38519D01*
D02*
G37*
G36*
X31495Y39495D02*
X31019Y39495D01*
X30505D01*
Y38505D01*
X31001D01*
X31495Y38505D01*
X31658Y38534D01*
X31880Y38574D01*
Y39000D01*
Y39426D01*
X31658Y39466D01*
X31495Y39495D01*
D02*
G37*
G36*
X34000Y39500D02*
X33948Y39495D01*
X33846Y39493D01*
X33500Y39488D01*
X33052Y39495D01*
X33000Y39500D01*
X32871Y39483D01*
X32871D01*
X32327Y39413D01*
X32120Y39404D01*
Y39000D01*
Y38596D01*
X32327Y38587D01*
X32871Y38517D01*
X33000Y38500D01*
X33042Y38505D01*
X33182Y38517D01*
X33500D01*
X33742D01*
X33818Y38517D01*
X33818Y38517D01*
X33958Y38505D01*
X34000Y38500D01*
X34000Y38500D01*
X34129Y38517D01*
X34129Y38517D01*
X34197Y38546D01*
X34197Y38546D01*
X34250Y38567D01*
X34250Y38567D01*
X34295Y38602D01*
Y38602D01*
X34353Y38647D01*
X34353Y38647D01*
X34388Y38692D01*
Y38692D01*
X34433Y38750D01*
Y38750D01*
X34454Y38803D01*
X34454Y38803D01*
X34483Y38871D01*
X34483Y38871D01*
X34490Y38927D01*
X34500Y39000D01*
X34492Y39056D01*
X34492Y39060D01*
X34483Y39129D01*
X34483Y39129D01*
X34461Y39182D01*
Y39182D01*
X34433Y39250D01*
Y39250D01*
X34398Y39295D01*
Y39295D01*
X34398Y39295D01*
X34353Y39353D01*
Y39353D01*
X34308Y39388D01*
X34308Y39388D01*
X34308D01*
X34250Y39433D01*
X34250Y39433D01*
X34129Y39483D01*
X34129Y39483D01*
X34004Y39499D01*
X34004Y39499D01*
X34000Y39500D01*
X34000Y39500D01*
D02*
G37*
G36*
X26380Y40880D02*
X26143D01*
X26172Y40811D01*
X26232Y40732D01*
X26311Y40672D01*
X26380Y40643D01*
Y40880D01*
D02*
G37*
G36*
X26857D02*
X26620D01*
Y40643D01*
X26689Y40672D01*
X26768Y40732D01*
X26828Y40811D01*
X26857Y40880D01*
D02*
G37*
G36*
X13500Y35519D02*
X13478Y35516D01*
X13366Y35502D01*
X13366Y35502D01*
X13240Y35450D01*
X12634Y35502D01*
X12634Y35502D01*
X12634Y35502D01*
X12500Y35519D01*
X12366Y35502D01*
X12240Y35450D01*
X12240Y35450D01*
X12240Y35450D01*
X12114Y35367D01*
X11886D01*
X11760Y35450D01*
X11760Y35450D01*
X11760D01*
X11655Y35493D01*
X11655D01*
X11634Y35502D01*
X11634Y35502D01*
X11500Y35519D01*
X11500Y35519D01*
X11366Y35502D01*
X11366Y35502D01*
X11261Y35458D01*
X11261Y35458D01*
X11240Y35450D01*
X11240Y35450D01*
X11188Y35410D01*
X11151Y35381D01*
X11133Y35367D01*
X11064Y35278D01*
X11064Y35278D01*
X11050Y35260D01*
X10998Y35134D01*
X10996Y35118D01*
X10981Y35000D01*
X10984Y34978D01*
X10984Y34978D01*
X10998Y34866D01*
X11004Y34851D01*
Y34851D01*
X11042Y34761D01*
X11050Y34740D01*
X11119Y34651D01*
Y34651D01*
X11119D01*
X11133Y34633D01*
Y34633D01*
X11222Y34564D01*
D01*
X11240Y34550D01*
X11240Y34550D01*
X11366Y34498D01*
X11366Y34498D01*
X11388Y34495D01*
X11388Y34495D01*
X11500Y34481D01*
X11500Y34481D01*
X11522Y34484D01*
X11634Y34498D01*
X11634Y34498D01*
X11760Y34550D01*
X12366Y34498D01*
X12366Y34498D01*
X12366Y34498D01*
X12500Y34481D01*
X12634Y34498D01*
X12760Y34550D01*
X12760Y34550D01*
X12760Y34550D01*
X12886Y34633D01*
X13114D01*
X13240Y34550D01*
X13240Y34550D01*
X13240D01*
X13345Y34507D01*
X13345D01*
X13366Y34498D01*
X13366Y34498D01*
X13500Y34481D01*
X13500Y34481D01*
X13634Y34498D01*
X13634Y34498D01*
X13739Y34542D01*
X13739Y34542D01*
X13760Y34550D01*
Y34550D01*
X13849Y34619D01*
Y34619D01*
X13867Y34633D01*
X13932Y34718D01*
X13950Y34740D01*
X14002Y34866D01*
X14004Y34882D01*
X14019Y35000D01*
X14016Y35022D01*
X14016Y35022D01*
X14002Y35134D01*
X13998Y35144D01*
X13958Y35239D01*
X13950Y35260D01*
X13881Y35349D01*
Y35349D01*
X13881D01*
X13867Y35367D01*
Y35367D01*
X13778Y35436D01*
D01*
X13760Y35450D01*
X13760Y35450D01*
X13634Y35502D01*
X13634Y35502D01*
X13612Y35505D01*
X13612Y35505D01*
X13500Y35519D01*
X13500Y35519D01*
D02*
G37*
G36*
Y33019D02*
X13478Y33016D01*
X13478Y33016D01*
X13366Y33002D01*
X13366Y33002D01*
X13257Y32988D01*
X12826Y32932D01*
X12620Y32924D01*
Y32500D01*
Y32076D01*
X12826Y32068D01*
X13257Y32012D01*
X13366Y31998D01*
X13366D01*
X13500Y31981D01*
X13500Y31981D01*
X13591Y31993D01*
Y31993D01*
X13634Y31998D01*
X13634Y31998D01*
X13655Y32007D01*
X13655Y32007D01*
X13760Y32050D01*
X13849Y32119D01*
X13849Y32119D01*
X13867Y32133D01*
X13936Y32222D01*
X13950Y32240D01*
Y32240D01*
X14002Y32366D01*
X14005Y32388D01*
X14005Y32388D01*
X14019Y32500D01*
X14016Y32522D01*
X14002Y32634D01*
X13993Y32655D01*
X13958Y32739D01*
Y32739D01*
X13950Y32760D01*
Y32760D01*
X13881Y32849D01*
Y32849D01*
X13867Y32867D01*
X13867Y32867D01*
X13778Y32936D01*
D01*
X13760Y32950D01*
X13760Y32950D01*
X13634Y33002D01*
X13634Y33002D01*
X13612Y33005D01*
X13612Y33005D01*
X13500Y33019D01*
X13500Y33019D01*
D02*
G37*
G36*
X8250Y35954D02*
X7950Y35954D01*
X7750D01*
X7750Y35954D01*
X7633Y35938D01*
X7523Y35893D01*
X7429Y35821D01*
X7357Y35727D01*
X7312Y35617D01*
X7296Y35500D01*
X7312Y35383D01*
X7312Y35383D01*
X7357Y35273D01*
X7357Y35273D01*
X7429Y35179D01*
Y35179D01*
X7523Y35107D01*
X7523Y35107D01*
X7633Y35062D01*
X7633Y35062D01*
X7750Y35046D01*
X7750Y35046D01*
X8050Y35046D01*
X8250Y35046D01*
X8250Y35046D01*
X8367Y35062D01*
X8477Y35107D01*
X8571Y35179D01*
X8643Y35273D01*
X8688Y35383D01*
X8704Y35500D01*
X8688Y35617D01*
X8688Y35617D01*
X8643Y35727D01*
Y35727D01*
X8571Y35821D01*
Y35821D01*
X8477Y35893D01*
X8477Y35893D01*
X8367Y35938D01*
X8367Y35938D01*
X8250Y35954D01*
X8250Y35954D01*
X8250Y35954D01*
D02*
G37*
G36*
Y37954D02*
X7950Y37954D01*
X7750D01*
X7750Y37954D01*
X7633Y37938D01*
X7523Y37893D01*
X7429Y37821D01*
X7357Y37727D01*
X7312Y37617D01*
X7296Y37500D01*
X7312Y37383D01*
X7312Y37383D01*
X7357Y37273D01*
X7357Y37273D01*
X7429Y37179D01*
Y37179D01*
X7523Y37107D01*
X7523Y37107D01*
X7633Y37062D01*
X7633Y37062D01*
X7750Y37046D01*
X7750Y37046D01*
X8050Y37046D01*
X8250Y37046D01*
X8250Y37046D01*
X8367Y37062D01*
X8477Y37107D01*
X8571Y37179D01*
X8643Y37273D01*
X8688Y37383D01*
X8704Y37500D01*
X8688Y37617D01*
X8688Y37617D01*
X8643Y37727D01*
Y37727D01*
X8571Y37821D01*
Y37821D01*
X8477Y37893D01*
X8477Y37893D01*
X8367Y37938D01*
X8367Y37938D01*
X8250Y37954D01*
X8250Y37954D01*
X8250Y37954D01*
D02*
G37*
G36*
X11500Y38519D02*
X11500Y38519D01*
X11409Y38507D01*
Y38507D01*
X11366Y38502D01*
X11366Y38502D01*
X11345Y38493D01*
X11345D01*
X11240Y38450D01*
X11240Y38450D01*
X11151Y38381D01*
X11133Y38367D01*
X11133Y38367D01*
X11064Y38278D01*
X11050Y38260D01*
Y38260D01*
X10998Y38134D01*
X10995Y38112D01*
X10981Y38000D01*
X10984Y37978D01*
X10998Y37866D01*
X11007Y37845D01*
X11007Y37845D01*
X11042Y37761D01*
Y37761D01*
X11050Y37740D01*
Y37740D01*
X11119Y37651D01*
X11119Y37651D01*
X11133Y37633D01*
Y37633D01*
X11222Y37564D01*
X11222Y37564D01*
X11240Y37550D01*
X11240Y37550D01*
X11366Y37498D01*
X11366Y37498D01*
X11388Y37495D01*
X11388Y37495D01*
X11500Y37481D01*
X11500Y37481D01*
X11522Y37484D01*
X11522Y37484D01*
X11634Y37498D01*
X11634Y37498D01*
X11855Y37527D01*
X12174Y37568D01*
X12380Y37576D01*
Y38000D01*
Y38424D01*
X12174Y38432D01*
X11743Y38488D01*
X11634Y38502D01*
X11634D01*
X11500Y38519D01*
D02*
G37*
%LPD*%
G54D10*
X22000Y16500D02*
X27000D01*
X21500Y17000D02*
X22000Y16500D01*
X9500Y17000D02*
X21500D01*
X32000Y19500D02*
X33500D01*
X29500Y17000D02*
X32000Y19500D01*
X29500Y16000D02*
Y17000D01*
X28000Y14500D02*
X29500Y16000D01*
X22500Y14500D02*
X28000D01*
X14000Y6000D02*
X22500Y14500D01*
X9500Y6000D02*
X14000D01*
X27500Y15500D02*
X28500Y16500D01*
X22000Y15500D02*
X27500D01*
X18000Y11500D02*
X22000Y15500D01*
X27000Y16500D02*
X27500Y17000D01*
X9500Y11500D02*
X18000D01*
X31500Y20500D02*
X33500D01*
X28500Y17500D02*
X31500Y20500D01*
X28500Y16500D02*
Y17500D01*
X27500Y18000D02*
X31000Y21500D01*
X27500Y17000D02*
Y18000D01*
X31000Y21500D02*
X33500D01*
G54D11*
X18000Y2000D02*
D03*
X37500D02*
D03*
Y49000D02*
D03*
X18000D02*
D03*
G54D12*
X13500Y21500D02*
D03*
X12500D02*
D03*
X11500D02*
D03*
Y18500D02*
D03*
X12500D02*
D03*
X13500D02*
D03*
Y49000D02*
D03*
X12500D02*
D03*
X11500D02*
D03*
Y46000D02*
D03*
X12500D02*
D03*
X13500D02*
D03*
Y16000D02*
D03*
X12500D02*
D03*
X11500D02*
D03*
Y13000D02*
D03*
X12500D02*
D03*
X13500D02*
D03*
Y43500D02*
D03*
X12500D02*
D03*
X11500D02*
D03*
Y40500D02*
D03*
X12500D02*
D03*
X13500D02*
D03*
Y10500D02*
D03*
X12500D02*
D03*
X11500D02*
D03*
Y7500D02*
D03*
X12500D02*
D03*
X13500D02*
D03*
Y38000D02*
D03*
X12500D02*
D03*
X11500D02*
D03*
Y35000D02*
D03*
X12500D02*
D03*
X13500D02*
D03*
Y5000D02*
D03*
X12500D02*
D03*
X11500D02*
D03*
Y2000D02*
D03*
X12500D02*
D03*
X13500D02*
D03*
Y32500D02*
D03*
X12500D02*
D03*
X11500D02*
D03*
Y29500D02*
D03*
X12500D02*
D03*
X13500D02*
D03*
Y27000D02*
D03*
X12500D02*
D03*
X11500D02*
D03*
Y24000D02*
D03*
X12500D02*
D03*
X13500D02*
D03*
G54D13*
X5293Y47014D02*
D03*
X2813D02*
D03*
X4053Y48750D02*
D03*
X5293Y41514D02*
D03*
X2813D02*
D03*
X4053Y43250D02*
D03*
X5293Y36014D02*
D03*
X2813D02*
D03*
X4053Y37750D02*
D03*
X5293Y30514D02*
D03*
X2813D02*
D03*
X4053Y32250D02*
D03*
X5293Y25014D02*
D03*
X2813D02*
D03*
X4053Y26750D02*
D03*
X5293Y19514D02*
D03*
X2813D02*
D03*
X4053Y21250D02*
D03*
X5293Y14014D02*
D03*
X2813D02*
D03*
X4053Y15750D02*
D03*
X5293Y8514D02*
D03*
X2813D02*
D03*
X4053Y10250D02*
D03*
X5293Y3014D02*
D03*
X2813D02*
D03*
X4053Y4750D02*
D03*
X27980Y8260D02*
D03*
Y5780D02*
D03*
X26244Y7020D02*
D03*
G54D14*
X22500Y18500D02*
D03*
Y19500D02*
D03*
Y20500D02*
D03*
Y21500D02*
D03*
Y22500D02*
D03*
Y23500D02*
D03*
Y24500D02*
D03*
Y25500D02*
D03*
Y26500D02*
D03*
Y27500D02*
D03*
X23000Y9000D02*
D03*
X22000D02*
D03*
X21000D02*
D03*
X37000D02*
D03*
X36000D02*
D03*
X35000D02*
D03*
X32000Y4000D02*
D03*
Y39000D02*
D03*
X33000D02*
D03*
X34000D02*
D03*
X27000Y12500D02*
D03*
G54D15*
X22500Y28500D02*
D03*
G54D16*
X21000Y49000D02*
D03*
Y46000D02*
D03*
X23000D02*
D03*
Y49000D02*
D03*
G54D17*
X8000Y48500D02*
D03*
Y46500D02*
D03*
Y43000D02*
D03*
Y41000D02*
D03*
Y37500D02*
D03*
Y35500D02*
D03*
Y32000D02*
D03*
Y30000D02*
D03*
Y26500D02*
D03*
Y24500D02*
D03*
Y21000D02*
D03*
Y19000D02*
D03*
Y15500D02*
D03*
Y13500D02*
D03*
Y10000D02*
D03*
Y8000D02*
D03*
Y4500D02*
D03*
Y2500D02*
D03*
G54D18*
X25500Y18500D02*
D03*
X35500D02*
D03*
G54D19*
Y31500D02*
D03*
Y30500D02*
D03*
Y29500D02*
D03*
Y28500D02*
D03*
Y27500D02*
D03*
Y26500D02*
D03*
Y25500D02*
D03*
Y24500D02*
D03*
Y23500D02*
D03*
Y22500D02*
D03*
Y21500D02*
D03*
Y20500D02*
D03*
Y19500D02*
D03*
Y17500D02*
D03*
X25500D02*
D03*
Y19500D02*
D03*
Y20500D02*
D03*
Y21500D02*
D03*
Y22500D02*
D03*
Y23500D02*
D03*
Y24500D02*
D03*
Y25500D02*
D03*
Y26500D02*
D03*
Y27500D02*
D03*
Y28500D02*
D03*
Y29500D02*
D03*
Y30500D02*
D03*
Y31500D02*
D03*
G54D20*
X38500Y21000D02*
D03*
Y22000D02*
D03*
X38500Y26000D02*
D03*
Y27000D02*
D03*
G54D21*
X24000Y9000D02*
D03*
X38000D02*
D03*
X31000Y4000D02*
D03*
Y39000D02*
D03*
X28000Y12500D02*
D03*
G54D22*
X31500Y12000D02*
D03*
Y7000D02*
D03*
G54D23*
X20500Y2500D02*
D03*
X24000Y13500D02*
D03*
X33000Y25500D02*
D03*
X31500Y45000D02*
D03*
X26500Y41000D02*
D03*
X33500Y19500D02*
D03*
Y20500D02*
D03*
Y21500D02*
D03*
X9500Y11500D02*
D03*
Y17000D02*
D03*
Y6000D02*
D03*
M02*
