G04 Layer_Color=65535*
%FSLAX24Y24*%
%MOIN*%
G70*
G01*
G75*
%ADD26C,0.0354*%
%ADD27C,0.0100*%
%ADD28C,0.0079*%
%ADD29C,0.0120*%
%ADD30C,0.0020*%
%ADD31C,0.0020*%
%ADD32C,0.0098*%
%ADD33C,0.0050*%
%ADD34C,0.0250*%
G54D26*
X-7179Y-25669D02*
G03*
X-7179Y-25669I-79J0D01*
G01*
Y4331D02*
G03*
X-7179Y4331I-79J0D01*
G01*
Y-19669D02*
G03*
X-7179Y-19669I-79J0D01*
G01*
Y10331D02*
G03*
X-7179Y10331I-79J0D01*
G01*
Y-13669D02*
G03*
X-7179Y-13669I-79J0D01*
G01*
Y16331D02*
G03*
X-7179Y16331I-79J0D01*
G01*
Y-7669D02*
G03*
X-7179Y-7669I-79J0D01*
G01*
Y-1669D02*
G03*
X-7179Y-1669I-79J0D01*
G01*
Y22331D02*
G03*
X-7179Y22331I-79J0D01*
G01*
G54D27*
X3667Y14986D02*
G03*
X3642Y15631I575J345D01*
G01*
X14046Y-20217D02*
G03*
X13401Y-20242I-345J575D01*
G01*
X3280Y-18574D02*
X3780D01*
X3280Y-20424D02*
X4280D01*
X3280D02*
Y-18574D01*
X3780D02*
X4280D01*
Y-20424D02*
Y-18574D01*
X3280Y-18924D02*
X4280D01*
X3642Y15010D02*
Y15631D01*
Y15010D02*
Y15631D01*
Y15010D02*
Y15631D01*
Y15010D02*
Y15631D01*
X13401Y-20242D02*
X14021D01*
X13401D02*
X14021D01*
X13401D02*
X14021D01*
X13401D02*
X14021D01*
X8740Y-18719D02*
X9240D01*
X8740Y-20569D02*
X9740D01*
X8740D02*
Y-18719D01*
X9240D02*
X9740D01*
Y-20569D02*
Y-18719D01*
X8740Y-19069D02*
X9740D01*
X11711Y-30866D02*
Y-24119D01*
X7742Y-30866D02*
X11711D01*
X7742D02*
Y-24119D01*
X11711D01*
X-17455Y15362D02*
X-10708D01*
X-17455D02*
Y19331D01*
X-10708D01*
Y15362D02*
Y19331D01*
X-17455Y9362D02*
X-10708D01*
X-17455D02*
Y13331D01*
X-10708D01*
Y9362D02*
Y13331D01*
X-17455Y3362D02*
X-10708D01*
X-17455D02*
Y7331D01*
X-10708D01*
Y3362D02*
Y7331D01*
X-17455Y-2638D02*
X-10708D01*
X-17455D02*
Y1331D01*
X-10708D01*
Y-2638D02*
Y1331D01*
X-17455Y-8638D02*
X-10708D01*
X-17455D02*
Y-4669D01*
X-10708D01*
Y-8638D02*
Y-4669D01*
X-17455Y-14638D02*
X-10708D01*
X-17455D02*
Y-10669D01*
X-10708D01*
Y-14638D02*
Y-10669D01*
X-17455Y-20638D02*
X-10708D01*
X-17455D02*
Y-16669D01*
X-10708D01*
Y-20638D02*
Y-16669D01*
X-17455Y-26638D02*
X-10708D01*
X-17455D02*
Y-22669D01*
X-10708D01*
Y-26638D02*
Y-22669D01*
X-17455Y21362D02*
X-10708D01*
X-17455D02*
Y25331D01*
X-10708D01*
Y21362D02*
Y25331D01*
X2784Y21602D02*
X2684Y21702D01*
X2484D01*
X2384Y21602D01*
Y21202D01*
X2484Y21102D01*
X2684D01*
X2784Y21202D01*
X2984Y21102D02*
X3184D01*
X3084D01*
Y21702D01*
X2984Y21602D01*
X10541Y-18573D02*
X9941D01*
Y-18873D01*
X10041Y-18973D01*
X10441D01*
X10541Y-18873D01*
Y-18573D01*
X9941Y-19173D02*
Y-19373D01*
Y-19273D01*
X10541D01*
X10441Y-19173D01*
X5078Y-18516D02*
X4478D01*
Y-18816D01*
X4578Y-18916D01*
X4978D01*
X5078Y-18816D01*
Y-18516D01*
X4478Y-19515D02*
Y-19116D01*
X4878Y-19515D01*
X4978D01*
X5078Y-19415D01*
Y-19216D01*
X4978Y-19116D01*
X3197Y11776D02*
X2797D01*
Y11176D01*
X3197D01*
X2797Y11476D02*
X2997D01*
X3797Y11676D02*
X3697Y11776D01*
X3497D01*
X3397Y11676D01*
Y11576D01*
X3497Y11476D01*
X3697D01*
X3797Y11376D01*
Y11276D01*
X3697Y11176D01*
X3497D01*
X3397Y11276D01*
X3997Y11176D02*
Y11776D01*
X4297D01*
X4397Y11676D01*
Y11476D01*
X4297Y11376D01*
X3997D01*
X4597Y11676D02*
X4697Y11776D01*
X4896D01*
X4996Y11676D01*
Y11576D01*
X4896Y11476D01*
X4796D01*
X4896D01*
X4996Y11376D01*
Y11276D01*
X4896Y11176D01*
X4697D01*
X4597Y11276D01*
X5596Y11176D02*
X5196D01*
X5596Y11576D01*
Y11676D01*
X5496Y11776D01*
X5296D01*
X5196Y11676D01*
X12561Y14123D02*
Y13524D01*
X12961D01*
X13561Y14023D02*
X13461Y14123D01*
X13261D01*
X13161Y14023D01*
Y13624D01*
X13261Y13524D01*
X13461D01*
X13561Y13624D01*
X13761Y14123D02*
Y13524D01*
X14061D01*
X14161Y13624D01*
Y14023D01*
X14061Y14123D01*
X13761D01*
X-9758Y25931D02*
Y25331D01*
X-9358D01*
X-9158Y25931D02*
Y25331D01*
X-8858D01*
X-8758Y25431D01*
Y25831D01*
X-8858Y25931D01*
X-9158D01*
X-8558Y25331D02*
X-8358D01*
X-8458D01*
Y25931D01*
X-8558Y25831D01*
X-9758Y19931D02*
Y19331D01*
X-9358D01*
X-9158Y19931D02*
Y19331D01*
X-8858D01*
X-8758Y19431D01*
Y19831D01*
X-8858Y19931D01*
X-9158D01*
X-8158Y19331D02*
X-8558D01*
X-8158Y19731D01*
Y19831D01*
X-8258Y19931D01*
X-8458D01*
X-8558Y19831D01*
X-9758Y13931D02*
Y13331D01*
X-9358D01*
X-9158Y13931D02*
Y13331D01*
X-8858D01*
X-8758Y13431D01*
Y13831D01*
X-8858Y13931D01*
X-9158D01*
X-8558Y13831D02*
X-8458Y13931D01*
X-8258D01*
X-8158Y13831D01*
Y13731D01*
X-8258Y13631D01*
X-8358D01*
X-8258D01*
X-8158Y13531D01*
Y13431D01*
X-8258Y13331D01*
X-8458D01*
X-8558Y13431D01*
X-9758Y7931D02*
Y7331D01*
X-9358D01*
X-9158Y7931D02*
Y7331D01*
X-8858D01*
X-8758Y7431D01*
Y7831D01*
X-8858Y7931D01*
X-9158D01*
X-8258Y7331D02*
Y7931D01*
X-8558Y7631D01*
X-8158D01*
X-9758Y1931D02*
Y1331D01*
X-9358D01*
X-9158Y1931D02*
Y1331D01*
X-8858D01*
X-8758Y1431D01*
Y1831D01*
X-8858Y1931D01*
X-9158D01*
X-8158D02*
X-8558D01*
Y1631D01*
X-8358Y1731D01*
X-8258D01*
X-8158Y1631D01*
Y1431D01*
X-8258Y1331D01*
X-8458D01*
X-8558Y1431D01*
X-9758Y-4069D02*
Y-4669D01*
X-9358D01*
X-9158Y-4069D02*
Y-4669D01*
X-8858D01*
X-8758Y-4569D01*
Y-4169D01*
X-8858Y-4069D01*
X-9158D01*
X-8158D02*
X-8358Y-4169D01*
X-8558Y-4369D01*
Y-4569D01*
X-8458Y-4669D01*
X-8258D01*
X-8158Y-4569D01*
Y-4469D01*
X-8258Y-4369D01*
X-8558D01*
X-9758Y-10069D02*
Y-10669D01*
X-9358D01*
X-9158Y-10069D02*
Y-10669D01*
X-8858D01*
X-8758Y-10569D01*
Y-10169D01*
X-8858Y-10069D01*
X-9158D01*
X-8558D02*
X-8158D01*
Y-10169D01*
X-8558Y-10569D01*
Y-10669D01*
X-9758Y-16069D02*
Y-16669D01*
X-9358D01*
X-9158Y-16069D02*
Y-16669D01*
X-8858D01*
X-8758Y-16569D01*
Y-16169D01*
X-8858Y-16069D01*
X-9158D01*
X-8558Y-16169D02*
X-8458Y-16069D01*
X-8258D01*
X-8158Y-16169D01*
Y-16269D01*
X-8258Y-16369D01*
X-8158Y-16469D01*
Y-16569D01*
X-8258Y-16669D01*
X-8458D01*
X-8558Y-16569D01*
Y-16469D01*
X-8458Y-16369D01*
X-8558Y-16269D01*
Y-16169D01*
X-8458Y-16369D02*
X-8258D01*
X-9758Y-22069D02*
Y-22669D01*
X-9358D01*
X-9158Y-22069D02*
Y-22669D01*
X-8858D01*
X-8758Y-22569D01*
Y-22169D01*
X-8858Y-22069D01*
X-9158D01*
X-8558Y-22569D02*
X-8458Y-22669D01*
X-8258D01*
X-8158Y-22569D01*
Y-22169D01*
X-8258Y-22069D01*
X-8458D01*
X-8558Y-22169D01*
Y-22269D01*
X-8458Y-22369D01*
X-8158D01*
X14601Y-21642D02*
X15201D01*
Y-21242D01*
X14601Y-21042D02*
X15201D01*
Y-20742D01*
X15101Y-20642D01*
X14701D01*
X14601Y-20742D01*
Y-21042D01*
X14801Y-20342D02*
Y-20142D01*
X14901Y-20042D01*
X15201D01*
Y-20342D01*
X15101Y-20442D01*
X15001Y-20342D01*
Y-20042D01*
X15201Y-19842D02*
Y-19642D01*
Y-19742D01*
X14601D01*
Y-19842D01*
X15201Y-19342D02*
Y-19143D01*
Y-19243D01*
X14801D01*
Y-19342D01*
X15201Y-18843D02*
X14801D01*
Y-18743D01*
X14901Y-18643D01*
X15201D01*
X14901D01*
X14801Y-18543D01*
X14901Y-18443D01*
X15201D01*
X1742Y16931D02*
Y16331D01*
X2142D01*
X2342Y16931D02*
Y16331D01*
X2642D01*
X2742Y16431D01*
Y16831D01*
X2642Y16931D01*
X2342D01*
X2942Y16331D02*
X3242D01*
X3342Y16431D01*
X3242Y16531D01*
X3042D01*
X2942Y16631D01*
X3042Y16731D01*
X3342D01*
X3642Y16831D02*
Y16731D01*
X3542D01*
X3741D01*
X3642D01*
Y16431D01*
X3741Y16331D01*
X4141Y16731D02*
X4341D01*
X4441Y16631D01*
Y16331D01*
X4141D01*
X4041Y16431D01*
X4141Y16531D01*
X4441D01*
X4741Y16831D02*
Y16731D01*
X4641D01*
X4841D01*
X4741D01*
Y16431D01*
X4841Y16331D01*
X5141Y16731D02*
Y16431D01*
X5241Y16331D01*
X5541D01*
Y16731D01*
X5841Y16831D02*
Y16731D01*
X5741D01*
X5941D01*
X5841D01*
Y16431D01*
X5941Y16331D01*
X-3926Y22909D02*
Y23109D01*
X-4026Y23209D01*
X-4426D01*
X-4526Y23109D01*
Y22909D01*
X-4426Y22809D01*
X-4026D01*
X-3926Y22909D01*
X-4726Y22609D02*
X-4126D01*
Y22309D01*
X-4226Y22209D01*
X-4426D01*
X-4526Y22309D01*
Y22609D01*
Y22009D02*
Y21809D01*
Y21909D01*
X-3926D01*
X-4026Y22009D01*
X-3926Y17072D02*
Y17272D01*
X-4026Y17372D01*
X-4426D01*
X-4526Y17272D01*
Y17072D01*
X-4426Y16972D01*
X-4026D01*
X-3926Y17072D01*
X-4726Y16772D02*
X-4126D01*
Y16472D01*
X-4226Y16372D01*
X-4426D01*
X-4526Y16472D01*
Y16772D01*
Y15773D02*
Y16172D01*
X-4126Y15773D01*
X-4026D01*
X-3926Y15873D01*
Y16072D01*
X-4026Y16172D01*
X-4014Y10930D02*
Y11130D01*
X-4114Y11230D01*
X-4514D01*
X-4614Y11130D01*
Y10930D01*
X-4514Y10830D01*
X-4114D01*
X-4014Y10930D01*
X-4814Y10631D02*
X-4214D01*
Y10331D01*
X-4314Y10231D01*
X-4514D01*
X-4614Y10331D01*
Y10631D01*
X-4114Y10031D02*
X-4014Y9931D01*
Y9731D01*
X-4114Y9631D01*
X-4214D01*
X-4314Y9731D01*
Y9831D01*
Y9731D01*
X-4414Y9631D01*
X-4514D01*
X-4614Y9731D01*
Y9931D01*
X-4514Y10031D01*
X-3965Y5104D02*
Y5304D01*
X-4065Y5404D01*
X-4465D01*
X-4565Y5304D01*
Y5104D01*
X-4465Y5004D01*
X-4065D01*
X-3965Y5104D01*
X-4765Y4804D02*
X-4165D01*
Y4504D01*
X-4265Y4404D01*
X-4465D01*
X-4565Y4504D01*
Y4804D01*
Y3904D02*
X-3965D01*
X-4265Y4204D01*
Y3804D01*
X-3965Y-861D02*
Y-661D01*
X-4065Y-561D01*
X-4465D01*
X-4565Y-661D01*
Y-861D01*
X-4465Y-961D01*
X-4065D01*
X-3965Y-861D01*
X-4765Y-1161D02*
X-4165D01*
Y-1461D01*
X-4265Y-1561D01*
X-4465D01*
X-4565Y-1461D01*
Y-1161D01*
X-3965Y-2161D02*
Y-1761D01*
X-4265D01*
X-4165Y-1961D01*
Y-2061D01*
X-4265Y-2161D01*
X-4465D01*
X-4565Y-2061D01*
Y-1861D01*
X-4465Y-1761D01*
X-3877Y-6963D02*
Y-6763D01*
X-3977Y-6663D01*
X-4376D01*
X-4476Y-6763D01*
Y-6963D01*
X-4376Y-7063D01*
X-3977D01*
X-3877Y-6963D01*
X-4676Y-7263D02*
X-4077D01*
Y-7563D01*
X-4176Y-7663D01*
X-4376D01*
X-4476Y-7563D01*
Y-7263D01*
X-3877Y-8263D02*
X-3977Y-8063D01*
X-4176Y-7863D01*
X-4376D01*
X-4476Y-7963D01*
Y-8163D01*
X-4376Y-8263D01*
X-4276D01*
X-4176Y-8163D01*
Y-7863D01*
X-4054Y-12879D02*
Y-12679D01*
X-4154Y-12579D01*
X-4554D01*
X-4654Y-12679D01*
Y-12879D01*
X-4554Y-12979D01*
X-4154D01*
X-4054Y-12879D01*
X-4853Y-13179D02*
X-4254D01*
Y-13478D01*
X-4354Y-13578D01*
X-4554D01*
X-4654Y-13478D01*
Y-13179D01*
X-4054Y-13778D02*
Y-14178D01*
X-4154D01*
X-4554Y-13778D01*
X-4654D01*
X-3965Y-18932D02*
Y-18732D01*
X-4065Y-18632D01*
X-4465D01*
X-4565Y-18732D01*
Y-18932D01*
X-4465Y-19032D01*
X-4065D01*
X-3965Y-18932D01*
X-4765Y-19232D02*
X-4165D01*
Y-19532D01*
X-4265Y-19632D01*
X-4465D01*
X-4565Y-19532D01*
Y-19232D01*
X-4065Y-19832D02*
X-3965Y-19931D01*
Y-20131D01*
X-4065Y-20231D01*
X-4165D01*
X-4265Y-20131D01*
X-4365Y-20231D01*
X-4465D01*
X-4565Y-20131D01*
Y-19931D01*
X-4465Y-19832D01*
X-4365D01*
X-4265Y-19931D01*
X-4165Y-19832D01*
X-4065D01*
X-4265Y-19931D02*
Y-20131D01*
X-3965Y-24847D02*
Y-24647D01*
X-4065Y-24547D01*
X-4465D01*
X-4565Y-24647D01*
Y-24847D01*
X-4465Y-24947D01*
X-4065D01*
X-3965Y-24847D01*
X-4765Y-25147D02*
X-4165D01*
Y-25447D01*
X-4265Y-25547D01*
X-4465D01*
X-4565Y-25447D01*
Y-25147D01*
X-4465Y-25747D02*
X-4565Y-25847D01*
Y-26047D01*
X-4465Y-26147D01*
X-4065D01*
X-3965Y-26047D01*
Y-25847D01*
X-4065Y-25747D01*
X-4165D01*
X-4265Y-25847D01*
Y-26147D01*
X3242Y-25169D02*
Y-24569D01*
X3542D01*
X3642Y-24669D01*
Y-24869D01*
X3542Y-24969D01*
X3242D01*
X3842Y-25169D02*
X4042D01*
X3942D01*
Y-24769D01*
X3842D01*
X4342Y-25169D02*
X4542D01*
X4442D01*
Y-24569D01*
X4342D01*
X5142Y-25169D02*
X4942D01*
X4842Y-25069D01*
Y-24869D01*
X4942Y-24769D01*
X5142D01*
X5241Y-24869D01*
Y-24969D01*
X4842D01*
X5441Y-25169D02*
X5741D01*
X5841Y-25069D01*
X5741Y-24969D01*
X5541D01*
X5441Y-24869D01*
X5541Y-24769D01*
X5841D01*
X12965Y-16122D02*
X12365D01*
Y-15822D01*
X12465Y-15722D01*
X12665D01*
X12765Y-15822D01*
Y-16122D01*
Y-15922D02*
X12965Y-15722D01*
Y-15522D02*
Y-15322D01*
Y-15422D01*
X12365D01*
X12465Y-15522D01*
X9913Y20472D02*
X10513D01*
Y20173D01*
X10413Y20073D01*
X10213D01*
X10113Y20173D01*
Y20472D01*
Y20273D02*
X9913Y20073D01*
Y19473D02*
Y19873D01*
X10313Y19473D01*
X10413D01*
X10513Y19573D01*
Y19773D01*
X10413Y19873D01*
X7768Y16073D02*
Y16673D01*
X8068D01*
X8168Y16573D01*
Y16373D01*
X8068Y16273D01*
X7768D01*
X7968D02*
X8168Y16073D01*
X8368Y16573D02*
X8467Y16673D01*
X8667D01*
X8767Y16573D01*
Y16473D01*
X8667Y16373D01*
X8567D01*
X8667D01*
X8767Y16273D01*
Y16173D01*
X8667Y16073D01*
X8467D01*
X8368Y16173D01*
X-2104Y23789D02*
X-1505D01*
Y23489D01*
X-1604Y23389D01*
X-1804D01*
X-1904Y23489D01*
Y23789D01*
Y23589D02*
X-2104Y23389D01*
Y22890D02*
X-1505D01*
X-1804Y23190D01*
Y22790D01*
X-2104Y17825D02*
X-1505D01*
Y17525D01*
X-1604Y17425D01*
X-1804D01*
X-1904Y17525D01*
Y17825D01*
Y17625D02*
X-2104Y17425D01*
X-1505Y16825D02*
Y17225D01*
X-1804D01*
X-1704Y17025D01*
Y16925D01*
X-1804Y16825D01*
X-2004D01*
X-2104Y16925D01*
Y17125D01*
X-2004Y17225D01*
X-2144Y11772D02*
X-1544D01*
Y11472D01*
X-1644Y11372D01*
X-1844D01*
X-1944Y11472D01*
Y11772D01*
Y11572D02*
X-2144Y11372D01*
X-1544Y10772D02*
X-1644Y10972D01*
X-1844Y11172D01*
X-2044D01*
X-2144Y11072D01*
Y10872D01*
X-2044Y10772D01*
X-1944D01*
X-1844Y10872D01*
Y11172D01*
X-2104Y5856D02*
X-1505D01*
Y5556D01*
X-1604Y5456D01*
X-1804D01*
X-1904Y5556D01*
Y5856D01*
Y5656D02*
X-2104Y5456D01*
X-1505Y5256D02*
Y4857D01*
X-1604D01*
X-2004Y5256D01*
X-2104D01*
X-2144Y-157D02*
X-1544D01*
Y-457D01*
X-1644Y-557D01*
X-1844D01*
X-1944Y-457D01*
Y-157D01*
Y-357D02*
X-2144Y-557D01*
X-1644Y-757D02*
X-1544Y-857D01*
Y-1057D01*
X-1644Y-1157D01*
X-1744D01*
X-1844Y-1057D01*
X-1944Y-1157D01*
X-2044D01*
X-2144Y-1057D01*
Y-857D01*
X-2044Y-757D01*
X-1944D01*
X-1844Y-857D01*
X-1744Y-757D01*
X-1644D01*
X-1844Y-857D02*
Y-1057D01*
X-2055Y-6161D02*
X-1455D01*
Y-6461D01*
X-1555Y-6561D01*
X-1755D01*
X-1855Y-6461D01*
Y-6161D01*
Y-6361D02*
X-2055Y-6561D01*
X-1955Y-6761D02*
X-2055Y-6861D01*
Y-7061D01*
X-1955Y-7161D01*
X-1555D01*
X-1455Y-7061D01*
Y-6861D01*
X-1555Y-6761D01*
X-1655D01*
X-1755Y-6861D01*
Y-7161D01*
X-2016Y-11949D02*
X-1416D01*
Y-12249D01*
X-1516Y-12349D01*
X-1716D01*
X-1816Y-12249D01*
Y-11949D01*
Y-12149D02*
X-2016Y-12349D01*
Y-12549D02*
Y-12749D01*
Y-12649D01*
X-1416D01*
X-1516Y-12549D01*
Y-13048D02*
X-1416Y-13148D01*
Y-13348D01*
X-1516Y-13448D01*
X-1916D01*
X-2016Y-13348D01*
Y-13148D01*
X-1916Y-13048D01*
X-1516D01*
X-2055Y-18051D02*
X-1455D01*
Y-18351D01*
X-1555Y-18451D01*
X-1755D01*
X-1855Y-18351D01*
Y-18051D01*
Y-18251D02*
X-2055Y-18451D01*
Y-18651D02*
Y-18851D01*
Y-18751D01*
X-1455D01*
X-1555Y-18651D01*
X-2055Y-19151D02*
Y-19351D01*
Y-19251D01*
X-1455D01*
X-1555Y-19151D01*
X-1967Y-23927D02*
X-1367D01*
Y-24227D01*
X-1467Y-24327D01*
X-1667D01*
X-1767Y-24227D01*
Y-23927D01*
Y-24127D02*
X-1967Y-24327D01*
Y-24527D02*
Y-24727D01*
Y-24627D01*
X-1367D01*
X-1467Y-24527D01*
X-1967Y-25427D02*
Y-25027D01*
X-1567Y-25427D01*
X-1467D01*
X-1367Y-25327D01*
Y-25127D01*
X-1467Y-25027D01*
X-9758Y20831D02*
Y21431D01*
X-9458D01*
X-9358Y21331D01*
Y21131D01*
X-9458Y21031D01*
X-9758D01*
X-9558D02*
X-9358Y20831D01*
X-9158D02*
X-8958D01*
X-9058D01*
Y21431D01*
X-9158Y21331D01*
X-8658D02*
X-8558Y21431D01*
X-8358D01*
X-8258Y21331D01*
Y21231D01*
X-8358Y21131D01*
X-8458D01*
X-8358D01*
X-8258Y21031D01*
Y20931D01*
X-8358Y20831D01*
X-8558D01*
X-8658Y20931D01*
X-9758Y14831D02*
Y15431D01*
X-9458D01*
X-9358Y15331D01*
Y15131D01*
X-9458Y15031D01*
X-9758D01*
X-9558D02*
X-9358Y14831D01*
X-9158D02*
X-8958D01*
X-9058D01*
Y15431D01*
X-9158Y15331D01*
X-8358Y14831D02*
Y15431D01*
X-8658Y15131D01*
X-8258D01*
X-9758Y8831D02*
Y9431D01*
X-9458D01*
X-9358Y9331D01*
Y9131D01*
X-9458Y9031D01*
X-9758D01*
X-9558D02*
X-9358Y8831D01*
X-9158D02*
X-8958D01*
X-9058D01*
Y9431D01*
X-9158Y9331D01*
X-8258Y9431D02*
X-8658D01*
Y9131D01*
X-8458Y9231D01*
X-8358D01*
X-8258Y9131D01*
Y8931D01*
X-8358Y8831D01*
X-8558D01*
X-8658Y8931D01*
X-9758Y2831D02*
Y3431D01*
X-9458D01*
X-9358Y3331D01*
Y3131D01*
X-9458Y3031D01*
X-9758D01*
X-9558D02*
X-9358Y2831D01*
X-9158D02*
X-8958D01*
X-9058D01*
Y3431D01*
X-9158Y3331D01*
X-8258Y3431D02*
X-8458Y3331D01*
X-8658Y3131D01*
Y2931D01*
X-8558Y2831D01*
X-8358D01*
X-8258Y2931D01*
Y3031D01*
X-8358Y3131D01*
X-8658D01*
X-9758Y-3169D02*
Y-2569D01*
X-9458D01*
X-9358Y-2669D01*
Y-2869D01*
X-9458Y-2969D01*
X-9758D01*
X-9558D02*
X-9358Y-3169D01*
X-9158D02*
X-8958D01*
X-9058D01*
Y-2569D01*
X-9158Y-2669D01*
X-8658Y-2569D02*
X-8258D01*
Y-2669D01*
X-8658Y-3069D01*
Y-3169D01*
X-9758Y-9169D02*
Y-8569D01*
X-9458D01*
X-9358Y-8669D01*
Y-8869D01*
X-9458Y-8969D01*
X-9758D01*
X-9558D02*
X-9358Y-9169D01*
X-9158D02*
X-8958D01*
X-9058D01*
Y-8569D01*
X-9158Y-8669D01*
X-8658D02*
X-8558Y-8569D01*
X-8358D01*
X-8258Y-8669D01*
Y-8769D01*
X-8358Y-8869D01*
X-8258Y-8969D01*
Y-9069D01*
X-8358Y-9169D01*
X-8558D01*
X-8658Y-9069D01*
Y-8969D01*
X-8558Y-8869D01*
X-8658Y-8769D01*
Y-8669D01*
X-8558Y-8869D02*
X-8358D01*
X-9758Y-15169D02*
Y-14569D01*
X-9458D01*
X-9358Y-14669D01*
Y-14869D01*
X-9458Y-14969D01*
X-9758D01*
X-9558D02*
X-9358Y-15169D01*
X-9158D02*
X-8958D01*
X-9058D01*
Y-14569D01*
X-9158Y-14669D01*
X-8658Y-15069D02*
X-8558Y-15169D01*
X-8358D01*
X-8258Y-15069D01*
Y-14669D01*
X-8358Y-14569D01*
X-8558D01*
X-8658Y-14669D01*
Y-14769D01*
X-8558Y-14869D01*
X-8258D01*
X-9758Y-21169D02*
Y-20569D01*
X-9458D01*
X-9358Y-20669D01*
Y-20869D01*
X-9458Y-20969D01*
X-9758D01*
X-9558D02*
X-9358Y-21169D01*
X-8758D02*
X-9158D01*
X-8758Y-20769D01*
Y-20669D01*
X-8858Y-20569D01*
X-9058D01*
X-9158Y-20669D01*
X-8558D02*
X-8458Y-20569D01*
X-8258D01*
X-8158Y-20669D01*
Y-21069D01*
X-8258Y-21169D01*
X-8458D01*
X-8558Y-21069D01*
Y-20669D01*
X-9758Y-27169D02*
Y-26569D01*
X-9458D01*
X-9358Y-26669D01*
Y-26869D01*
X-9458Y-26969D01*
X-9758D01*
X-9558D02*
X-9358Y-27169D01*
X-8758D02*
X-9158D01*
X-8758Y-26769D01*
Y-26669D01*
X-8858Y-26569D01*
X-9058D01*
X-9158Y-26669D01*
X-8558Y-27169D02*
X-8358D01*
X-8458D01*
Y-26569D01*
X-8558Y-26669D01*
X4224Y18002D02*
Y18602D01*
X4524D01*
X4624Y18502D01*
Y18302D01*
X4524Y18202D01*
X4224D01*
X4424D02*
X4624Y18002D01*
X5124D02*
X4924D01*
X4824Y18102D01*
Y18302D01*
X4924Y18402D01*
X5124D01*
X5224Y18302D01*
Y18202D01*
X4824D01*
X5424Y18002D02*
X5724D01*
X5824Y18102D01*
X5724Y18202D01*
X5524D01*
X5424Y18302D01*
X5524Y18402D01*
X5824D01*
X6324Y18002D02*
X6124D01*
X6024Y18102D01*
Y18302D01*
X6124Y18402D01*
X6324D01*
X6424Y18302D01*
Y18202D01*
X6024D01*
X6724Y18502D02*
Y18402D01*
X6624D01*
X6824D01*
X6724D01*
Y18102D01*
X6824Y18002D01*
X2735Y-11902D02*
X2635Y-11802D01*
X2435D01*
X2335Y-11902D01*
Y-12002D01*
X2435Y-12102D01*
X2635D01*
X2735Y-12202D01*
Y-12302D01*
X2635Y-12402D01*
X2435D01*
X2335Y-12302D01*
X2934Y-11802D02*
Y-12402D01*
X3134Y-12202D01*
X3334Y-12402D01*
Y-11802D01*
X4234Y-12002D02*
X4434D01*
X4534Y-12102D01*
Y-12402D01*
X4234D01*
X4134Y-12302D01*
X4234Y-12202D01*
X4534D01*
X4734Y-12402D02*
X4934D01*
X4834D01*
Y-11802D01*
X4734D01*
X5234Y-12402D02*
X5434D01*
X5334D01*
Y-12002D01*
X5234D01*
X5734Y-12402D02*
Y-12002D01*
X5834D01*
X5933Y-12102D01*
Y-12402D01*
Y-12102D01*
X6033Y-12002D01*
X6133Y-12102D01*
Y-12402D01*
X10179Y-23701D02*
Y-23101D01*
X10479D01*
X10579Y-23201D01*
Y-23401D01*
X10479Y-23501D01*
X10179D01*
X10779Y-23101D02*
Y-23701D01*
X10979Y-23501D01*
X11179Y-23701D01*
Y-23101D01*
X11379Y-23701D02*
Y-23101D01*
X11679D01*
X11779Y-23201D01*
Y-23401D01*
X11679Y-23501D01*
X11379D01*
X11579D02*
X11779Y-23701D01*
X-15736Y19488D02*
Y19888D01*
X-15536Y20088D01*
X-15336Y19888D01*
Y19488D01*
Y19788D01*
X-15736D01*
X-15136Y19288D02*
Y19888D01*
X-14837D01*
X-14737Y19788D01*
Y19588D01*
X-14837Y19488D01*
X-15136D01*
X-14537Y19288D02*
Y19888D01*
X-14237D01*
X-14137Y19788D01*
Y19588D01*
X-14237Y19488D01*
X-14537D01*
X-13837Y19888D02*
X-13637D01*
X-13537Y19788D01*
Y19488D01*
X-13837D01*
X-13937Y19588D01*
X-13837Y19688D01*
X-13537D01*
X-13337Y19888D02*
Y19488D01*
Y19688D01*
X-13237Y19788D01*
X-13137Y19888D01*
X-13037D01*
X-12437Y19488D02*
X-12637D01*
X-12737Y19588D01*
Y19788D01*
X-12637Y19888D01*
X-12437D01*
X-12337Y19788D01*
Y19688D01*
X-12737D01*
X-12137Y19488D02*
X-11937D01*
X-12037D01*
Y19888D01*
X-12137D01*
X-11638Y19488D02*
X-11438D01*
X-11538D01*
Y20088D01*
X-11638D01*
X-10738Y19488D02*
X-11138D01*
X-10738Y19888D01*
Y19988D01*
X-10838Y20088D01*
X-11038D01*
X-11138Y19988D01*
X-15736Y13563D02*
Y13963D01*
X-15536Y14163D01*
X-15336Y13963D01*
Y13563D01*
Y13863D01*
X-15736D01*
X-15136Y13363D02*
Y13963D01*
X-14837D01*
X-14737Y13863D01*
Y13663D01*
X-14837Y13563D01*
X-15136D01*
X-14537Y13363D02*
Y13963D01*
X-14237D01*
X-14137Y13863D01*
Y13663D01*
X-14237Y13563D01*
X-14537D01*
X-13837Y13963D02*
X-13637D01*
X-13537Y13863D01*
Y13563D01*
X-13837D01*
X-13937Y13663D01*
X-13837Y13763D01*
X-13537D01*
X-13337Y13963D02*
Y13563D01*
Y13763D01*
X-13237Y13863D01*
X-13137Y13963D01*
X-13037D01*
X-12437Y13563D02*
X-12637D01*
X-12737Y13663D01*
Y13863D01*
X-12637Y13963D01*
X-12437D01*
X-12337Y13863D01*
Y13763D01*
X-12737D01*
X-12137Y13563D02*
X-11937D01*
X-12037D01*
Y13963D01*
X-12137D01*
X-11638Y13563D02*
X-11438D01*
X-11538D01*
Y14163D01*
X-11638D01*
X-11138Y14063D02*
X-11038Y14163D01*
X-10838D01*
X-10738Y14063D01*
Y13963D01*
X-10838Y13863D01*
X-10938D01*
X-10838D01*
X-10738Y13763D01*
Y13663D01*
X-10838Y13563D01*
X-11038D01*
X-11138Y13663D01*
X-15559Y7510D02*
Y7910D01*
X-15359Y8110D01*
X-15159Y7910D01*
Y7510D01*
Y7810D01*
X-15559D01*
X-14959Y7310D02*
Y7910D01*
X-14659D01*
X-14559Y7810D01*
Y7610D01*
X-14659Y7510D01*
X-14959D01*
X-14359Y7310D02*
Y7910D01*
X-14060D01*
X-13960Y7810D01*
Y7610D01*
X-14060Y7510D01*
X-14359D01*
X-13660Y7910D02*
X-13460D01*
X-13360Y7810D01*
Y7510D01*
X-13660D01*
X-13760Y7610D01*
X-13660Y7710D01*
X-13360D01*
X-13160Y7910D02*
Y7510D01*
Y7710D01*
X-13060Y7810D01*
X-12960Y7910D01*
X-12860D01*
X-12260Y7510D02*
X-12460D01*
X-12560Y7610D01*
Y7810D01*
X-12460Y7910D01*
X-12260D01*
X-12160Y7810D01*
Y7710D01*
X-12560D01*
X-11960Y7510D02*
X-11760D01*
X-11860D01*
Y7910D01*
X-11960D01*
X-11460Y7510D02*
X-11260D01*
X-11360D01*
Y8110D01*
X-11460D01*
X-10661Y7510D02*
Y8110D01*
X-10961Y7810D01*
X-10561D01*
X-15648Y1634D02*
Y2034D01*
X-15448Y2234D01*
X-15248Y2034D01*
Y1634D01*
Y1934D01*
X-15648D01*
X-15048Y1434D02*
Y2034D01*
X-14748D01*
X-14648Y1934D01*
Y1734D01*
X-14748Y1634D01*
X-15048D01*
X-14448Y1434D02*
Y2034D01*
X-14148D01*
X-14048Y1934D01*
Y1734D01*
X-14148Y1634D01*
X-14448D01*
X-13748Y2034D02*
X-13548D01*
X-13448Y1934D01*
Y1634D01*
X-13748D01*
X-13848Y1734D01*
X-13748Y1834D01*
X-13448D01*
X-13248Y2034D02*
Y1634D01*
Y1834D01*
X-13148Y1934D01*
X-13048Y2034D01*
X-12949D01*
X-12349Y1634D02*
X-12549D01*
X-12649Y1734D01*
Y1934D01*
X-12549Y2034D01*
X-12349D01*
X-12249Y1934D01*
Y1834D01*
X-12649D01*
X-12049Y1634D02*
X-11849D01*
X-11949D01*
Y2034D01*
X-12049D01*
X-11549Y1634D02*
X-11349D01*
X-11449D01*
Y2234D01*
X-11549D01*
X-10649D02*
X-11049D01*
Y1934D01*
X-10849Y2034D01*
X-10749D01*
X-10649Y1934D01*
Y1734D01*
X-10749Y1634D01*
X-10949D01*
X-11049Y1734D01*
X-15687Y-4508D02*
Y-4108D01*
X-15487Y-3908D01*
X-15287Y-4108D01*
Y-4508D01*
Y-4208D01*
X-15687D01*
X-15087Y-4708D02*
Y-4108D01*
X-14787D01*
X-14687Y-4208D01*
Y-4408D01*
X-14787Y-4508D01*
X-15087D01*
X-14487Y-4708D02*
Y-4108D01*
X-14187D01*
X-14088Y-4208D01*
Y-4408D01*
X-14187Y-4508D01*
X-14487D01*
X-13788Y-4108D02*
X-13588D01*
X-13488Y-4208D01*
Y-4508D01*
X-13788D01*
X-13888Y-4408D01*
X-13788Y-4308D01*
X-13488D01*
X-13288Y-4108D02*
Y-4508D01*
Y-4308D01*
X-13188Y-4208D01*
X-13088Y-4108D01*
X-12988D01*
X-12388Y-4508D02*
X-12588D01*
X-12688Y-4408D01*
Y-4208D01*
X-12588Y-4108D01*
X-12388D01*
X-12288Y-4208D01*
Y-4308D01*
X-12688D01*
X-12088Y-4508D02*
X-11888D01*
X-11988D01*
Y-4108D01*
X-12088D01*
X-11588Y-4508D02*
X-11388D01*
X-11488D01*
Y-3908D01*
X-11588D01*
X-10689D02*
X-10889Y-4008D01*
X-11089Y-4208D01*
Y-4408D01*
X-10989Y-4508D01*
X-10789D01*
X-10689Y-4408D01*
Y-4308D01*
X-10789Y-4208D01*
X-11089D01*
X-15648Y-10423D02*
Y-10023D01*
X-15448Y-9823D01*
X-15248Y-10023D01*
Y-10423D01*
Y-10123D01*
X-15648D01*
X-15048Y-10623D02*
Y-10023D01*
X-14748D01*
X-14648Y-10123D01*
Y-10323D01*
X-14748Y-10423D01*
X-15048D01*
X-14448Y-10623D02*
Y-10023D01*
X-14148D01*
X-14048Y-10123D01*
Y-10323D01*
X-14148Y-10423D01*
X-14448D01*
X-13748Y-10023D02*
X-13548D01*
X-13448Y-10123D01*
Y-10423D01*
X-13748D01*
X-13848Y-10323D01*
X-13748Y-10223D01*
X-13448D01*
X-13248Y-10023D02*
Y-10423D01*
Y-10223D01*
X-13148Y-10123D01*
X-13048Y-10023D01*
X-12949D01*
X-12349Y-10423D02*
X-12549D01*
X-12649Y-10323D01*
Y-10123D01*
X-12549Y-10023D01*
X-12349D01*
X-12249Y-10123D01*
Y-10223D01*
X-12649D01*
X-12049Y-10423D02*
X-11849D01*
X-11949D01*
Y-10023D01*
X-12049D01*
X-11549Y-10423D02*
X-11349D01*
X-11449D01*
Y-9823D01*
X-11549D01*
X-11049D02*
X-10649D01*
Y-9923D01*
X-11049Y-10323D01*
Y-10423D01*
X-15825Y-16437D02*
Y-16037D01*
X-15625Y-15837D01*
X-15425Y-16037D01*
Y-16437D01*
Y-16137D01*
X-15825D01*
X-15225Y-16637D02*
Y-16037D01*
X-14925D01*
X-14825Y-16137D01*
Y-16337D01*
X-14925Y-16437D01*
X-15225D01*
X-14625Y-16637D02*
Y-16037D01*
X-14325D01*
X-14225Y-16137D01*
Y-16337D01*
X-14325Y-16437D01*
X-14625D01*
X-13925Y-16037D02*
X-13725D01*
X-13626Y-16137D01*
Y-16437D01*
X-13925D01*
X-14025Y-16337D01*
X-13925Y-16237D01*
X-13626D01*
X-13426Y-16037D02*
Y-16437D01*
Y-16237D01*
X-13326Y-16137D01*
X-13226Y-16037D01*
X-13126D01*
X-12526Y-16437D02*
X-12726D01*
X-12826Y-16337D01*
Y-16137D01*
X-12726Y-16037D01*
X-12526D01*
X-12426Y-16137D01*
Y-16237D01*
X-12826D01*
X-12226Y-16437D02*
X-12026D01*
X-12126D01*
Y-16037D01*
X-12226D01*
X-11726Y-16437D02*
X-11526D01*
X-11626D01*
Y-15837D01*
X-11726D01*
X-11226Y-15937D02*
X-11126Y-15837D01*
X-10926D01*
X-10826Y-15937D01*
Y-16037D01*
X-10926Y-16137D01*
X-10826Y-16237D01*
Y-16337D01*
X-10926Y-16437D01*
X-11126D01*
X-11226Y-16337D01*
Y-16237D01*
X-11126Y-16137D01*
X-11226Y-16037D01*
Y-15937D01*
X-11126Y-16137D02*
X-10926D01*
X-15736Y-22441D02*
Y-22041D01*
X-15536Y-21841D01*
X-15336Y-22041D01*
Y-22441D01*
Y-22141D01*
X-15736D01*
X-15136Y-22641D02*
Y-22041D01*
X-14837D01*
X-14737Y-22141D01*
Y-22341D01*
X-14837Y-22441D01*
X-15136D01*
X-14537Y-22641D02*
Y-22041D01*
X-14237D01*
X-14137Y-22141D01*
Y-22341D01*
X-14237Y-22441D01*
X-14537D01*
X-13837Y-22041D02*
X-13637D01*
X-13537Y-22141D01*
Y-22441D01*
X-13837D01*
X-13937Y-22341D01*
X-13837Y-22241D01*
X-13537D01*
X-13337Y-22041D02*
Y-22441D01*
Y-22241D01*
X-13237Y-22141D01*
X-13137Y-22041D01*
X-13037D01*
X-12437Y-22441D02*
X-12637D01*
X-12737Y-22341D01*
Y-22141D01*
X-12637Y-22041D01*
X-12437D01*
X-12337Y-22141D01*
Y-22241D01*
X-12737D01*
X-12137Y-22441D02*
X-11937D01*
X-12037D01*
Y-22041D01*
X-12137D01*
X-11638Y-22441D02*
X-11438D01*
X-11538D01*
Y-21841D01*
X-11638D01*
X-11138Y-22341D02*
X-11038Y-22441D01*
X-10838D01*
X-10738Y-22341D01*
Y-21941D01*
X-10838Y-21841D01*
X-11038D01*
X-11138Y-21941D01*
Y-22041D01*
X-11038Y-22141D01*
X-10738D01*
X-15648Y25541D02*
Y25941D01*
X-15448Y26141D01*
X-15248Y25941D01*
Y25541D01*
Y25841D01*
X-15648D01*
X-15048Y25341D02*
Y25941D01*
X-14748D01*
X-14648Y25841D01*
Y25641D01*
X-14748Y25541D01*
X-15048D01*
X-14448Y25341D02*
Y25941D01*
X-14148D01*
X-14048Y25841D01*
Y25641D01*
X-14148Y25541D01*
X-14448D01*
X-13748Y25941D02*
X-13548D01*
X-13448Y25841D01*
Y25541D01*
X-13748D01*
X-13848Y25641D01*
X-13748Y25741D01*
X-13448D01*
X-13248Y25941D02*
Y25541D01*
Y25741D01*
X-13148Y25841D01*
X-13048Y25941D01*
X-12949D01*
X-12349Y25541D02*
X-12549D01*
X-12649Y25641D01*
Y25841D01*
X-12549Y25941D01*
X-12349D01*
X-12249Y25841D01*
Y25741D01*
X-12649D01*
X-12049Y25541D02*
X-11849D01*
X-11949D01*
Y25941D01*
X-12049D01*
X-11549Y25541D02*
X-11349D01*
X-11449D01*
Y26141D01*
X-11549D01*
X-11049Y25541D02*
X-10849D01*
X-10949D01*
Y26141D01*
X-11049Y26041D01*
G54D28*
X6742Y18831D02*
Y19831D01*
X4742Y18831D02*
X6742D01*
X4742D02*
Y19831D01*
X6742D01*
X-7758Y-26169D02*
X-4758D01*
Y-23169D01*
X-7758D02*
X-4758D01*
X-7758Y-26169D02*
Y-23169D01*
Y3831D02*
X-4758D01*
Y6831D01*
X-7758D02*
X-4758D01*
X-7758Y3831D02*
Y6831D01*
Y-20169D02*
X-4758D01*
Y-17169D01*
X-7758D02*
X-4758D01*
X-7758Y-20169D02*
Y-17169D01*
Y9831D02*
X-4758D01*
Y12831D01*
X-7758D02*
X-4758D01*
X-7758Y9831D02*
Y12831D01*
Y-14169D02*
X-4758D01*
Y-11169D01*
X-7758D02*
X-4758D01*
X-7758Y-14169D02*
Y-11169D01*
Y15831D02*
X-4758D01*
Y18831D01*
X-7758D02*
X-4758D01*
X-7758Y15831D02*
Y18831D01*
Y-8169D02*
X-4758D01*
Y-5169D01*
X-7758D02*
X-4758D01*
X-7758Y-8169D02*
Y-5169D01*
Y-2169D02*
X-4758D01*
Y831D01*
X-7758D02*
X-4758D01*
X-7758Y-2169D02*
Y831D01*
Y21831D02*
X-4758D01*
Y24831D01*
X-7758D02*
X-4758D01*
X-7758Y21831D02*
Y24831D01*
X3242Y-24169D02*
X5242D01*
Y-23169D01*
X3242D02*
X5242D01*
X3242Y-24169D02*
Y-23169D01*
X12742Y18331D02*
X13742D01*
Y14331D02*
Y18331D01*
X12742Y14331D02*
Y18331D01*
Y14331D02*
X13742D01*
X3242Y-14669D02*
Y-12669D01*
Y-14669D02*
X4242D01*
Y-12669D01*
X3242D02*
X4242D01*
G54D29*
X2242Y18831D02*
X3242D01*
X2242D02*
Y20831D01*
X3242D01*
Y18831D02*
Y20831D01*
X9242Y18231D02*
Y18631D01*
Y21031D02*
Y21431D01*
X8842Y18631D02*
Y21031D01*
Y18631D02*
X9642D01*
Y21031D01*
X8842D02*
X9642D01*
X-2758Y-23469D02*
Y-23069D01*
Y-26269D02*
Y-25869D01*
X-2358D02*
Y-23469D01*
X-3158D02*
X-2358D01*
X-3158Y-25869D02*
Y-23469D01*
Y-25869D02*
X-2358D01*
X-2758Y6531D02*
Y6931D01*
Y3731D02*
Y4131D01*
X-2358D02*
Y6531D01*
X-3158D02*
X-2358D01*
X-3158Y4131D02*
Y6531D01*
Y4131D02*
X-2358D01*
X-2758Y-17469D02*
Y-17069D01*
Y-20269D02*
Y-19869D01*
X-2358D02*
Y-17469D01*
X-3158D02*
X-2358D01*
X-3158Y-19869D02*
Y-17469D01*
Y-19869D02*
X-2358D01*
X-2758Y12531D02*
Y12931D01*
Y9731D02*
Y10131D01*
X-2358D02*
Y12531D01*
X-3158D02*
X-2358D01*
X-3158Y10131D02*
Y12531D01*
Y10131D02*
X-2358D01*
X-2758Y-11469D02*
Y-11069D01*
Y-14269D02*
Y-13869D01*
X-2358D02*
Y-11469D01*
X-3158D02*
X-2358D01*
X-3158Y-13869D02*
Y-11469D01*
Y-13869D02*
X-2358D01*
X-2758Y18531D02*
Y18931D01*
Y15731D02*
Y16131D01*
X-2358D02*
Y18531D01*
X-3158D02*
X-2358D01*
X-3158Y16131D02*
Y18531D01*
Y16131D02*
X-2358D01*
X-2758Y-5469D02*
Y-5069D01*
Y-8269D02*
Y-7869D01*
X-2358D02*
Y-5469D01*
X-3158D02*
X-2358D01*
X-3158Y-7869D02*
Y-5469D01*
Y-7869D02*
X-2358D01*
X-2758Y531D02*
Y931D01*
Y-2269D02*
Y-1869D01*
X-2358D02*
Y531D01*
X-3158D02*
X-2358D01*
X-3158Y-1869D02*
Y531D01*
Y-1869D02*
X-2358D01*
X-2758Y24531D02*
Y24931D01*
Y21731D02*
Y22131D01*
X-2358D02*
Y24531D01*
X-3158D02*
X-2358D01*
X-3158Y22131D02*
Y24531D01*
Y22131D02*
X-2358D01*
X9442Y15331D02*
X9842D01*
X6642D02*
X7042D01*
Y14931D02*
X9442D01*
Y15731D01*
X7042D02*
X9442D01*
X7042Y14931D02*
Y15731D01*
X13701Y-14442D02*
Y-14042D01*
Y-17242D02*
Y-16842D01*
X14101D02*
Y-14442D01*
X13301D02*
X14101D01*
X13301Y-16842D02*
Y-14442D01*
Y-16842D02*
X14101D01*
G54D30*
X-8958Y-23469D02*
X-8508D01*
Y-22869D01*
X-9808D02*
X-9358D01*
X-9808Y-23469D02*
Y-22869D01*
Y-23469D02*
X-9358D01*
X-8958Y-22869D02*
X-8508D01*
X-8958Y6531D02*
X-8508D01*
Y7131D01*
X-9808D02*
X-9358D01*
X-9808Y6531D02*
Y7131D01*
Y6531D02*
X-9358D01*
X-8958Y7131D02*
X-8508D01*
X-8958Y-25869D02*
X-8508D01*
X-9808Y-26469D02*
X-9358D01*
X-9808D02*
Y-25869D01*
X-9358D01*
X-8508Y-26469D02*
Y-25869D01*
X-8958Y-26469D02*
X-8508D01*
X-8958Y-17469D02*
X-8508D01*
Y-16869D01*
X-9808D02*
X-9358D01*
X-9808Y-17469D02*
Y-16869D01*
Y-17469D02*
X-9358D01*
X-8958Y-16869D02*
X-8508D01*
X-8958Y4131D02*
X-8508D01*
X-9808Y3531D02*
X-9358D01*
X-9808D02*
Y4131D01*
X-9358D01*
X-8508Y3531D02*
Y4131D01*
X-8958Y3531D02*
X-8508D01*
X-8958Y12531D02*
X-8508D01*
Y13131D01*
X-9808D02*
X-9358D01*
X-9808Y12531D02*
Y13131D01*
Y12531D02*
X-9358D01*
X-8958Y13131D02*
X-8508D01*
X-8958Y-19869D02*
X-8508D01*
X-9808Y-20469D02*
X-9358D01*
X-9808D02*
Y-19869D01*
X-9358D01*
X-8508Y-20469D02*
Y-19869D01*
X-8958Y-20469D02*
X-8508D01*
X-8958Y-11469D02*
X-8508D01*
Y-10869D01*
X-9808D02*
X-9358D01*
X-9808Y-11469D02*
Y-10869D01*
Y-11469D02*
X-9358D01*
X-8958Y-10869D02*
X-8508D01*
X-8958Y10131D02*
X-8508D01*
X-9808Y9531D02*
X-9358D01*
X-9808D02*
Y10131D01*
X-9358D01*
X-8508Y9531D02*
Y10131D01*
X-8958Y9531D02*
X-8508D01*
X-8958Y18531D02*
X-8508D01*
Y19131D01*
X-9808D02*
X-9358D01*
X-9808Y18531D02*
Y19131D01*
Y18531D02*
X-9358D01*
X-8958Y19131D02*
X-8508D01*
X-8958Y-13869D02*
X-8508D01*
X-9808Y-14469D02*
X-9358D01*
X-9808D02*
Y-13869D01*
X-9358D01*
X-8508Y-14469D02*
Y-13869D01*
X-8958Y-14469D02*
X-8508D01*
X-8958Y-5469D02*
X-8508D01*
Y-4869D01*
X-9808D02*
X-9358D01*
X-9808Y-5469D02*
Y-4869D01*
Y-5469D02*
X-9358D01*
X-8958Y-4869D02*
X-8508D01*
X-8958Y16131D02*
X-8508D01*
X-9808Y15531D02*
X-9358D01*
X-9808D02*
Y16131D01*
X-9358D01*
X-8508Y15531D02*
Y16131D01*
X-8958Y15531D02*
X-8508D01*
X-8958Y24531D02*
X-8508D01*
Y25131D01*
X-9808D02*
X-9358D01*
X-9808Y24531D02*
Y25131D01*
Y24531D02*
X-9358D01*
X-8958Y25131D02*
X-8508D01*
X-8958Y-7869D02*
X-8508D01*
X-9808Y-8469D02*
X-9358D01*
X-9808D02*
Y-7869D01*
X-9358D01*
X-8508Y-8469D02*
Y-7869D01*
X-8958Y-8469D02*
X-8508D01*
X-8958Y531D02*
X-8508D01*
Y1131D01*
X-9808D02*
X-9358D01*
X-9808Y531D02*
Y1131D01*
Y531D02*
X-9358D01*
X-8958Y1131D02*
X-8508D01*
X-8958Y22131D02*
X-8508D01*
X-9808Y21531D02*
X-9358D01*
X-9808D02*
Y22131D01*
X-9358D01*
X-8508Y21531D02*
Y22131D01*
X-8958Y21531D02*
X-8508D01*
X-8958Y-1869D02*
X-8508D01*
X-9808Y-2469D02*
X-9358D01*
X-9808D02*
Y-1869D01*
X-9358D01*
X-8508Y-2469D02*
Y-1869D01*
X-8958Y-2469D02*
X-8508D01*
G54D31*
X-9058Y-23469D02*
Y-22869D01*
Y6531D02*
Y7131D01*
Y-17469D02*
Y-16869D01*
Y12531D02*
Y13131D01*
Y-11469D02*
Y-10869D01*
Y18531D02*
Y19131D01*
Y-5469D02*
Y-4869D01*
Y24531D02*
Y25131D01*
Y531D02*
Y1131D01*
G54D32*
X2742Y-8569D02*
Y10831D01*
Y-8569D02*
X14742D01*
Y10831D01*
X2742D02*
X14742D01*
G54D33*
X3780Y-18574D02*
Y-18224D01*
Y-20874D02*
Y-20424D01*
X9240Y-18719D02*
Y-18369D01*
Y-21019D02*
Y-20569D01*
G54D34*
X-51833Y48417D02*
Y45918D01*
X-50167D01*
X-48085D02*
X-48918D01*
X-49334Y46335D01*
Y47168D01*
X-48918Y47584D01*
X-48085D01*
X-47668Y47168D01*
Y46751D01*
X-49334D01*
X-46835Y45918D02*
X-45585D01*
X-45169Y46335D01*
X-45585Y46751D01*
X-46419D01*
X-46835Y47168D01*
X-46419Y47584D01*
X-45169D01*
X-41837Y48417D02*
Y45918D01*
X-40587D01*
X-40171Y46335D01*
Y46751D01*
Y47168D01*
X-40587Y47584D01*
X-41837D01*
X-38921D02*
X-38088D01*
X-37671Y47168D01*
Y45918D01*
X-38921D01*
X-39338Y46335D01*
X-38921Y46751D01*
X-37671D01*
X-36838Y45918D02*
Y47584D01*
X-35589D01*
X-35172Y47168D01*
Y45918D01*
X-32673Y48417D02*
Y45918D01*
X-33923D01*
X-34339Y46335D01*
Y47168D01*
X-33923Y47584D01*
X-32673D01*
X-30590Y45918D02*
X-31423D01*
X-31840Y46335D01*
Y47168D01*
X-31423Y47584D01*
X-30590D01*
X-30174Y47168D01*
Y46751D01*
X-31840D01*
X-29341Y45918D02*
X-28091D01*
X-27675Y46335D01*
X-28091Y46751D01*
X-28924D01*
X-29341Y47168D01*
X-28924Y47584D01*
X-27675D01*
X-23093Y45918D02*
X-23926D01*
X-24342Y46335D01*
Y47168D01*
X-23926Y47584D01*
X-23093D01*
X-22676Y47168D01*
Y46751D01*
X-24342D01*
X-21843Y45918D02*
Y47584D01*
X-20594D01*
X-20177Y47168D01*
Y45918D01*
X-16845Y47584D02*
X-16012Y45918D01*
X-15179Y47584D01*
X-14346Y45918D02*
X-13513D01*
X-13929D01*
Y47584D01*
X-14346D01*
X-11846Y45918D02*
X-11013D01*
X-10597Y46335D01*
Y47168D01*
X-11013Y47584D01*
X-11846D01*
X-12263Y47168D01*
Y46335D01*
X-11846Y45918D01*
X-9764D02*
X-8931D01*
X-9347D01*
Y48417D01*
X-9764D01*
X-6431Y45918D02*
X-7265D01*
X-7681Y46335D01*
Y47168D01*
X-7265Y47584D01*
X-6431D01*
X-6015Y47168D01*
Y46751D01*
X-7681D01*
X-4765Y48001D02*
Y47584D01*
X-5182D01*
X-4349D01*
X-4765D01*
Y46335D01*
X-4349Y45918D01*
X1066Y48417D02*
Y45918D01*
X-183D01*
X-600Y46335D01*
Y47168D01*
X-183Y47584D01*
X1066D01*
X3149Y45918D02*
X2316D01*
X1899Y46335D01*
Y47168D01*
X2316Y47584D01*
X3149D01*
X3565Y47168D01*
Y46751D01*
X1899D01*
X4398Y45918D02*
X5231D01*
X4815D01*
Y48417D01*
X4398D01*
X6481Y45918D02*
X7314D01*
X6898D01*
Y47584D01*
X6481D01*
X8564Y45918D02*
Y47584D01*
X8980D01*
X9397Y47168D01*
Y45918D01*
Y47168D01*
X9813Y47584D01*
X10230Y47168D01*
Y45918D01*
X11063D02*
X11896D01*
X11479D01*
Y47584D01*
X11063D01*
X13562Y48001D02*
Y47584D01*
X13146D01*
X13979D01*
X13562D01*
Y46335D01*
X13979Y45918D01*
X16478D02*
X15645D01*
X15228Y46335D01*
Y47168D01*
X15645Y47584D01*
X16478D01*
X16894Y47168D01*
Y46751D01*
X15228D01*
X17727Y45918D02*
Y47584D01*
X18977D01*
X19394Y47168D01*
Y45918D01*
X20643Y48001D02*
Y47584D01*
X20227D01*
X21060D01*
X20643D01*
Y46335D01*
X21060Y45918D01*
X24808D02*
X25641D01*
X25225D01*
Y48417D01*
X24808D01*
X27308Y47584D02*
X28141D01*
X28557Y47168D01*
Y45918D01*
X27308D01*
X26891Y46335D01*
X27308Y46751D01*
X28557D01*
X31889Y45918D02*
X33139D01*
X33556Y46335D01*
X33139Y46751D01*
X32306D01*
X31889Y47168D01*
X32306Y47584D01*
X33556D01*
X34389D02*
Y46335D01*
X34805Y45918D01*
X36055D01*
Y47584D01*
X36888D02*
Y45918D01*
Y46751D01*
X37304Y47168D01*
X37721Y47584D01*
X38137D01*
X39804Y45918D02*
Y48001D01*
Y47168D01*
X39387D01*
X40220D01*
X39804D01*
Y48001D01*
X40220Y48417D01*
X41886Y47584D02*
X42719D01*
X43136Y47168D01*
Y45918D01*
X41886D01*
X41470Y46335D01*
X41886Y46751D01*
X43136D01*
X45635Y47584D02*
X44385D01*
X43969Y47168D01*
Y46335D01*
X44385Y45918D01*
X45635D01*
X47718D02*
X46885D01*
X46468Y46335D01*
Y47168D01*
X46885Y47584D01*
X47718D01*
X48134Y47168D01*
Y46751D01*
X46468D01*
X51466Y47584D02*
Y46335D01*
X51883Y45918D01*
X53133D01*
Y47584D01*
X54382Y48001D02*
Y47584D01*
X53966D01*
X54799D01*
X54382D01*
Y46335D01*
X54799Y45918D01*
X56048D02*
X56881D01*
X56465D01*
Y47584D01*
X56048D01*
X58131Y45918D02*
X58964D01*
X58548D01*
Y48417D01*
X58131D01*
X60214Y45918D02*
X61047D01*
X60630D01*
Y47584D01*
X60214D01*
X62296Y45918D02*
X63546D01*
X63962Y46335D01*
X63546Y46751D01*
X62713D01*
X62296Y47168D01*
X62713Y47584D01*
X63962D01*
X65212D02*
X66045D01*
X66462Y47168D01*
Y45918D01*
X65212D01*
X64795Y46335D01*
X65212Y46751D01*
X66462D01*
X67295Y48417D02*
Y45918D01*
X68544D01*
X68961Y46335D01*
Y46751D01*
Y47168D01*
X68544Y47584D01*
X67295D01*
X69794Y45918D02*
X70627D01*
X70210D01*
Y48417D01*
X69794D01*
X73126Y45918D02*
X72293D01*
X71877Y46335D01*
Y47168D01*
X72293Y47584D01*
X73126D01*
X73543Y47168D01*
Y46751D01*
X71877D01*
X74376Y45918D02*
Y46335D01*
X74792D01*
Y45918D01*
X74376D01*
X76458D02*
Y46335D01*
X76875D01*
Y45918D01*
X76458D01*
X78541D02*
Y46335D01*
X78958D01*
Y45918D01*
X78541D01*
X80624D02*
Y46335D01*
X81040D01*
Y45918D01*
X80624D01*
X-45433Y41868D02*
Y44367D01*
X-44600Y43534D01*
X-43767Y44367D01*
Y41868D01*
X-42518Y43534D02*
X-41685D01*
X-41268Y43118D01*
Y41868D01*
X-42518D01*
X-42934Y42285D01*
X-42518Y42701D01*
X-41268D01*
X-40435Y41868D02*
X-39602D01*
X-40019D01*
Y43534D01*
X-40435D01*
X-38352Y41868D02*
X-37103D01*
X-36686Y42285D01*
X-37103Y42701D01*
X-37936D01*
X-38352Y43118D01*
X-37936Y43534D01*
X-36686D01*
X-33354D02*
X-32521Y41868D01*
X-31688Y43534D01*
X-30438Y41868D02*
X-29605D01*
X-29189Y42285D01*
Y43118D01*
X-29605Y43534D01*
X-30438D01*
X-30855Y43118D01*
Y42285D01*
X-30438Y41868D01*
X-28356Y43534D02*
Y42285D01*
X-27939Y41868D01*
X-26690D01*
Y43534D01*
X-25856Y41868D02*
X-24607D01*
X-24190Y42285D01*
X-24607Y42701D01*
X-25440D01*
X-25856Y43118D01*
X-25440Y43534D01*
X-24190D01*
X-20858Y41868D02*
Y43534D01*
X-19608D01*
X-19192Y43118D01*
Y41868D01*
X-17942Y44784D02*
Y43951D01*
X-18359Y43534D01*
X-15443Y41868D02*
X-16276D01*
X-16693Y42285D01*
Y43118D01*
X-16276Y43534D01*
X-15443D01*
X-15027Y43118D01*
Y42701D01*
X-16693D01*
X-13777Y43951D02*
Y43534D01*
X-14194D01*
X-13361D01*
X-13777D01*
Y42285D01*
X-13361Y41868D01*
X-10861D02*
X-11694D01*
X-12111Y42285D01*
Y43118D01*
X-11694Y43534D01*
X-10861D01*
X-10445Y43118D01*
Y42701D01*
X-12111D01*
X-9612Y41868D02*
X-8362D01*
X-7946Y42285D01*
X-8362Y42701D01*
X-9195D01*
X-9612Y43118D01*
X-9195Y43534D01*
X-7946D01*
X-4613Y41035D02*
Y43534D01*
X-3364D01*
X-2947Y43118D01*
Y42285D01*
X-3364Y41868D01*
X-4613D01*
X-1698Y43534D02*
X-865D01*
X-448Y43118D01*
Y41868D01*
X-1698D01*
X-2114Y42285D01*
X-1698Y42701D01*
X-448D01*
X385Y41868D02*
X1635D01*
X2051Y42285D01*
X1635Y42701D01*
X802D01*
X385Y43118D01*
X802Y43534D01*
X2051D01*
X5800Y41868D02*
X6633D01*
X7050Y42285D01*
Y43118D01*
X6633Y43534D01*
X5800D01*
X5383Y43118D01*
Y42285D01*
X5800Y41868D01*
X7883Y44367D02*
Y41868D01*
X9132D01*
X9549Y42285D01*
Y42701D01*
Y43118D01*
X9132Y43534D01*
X7883D01*
X10382Y41868D02*
X11215D01*
X10798D01*
Y44367D01*
X10382D01*
X12464Y41868D02*
X13298D01*
X12881D01*
Y43534D01*
X12464D01*
X15380Y41035D02*
X15797D01*
X16213Y41452D01*
Y43534D01*
X14964D01*
X14547Y43118D01*
Y42285D01*
X14964Y41868D01*
X16213D01*
X18296D02*
X17463D01*
X17046Y42285D01*
Y43118D01*
X17463Y43534D01*
X18296D01*
X18712Y43118D01*
Y42701D01*
X17046D01*
X19546Y41868D02*
X20795D01*
X21212Y42285D01*
X20795Y42701D01*
X19962D01*
X19546Y43118D01*
X19962Y43534D01*
X21212D01*
X26210Y44367D02*
Y41868D01*
X24960D01*
X24544Y42285D01*
Y43118D01*
X24960Y43534D01*
X26210D01*
X28293Y41868D02*
X27460D01*
X27043Y42285D01*
Y43118D01*
X27460Y43534D01*
X28293D01*
X28709Y43118D01*
Y42701D01*
X27043D01*
X32458Y43951D02*
Y43534D01*
X32041D01*
X32875D01*
X32458D01*
Y42285D01*
X32875Y41868D01*
X34541D02*
X35374D01*
X35790Y42285D01*
Y43118D01*
X35374Y43534D01*
X34541D01*
X34124Y43118D01*
Y42285D01*
X34541Y41868D01*
X36623Y43534D02*
Y42285D01*
X37040Y41868D01*
X38289D01*
Y43534D01*
X39539Y43951D02*
Y43534D01*
X39123D01*
X39956D01*
X39539D01*
Y42285D01*
X39956Y41868D01*
X43704Y43534D02*
Y42285D01*
X44121Y41868D01*
X45371D01*
Y43534D01*
X46620Y43951D02*
Y43534D01*
X46204D01*
X47037D01*
X46620D01*
Y42285D01*
X47037Y41868D01*
X48286D02*
X49119D01*
X48703D01*
Y43534D01*
X48286D01*
X50369Y41868D02*
X51202D01*
X50785D01*
Y44367D01*
X50369D01*
X52452Y41868D02*
X53285D01*
X52868D01*
Y43534D01*
X52452D01*
X54534Y41868D02*
X55784D01*
X56200Y42285D01*
X55784Y42701D01*
X54951D01*
X54534Y43118D01*
X54951Y43534D01*
X56200D01*
X58283Y41868D02*
X57450D01*
X57033Y42285D01*
Y43118D01*
X57450Y43534D01*
X58283D01*
X58700Y43118D01*
Y42701D01*
X57033D01*
X59533Y43534D02*
Y41868D01*
Y42701D01*
X59949Y43118D01*
X60366Y43534D01*
X60782D01*
X62032Y42701D02*
Y44784D01*
Y42285D02*
Y41868D01*
X62865Y42701D02*
Y44784D01*
Y42285D02*
Y41868D01*
M02*
