G04 Layer_Color=255*
%FSLAX24Y24*%
%MOIN*%
G70*
G01*
G75*
%ADD12C,0.1575*%
%ADD13C,0.1000*%
%ADD14R,0.0591X0.0591*%
%ADD15C,0.0591*%
%ADD16C,0.0800*%
%ADD17O,0.0800X0.0500*%
%ADD18O,0.0500X0.0800*%
%ADD19R,0.0591X0.0591*%
%ADD20C,0.0630*%
%ADD21C,0.0620*%
%ADD22R,0.0620X0.0620*%
%ADD23C,0.0620*%
%ADD24C,0.2362*%
G54D12*
X-17217Y48724D02*
D03*
X-19697D02*
D03*
X-18457Y46988D02*
D03*
X-17217Y724D02*
D03*
X-19697D02*
D03*
X-18457Y-1012D02*
D03*
X-17217Y6724D02*
D03*
X-19697D02*
D03*
X-18457Y4988D02*
D03*
X-17217Y12724D02*
D03*
X-19697D02*
D03*
X-18457Y10988D02*
D03*
X-17217Y18724D02*
D03*
X-19697D02*
D03*
X-18457Y16988D02*
D03*
X-17217Y24724D02*
D03*
X-19697D02*
D03*
X-18457Y22988D02*
D03*
X-17217Y30724D02*
D03*
X-19697D02*
D03*
X-18457Y28988D02*
D03*
X-17217Y36724D02*
D03*
X-19697D02*
D03*
X-18457Y34988D02*
D03*
X-17217Y42724D02*
D03*
X-19697D02*
D03*
X-18457Y40988D02*
D03*
X4012Y-528D02*
D03*
Y-3008D02*
D03*
X5748Y-1768D02*
D03*
G54D13*
X8482Y11240D02*
D03*
Y7240D02*
D03*
X5024Y40213D02*
D03*
X1024D02*
D03*
X-7976Y50213D02*
D03*
Y46213D02*
D03*
Y26213D02*
D03*
Y22213D02*
D03*
Y20213D02*
D03*
Y16213D02*
D03*
Y44213D02*
D03*
Y40213D02*
D03*
Y14213D02*
D03*
Y10213D02*
D03*
Y38213D02*
D03*
Y34213D02*
D03*
Y8213D02*
D03*
Y4213D02*
D03*
Y32213D02*
D03*
Y28213D02*
D03*
Y2213D02*
D03*
Y-1787D02*
D03*
X4024Y42713D02*
D03*
Y46713D02*
D03*
G54D14*
X-1476Y10713D02*
D03*
X8024Y39713D02*
D03*
G54D15*
X-1476Y11713D02*
D03*
X8024Y42713D02*
D03*
Y41713D02*
D03*
Y40713D02*
D03*
X-1476Y1213D02*
D03*
X1024Y44213D02*
D03*
G54D16*
X4024Y6713D02*
D03*
Y3713D02*
D03*
X-1476Y6713D02*
D03*
Y3713D02*
D03*
G54D17*
X8482Y4740D02*
D03*
Y5740D02*
D03*
G54D18*
X-1476Y40213D02*
D03*
X-476D02*
D03*
G54D19*
Y1213D02*
D03*
X24Y44213D02*
D03*
G54D20*
X-12476Y46713D02*
D03*
X-11476D02*
D03*
X-10476D02*
D03*
Y49713D02*
D03*
X-11476D02*
D03*
X-12476D02*
D03*
Y22713D02*
D03*
X-11476D02*
D03*
X-10476D02*
D03*
Y25713D02*
D03*
X-11476D02*
D03*
X-12476D02*
D03*
Y16713D02*
D03*
X-11476D02*
D03*
X-10476D02*
D03*
Y19713D02*
D03*
X-11476D02*
D03*
X-12476D02*
D03*
Y40713D02*
D03*
X-11476D02*
D03*
X-10476D02*
D03*
Y43713D02*
D03*
X-11476D02*
D03*
X-12476D02*
D03*
Y10713D02*
D03*
X-11476D02*
D03*
X-10476D02*
D03*
Y13713D02*
D03*
X-11476D02*
D03*
X-12476D02*
D03*
Y34713D02*
D03*
X-11476D02*
D03*
X-10476D02*
D03*
Y37713D02*
D03*
X-11476D02*
D03*
X-12476D02*
D03*
Y4713D02*
D03*
X-11476D02*
D03*
X-10476D02*
D03*
Y7713D02*
D03*
X-11476D02*
D03*
X-12476D02*
D03*
Y28713D02*
D03*
X-11476D02*
D03*
X-10476D02*
D03*
Y31713D02*
D03*
X-11476D02*
D03*
X-12476D02*
D03*
Y-1287D02*
D03*
X-11476D02*
D03*
X-10476D02*
D03*
Y1713D02*
D03*
X-11476D02*
D03*
X-12476D02*
D03*
G54D21*
X-1476Y32713D02*
D03*
Y31713D02*
D03*
Y30713D02*
D03*
Y29713D02*
D03*
Y28713D02*
D03*
Y27713D02*
D03*
Y26713D02*
D03*
Y25713D02*
D03*
Y24713D02*
D03*
Y23713D02*
D03*
Y22713D02*
D03*
Y21713D02*
D03*
Y20713D02*
D03*
Y18713D02*
D03*
X8524D02*
D03*
Y20713D02*
D03*
Y21713D02*
D03*
Y22713D02*
D03*
Y23713D02*
D03*
Y24713D02*
D03*
Y25713D02*
D03*
Y26713D02*
D03*
Y27713D02*
D03*
Y28713D02*
D03*
Y29713D02*
D03*
Y30713D02*
D03*
Y31713D02*
D03*
Y32713D02*
D03*
G54D22*
Y19713D02*
D03*
X-1476D02*
D03*
G54D23*
X-2476Y45213D02*
D03*
Y44213D02*
D03*
G54D24*
X-19449Y-3150D02*
D03*
X8504D02*
D03*
Y51968D02*
D03*
X-19449D02*
D03*
M02*
